<svg version="1.1" xmlns="http://www.w3.org/2000/svg" viewBox="0 0 2906.5 1881.2490844726558" width="2906.5" height="1881.2490844726558">
  <!-- svg-source:excalidraw -->
  
  <defs>
    <style class="style-fonts">
      @font-face {
        font-family: "Virgil";
        src: url("https://excalidraw.com/Virgil.woff2");
      }
      @font-face {
        font-family: "Cascadia";
        src: url("https://excalidraw.com/Cascadia.woff2");
      }
    </style>
  </defs>
  <rect x="0" y="0" width="2906.5" height="1881.2490844726558" fill="#ffffff"></rect><g stroke-linecap="round" transform="translate(61.25 10) rotate(0 207.5 170.62499999999994)"><path d="M31.65 80.52 C31.65 80.52, 31.65 80.52, 31.65 80.52 M31.65 80.52 C31.65 80.52, 31.65 80.52, 31.65 80.52 M23.76 97.3 C38.97 77.75, 53.66 60.9, 60.3 51.92 M24.15 96.46 C31.69 86.87, 40.67 75.87, 62.44 52.25 M14.8 111.55 C37.13 87.74, 58.88 63.46, 71.35 46.31 M14.77 111.43 C32.47 92.84, 48.29 72.92, 72.81 46.53 M7.25 124.62 C24.91 108.6, 40.02 89.33, 83.12 41.78 M9.49 125.49 C34.04 96.12, 60.02 68.49, 82.49 39.61 M5.69 131.9 C40 97.89, 69.79 59.89, 92.48 34.69 M6.1 133.43 C25.85 112.11, 43.27 91.72, 92.07 33.48 M3.73 139.57 C38.56 100.49, 74.24 62.95, 101.55 27.58 M4.58 141.77 C39.86 99.83, 76.7 58.5, 103.51 28.81 M2.99 148.42 C26.68 120.05, 51.46 91.9, 117.55 17.49 M4.76 148.45 C43.38 101.38, 83.04 55.33, 119.57 16.24 M2.41 158.31 C48.52 104.45, 96.45 50.62, 125.01 16.41 M1.29 156.1 C40.92 112.6, 79.82 68.68, 124.81 14.52 M-0.36 163.92 C52.42 106.85, 102.36 47.33, 133.65 14.03 M1.53 163.69 C32.42 128.95, 62.34 93.92, 133.02 12.38 M-1.7 172.01 C34.73 131.48, 69.66 92.73, 140.48 10.23 M-0.75 172.45 C32.81 133.38, 66.41 95.69, 139.87 11.75 M0.01 178.41 C40.67 129.67, 79.7 83.6, 148.14 10.02 M0.01 177.36 C38.4 134.72, 75.45 90.1, 147.23 8.58 M-0.34 183.9 C54.25 119.85, 110.21 54.15, 154.46 6.92 M0.64 182.56 C55.15 121.07, 107.18 59.93, 153.11 7.04 M3.62 188.62 C44.48 135.59, 88.22 85.91, 161.76 5.91 M1.63 186.96 C46.67 137.25, 89.11 88.49, 160.54 4.88 M1.79 191.32 C52.03 134.42, 101.06 75.53, 167.1 3.15 M4.13 192.87 C52.97 134.41, 103.79 76.45, 166.71 4.05 M4.07 196.69 C60.3 133.34, 114.97 68.49, 174.41 1.55 M3.69 196.67 C40.73 157.28, 76.19 116.29, 174.9 1.73 M5.31 201.66 C57.95 138.41, 114.31 76.82, 178.47 4.89 M6.07 202.07 C67.78 130.79, 129.95 59.54, 177.39 4.2 M5.69 205.72 C70.78 131.77, 136.12 56.21, 182.26 3.17 M7.18 207.29 C43.09 164.16, 81.05 121.81, 183.67 2.93 M6.08 212.59 C43.98 168.14, 83.34 126.05, 187.22 4.45 M7.79 212.63 C76.66 132.35, 147.27 51.97, 188.93 3.26 M8.47 218.09 C56.18 163.14, 100.79 111.15, 193.69 5.04 M8.02 217.45 C70.44 146.85, 129.57 77.57, 193.45 4.6 M9.44 220.76 C61.83 160.89, 111.17 103.41, 198.38 3.08 M9.76 220.45 C49.81 174.89, 91.47 126.42, 198.56 3.1 M10.87 224.26 C61.19 165.87, 111.38 108.01, 203.43 2.53 M12.51 225.16 C54.13 176.88, 96.31 128.41, 204.83 3.91 M15.24 227.03 C78.9 152.26, 144.91 79.16, 208.57 2.88 M14.8 228.77 C87 144.41, 158.84 62.12, 209.46 4.78 M17.66 231.76 C92 145.16, 167.51 56.75, 214.16 3.32 M16.93 231.52 C65.52 174.66, 116.88 116.47, 214.92 3.83 M17.95 236.77 C87.85 158.36, 154.48 81.04, 219.63 5.3 M17.94 235.97 C79.94 167.48, 140.45 97.96, 220.45 4.96 M19.96 240 C69.55 185.46, 116.8 130.94, 223.41 4.06 M21.38 239.14 C63.29 187.52, 106.63 138.18, 224.71 3.98 M23 243.15 C91.35 164.39, 162.53 84.87, 230.09 5.55 M22.28 243.1 C90.27 167.3, 156.73 90.02, 230.5 4.17 M24.79 245.84 C97.15 167.29, 166.05 87.07, 236.48 3.87 M24.7 246.22 C105.51 156.37, 184.92 63.84, 236.38 4.26 M26.49 250.55 C88.3 178.66, 149.71 108.66, 242.06 2.94 M26.66 251.54 C92.39 173.74, 159.12 98.42, 241.77 4.36 M29.84 254.16 C79.94 193.34, 133.16 136.13, 245.72 5.93 M29.11 253.94 C78.73 196.29, 130.83 138.48, 244.94 4.66 M31.02 258.46 C100.91 178.89, 171.1 97.74, 248.88 7.45 M30.81 258.21 C117.59 159.28, 205.04 59.13, 249.35 6.9 M31.79 261.64 C122.1 161.36, 209.4 58.61, 253.21 7.8 M33.06 262.07 C118.71 162.87, 204.71 63.56, 254.24 7.29 M35.79 265.98 C123.28 163.67, 212.81 60.18, 258.89 9.57 M34.57 265.96 C97.6 194.23, 160.36 123.35, 258.89 8.12 M38.84 268.64 C105.63 189.4, 174.63 111.98, 264.4 7.94 M38.2 269.04 C92.7 204.36, 149.14 140.41, 263.45 8.44 M40.17 270.9 C104.79 198.36, 169.32 123.2, 266.99 9.86 M40.55 270.97 C108.96 192.13, 176.82 113.37, 268.38 9.9 M44.54 273.08 C122.09 185.65, 199.41 94.77, 270.87 10.03 M43.96 273.4 C115.16 189.29, 188.16 104.93, 271.98 11.83 M46.92 277.68 C138.32 172.85, 228.87 68.3, 276.95 12.58 M46.17 277.03 C130.43 180.85, 215.13 82.77, 276.39 11.77 M48.63 279.26 C124.13 190.06, 199.83 104, 280.17 13.65 M50.23 279.25 C124.76 191.26, 201.61 102.19, 280.61 13.41 M53.63 281.6 C123.07 197.55, 196.71 112.51, 286.01 13.93 M52.93 281.45 C108.48 215.29, 164.69 149.8, 285.81 14.24 M56.07 284.99 C103.27 230.39, 149.67 175.76, 288.81 15.42 M56.02 284 C130.32 201.2, 202.98 116.85, 290.26 14.71 M59.98 287.87 C127.13 209.26, 195.09 131.07, 293.48 18.01 M58.52 287.1 C119.16 219.39, 177.69 150.61, 293.44 17.1 M61.6 289.66 C133.61 207.94, 204.32 126.8, 298.49 19.21 M61.44 289.67 C132.65 208.06, 204.37 124.77, 298.01 18.17 M63.86 292.28 C147.74 198.53, 228 105.51, 300.1 21.02 M65.27 292.73 C152.86 190.89, 242.23 89.04, 301.69 21.05 M69.02 295.38 C137.56 212.29, 208.44 132.13, 304.77 23.14 M68.29 294.47 C128.37 225.68, 187.51 157.24, 304.39 22.58 M70.24 297.86 C157.84 200.62, 242.86 101.75, 309.21 23.22 M70.5 297.44 C153.7 204.6, 234.9 109.83, 308.96 24.91 M74.63 300.68 C139.67 229.48, 202.61 154.92, 312.17 25.96 M74.35 299.83 C146.56 216.07, 219.34 131.1, 312.5 26.19 M77.17 303.38 C171.93 192.06, 267.09 82.58, 314.77 28.3 M77.34 302.63 C162.46 204.21, 248.48 104.78, 315.97 28.32 M81.81 303.57 C133.34 246.24, 183.55 187.35, 318.92 31.76 M81.02 305.23 C160.37 213.87, 239.01 123.19, 318.59 30.93 M83.54 305.76 C170.59 204.48, 261.21 103.76, 322.78 32.14 M84.06 306.01 C172.85 204.58, 261.02 101.86, 322.54 32.34 M88.31 309.31 C173.28 212.38, 256.07 114.83, 325.96 33.16 M87.58 307.78 C181.31 198.76, 275.65 91.22, 326.63 34.9 M91.35 310.74 C179.16 204.9, 269.07 101.54, 329.99 36.12 M92.04 310.56 C187.42 202.27, 281.38 94.02, 329.66 35.82 M94.47 312.3 C147.39 250.26, 199.74 188.34, 334.24 37.21 M94.92 312.47 C161.85 234.45, 227.42 158.12, 333.71 37.59 M97.71 315.42 C184.7 214.04, 270.44 114.19, 336.31 40.31 M98.43 315.09 C192.54 205.37, 286.53 96.76, 337.37 40.55 M100.82 315.48 C190.68 214.62, 277.48 113.59, 341.09 40.97 M102.6 316.88 C187.56 217.96, 273.87 118.87, 340.84 42.5 M104.94 317.94 C166.11 249.68, 225.45 182.23, 343.63 44.25 M105.56 318.43 C199.98 209.78, 294.93 100.4, 344.29 43.85 M109.8 319.22 C172.12 247.99, 235.1 176.44, 347.63 46.91 M109.87 320.94 C191.84 226.66, 274.29 132.95, 347.21 46.71 M112.84 323.35 C168.3 258.95, 223.88 197.19, 350.16 47.97 M112.67 321.99 C206.03 214.38, 298.84 107.92, 350.02 48.99 M117.06 324.61 C206.51 218.69, 298.73 115.12, 353.9 52.54 M116.44 324.49 C192.68 238.09, 267.73 151.38, 353.41 51.28 M120.1 326.72 C181.48 253.27, 244.66 181.91, 354.89 54.45 M120.38 326.2 C168.73 267.65, 219.69 209.37, 355.33 54.5 M124.65 327.94 C205.26 233.61, 287.78 141.26, 359.39 57.45 M123.69 327.41 C193.01 248.01, 264.01 167.23, 358.86 57.68 M128.05 329.5 C215.94 228.06, 301.91 130.78, 362.62 59.85 M128.85 328.54 C189.95 255.92, 252.05 184.87, 361.41 60.12 M134.13 329.74 C218.78 235.67, 301.37 139.8, 365.63 63.14 M133.53 329.27 C202.44 248.71, 272.64 167.94, 365.08 63.05 M138.79 331.5 C216.1 238.53, 296.21 148.88, 367.39 65.36 M137.65 330.05 C186.13 276.58, 233.64 220.83, 367.91 65.37 M141.3 330.94 C226.65 233.7, 308.71 138.3, 371.64 67.84 M142.41 331.15 C200.77 265.41, 256.9 199.82, 370.38 68.43 M146.04 332.49 C198.81 271.31, 251.34 209.53, 374.23 70.3 M146.43 332.61 C205.96 265.8, 263.57 198.73, 373.65 70.96 M150.5 332.8 C222.36 249.81, 293.48 168.89, 377.84 72.45 M151.13 333.65 C214.06 261.72, 276.29 190.53, 377.12 73.84 M154.71 335.35 C216.1 264.2, 277.2 191.29, 379.22 76.87 M155.66 334.81 C217.35 262.58, 279.22 190.65, 380.48 76.37 M159.7 334.23 C225.02 262.21, 288.38 189.65, 384.12 77.47 M159.6 334.77 C206.92 281.14, 254.71 225.31, 382.56 78.37 M163.94 337.29 C240.89 244.76, 322.04 154.24, 385.11 82.4 M164.56 336.9 C234.95 255.68, 303.68 175.37, 384.79 83.29 M167.58 337.97 C248.9 247.05, 326.05 156.57, 386.46 86.6 M168.21 336.83 C237.99 256.49, 308.47 175.73, 386.67 85.71 M174.36 338.6 C246.66 254.81, 318.48 170.67, 390.11 90.14 M172.49 338.47 C226.86 275.94, 279.75 216.01, 389.34 89.84 M176.25 339.31 C251.56 256.11, 325.53 167.5, 392.33 93.17 M177.11 339.96 C251.52 252.84, 326.74 166.85, 390.86 94.16 M182.56 339.56 C257.92 254.28, 332.43 169.62, 392.42 96.86 M182.31 341.26 C250.92 261.38, 318.73 183.05, 392.64 97.59 M188.71 339.77 C243.25 275.04, 300.75 210.38, 394.39 101.79 M186.88 340.15 C241.93 275.65, 296.4 213.47, 395.35 101.21 M192.61 339.93 C253.31 272.59, 310.62 206, 397.22 105.11 M192.1 341.17 C245.27 282.49, 295.67 224.48, 397.78 104.08 M198.4 341.49 C254.19 277.2, 309.06 214.28, 398.47 108.38 M197.31 340.6 C263.76 263.92, 330.38 186.93, 399.06 108.86 M204.23 340.82 C262.58 271.82, 323.3 203.17, 402.43 112.95 M203.06 340.31 C259.57 276.3, 316 209.81, 401.47 112.68 M209.21 340.27 C266.6 272.61, 324.83 205.31, 402.93 115.36 M208.56 341.68 C253.85 289.97, 298.31 237.45, 403.17 116.07 M213.48 342.73 C275.99 266.98, 340.45 194.21, 406.47 119.09 M212.91 341.93 C280.69 260.73, 349.09 180.72, 405.71 120.23 M219.6 342.36 C263.53 290.58, 308.41 237.44, 408.36 124.89 M218.41 340.94 C285.85 262.62, 352.27 186.25, 407.56 123.61 M223.56 340.33 C290.82 263.17, 356.91 185.18, 408.79 129.31 M222.85 341.62 C285.06 268.23, 348.59 195.53, 408.87 127.98 M228.09 340.95 C296.38 265.53, 363.53 185.9, 408.17 133.35 M228.89 341.05 C281.19 281.75, 334.46 222.23, 409.52 132.72 M233.66 340.56 C299.99 265.46, 364.07 190.96, 409.39 138.4 M234.58 341.29 C300.98 265.63, 365.03 191.13, 410.22 138.05 M240.6 341.53 C296.52 276.21, 349.01 214.27, 411.21 144.19 M239.1 340.37 C299.94 273.46, 358.09 204.39, 411.89 143.67 M248.12 337.86 C311.66 267.19, 373.57 195.95, 411.59 149.04 M246.36 338.81 C302.04 274.16, 357.86 209.78, 413.44 147.33 M253.16 336.8 C300.93 281.62, 349.07 226.4, 413.04 151.74 M253.45 337.32 C291.13 293.88, 326.42 252.51, 413.37 152.35 M259.89 333.74 C318.2 269.34, 378.06 202.33, 413.47 158.69 M261.04 334.74 C323.42 266.57, 384.18 194.47, 414.16 158.23 M269.2 333.72 C306.42 289.01, 343.84 245.63, 414.71 162.67 M268.28 333.21 C319.89 272.81, 372.48 212.83, 415.98 163.14 M273.55 330 C306.92 294.09, 341.85 252.79, 414.52 168.7 M274.5 330.85 C311.6 288.84, 347.35 246.98, 415.56 169.76 M281.65 328.25 C328.61 276.57, 374.3 222.91, 414.52 176.11 M282.14 328.78 C329.64 274.98, 376.06 222.1, 413.88 176.32 M289.8 328.26 C336.45 269.1, 389.5 212.35, 414.27 186.54 M288.13 327.04 C323.25 285.57, 358.95 244.81, 412.67 184.35 M296.02 326.49 C327.24 291.1, 356.92 256.4, 410.03 192.65 M296.46 324.21 C339.75 276.94, 379.85 229.15, 411.99 193.09 M304.44 321.32 C341.6 276.82, 380.69 235.49, 411.95 198.91 M305.91 319.42 C328.01 292.62, 350.2 266.87, 410.96 199.58 M315.03 313.6 C343.15 284.56, 368.95 254.11, 408.38 206.08 M316.36 314.59 C344.31 280.87, 373.1 247.11, 410.09 208.14 M328.08 309.6 C353.72 275.32, 386.01 241.39, 408.36 213.3 M326.93 308.23 C342.88 287.85, 361.4 267.45, 408.45 214.23 M338.14 305 C351.17 285.13, 368.85 264.96, 410.91 218.07 M336.62 303.35 C355.41 281.46, 374.04 258.25, 410.62 219.31 M346.62 297.07 C364.45 274.76, 383.91 252.46, 401.21 235.49 M346.5 298.38 C359.06 282.34, 372.5 267.38, 401.45 235.94" stroke="#4c6ef5" stroke-width="0.5" fill="none"></path><path d="M175.87 1.27 C193.86 -3.45, 215.84 0.27, 235.05 2.47 C254.25 4.67, 273.33 7.95, 291.09 14.44 C308.84 20.93, 326.73 31.06, 341.58 41.41 C356.42 51.76, 369.55 63.23, 380.14 76.54 C390.73 89.85, 399.28 105.74, 405.11 121.26 C410.95 136.79, 414.72 153.89, 415.16 169.68 C415.6 185.47, 413.18 200.78, 407.75 215.99 C402.32 231.21, 392.9 247.4, 382.59 260.98 C372.28 274.55, 360.4 286.83, 345.9 297.46 C331.41 308.09, 313.36 317.65, 295.62 324.76 C277.87 331.87, 258.73 337.74, 239.45 340.1 C220.18 342.47, 199.46 341.26, 179.96 338.94 C160.47 336.61, 140.12 332.6, 122.48 326.18 C104.83 319.75, 88.9 310.61, 74.08 300.39 C59.26 290.17, 44.5 278.33, 33.57 264.84 C22.64 251.36, 14.22 234.98, 8.49 219.49 C2.76 204, -0.74 187.63, -0.81 171.91 C-0.89 156.18, 2.61 140.37, 8.02 125.14 C13.42 109.92, 21.23 94.14, 31.62 80.56 C42 66.98, 55.81 54.27, 70.31 43.69 C84.8 33.11, 96.97 24.3, 118.58 17.08 C140.19 9.86, 182.62 2.73, 199.97 0.37 C217.32 -1.99, 222.71 -0.02, 222.67 2.91 M119.79 15.34 C135 6.39, 157.89 4.91, 177.28 2.51 C196.66 0.12, 217.04 -0.91, 236.12 0.96 C255.2 2.84, 274.21 6.84, 291.74 13.79 C309.28 20.73, 326.13 31.96, 341.3 42.63 C356.47 53.29, 371.9 64.41, 382.77 77.78 C393.65 91.16, 401.11 107.49, 406.55 122.89 C411.98 138.29, 415.33 154.11, 415.38 170.18 C415.43 186.24, 412.56 204.04, 406.83 219.27 C401.1 234.49, 391.51 248.26, 381.01 261.52 C370.5 274.78, 358.4 288.26, 343.8 298.85 C329.2 309.44, 310.99 318.44, 293.41 325.05 C275.83 331.66, 257.61 336.28, 238.35 338.52 C219.09 340.75, 197.12 340.63, 177.85 338.48 C158.59 336.32, 140.26 331.84, 122.74 325.57 C105.23 319.31, 87.48 311.25, 72.76 300.88 C58.04 290.51, 45.31 276.72, 34.44 263.34 C23.57 249.96, 13.28 235.95, 7.53 220.61 C1.78 205.27, -0.2 187.78, -0.07 171.31 C0.06 154.84, 2.76 136.96, 8.32 121.8 C13.87 106.63, 22.64 93.83, 33.27 80.32 C43.9 66.8, 57.78 51.49, 72.11 40.73 C86.44 29.97, 110.87 19.26, 119.24 15.75 C127.61 12.23, 120.67 17.04, 122.32 19.63" stroke="#000000" stroke-width="1" fill="none"></path></g><g transform="translate(209.25 157.62499999999994) rotate(0 59.5 23)"><text x="59.5" y="32" font-family="Virgil, Segoe UI Emoji" font-size="36px" fill="#000000" text-anchor="middle" style="white-space: pre;" direction="ltr">create</text></g><g stroke-linecap="round"><g transform="translate(282.8626918129339 356.01120951744247) rotate(0 2.0715373089105924 71.30048850555804)"><path d="M0.52 -0.67 C1.05 23.16, 2.25 118.22, 2.7 142.25 M-0.66 1.6 C0.25 25.6, 4.35 119.37, 4.81 143.27" stroke="#000000" stroke-width="1" fill="none"></path></g><g transform="translate(282.8626918129339 356.01120951744247) rotate(0 2.0715373089105924 71.30048850555804)"><path d="M-7.49 113.51 C-5.26 121.59, -0.22 131.65, 4.55 144.54 M-5.49 116.37 C-2.17 125.45, 0.44 134.1, 5.56 142.4" stroke="#000000" stroke-width="1" fill="none"></path></g><g transform="translate(282.8626918129339 356.01120951744247) rotate(0 2.0715373089105924 71.30048850555804)"><path d="M13.02 112.84 C9.86 121.18, 9.52 131.41, 4.55 144.54 M15.02 115.69 C11.45 124.86, 7.15 133.73, 5.56 142.4" stroke="#000000" stroke-width="1" fill="none"></path></g></g><g stroke-linecap="round" transform="translate(10 501.24999999999994) rotate(0 287 46.5)"><path d="M0.09 -0.11 C128.26 -1.44, 257.78 -2.3, 573.62 0.54 M-0.28 0.19 C145.81 1.32, 291.12 1.41, 574.06 -0.37 M574.3 0.74 C571.93 22.18, 572.34 43.06, 572.14 93.92 M573.19 -0.03 C573.48 33.74, 574.15 64.86, 573.42 93.66 M574.47 92.69 C354.25 91.62, 134.44 91.34, 0.07 92.33 M573.87 92.82 C356.39 91.84, 138.84 91.8, 0.09 93.21 M-1.29 93.05 C-1.28 56.99, -0.31 25.9, -1.55 1.61 M0.66 92.39 C1 68.55, 1.08 44.02, 0.65 0.14" stroke="#000000" stroke-width="1" fill="none"></path></g><g transform="translate(110 524.75) rotate(0 187 23)"><text x="187" y="32" font-family="Virgil, Segoe UI Emoji" font-size="36px" fill="#000000" text-anchor="middle" style="white-space: pre;" direction="ltr">container_create_cb</text></g><g stroke-linecap="round"><g transform="translate(287.7631775039881 596.2971537110216) rotate(0 -1.3957570445236342 70.15953460167204)"><path d="M0.38 0.93 C-0.1 23.94, -1.95 115.4, -2.6 138.54 M-0.89 0.38 C-1.47 23.52, -2.58 117.01, -3.17 139.94" stroke="#000000" stroke-width="1" fill="none"></path></g><g transform="translate(287.7631775039881 596.2971537110216) rotate(0 -1.3957570445236342 70.15953460167204)"><path d="M-11.37 112.79 C-10.14 120.29, -4.96 129.45, -3.9 140.16 M-12.23 112.25 C-10.21 119.07, -8.4 124.91, -3.55 140.03" stroke="#000000" stroke-width="1" fill="none"></path></g><g transform="translate(287.7631775039881 596.2971537110216) rotate(0 -1.3957570445236342 70.15953460167204)"><path d="M9.15 113.16 C3.82 120.6, 2.46 129.65, -3.9 140.16 M8.28 112.61 C5.21 119.2, 1.91 124.94, -3.55 140.03" stroke="#000000" stroke-width="1" fill="none"></path></g></g><g stroke-linecap="round" transform="translate(11.25 736.2499999999998) rotate(0 294 41)"><path d="M0.69 -0.72 C179.83 2.4, 360.82 1.67, 588.12 0.74 M-0.12 -0.01 C124.12 -1.57, 247.66 -1.92, 588.4 -0.36 M587.68 -0.66 C587.48 29.81, 588.51 55.67, 586.22 83.58 M587.16 0.67 C587.84 26.01, 589.2 50.38, 587.46 81.73 M588.06 82.21 C421.99 81.21, 257.17 80.84, -0.65 82.23 M588.25 81.77 C444.49 79.82, 301.16 80.4, -0.17 81.78 M0.18 83.57 C-0.98 63.63, -0.11 46.44, -0.16 -1.74 M-0.46 82.54 C1.48 61.85, 0.3 42.27, 0.12 0.18" stroke="#000000" stroke-width="1" fill="none"></path></g><g transform="translate(52.75 754.2499999999998) rotate(0 252.5 23)"><text x="252.5" y="32" font-family="Virgil, Segoe UI Emoji" font-size="36px" fill="#000000" text-anchor="middle" style="white-space: pre;" direction="ltr">get_request_container_info</text></g><g stroke-linecap="round"><g transform="translate(607.5 786.2499999999998) rotate(0 81.22281774841304 -1.8953880278207365)"><path d="M-0.42 -0.72 C26.55 -1.68, 135.71 -4.71, 162.86 -5.31 M1.56 1.52 C28.31 0.69, 135.4 -2.63, 162.1 -3.94" stroke="#000000" stroke-width="1" fill="none"></path></g><g transform="translate(607.5 786.2499999999998) rotate(0 81.22281774841304 -1.8953880278207365)"><path d="M133.14 8.01 C144.55 3.14, 156.97 -2.28, 161.01 -3.22 M134.12 6.64 C144.33 2.78, 154.63 -0.13, 161.85 -4.71" stroke="#000000" stroke-width="1" fill="none"></path></g><g transform="translate(607.5 786.2499999999998) rotate(0 81.22281774841304 -1.8953880278207365)"><path d="M132.34 -12.5 C144.14 -9.41, 156.88 -6.86, 161.01 -3.22 M133.32 -13.87 C143.69 -10.35, 154.27 -5.87, 161.85 -4.71" stroke="#000000" stroke-width="1" fill="none"></path></g></g><g stroke-linecap="round" transform="translate(773.5 745.2499999999998) rotate(0 294 41)"><path d="M-0.11 0.05 C199.18 0.33, 399.06 0.64, 588.51 -0.38 M-0.39 0.26 C234.21 -1.4, 468.65 -1.43, 588.06 0.2 M587.87 -1.59 C588.42 32.21, 588.68 61.97, 589.2 81.59 M587.62 0.31 C588.83 25.11, 587.46 51.02, 588.93 81.16 M587.3 82.08 C411.45 80.64, 233.34 80.26, 0.48 82.76 M587.85 81.87 C367.07 83.28, 146.2 82.6, -0.25 81.76 M1.38 82.51 C-0.02 66.43, 1.12 48.32, -0.81 -1.56 M0.04 82.13 C-1.04 56.08, -0.41 28.97, 0.25 0.75" stroke="#000000" stroke-width="1" fill="none"></path></g><g transform="translate(865 763.2499999999998) rotate(0 202.5 23)"><text x="202.5" y="32" font-family="Virgil, Segoe UI Emoji" font-size="36px" fill="#000000" text-anchor="middle" style="white-space: pre;" direction="ltr">create_request_check</text></g><g stroke-linecap="round" transform="translate(1514.7499999999964 747.7499999999998) rotate(0 294 41)"><path d="M-0.62 -0.49 C200.31 1.2, 401.16 0.53, 588.04 0.48 M-0.01 0.12 C206.27 -1.33, 412.43 -0.81, 588.23 -0.07 M587.37 -1.9 C589.52 19.46, 587.87 41.39, 589.93 82.75 M587.27 -0.96 C588.81 18.56, 589.06 38.6, 588.95 81.48 M587.31 81.69 C378.85 82.26, 171.56 81.88, 0.58 82.09 M587.65 81.83 C377.52 82.46, 167.05 82.22, 0.31 81.61 M-0.45 83.26 C-0.26 63.25, 0.6 48.22, -1.42 1.8 M-0.8 82.44 C0.39 54.71, -0.12 24.58, -0.24 -0.62" stroke="#000000" stroke-width="1" fill="none"></path></g><g transform="translate(1614.2499999999964 765.7499999999998) rotate(0 194.5 23)"><text x="194.5" y="32" font-family="Virgil, Segoe UI Emoji" font-size="36px" fill="#000000" text-anchor="middle" style="white-space: pre;" direction="ltr">maintain_container_id</text></g><g stroke-linecap="round"><g transform="translate(1363.75 783.7499999999998) rotate(0 75.59083616679436 -0.07626084393869803)"><path d="M0.93 1.16 C25.94 1.21, 124.03 0.63, 149.03 0.53 M-0.04 0.72 C25.42 0.4, 126.12 -0.95, 151.23 -1.31" stroke="#000000" stroke-width="1" fill="none"></path></g><g transform="translate(1363.75 783.7499999999998) rotate(0 75.59083616679436 -0.07626084393869803)"><path d="M125.11 7.71 C130.03 8.34, 136.06 3.56, 152.27 -2.67 M124.08 9.54 C130.9 6.72, 140.76 2.56, 150.41 -0.41" stroke="#000000" stroke-width="1" fill="none"></path></g><g transform="translate(1363.75 783.7499999999998) rotate(0 75.59083616679436 -0.07626084393869803)"><path d="M124.82 -12.81 C129.84 -7.81, 135.93 -8.21, 152.27 -2.67 M123.8 -10.97 C130.52 -7.52, 140.47 -5.4, 150.41 -0.41" stroke="#000000" stroke-width="1" fill="none"></path></g></g><g stroke-linecap="round"><g transform="translate(2106.249999999998 786.2499999999998) rotate(0 71.83017681444107 -0.36802008341514636)"><path d="M0.22 -0.24 C24.3 -0.48, 120.53 -0.69, 144.79 -0.56 M-1.13 -1.41 C22.75 -1.57, 119.3 0.71, 143.73 0.68" stroke="#000000" stroke-width="1" fill="none"></path></g><g transform="translate(2106.249999999998 786.2499999999998) rotate(0 71.83017681444107 -0.36802008341514636)"><path d="M115.02 10.23 C123.64 8.62, 134.67 5.38, 143.65 1.87 M116.14 11.55 C122.99 8.58, 131.11 5.47, 144.65 1.01" stroke="#000000" stroke-width="1" fill="none"></path></g><g transform="translate(2106.249999999998 786.2499999999998) rotate(0 71.83017681444107 -0.36802008341514636)"><path d="M115.27 -10.29 C123.96 -5.2, 134.9 -1.75, 143.65 1.87 M116.39 -8.97 C123.06 -6.31, 131.12 -3.79, 144.65 1.01" stroke="#000000" stroke-width="1" fill="none"></path></g></g><g stroke-linecap="round" transform="translate(2264.75 745.2499999999999) rotate(0 294 41)"><path d="M-0.27 0.52 C231.39 1.28, 460.82 1.21, 588.02 0.27 M0.24 -0.36 C231.38 0.7, 463.69 0.67, 588.2 -0.01 M588.02 0.9 C589.28 28.2, 588.33 55.95, 588.77 83.93 M588.4 -0.52 C588.92 21.01, 588.95 39.69, 587.62 82.62 M587.27 82.1 C409.51 81.64, 231.99 82.31, 0.27 81.81 M588.26 81.97 C425.76 81.28, 262.61 81.78, -0.08 81.78 M-1.03 80.19 C1.16 55.09, -1.51 26.81, 1.52 -1.58 M-0.66 82.38 C1.38 52.65, 0.71 23.68, 0.62 -0.74" stroke="#000000" stroke-width="1" fill="none"></path></g><g transform="translate(2410.75 763.2499999999999) rotate(0 148 23)"><text x="148" y="32" font-family="Virgil, Segoe UI Emoji" font-size="36px" fill="#000000" text-anchor="middle" style="white-space: pre;" direction="ltr">try_generate_id</text></g><g stroke-linecap="round"><g transform="translate(2553.749999999998 842.4999999999999) rotate(0 0.8899317201221493 31.410605267919536)"><path d="M-0.89 0.3 C-0.41 10.53, 2.19 51.87, 2.67 62.09 M0.84 -0.59 C1.2 9.74, 1.8 52.91, 1.81 63.41" stroke="#000000" stroke-width="1" fill="none"></path></g><g transform="translate(2553.749999999998 842.4999999999999) rotate(0 0.8899317201221493 31.410605267919536)"><path d="M-8.2 35.59 C-6.24 42.47, -4.1 51.02, 1.93 63.34 M-9.04 34.71 C-5.21 44.17, -1.67 52.92, 1.64 62.69" stroke="#000000" stroke-width="1" fill="none"></path></g><g transform="translate(2553.749999999998 842.4999999999999) rotate(0 0.8899317201221493 31.410605267919536)"><path d="M12.32 35.41 C8.46 42.19, 4.78 50.79, 1.93 63.34 M11.48 34.52 C9.02 43.87, 6.29 52.67, 1.64 62.69" stroke="#000000" stroke-width="1" fill="none"></path></g></g><g stroke-linecap="round" transform="translate(2295.9999999999964 913.9999999999998) rotate(0 294 41)"><path d="M0.19 0.45 C134.45 1.07, 267.75 0.85, 588.55 0.5 M0.02 0.17 C167.46 -0.54, 334.75 -0.57, 588.13 -0.1 M586.45 -0.22 C586.7 28.92, 587.6 56.78, 587.68 83.82 M587.18 0.84 C589.37 24.44, 588.63 47.47, 587.54 81.75 M588.01 82.46 C456.14 80.98, 322.39 82.44, -0.54 81.47 M587.95 81.98 C451.11 83.09, 315.1 83.58, -0.04 81.87 M1.21 81.8 C1.16 51.09, 0.99 19.75, 1.81 0.56 M-0.26 81.08 C-0.28 51.37, 0.37 19.27, -0.39 -0.83" stroke="#000000" stroke-width="1" fill="none"></path></g><g transform="translate(2353.9999999999964 931.9999999999998) rotate(0 236 23)"><text x="236" y="32" font-family="Virgil, Segoe UI Emoji" font-size="36px" fill="#000000" text-anchor="middle" style="white-space: pre;" direction="ltr">util_valid_container_name</text></g><g stroke-linecap="round"><g transform="translate(2567.8609729452055 1018.9004739336491) rotate(0 0.2562506608910553 21.301045978459513)"><path d="M0.45 -0.63 C0.66 6.67, 1.04 36.09, 1.29 43.23 M-0.78 1.65 C-0.68 8.62, 0.14 34.34, 0.56 41.26" stroke="#000000" stroke-width="1" fill="none"></path></g><g transform="translate(2567.8609729452055 1018.9004739336491) rotate(0 0.2562506608910553 21.301045978459513)"><path d="M-8.73 22.11 C-4.83 29.13, -4.03 31.83, -1.29 41.55 M-8.42 20.79 C-5.44 26.57, -4.73 31.29, 0.58 41.88" stroke="#000000" stroke-width="1" fill="none"></path></g><g transform="translate(2567.8609729452055 1018.9004739336491) rotate(0 0.2562506608910553 21.301045978459513)"><path d="M5.95 21.46 C5.44 28.73, 1.83 31.62, -1.29 41.55 M6.26 20.14 C5.94 26.08, 3.36 30.95, 0.58 41.88" stroke="#000000" stroke-width="1" fill="none"></path></g></g><g stroke-linecap="round" transform="translate(2308.5 1084.7499999999998) rotate(0 294 75.5)"><path d="M0.28 0.19 C148.65 0.76, 295.28 0.5, 588.12 -0.6 M-0.25 0.17 C165.09 1.46, 330.01 1.76, 588.25 0.08 M587.81 -1.1 C588.97 32.77, 587.78 61.55, 589.74 149.8 M587.37 0.5 C589.57 57.36, 588.31 115.98, 588.14 151.94 M587.72 151.41 C437.69 153.02, 285.66 153.17, 0.48 151.03 M588.3 151.22 C378.86 149.54, 170.01 149.33, 0.39 150.7 M-1.32 151.43 C-1.88 95.43, 1.44 37.79, -0.13 0.01 M-0.28 150.72 C0.29 109.38, 1.34 67.8, -0.58 -0.45" stroke="#000000" stroke-width="1" fill="none"></path></g><g transform="translate(2321 1114.2499999999998) rotate(0 281.5 46)"><text x="281.5" y="32" font-family="Virgil, Segoe UI Emoji" font-size="36px" fill="#000000" text-anchor="middle" style="white-space: pre;" direction="ltr">container_name_index_add:防止</text><text x="281.5" y="78" font-family="Virgil, Segoe UI Emoji" font-size="36px" fill="#000000" text-anchor="middle" style="white-space: pre;" direction="ltr">名称相同的container创建</text></g><g stroke-linecap="round"><g transform="translate(288.75 839.9999999999999) rotate(0 0.15134983100051613 63.15769219957289)"><path d="M-1.09 -0.59 C-0.75 20.65, 1 105.94, 1.39 126.91 M0.54 1.71 C0.79 22.66, 0.52 104.41, 0.52 125.13" stroke="#000000" stroke-width="1" fill="none"></path></g><g transform="translate(288.75 839.9999999999999) rotate(0 0.15134983100051613 63.15769219957289)"><path d="M-10.68 97.16 C-6.22 103.99, -6.48 111.79, 2.48 123.97 M-9.13 97.78 C-7.61 101.94, -6.17 109.13, 0.06 124.43" stroke="#000000" stroke-width="1" fill="none"></path></g><g transform="translate(288.75 839.9999999999999) rotate(0 0.15134983100051613 63.15769219957289)"><path d="M9.84 97.2 C9.26 103.83, 3.96 111.62, 2.48 123.97 M11.39 97.81 C8.63 101.84, 5.8 109.01, 0.06 124.43" stroke="#000000" stroke-width="1" fill="none"></path></g></g><g transform="translate(252.5 992.7499999999998) rotate(0 30.5 23)"><text x="0" y="32" font-family="Virgil, Segoe UI Emoji" font-size="36px" fill="#000000" text-anchor="start" style="white-space: pre;" direction="ltr">......</text></g><g stroke-linecap="round"><g transform="translate(282.5 1082.4999999999998) rotate(0 -0.05956852409963176 57.030970007237045)"><path d="M-0.8 -0.52 C-0.8 18.34, -0.22 94.09, -0.1 113.28 M0.98 1.83 C0.82 20.83, -0.79 96.09, -1.1 114.58" stroke="#000000" stroke-width="1" fill="none"></path></g><g transform="translate(282.5 1082.4999999999998) rotate(0 -0.05956852409963176 57.030970007237045)"><path d="M-11.67 86.04 C-8.72 94.41, -3.63 104.1, -1.31 115.9 M-10.21 85.22 C-9.01 93.92, -6.74 101.75, -1.9 113.81" stroke="#000000" stroke-width="1" fill="none"></path></g><g transform="translate(282.5 1082.4999999999998) rotate(0 -0.05956852409963176 57.030970007237045)"><path d="M8.84 86.43 C5.83 94.55, 4.95 104.13, -1.31 115.9 M10.31 85.62 C6.14 94.26, 3.04 101.99, -1.9 113.81" stroke="#000000" stroke-width="1" fill="none"></path></g></g><g stroke-linecap="round" transform="translate(47.25 1211.4999999999998) rotate(0 294 41)"><path d="M-0.59 0.22 C169.49 1.09, 337.93 2.04, 587.63 -0.32 M0 -0.15 C191.69 -0.55, 384.22 -0.46, 588.16 0.08 M587.69 1.96 C589.97 28.45, 587.77 53.92, 589.89 82.88 M587.72 0.08 C587.39 16.33, 588.76 33.76, 588.75 81.51 M587.56 82.21 C436.15 81.86, 285.06 82.93, 0.69 82.78 M587.9 82.2 C436.71 82.62, 285.45 83.02, 0.08 82.12 M-1.1 83.44 C0.97 61.63, 0.11 40.65, 0.62 -1.06 M-0.39 82.38 C0.29 59.39, 0.3 38.82, 0.51 0.26" stroke="#000000" stroke-width="1" fill="none"></path></g><g transform="translate(133.75 1229.4999999999998) rotate(0 207.5 23)"><text x="207.5" y="32" font-family="Virgil, Segoe UI Emoji" font-size="36px" fill="#000000" text-anchor="middle" style="white-space: pre;" direction="ltr">register_new_container</text></g><g stroke-linecap="round"><g transform="translate(651.25 1252.4999999999998) rotate(0 71.88138503513346 -2.135581781929318)"><path d="M0.43 0.05 C24.38 -0.33, 120.49 -2.08, 144.56 -2.73 M-0.8 -0.98 C22.98 -1.62, 119.79 -4.04, 144.04 -4.32" stroke="#000000" stroke-width="1" fill="none"></path></g><g transform="translate(651.25 1252.4999999999998) rotate(0 71.88138503513346 -2.135581781929318)"><path d="M116.12 7.83 C128.3 4.2, 136.9 -1.54, 142.24 -4.34 M115.59 6.13 C123.7 4.25, 132.62 1.32, 144.87 -4.54" stroke="#000000" stroke-width="1" fill="none"></path></g><g transform="translate(651.25 1252.4999999999998) rotate(0 71.88138503513346 -2.135581781929318)"><path d="M115.73 -12.68 C127.97 -8.62, 136.71 -6.64, 142.24 -4.34 M115.19 -14.39 C123.31 -10.41, 132.34 -7.48, 144.87 -4.54" stroke="#000000" stroke-width="1" fill="none"></path></g></g><g transform="translate(1021.2500000000018 1201.4999999999998) rotate(0 30.5 23)"><text x="0" y="32" font-family="Virgil, Segoe UI Emoji" font-size="36px" fill="#000000" text-anchor="start" style="white-space: pre;" direction="ltr">......</text></g><g stroke-linecap="round"><g transform="translate(1053.7499999999982 1301.2499999999998) rotate(0 -1.550844151196543 53.11420184576872)"><path d="M0.06 0.69 C-0.41 18.42, -1.71 87.52, -2.31 105.23 M-1.37 0 C-2.02 17.95, -3.19 88.73, -3.16 106.23" stroke="#000000" stroke-width="1" fill="none"></path></g><g transform="translate(1053.7499999999982 1301.2499999999998) rotate(0 -1.550844151196543 53.11420184576872)"><path d="M-12.01 78.26 C-11.73 85.83, -5.43 98.37, -3.62 105.25 M-12.17 78.54 C-9.32 88.91, -4.59 100.16, -2.53 106.21" stroke="#000000" stroke-width="1" fill="none"></path></g><g transform="translate(1053.7499999999982 1301.2499999999998) rotate(0 -1.550844151196543 53.11420184576872)"><path d="M8.51 78.45 C1.79 85.97, 1.08 98.44, -3.62 105.25 M8.35 78.73 C3.04 88.87, -0.4 100.04, -2.53 106.21" stroke="#000000" stroke-width="1" fill="none"></path></g></g><g stroke-linecap="round" transform="translate(804.75 1432.7499999999998) rotate(0 294 41)"><path d="M0.71 -0.33 C136.18 -0.41, 272.42 -0.39, 588.28 -0.23 M0.18 -0.02 C123.1 2.24, 246.34 1.92, 588.36 -0.3 M589.27 0.54 C589.73 19.39, 589.34 42.39, 586.06 82.26 M587.09 0.22 C587.01 32.7, 586.35 64.48, 588.7 82.23 M587.6 81.69 C395.3 83.86, 203.52 82.34, -0.65 81.25 M587.77 81.71 C435.47 81.85, 283.36 82.27, -0.12 82.31 M-0.08 80.39 C-2.4 49.59, 0.76 22.27, 0.86 1.78 M0.31 81.63 C0.49 53.66, -0.37 24.87, -0.52 0.92" stroke="#000000" stroke-width="1" fill="none"></path></g><g transform="translate(891.25 1450.7499999999998) rotate(0 207.5 23)"><text x="207.5" y="32" font-family="Virgil, Segoe UI Emoji" font-size="36px" fill="#000000" text-anchor="middle" style="white-space: pre;" direction="ltr">register_new_container</text></g><g stroke-linecap="round"><g transform="translate(1399.4004622278972 1459.9686089616046) rotate(0 53.500054489244576 -0.06259506852626373)"><path d="M0.01 -1.06 C18.16 -1.25, 90.35 -0.92, 108.44 -0.57 M-1.44 0.99 C16.63 0.92, 89.49 1.01, 107.75 0.72" stroke="#000000" stroke-width="1" fill="none"></path></g><g transform="translate(1399.4004622278972 1459.9686089616046) rotate(0 53.500054489244576 -0.06259506852626373)"><path d="M77.85 11.97 C86.21 9.42, 96.24 4.42, 109.61 -0.07 M79.65 11.24 C90.66 6.4, 100.81 2.69, 107.82 1.19" stroke="#000000" stroke-width="1" fill="none"></path></g><g transform="translate(1399.4004622278972 1459.9686089616046) rotate(0 53.500054489244576 -0.06259506852626373)"><path d="M77.72 -8.55 C86.21 -5.69, 96.27 -5.29, 109.61 -0.07 M79.52 -9.29 C90.68 -6.35, 100.87 -2.28, 107.82 1.19" stroke="#000000" stroke-width="1" fill="none"></path></g></g><g stroke-linecap="round" transform="translate(1512.5002670288068 1390.7492828369138) rotate(0 351 63.5)"><path d="M0.48 0.69 C202.16 1.36, 405.52 1.85, 702.03 -0.37 M-0.29 0.36 C222.75 -3.04, 446.24 -2.43, 702.07 0.31 M703.25 1.79 C701.38 49.37, 703.79 97.04, 700.12 126.42 M702.47 -0.64 C701.81 50.19, 701.79 100.27, 702.46 126.74 M701.69 127.7 C473.56 124.62, 245.83 124.7, 0 127.78 M701.62 126.87 C494.56 124.94, 287.45 124.89, -0.01 126.8 M-0.71 127.36 C1.17 76.92, -0.57 26.56, -0.81 -1.26 M0.36 127.02 C0.24 90.26, 1.21 53.91, -0.76 -0.52" stroke="#000000" stroke-width="1" fill="none"></path></g><g transform="translate(1526.0002670288068 1408.2492828369138) rotate(0 337.5 46)"><text x="337.5" y="32" font-family="Virgil, Segoe UI Emoji" font-size="36px" fill="#000000" text-anchor="middle" style="white-space: pre;" direction="ltr">container_to_disk_locking：获得conf-&gt;</text><text x="337.5" y="78" font-family="Virgil, Segoe UI Emoji" font-size="36px" fill="#000000" text-anchor="middle" style="white-space: pre;" direction="ltr">mutex之后保存容器的信息</text></g><g stroke-linecap="round"><g transform="translate(1807.903704175782 1535.2491760253902) rotate(0 -1.8810528740423251 41.86458585087206)"><path d="M-0.56 -0.34 C-1.39 13.81, -3.72 69.93, -4.18 83.84 M1.35 -1.56 C0.3 12.88, -4.28 71.04, -5.11 85.29" stroke="#000000" stroke-width="1" fill="none"></path></g><g transform="translate(1807.903704175782 1535.2491760253902) rotate(0 -1.8810528740423251 41.86458585087206)"><path d="M-13.93 56.5 C-10.89 68.45, -9.13 79.24, -3.44 84.57 M-14.25 57.34 C-11.12 62.66, -8.84 69.22, -6.1 84.6" stroke="#000000" stroke-width="1" fill="none"></path></g><g transform="translate(1807.903704175782 1535.2491760253902) rotate(0 -1.8810528740423251 41.86458585087206)"><path d="M6.54 57.94 C2.12 69.27, -3.59 79.54, -3.44 84.57 M6.22 58.77 C4.99 63.63, 2.91 69.88, -6.1 84.6" stroke="#000000" stroke-width="1" fill="none"></path></g></g><g stroke-linecap="round" transform="translate(1489.3005752563458 1631.2490844726558) rotate(0 361.5 120)"><path d="M0.59 -0.04 C164.31 0.39, 329 0.4, 723.75 -0.08 M0.2 -0.06 C200.55 0.95, 400.63 1.14, 722.73 -0.2 M722.5 0.31 C720.11 66.3, 721.1 133.39, 722.46 241.18 M723.59 0.53 C722.49 84.16, 723.58 168.18, 722.24 239.57 M723.77 239.65 C553.51 236.65, 384.39 237.2, 0.14 240.01 M723.02 240.22 C576.31 240.18, 429.42 240.23, 0.16 240.13 M1.63 240.89 C0.63 172.06, -1.06 105.05, -0.83 1 M0.13 240.8 C-0.16 170.49, 0.7 101.45, -0.65 0.38" stroke="#000000" stroke-width="1" fill="none"></path></g><g transform="translate(1505.8005752563458 1699.7490844726558) rotate(0 345 46)"><text x="345" y="32" font-family="Virgil, Segoe UI Emoji" font-size="36px" fill="#000000" text-anchor="middle" style="white-space: pre;" direction="ltr">containers_store_add：map_replace将</text><text x="345" y="78" font-family="Virgil, Segoe UI Emoji" font-size="36px" fill="#000000" text-anchor="middle" style="white-space: pre;" direction="ltr">容器登记到全局的memory_store的map中</text></g></svg>