<svg version="1.1" xmlns="http://www.w3.org/2000/svg" viewBox="0 0 4680.017267862935 5062.083669026702" width="4680.017267862935" height="5062.083669026702">
  <!-- svg-source:excalidraw -->
  
  <defs>
    <style class="style-fonts">
      @font-face {
        font-family: "Virgil";
        src: url("https://excalidraw.com/Virgil.woff2");
      }
      @font-face {
        font-family: "Cascadia";
        src: url("https://excalidraw.com/Cascadia.woff2");
      }
    </style>
  </defs>
  <rect x="0" y="0" width="4680.017267862935" height="5062.083669026702" fill="#ffffff"></rect><g stroke-linecap="round" transform="translate(273.25 797.5) rotate(0 144.5 97.5)"><path d="M14.43 56.27 C14.43 56.27, 14.43 56.27, 14.43 56.27 M14.43 56.27 C14.43 56.27, 14.43 56.27, 14.43 56.27 M10.03 66.89 C22.23 52.24, 38.21 35.48, 42.84 27.71 M8.89 67.59 C22.28 54.02, 33.67 38, 44.83 27.23 M6.11 81.27 C18.03 61.75, 34.32 49.21, 53.15 22.92 M4.41 79.64 C19.04 63.22, 35.42 45.51, 54.09 23.1 M1.4 88.08 C22.39 63.22, 44.94 40.64, 61.11 21.24 M2.59 89.95 C20.88 67.29, 39.26 45.44, 61.91 20.34 M1.18 93.85 C17.59 77.59, 31.53 57.74, 70.71 17.43 M1.78 94.43 C24.79 70.26, 47.2 43.46, 70.85 16.2 M1.97 97.95 C35.26 64.05, 64.76 30.61, 80.11 12.53 M2.43 100.42 C30.81 66.47, 58.54 35.24, 80.53 11.23 M2.64 105.76 C37.47 68.33, 68.33 29.74, 87.55 9.81 M2.99 105.59 C34.99 70.15, 67.25 33.27, 87.34 10.01 M4.85 109.09 C35.56 74.93, 69.07 35.15, 90.94 10.12 M4.14 111.07 C27.18 84.96, 48.8 61.03, 92.77 10.2 M4.9 115.65 C26.42 92.26, 46.61 69.87, 99.88 6.67 M5.37 116.6 C31.18 87.3, 57.9 56.62, 99.27 8 M3.59 120.47 C43.65 75.5, 81.22 34.26, 103.41 5.93 M4.71 120.76 C41.56 79.22, 78.99 38.1, 104.72 6.84 M5.92 126.35 C41.55 88.72, 71.75 49.68, 111.15 7.32 M7.1 125.03 C41.83 86.07, 75.63 47.21, 109.41 7.73 M8.36 126.78 C41.16 93.74, 66.69 59.36, 117.08 4.14 M9.56 127.52 C39.72 94.25, 68.64 59.63, 116.56 5.95 M10.6 130.41 C40.84 96.85, 71.4 65.79, 123.43 5.29 M11.64 133.11 C43.46 96.95, 73.6 60.33, 122 5.44 M16.01 137.45 C53.79 89.68, 93.43 43.79, 128.43 4.17 M13.67 136.55 C58.99 83.98, 104.31 31.18, 128.72 3.46 M17.49 139.38 C64.04 86.85, 106.31 34.43, 136.12 1.62 M17.43 139.94 C60.38 89.24, 102.72 42.37, 134.44 2.25 M19.95 141.12 C51.03 102.25, 85.83 65.68, 141.56 2.38 M18.36 141.63 C58.96 94.91, 98.86 50.47, 139.59 3.18 M21.42 145 C64.76 94.59, 110.55 41.47, 146.57 3.78 M21.5 145.8 C49.1 113.06, 78.76 79.83, 144.88 2.17 M24.89 147.9 C50.59 115.62, 77.44 84, 148.9 3.63 M23.09 148.48 C64.33 103.19, 104.13 57.94, 151.19 3.33 M24.14 152.49 C60.82 110.86, 94.83 68.38, 156.71 2.97 M25.16 152.33 C61.31 112.74, 95.82 73.48, 155.89 4.37 M28.25 155.57 C59.29 118.73, 92.92 80.56, 159.85 3.69 M29.7 155.85 C79.33 98.86, 128.18 40.98, 160.77 3.95 M32.91 157.78 C74.45 110.88, 114.08 63.02, 166.36 4.75 M31.69 158.7 C65.75 118.15, 100.55 78.76, 166.74 2.98 M36.25 161.12 C78.64 108.12, 124.55 58.41, 169.82 5.06 M36.31 160.37 C89.84 96.69, 142.95 35.79, 171.12 3.96 M39.58 161.39 C72.13 121.68, 107.55 83.22, 176.81 2.73 M39.68 162.84 C79.28 116.33, 119.78 68.72, 176.22 4.52 M40.75 166.06 C92.49 102.82, 145.64 42.16, 182.65 2.27 M41.46 164.29 C71.04 128.8, 101.85 95.34, 183.72 2.51 M44.3 167.49 C81.49 127.46, 116.34 87.85, 187.14 3.75 M45.15 167.38 C87.72 119.36, 130.73 70.67, 187.16 3.48 M48.8 170.9 C101.96 107.83, 156.3 46.52, 191.98 5.18 M48.7 169.2 C96.65 113.11, 146.68 55.38, 191.29 5.07 M52.42 171.65 C105.95 109.65, 158.79 45.11, 196.81 8 M50.76 171.52 C93.39 120.89, 136.72 71.16, 195.49 6.79 M54.29 172.43 C91.96 130.43, 127.81 87.07, 198.76 8.22 M55.34 174.22 C92.21 132.37, 130.32 88.85, 199.34 7.81 M57.56 177.86 C104.08 124.98, 148.48 75.56, 205.34 8.31 M58.12 176.64 C107.16 119.47, 155.44 62.37, 203.15 9.04 M63.36 179.88 C92.93 139.67, 125.61 104.74, 206.96 11.07 M61.18 179.16 C103.41 127.9, 146.46 79.84, 207.13 10.32 M65.1 178.9 C104.46 136.09, 140.52 93.48, 210.55 10.73 M66.09 179.82 C119.56 116.34, 172.71 54.37, 211.94 12.39 M68.96 181.28 C106.15 140.89, 141.12 98.8, 216.45 14.06 M70.05 181.17 C121.81 122.7, 171.56 64.74, 217.02 13.64 M75.23 183.83 C135.31 116.4, 192 50.92, 220.86 14.18 M73.87 183.1 C128 118.74, 181.7 57.13, 221.15 13.92 M77.01 183.51 C127.47 128.03, 178.22 69.19, 223.02 15.55 M78.69 182.81 C134.59 118.44, 190.28 53.47, 225.03 16.77 M81.04 184.86 C123.06 139.72, 166.47 91.36, 227.65 18.17 M81.61 185.44 C114.57 149.04, 145.05 113.05, 228.44 17.76 M85.26 184.91 C128.71 139.01, 171.17 89.81, 230.92 19.46 M85.88 186.19 C134.77 128.12, 185.61 71.89, 232.41 19.9 M90.34 187.42 C118.7 155.6, 148.41 122.04, 234.4 20.8 M90.64 187.72 C122.67 153.03, 153.17 117.43, 235.67 21.8 M95.17 190.5 C143.48 133.72, 191.86 77.64, 239.45 24.76 M94.85 188.38 C124.94 154.15, 155.89 119.6, 238.37 25.07 M100.62 190.81 C132.45 152.5, 167.29 117.77, 241.86 26.62 M98.27 191.5 C152.6 131.61, 205.09 70.17, 241.77 26.4 M104.99 192.05 C144.35 143.36, 184.31 97.23, 245.36 29.81 M103.71 191.77 C152.03 136.51, 200.41 79.55, 245.04 29.36 M108.7 191.41 C159.97 134.52, 212.79 75.5, 249.07 31.84 M108.43 192.83 C152.53 143.68, 196.58 92.01, 248.16 30.88 M113.85 194.24 C145.09 157.65, 172.76 123.57, 249.48 32.93 M112.2 192.9 C164.45 135.14, 215.33 75.39, 251.15 33.21 M116.18 195.37 C151.56 159.6, 180.98 119.73, 255.27 36.72 M117.06 193.87 C172.3 131.63, 224.72 70.55, 254.61 36.4 M121.69 194.63 C169.61 140.2, 213.18 87.68, 258.47 37.36 M122.52 192.88 C159.78 153.1, 195.7 110.76, 257.96 39.33 M127.2 192.9 C170.56 142.63, 215.13 89.33, 259.91 41.32 M128.1 194.03 C174.69 140.79, 220.87 85.48, 260.06 40.78 M134.85 192.25 C182.03 139.74, 226.79 88.32, 264.89 43.61 M133.32 194.83 C169.18 151.35, 207.42 106.32, 264.36 42.19 M136.48 194.67 C167.16 162.57, 194.3 130.36, 265.62 47.02 M137.34 193.49 C172 154.83, 206.07 115.2, 266.59 48.04 M143.87 195.03 C181.83 150.79, 218.23 107.21, 270.4 51.04 M143.26 193.9 C175.6 159.21, 206.34 121.93, 267.79 50.21 M148.82 194.88 C184.21 152.69, 224.86 108.65, 272.01 55.24 M148.86 195.14 C176.01 163.53, 204.27 129.93, 271.7 53.05 M153.87 196.57 C188.02 152.89, 223.79 112.73, 273.1 57.64 M154.09 194.98 C181.33 164.62, 209.2 133.18, 273.3 58.2 M158.36 194.18 C190.84 159.7, 221.21 124.76, 277.4 60.71 M157.7 194.91 C184.3 166.67, 209.84 136.14, 275.66 61.15 M163.5 193.25 C186.11 166.35, 209.4 139.93, 279.55 62.54 M164.12 194.49 C192.83 159.01, 224.31 124.61, 278.59 64.16 M170.28 194.47 C199.41 162.29, 223.66 131.18, 280.86 66.08 M170.14 192.82 C197.13 162.48, 225.14 129.59, 280.23 68.14 M175.2 190.36 C216.53 149.12, 256.24 105.22, 283.19 70.26 M176.44 191.91 C204.57 160.98, 231.22 129.03, 283.62 71.58 M182.77 189.94 C209.68 161.35, 232.66 133.27, 284.72 75.24 M182.84 191.08 C211.62 161.49, 237.74 131.18, 284.31 74.46 M189.35 191.93 C215.28 160.28, 239.39 129.7, 283.8 79.82 M189.94 190.87 C217.46 156.76, 245.03 124.99, 284.99 79.37 M196.94 187.94 C226.59 151.68, 258.09 116.58, 285.33 83.08 M195.68 187.99 C231.07 148.86, 266.48 108.3, 285.62 83.95 M200.97 187.68 C226.21 162.27, 246.43 139.1, 286.03 89.42 M202.94 187.14 C227.03 157.21, 252.01 129.2, 287.53 89.53 M206.85 187.59 C223.44 165.92, 240.38 147.32, 288.85 94.15 M206.83 187.52 C229.46 163.13, 250.81 138.14, 287.54 95.56 M217.63 183.06 C238.16 161.09, 257.55 138.22, 287.49 100.75 M216.16 183.61 C242.14 153.26, 268.99 123.05, 287.34 100.48 M224.05 181.64 C245.78 159.97, 261.91 136.37, 286.83 104.75 M224.26 180.23 C249.46 152.04, 274.37 123.57, 289.64 106.39 M233.52 177.21 C248.34 160.18, 261.74 144.08, 285.5 117.24 M233.75 175.31 C247.06 159.78, 259.8 144.27, 283.57 118.28 M247.87 165.13 C258.3 152.38, 273.44 136.16, 282.18 129.45 M247.07 166.86 C258.46 155.24, 268.18 141.15, 280.71 129.27" stroke="#4c6ef5" stroke-width="0.5" fill="none"></path><path d="M132.92 1.25 C148.23 -1.22, 166.79 -0.03, 182.77 2.59 C198.75 5.21, 215.47 10.38, 228.8 16.97 C242.14 23.56, 253.62 32.69, 262.76 42.12 C271.9 51.55, 279.36 62.87, 283.65 73.56 C287.94 84.25, 289.79 95.3, 288.49 106.26 C287.18 117.23, 282.9 129.41, 275.82 139.35 C268.74 149.29, 257.94 158.18, 246 165.89 C234.06 173.61, 219.16 180.84, 204.19 185.65 C189.23 190.46, 172.4 193.64, 156.22 194.74 C140.04 195.84, 123.04 195.11, 107.12 192.25 C91.2 189.39, 74.21 184.17, 60.7 177.58 C47.18 170.99, 35.31 162.09, 26.02 152.71 C16.73 143.33, 9.15 131.99, 4.96 121.3 C0.77 110.6, -0.73 99.42, 0.88 88.55 C2.48 77.68, 7.49 66.22, 14.6 56.09 C21.7 45.95, 31.94 35.7, 43.5 27.75 C55.07 19.8, 67.94 13.1, 84 8.38 C100.05 3.66, 129.36 0.53, 139.83 -0.57 C150.29 -1.66, 146.68 -0.08, 146.79 1.81 M119.24 1.07 C134.51 -2.16, 154.82 1.17, 171.09 3.04 C187.35 4.91, 202.92 7.02, 216.85 12.29 C230.79 17.56, 244 25.72, 254.71 34.64 C265.43 43.57, 275.19 55.5, 281.12 65.84 C287.06 76.18, 290.32 85.69, 290.3 96.68 C290.28 107.66, 286.79 120.9, 281.01 131.75 C275.22 142.6, 266.21 153.34, 255.6 161.79 C244.98 170.23, 231.77 177.15, 217.3 182.45 C202.83 187.75, 185.33 191.68, 168.78 193.58 C152.22 195.49, 134.38 195.67, 117.98 193.88 C101.59 192.09, 84.78 188.31, 70.4 182.85 C56.03 177.4, 41.95 170.09, 31.73 161.16 C21.52 152.22, 14.57 140.04, 9.13 129.26 C3.68 118.47, -1.07 107.29, -0.94 96.45 C-0.82 85.61, 3.87 74.44, 9.88 64.22 C15.89 54, 24.51 43.48, 35.13 35.14 C45.75 26.79, 59.26 19.59, 73.58 14.16 C87.9 8.73, 113.28 4.22, 121.03 2.55 C128.78 0.87, 119.6 2.62, 120.09 4.09" stroke="#000000" stroke-width="1" fill="none"></path></g><g transform="translate(398.75 872) rotate(0 19 23)"><text x="19" y="32" font-family="Virgil, Segoe UI Emoji" font-size="36px" fill="#000000" text-anchor="middle" style="white-space: pre;" direction="ltr">gc</text></g><g stroke-linecap="round"><g transform="translate(400.26043203631707 993.4995933365371) rotate(0 2.7628853622627503 42.52362651702242)"><path d="M0.27 -0.64 C1.17 13.39, 3.32 70.21, 4.24 84.22 M-1.05 1.64 C0.35 15.85, 5.5 71.91, 6.58 85.69" stroke="#000000" stroke-width="1" fill="none"></path></g><g transform="translate(400.26043203631707 993.4995933365371) rotate(0 2.7628853622627503 42.52362651702242)"><path d="M-7.13 57.29 C-3.74 65.29, -2.49 67.91, 6.33 86.92 M-6.43 58.97 C-0.13 68.43, 3.22 80.16, 5.86 85.54" stroke="#000000" stroke-width="1" fill="none"></path></g><g transform="translate(400.26043203631707 993.4995933365371) rotate(0 2.7628853622627503 42.52362651702242)"><path d="M13.31 55.53 C12.59 63.93, 9.72 66.9, 6.33 86.92 M14.01 57.2 C12.4 67.2, 7.81 79.62, 5.86 85.54" stroke="#000000" stroke-width="1" fill="none"></path></g></g><g stroke-linecap="round" transform="translate(297 10) rotate(0 128.125 99.375)"><path d="M13.52 54.15 C13.52 54.15, 13.52 54.15, 13.52 54.15 M13.52 54.15 C13.52 54.15, 13.52 54.15, 13.52 54.15 M9.6 65.72 C16.61 55.17, 24.09 46.45, 41.08 27.88 M10.01 64.8 C16.3 57.43, 23.1 47.5, 42.97 27.1 M3.37 75.5 C15.29 65.78, 24.46 51.3, 51.73 23.47 M5.18 75.6 C17.61 61.83, 30.04 45.91, 51.48 21.48 M2.13 85.74 C22.14 61.53, 44.1 37.93, 60.66 19.01 M2.28 86.63 C14.65 71.46, 30.03 56.39, 59.99 18.17 M1.14 94.56 C18.92 73.07, 34.02 55.53, 68.96 14.73 M0.43 93.41 C15.09 75.19, 30.27 59.4, 70.97 12.94 M0.13 99.39 C17.92 77.98, 38.72 59.16, 80.78 5.93 M0.76 98.04 C26.89 69.12, 51.43 40.16, 79.96 6.98 M1.69 104.44 C23.81 77.38, 46.91 47.8, 85.26 4.6 M2.48 104.49 C20.6 83.79, 38.91 61.18, 86.2 7.2 M3.12 108.12 C29.71 77.75, 54.84 49, 92.85 4.12 M1.51 108.68 C39.34 69.29, 75.82 26.78, 92.65 4.8 M3.01 115.48 C25.02 90.01, 45.58 64.45, 100 3.42 M2.71 114.88 C31.95 81.69, 59.47 47.48, 99.42 4.15 M2.38 120.14 C27.32 91.25, 51.73 63.01, 103.64 3 M3.78 120.26 C26.67 94.25, 48.74 67.48, 104.01 4.66 M5.88 125.75 C33.86 91.62, 62.1 62.2, 112.99 3.77 M6.17 124.22 C32.24 92.6, 60.26 61.91, 111.76 2.29 M9.03 126.65 C40.1 94.04, 69.26 58.89, 116.84 3.31 M7.04 127.81 C43.57 85.67, 80.18 43.52, 116.91 1.74 M10.68 133.63 C45.7 89.72, 85.42 46.87, 123.32 -1.23 M9.45 131.26 C33.54 103.7, 56.88 76.94, 123.03 -0.02 M10.85 134.96 C35.51 105.84, 61.22 80.24, 129.13 0.84 M12.89 135.81 C49.14 95.31, 82.96 55.45, 128.07 0.11 M13.34 137.52 C43.44 107.66, 69.1 73.96, 132.68 -0.89 M13.62 138.62 C44.74 100.51, 77.79 62.62, 134.1 1.45 M15.46 143.33 C57.91 91.86, 100.6 45.24, 137.33 2.38 M15.15 144.04 C47.45 105.21, 82.56 66.04, 138.33 1.65 M17.32 147.61 C59.71 98.74, 101.07 50.15, 141.24 3.73 M17.2 147.52 C57.82 102.04, 95.38 58.61, 143.69 2.53 M21 150.85 C53.64 114.89, 81.68 76.44, 147.17 1.28 M19.6 150.39 C55.21 111.81, 88.44 71.21, 148.32 2.64 M21.63 154.21 C56.15 115.29, 91.01 77.43, 151.88 4.46 M21.2 155.02 C66.13 102.88, 111.05 52.68, 153.52 2.5 M23.58 158.29 C70.34 105.09, 113.98 53.04, 159.12 3.43 M24.35 156.94 C57.28 121.64, 89.1 86.62, 157.54 2.79 M28.18 159.29 C56.11 128.4, 82.95 95.06, 162.26 2.42 M27.41 159.11 C76.28 106.14, 121.91 51.54, 163.99 4.13 M29.71 163.34 C71.47 118.02, 110.44 70.73, 167.69 4.92 M31.41 161.63 C61.1 127.45, 90.12 93.38, 167.68 5.5 M35 165.49 C67.19 125.81, 103.25 84.35, 172.89 6.17 M34.57 165.58 C74.48 115.72, 116.68 69.96, 172.58 6.16 M37 168.53 C76.42 121.22, 117.74 73.17, 173.88 6.65 M36.73 167.7 C66.47 133.66, 92.69 102.35, 175.75 8.27 M39.5 171.46 C96.71 108.74, 151.8 42.08, 179.41 10.65 M40.75 169.85 C78.36 124.85, 115.22 81.63, 178.74 10.84 M44.06 171.09 C88.65 118.27, 135.34 63.81, 184.23 9.95 M43.64 172.5 C76.85 134.08, 109.16 95.92, 183.55 10.91 M46.38 175.2 C96.17 122.02, 140.94 65.16, 185.85 12.37 M46.82 173.6 C97.62 114.16, 147.63 55.66, 187.05 13.37 M48.86 175.52 C93.08 125.96, 139.14 73.35, 191.18 15.97 M49.87 177.42 C97.06 123.29, 143.51 69.59, 191 15.53 M53.23 178.13 C98.1 126.53, 143.12 72.11, 194.62 16.39 M53.53 179.1 C105.55 116.82, 161.14 55.63, 194.75 15.18 M56.13 182.77 C106.9 120.23, 158.8 61.96, 199.86 19.51 M55.91 181.51 C109.49 121.76, 161.44 61.74, 199.27 17.71 M61.13 184.22 C98.57 138.63, 136.87 94.54, 203.93 20.97 M60.68 184.07 C107.3 128.28, 155.38 73.97, 202.31 19.93 M64.87 184.83 C108.12 131.1, 154.19 80.79, 207.76 23.02 M63.91 183.84 C115.84 125.34, 168.61 65.75, 207.01 21.39 M67.02 187.62 C104.15 145.8, 140.24 102.58, 210.93 24.88 M67.3 185.85 C117.52 128.55, 167.06 73.16, 210.29 24.22 M71.85 189.91 C101.78 154.6, 131.18 119.73, 213.82 26.79 M71.54 188.67 C103.25 151.11, 134.37 113.75, 213.43 26.48 M74.97 188.83 C107.25 150.82, 137.99 114.21, 217.07 29.39 M76.91 189.75 C129.53 130.18, 179.93 70.02, 215.23 29.18 M79.96 192.24 C111.12 156.28, 140.14 123.64, 218.93 32.25 M79.43 191.75 C109.88 158.88, 140.87 123.46, 219.61 31.22 M84.05 192.98 C124.53 145.05, 163.6 101, 220.47 34.75 M82.66 192.4 C117.27 155.98, 150.33 117.12, 222.11 34.34 M87.03 194.52 C130.7 145.18, 170.75 95.68, 224.85 35.89 M87.93 195.03 C118.08 157.34, 150.88 121.75, 224.78 35.82 M91.93 195.27 C121.66 159.62, 153.07 124.38, 227.83 39.45 M91.19 196.18 C122.59 162.66, 152.89 128.1, 227.26 39.5 M97.65 195.18 C148.13 137.17, 200.83 77.45, 231.12 43.2 M95.69 196.44 C146.62 140.61, 194.75 84.73, 231.17 41.36 M101.77 195.58 C145.92 142.71, 195.22 90.61, 232.82 43.99 M102.26 196.53 C138.39 154.13, 175.6 111.05, 234.64 44.13 M106.47 195.54 C150.13 145.98, 194.44 91.93, 237.51 48.54 M106.91 196.26 C152.27 146.24, 195.5 94.44, 236.66 46.28 M109.91 196.86 C148.36 158.54, 180.54 117.06, 237.63 50.61 M111.53 197.12 C163.29 138.27, 213.18 80.35, 239.55 51.57 M115.06 197 C141.59 168.58, 164.4 138.23, 239.89 56.31 M117.12 198.58 C149.12 160.09, 182.7 119.95, 241 55.35 M120.85 197.56 C165.37 146.11, 205.61 97.34, 244.54 57.84 M122.17 197.81 C154.92 159.8, 187.87 120.38, 243.09 58.82 M127.44 197.9 C147.35 170.03, 171.79 143.98, 245.71 63.21 M126.65 198.31 C161.72 157.79, 198.15 116.91, 244.48 62.55 M131.36 198.95 C160.57 168.1, 187.39 139.33, 246.58 64.31 M130.91 199.42 C154.04 172.7, 178.62 145.36, 246.38 65.33 M134.07 201.79 C167.91 164.96, 200.23 125.16, 248.64 71.03 M134.93 199.75 C178.64 151.5, 220.48 103.32, 249.47 70.03 M141.06 198.95 C172.17 164.07, 205.95 125.05, 248.79 72.48 M141.17 198.17 C164.34 173.54, 185.44 147.84, 249.78 73.67 M146.55 197.98 C168.89 173.81, 191.59 145.37, 252.57 79.11 M147.95 198.28 C173.06 167.07, 201.74 136.29, 253.56 77.3 M153.8 198.76 C194.34 154.32, 234.01 106.21, 254.04 82.05 M153.53 197.38 C183.04 163.91, 212.53 130.63, 255.94 82.04 M158.46 198.07 C186.07 169.03, 209.13 140.27, 254.96 88.85 M160.1 195.91 C186.67 163.12, 214.91 131.83, 255.79 86.75 M166.32 194.39 C197.86 158.97, 228.61 122.81, 255.23 91.32 M167.36 195.99 C186.34 172.58, 207.3 149.83, 254.91 92.52 M173.9 194.46 C201.89 163.16, 228.27 130.62, 258.17 100.13 M173.72 194.77 C197.35 165.43, 221.57 137.58, 257.01 99.11 M180.25 192.36 C199.77 170.42, 218.1 149.28, 257.67 104.31 M179.88 191.29 C202.97 164.6, 228.62 135.67, 255.59 103.25 M188.15 187.29 C200.82 172.08, 217.89 157.38, 257.37 111.13 M188.73 187.06 C202.1 171.23, 215.8 156.23, 256.84 110.22 M199.36 183.95 C216.94 159.47, 235.76 136.74, 255.91 115.84 M198.34 184.17 C213.31 165.63, 229.33 148.21, 257.57 114.49 M205.74 179.52 C222.5 163.71, 234.92 146.01, 253.42 126.84 M207.75 179.11 C220.52 164.55, 231.46 149.76, 253.47 126.56 M215.78 172.78 C227.34 162.28, 236.28 151.45, 249.91 136.34 M215.29 175.66 C225.51 163.52, 234.92 151.66, 248.23 138.46" stroke="#4c6ef5" stroke-width="0.5" fill="none"></path><path d="M167.16 4.33 C181.21 6.16, 195.65 14.15, 207.2 21.22 C218.75 28.28, 228.92 37.12, 236.45 46.72 C243.98 56.31, 249.34 67.87, 252.38 78.79 C255.42 89.7, 256.62 100.96, 254.71 112.2 C252.79 123.45, 247.6 136.05, 240.89 146.25 C234.18 156.44, 224.92 165.93, 214.44 173.4 C203.96 180.86, 191.54 186.93, 178.02 191.05 C164.49 195.17, 148.02 197.55, 133.31 198.14 C118.6 198.73, 103.61 198, 89.77 194.6 C75.93 191.2, 61.94 184.61, 50.27 177.73 C38.6 170.85, 27.64 162.66, 19.74 153.3 C11.83 143.95, 5.99 132.78, 2.85 121.59 C-0.29 110.41, -0.92 97.49, 0.91 86.19 C2.74 74.89, 7.08 63.68, 13.84 53.79 C20.6 43.9, 30.44 34.59, 41.46 26.87 C52.49 19.15, 66.29 11.95, 79.98 7.46 C93.68 2.98, 108.55 0.24, 123.63 -0.03 C138.71 -0.3, 162.54 4.43, 170.44 5.84 C178.34 7.25, 172 7.03, 171.03 8.42 M179.24 8.8 C192.73 11.51, 205.57 18.58, 216.2 26.41 C226.84 34.23, 236.44 45.28, 243.04 55.74 C249.65 66.2, 254.43 77.95, 255.82 89.18 C257.21 100.41, 254.79 112.01, 251.37 123.14 C247.96 134.27, 243.15 146.76, 235.31 155.97 C227.47 165.19, 216.42 171.83, 204.31 178.4 C192.21 184.97, 176.86 192.05, 162.69 195.39 C148.51 198.73, 133.6 199.3, 119.25 198.44 C104.9 197.58, 89.85 194.7, 76.59 190.22 C63.33 185.73, 50.09 179.63, 39.71 171.53 C29.32 163.44, 20.83 152.09, 14.27 141.66 C7.71 131.23, 2.25 119.92, 0.36 108.96 C-1.52 97.99, -0.83 86.8, 2.96 75.88 C6.74 64.97, 14.62 52.74, 23.04 43.45 C31.47 34.16, 42.07 26.49, 53.52 20.15 C64.98 13.8, 78.04 8.47, 91.77 5.37 C105.51 2.27, 121.26 0.81, 135.95 1.53 C150.63 2.25, 172.94 8.36, 179.87 9.71 C186.8 11.06, 178.42 8.46, 177.54 9.64" stroke="#000000" stroke-width="1" fill="none"></path></g><g transform="translate(336.625 86.375) rotate(0 88.5 23)"><text x="88.5" y="32" font-family="Virgil, Segoe UI Emoji" font-size="36px" fill="#000000" text-anchor="middle" style="white-space: pre;" direction="ltr">supervisor</text></g><g stroke-linecap="round"><g transform="translate(417 206.25) rotate(0 1.6358654181185557 86.70835264254265)"><path d="M-0.12 0.96 C0.46 29.41, 2.16 143.3, 2.81 171.76 M-1.65 0.41 C-0.65 29.54, 4.15 144.3, 4.92 173.01" stroke="#000000" stroke-width="1" fill="none"></path></g><g transform="translate(417 206.25) rotate(0 1.6358654181185557 86.70835264254265)"><path d="M-4.74 143.27 C-4.3 151.62, -1.71 157.6, 6.7 171.83 M-6.28 144.38 C-4.26 150.61, -1.47 157.98, 5.19 173.14" stroke="#000000" stroke-width="1" fill="none"></path></g><g transform="translate(417 206.25) rotate(0 1.6358654181185557 86.70835264254265)"><path d="M15.77 142.55 C11.27 151.05, 8.91 157.2, 6.7 171.83 M14.23 143.66 C11.66 149.94, 9.84 157.47, 5.19 173.14" stroke="#000000" stroke-width="1" fill="none"></path></g></g><g stroke-linecap="round" transform="translate(10 381.25) rotate(0 456.5 143)"><path d="M0.8 -0.39 C184.59 -2.95, 368.58 -3.06, 912.68 -0.11 M0.11 -0.29 C202.41 1.59, 404.69 1.8, 912.89 0.27 M912.63 -1.25 C910.26 59.23, 910.18 117.24, 912.69 287.18 M913.4 -0.21 C911.26 66.21, 911.67 132.07, 912.67 286.31 M912.25 286.53 C700.84 285.4, 488.77 284.99, -0.39 286.15 M913.15 285.72 C667.45 285.74, 422.78 286.25, -0.4 286.15 M-0.13 285.17 C-2.42 175.94, -2.06 67.44, 0.35 -0.09 M0.53 285.31 C-1.62 218.91, -2.57 152.07, -0.27 -0.47" stroke="#000000" stroke-width="1" fill="none"></path></g><g transform="translate(16 432.25) rotate(0 450.5 92)"><text x="450.5" y="32" font-family="Virgil, Segoe UI Emoji" font-size="36px" fill="#000000" text-anchor="middle" style="white-space: pre;" direction="ltr">container_supervisor_add_exit_monitor</text><text x="450.5" y="78" font-family="Virgil, Segoe UI Emoji" font-size="36px" fill="#000000" text-anchor="middle" style="white-space: pre;" direction="ltr">把容器加入到supervisor模块，进行退出状态监控：</text><text x="450.5" y="124" font-family="Virgil, Segoe UI Emoji" font-size="36px" fill="#000000" text-anchor="middle" style="white-space: pre;" direction="ltr"> epoll_loop_add_handler(&amp;g_supervisor_descr, fd,</text><text x="450.5" y="170" font-family="Virgil, Segoe UI Emoji" font-size="36px" fill="#000000" text-anchor="middle" style="white-space: pre;" direction="ltr">supervisor_exit_cb, data);</text></g><g stroke-linecap="round"><g transform="translate(925.3825064432967 524.0001845018655) rotate(0 174.24844494402532 1.1683282504723138)"><path d="M-0.92 -0.43 C57.44 0.08, 291.25 3.48, 349.42 4.04 M0.8 -1.71 C59.15 -1.6, 291.25 1.44, 348.96 2.42" stroke="#000000" stroke-width="1" fill="none"></path></g><g transform="translate(925.3825064432967 524.0001845018655) rotate(0 174.24844494402532 1.1683282504723138)"><path d="M319.9 13.84 C328.85 9.47, 333.7 6.72, 348.4 4.4 M320.17 12.96 C328.37 9.28, 336.74 7.62, 349.37 1.44" stroke="#000000" stroke-width="1" fill="none"></path></g><g transform="translate(925.3825064432967 524.0001845018655) rotate(0 174.24844494402532 1.1683282504723138)"><path d="M320.2 -6.68 C329.24 -6.18, 334.02 -4.07, 348.4 4.4 M320.47 -7.56 C328.71 -5.56, 337.01 -1.54, 349.37 1.44" stroke="#000000" stroke-width="1" fill="none"></path></g></g><g transform="translate(974.5 456.5) rotate(0 91 26)"><text x="0" y="38" font-family="Virgil, Segoe UI Emoji" font-size="36px" fill="#000000" text-anchor="start" style="white-space: pre;" direction="ltr">若容器退出</text></g><g stroke-linecap="round" transform="translate(1275.75 447.5) rotate(0 389.5 83)"><path d="M0.64 -0.54 C216.02 -1.18, 432.26 -1.9, 779.8 -0.26 M-0.04 0.31 C240.23 1.91, 479.46 1.76, 778.78 -0.12 M780.18 0.42 C778.84 62.88, 780.54 127.23, 779.82 167.13 M778.06 -0.41 C779.43 49.25, 780.24 99.94, 778.2 165.66 M779.51 165.83 C615.07 164.24, 452.48 165.04, -0.35 165.74 M779.01 166.01 C589.05 168.56, 398.29 168.86, -0.25 166.15 M-0.94 166.69 C0.7 103.95, -0.22 41.25, -1.37 -0.23 M0.2 166.29 C-0.18 115.98, -1.63 65.68, 0.35 -0.51" stroke="#000000" stroke-width="1" fill="none"></path></g><g transform="translate(1494.75 507.5) rotate(0 170.5 23)"><text x="170.5" y="32" font-family="Virgil, Segoe UI Emoji" font-size="36px" fill="#000000" text-anchor="middle" style="white-space: pre;" direction="ltr">supervisor_exit_cb</text></g><g stroke-linecap="round"><g transform="translate(1696.2832591411134 614.5) rotate(0 3.3263506848416 93.73196417622262)"><path d="M-1.11 -0.98 C-0.33 30.33, 4.24 155.8, 5.67 186.94 M0.51 1.11 C1.54 32.72, 6.66 157.54, 7.76 188.45" stroke="#000000" stroke-width="1" fill="none"></path></g><g transform="translate(1696.2832591411134 614.5) rotate(0 3.3263506848416 93.73196417622262)"><path d="M-5.22 158.69 C0.48 172.59, 3.02 182.05, 6.05 190.25 M-2.64 159.97 C0.36 169.28, 3.31 179.68, 8.65 188.91" stroke="#000000" stroke-width="1" fill="none"></path></g><g transform="translate(1696.2832591411134 614.5) rotate(0 3.3263506848416 93.73196417622262)"><path d="M15.29 157.9 C13.06 171.92, 7.69 181.68, 6.05 190.25 M17.86 159.18 C13.8 168.74, 9.68 179.4, 8.65 188.91" stroke="#000000" stroke-width="1" fill="none"></path></g></g><g stroke-linecap="round" transform="translate(1229.5 802.5) rotate(0 504.5 120)"><path d="M-0.15 -0.45 C361.59 3.53, 721.71 3.87, 1008.88 0.74 M-0.09 -0.19 C240.68 0.55, 481.11 1.11, 1008.86 -0.35 M1009.69 -1.21 C1007.78 71.48, 1009.83 141.24, 1007.89 241.36 M1009 -0.4 C1010.35 61.42, 1009.94 122.92, 1009.29 239.71 M1009.24 239.27 C774.23 242.91, 541.01 241.57, 0.76 239.55 M1009.2 239.94 C606.47 240.19, 203.64 240.86, 0.24 240.35 M0.5 239.56 C-0.28 183, -2.96 129.07, -1.27 -0.28 M-0.65 239.82 C-1.1 150.77, -0.65 60.27, 0.72 0.83" stroke="#000000" stroke-width="1" fill="none"></path></g><g transform="translate(1258 807.5) rotate(0 476 115)"><text x="476" y="32" font-family="Virgil, Segoe UI Emoji" font-size="36px" fill="#000000" text-anchor="middle" style="white-space: pre;" direction="ltr"> supervisor_handler_lock();</text><text x="476" y="78" font-family="Virgil, Segoe UI Emoji" font-size="36px" fill="#000000" text-anchor="middle" style="white-space: pre;" direction="ltr">    epoll_loop_del_handler(&amp;g_supervisor_descr, fd);</text><text x="476" y="124" font-family="Virgil, Segoe UI Emoji" font-size="36px" fill="#000000" text-anchor="middle" style="white-space: pre;" direction="ltr">    supervisor_handler_unlock();</text><text x="476" y="170" font-family="Virgil, Segoe UI Emoji" font-size="36px" fill="#000000" text-anchor="middle" style="white-space: pre;" direction="ltr"></text><text x="476" y="216" font-family="Virgil, Segoe UI Emoji" font-size="36px" fill="#000000" text-anchor="middle" style="white-space: pre;" direction="ltr">    (void)new_clean_resources_thread(data);</text></g><g stroke-linecap="round"><g transform="translate(1713.062345804512 1049.9447801378137) rotate(0 1.8772351060251822 69.39373164617518)"><path d="M-0.12 -0.01 C0.46 23.28, 2.42 115.36, 3.28 138.84 M-1.64 -1.05 C-0.69 22.42, 4.36 116.49, 5.39 139.84" stroke="#000000" stroke-width="1" fill="none"></path></g><g transform="translate(1713.062345804512 1049.9447801378137) rotate(0 1.8772351060251822 69.39373164617518)"><path d="M-6.26 110.29 C-4.84 121.04, 1.85 128.95, 7.12 141.33 M-6.68 111.63 C-1.29 123.76, 2.88 132.94, 5.41 140.06" stroke="#000000" stroke-width="1" fill="none"></path></g><g transform="translate(1713.062345804512 1049.9447801378137) rotate(0 1.8772351060251822 69.39373164617518)"><path d="M14.24 109.27 C9.83 120.3, 10.71 128.49, 7.12 141.33 M13.82 110.62 C11.24 123.08, 7.45 132.65, 5.41 140.06" stroke="#000000" stroke-width="1" fill="none"></path></g></g><g stroke-linecap="round" transform="translate(1215.75 1191.25) rotate(0 554.5 51)"><path d="M0.29 -0.7 C241.25 -0.55, 483.66 -0.27, 1109.2 -0.02 M-0.17 -0.06 C282.51 0.51, 565.31 0.24, 1109.08 -0.03 M1108.2 -1.26 C1110.96 34.94, 1111.33 67.03, 1109.25 101.94 M1108.85 0.26 C1109.26 26.09, 1109.49 51.54, 1109.48 102.54 M1108.47 101.28 C781.77 100.18, 453.98 100.11, -0.12 102.63 M1108.67 102.33 C819.84 99.25, 531.73 99.62, 0.21 102.16 M0.16 102.43 C1.54 69.6, 2.12 36.26, -1 0.34 M-0.38 101.24 C0.61 74.53, -0.43 45.7, -0.4 -0.12" stroke="#000000" stroke-width="1" fill="none"></path></g><g transform="translate(1417.25 1196.25) rotate(0 353 46)"><text x="353" y="32" font-family="Virgil, Segoe UI Emoji" font-size="36px" fill="#000000" text-anchor="middle" style="white-space: pre;" direction="ltr">pthread_create(&amp;clean_thread, NULL, </text><text x="353" y="78" font-family="Virgil, Segoe UI Emoji" font-size="36px" fill="#000000" text-anchor="middle" style="white-space: pre;" direction="ltr">clean_resources_thread, data)</text></g><g stroke-linecap="round"><g transform="translate(1710.6898867820128 1295.5135135135133) rotate(0 -0.19157642817481246 118.32373520392207)"><path d="M0.94 -0.68 C0.8 38.93, -0.5 197.6, -0.86 237.33 M-0.03 1.58 C-0.24 40.85, -1.04 196.41, -1.32 235.45" stroke="#000000" stroke-width="1" fill="none"></path></g><g transform="translate(1710.6898867820128 1295.5135135135133) rotate(0 -0.19157642817481246 118.32373520392207)"><path d="M-12.55 208.74 C-7.72 216.42, -4.09 223.47, -1.73 236.32 M-11.87 206.24 C-7.63 217.45, -3.44 226.82, -0.67 234.95" stroke="#000000" stroke-width="1" fill="none"></path></g><g transform="translate(1710.6898867820128 1295.5135135135133) rotate(0 -0.19157642817481246 118.32373520392207)"><path d="M7.97 208.86 C6.71 216.67, 4.25 223.68, -1.73 236.32 M8.65 206.37 C5.5 217.69, 2.3 227.02, -0.67 234.95" stroke="#000000" stroke-width="1" fill="none"></path></g></g><g stroke-linecap="round" transform="translate(1473.25 1521.25) rotate(0 218.5 167.5)"><path d="M218.01 1.23 C275.17 41.68, 329.47 83.83, 437.98 169.43 M219.59 0.05 C280.35 47.86, 343.11 96.28, 437.67 167.91 M436.79 168.07 C391.88 201.53, 348.75 236.55, 219.32 335.69 M437.22 168.12 C383.16 209.15, 329.98 249.78, 219.29 334.96 M219.38 333.8 C176.52 299.89, 129.31 265.12, 0.74 166.81 M219.63 335.57 C141.88 277.11, 63.5 217.61, -0.46 168.76 M1.12 167.79 C82.57 101.41, 168.46 36.83, 217.71 1.07 M0.3 168.37 C46.25 133.66, 92.45 98.51, 219.02 0.73" stroke="#000000" stroke-width="1" fill="none"></path></g><g transform="translate(1483.25 1619.75) rotate(0 208.5 69)"><text x="208.5" y="32" font-family="Virgil, Segoe UI Emoji" font-size="36px" fill="#000000" text-anchor="middle" style="white-space: pre;" direction="ltr">false == </text><text x="208.5" y="78" font-family="Virgil, Segoe UI Emoji" font-size="36px" fill="#000000" text-anchor="middle" style="white-space: pre;" direction="ltr">util_process_alive(pid, </text><text x="208.5" y="124" font-family="Virgil, Segoe UI Emoji" font-size="36px" fill="#000000" text-anchor="middle" style="white-space: pre;" direction="ltr">start_time</text></g><g stroke-linecap="round"><g transform="translate(1912.513490670306 1682.510975060955) rotate(0 149.62506274447878 0.6605916735240953)"><path d="M-1.06 -0.89 C48.61 -0.8, 248.13 0.39, 297.97 0.95 M0.58 1.25 C50.65 1.47, 250.33 2.31, 300.31 2.2" stroke="#000000" stroke-width="1" fill="none"></path></g><g transform="translate(1912.513490670306 1682.510975060955) rotate(0 149.62506274447878 0.6605916735240953)"><path d="M270.62 11.24 C279.51 8.48, 290.35 7.25, 300.3 2.45 M271.19 12.34 C283.13 9.12, 293.92 5.51, 300.22 2.17" stroke="#000000" stroke-width="1" fill="none"></path></g><g transform="translate(1912.513490670306 1682.510975060955) rotate(0 149.62506274447878 0.6605916735240953)"><path d="M270.65 -9.28 C279.6 -5.98, 290.43 -1.14, 300.3 2.45 M271.23 -8.18 C283.34 -3.64, 294.12 0.52, 300.22 2.17" stroke="#000000" stroke-width="1" fill="none"></path></g></g><g transform="translate(2024.5 1626.5) rotate(0 46 23)"><text x="0" y="32" font-family="Virgil, Segoe UI Emoji" font-size="36px" fill="#000000" text-anchor="start" style="white-space: pre;" direction="ltr">false</text></g><g stroke-linecap="round" transform="translate(2208.25 1935) rotate(0 371 55.5)"><path d="M0.35 0.09 C216.61 3.43, 431.32 3.38, 742.17 0.79 M-0.15 0.3 C185.9 -0.81, 372.33 -1.05, 741.63 0.32 M743.25 1.71 C744.02 34.68, 742.34 67.03, 743.43 110.28 M741.81 0.49 C742.14 41.97, 741.72 82.88, 742.24 111.78 M741.67 110.24 C471.28 109.99, 199.59 110.53, -0.12 110.37 M742.2 111.09 C466.03 109.9, 190.37 110.41, 0.25 111.21 M1.52 110.87 C-0.29 76.75, -0.69 42.67, -1.17 -1.12 M-0.77 110.25 C1.62 83.19, 0.14 56.39, 0.55 0.85" stroke="#000000" stroke-width="1" fill="none"></path></g><g transform="translate(2330.75 1967.5) rotate(0 248.5 23)"><text x="248.5" y="32" font-family="Virgil, Segoe UI Emoji" font-size="36px" fill="#000000" text-anchor="middle" style="white-space: pre;" direction="ltr">发送ret = kill(pid, SIGKILL);</text></g><g stroke-linecap="round"><g transform="translate(1704.3321527668413 1849.214692612819) rotate(0 0.5168892037745536 241.74237149296323)"><path d="M-0.15 -0.86 C0.25 79.71, 2.33 403.66, 2.72 484.35 M-1.69 1.3 C-1.37 81.44, 1.79 402.04, 2.36 482.55" stroke="#000000" stroke-width="1" fill="none"></path></g><g transform="translate(1704.3321527668413 1849.214692612819) rotate(0 0.5168892037745536 241.74237149296323)"><path d="M-9.58 456.31 C-3.47 464.62, -1.84 474.55, 4.31 484.28 M-8.31 454.56 C-4.59 464.37, -1.68 473.99, 2.42 482.63" stroke="#000000" stroke-width="1" fill="none"></path></g><g transform="translate(1704.3321527668413 1849.214692612819) rotate(0 0.5168892037745536 241.74237149296323)"><path d="M10.94 456.14 C10.35 464.47, 5.27 474.46, 4.31 484.28 M12.21 454.38 C8.71 464.46, 4.42 474.13, 2.42 482.63" stroke="#000000" stroke-width="1" fill="none"></path></g></g><g transform="translate(1759.5 1906.5) rotate(0 39 23)"><text x="0" y="32" font-family="Virgil, Segoe UI Emoji" font-size="36px" fill="#000000" text-anchor="start" style="white-space: pre;" direction="ltr">true</text></g><g stroke-linecap="round"><g transform="translate(2564.7323088405064 2050.8973408915263) rotate(0 8.400359676474181 116.76802264041953)"><path d="M-0.97 1.16 C2.06 39.97, 14.71 194.19, 17.77 232.82 M0.73 0.72 C3.6 39.16, 14.09 192.5, 16.68 230.85" stroke="#000000" stroke-width="1" fill="none"></path></g><g transform="translate(2564.7323088405064 2050.8973408915263) rotate(0 8.400359676474181 116.76802264041953)"><path d="M6.45 202.99 C8.28 209.86, 11.76 219.9, 16.32 230.9 M4.88 204.28 C7.09 210.4, 11.28 217.38, 16.78 231.49" stroke="#000000" stroke-width="1" fill="none"></path></g><g transform="translate(2564.7323088405064 2050.8973408915263) rotate(0 8.400359676474181 116.76802264041953)"><path d="M26.93 201.6 C23.23 208.68, 21.19 219.09, 16.32 230.9 M25.35 202.89 C22.44 209.31, 21.51 216.64, 16.78 231.49" stroke="#000000" stroke-width="1" fill="none"></path></g></g><g stroke-linecap="round" transform="translate(2274.5 2287.5) rotate(0 351.5 91.5)"><path d="M0.25 0.73 C191.07 -1.04, 383.24 -0.6, 702.62 0.78 M-0.37 -0.14 C165.95 0.21, 330.92 0.09, 703.07 0.05 M701.17 0.9 C702.03 60.11, 703.64 124.76, 703.95 184.08 M703.7 -0.59 C703.64 47.31, 703.38 93.81, 703.42 183.43 M702.68 183.6 C526.64 181.72, 349.11 182.04, -0.17 183.45 M703.31 182.88 C558.92 185.35, 414.89 185.35, 0.01 183.26 M0.23 181.43 C-2.11 134.49, 0.31 82.9, -1.43 -1.51 M0.74 182.35 C2.07 118.14, 1.06 54.24, -0.57 -0.99" stroke="#000000" stroke-width="1" fill="none"></path></g><g transform="translate(2285.5 2333) rotate(0 340.5 46)"><text x="340.5" y="32" font-family="Virgil, Segoe UI Emoji" font-size="36px" fill="#000000" text-anchor="middle" style="white-space: pre;" direction="ltr">gc_add_container：添加容器到gc模块，</text><text x="340.5" y="78" font-family="Virgil, Segoe UI Emoji" font-size="36px" fill="#000000" text-anchor="middle" style="white-space: pre;" direction="ltr">进行资源清理</text></g><g stroke-linecap="round" transform="translate(1440.75 2336.25) rotate(0 277.5 58)"><path d="M0.22 -0.51 C193.11 -1.83, 386.33 -2.81, 555.28 -0.1 M-0.08 -0.02 C152.98 -1.14, 305.37 -0.86, 555.36 0.14 M556 0.83 C555.56 26.78, 553.39 50.74, 554.27 115.77 M554.12 0.62 C554.39 27.34, 555.32 55.9, 554.72 116.39 M555.15 116.05 C411.73 115.12, 268.47 115.01, 0.1 115.59 M555.06 116.33 C343.44 113.46, 131.88 113.79, -0.39 115.88 M-0.51 115.45 C1.07 78.96, -0.93 43.63, -1.68 -1.95 M0.65 115.91 C-0.64 84.56, 0.26 54.71, -0.16 -0.2" stroke="#000000" stroke-width="1" fill="none"></path></g><g transform="translate(1489.75 2371.25) rotate(0 228.5 23)"><text x="228.5" y="32" font-family="Virgil, Segoe UI Emoji" font-size="36px" fill="#000000" text-anchor="middle" style="white-space: pre;" direction="ltr">clean_container_resource</text></g><g stroke-linecap="round"><g transform="translate(2004.5 2403.75) rotate(0 128.2259260656774 -1.194194747880374)"><path d="M0.36 -0.48 C43.33 -0.91, 214.63 -1.79, 257.36 -1.91 M-0.91 -1.78 C42.04 -2.13, 214.14 -1.04, 256.99 -0.72" stroke="#000000" stroke-width="1" fill="none"></path></g><g transform="translate(2004.5 2403.75) rotate(0 128.2259260656774 -1.194194747880374)"><path d="M227.94 11.21 C234.94 7.47, 243.48 3.95, 255.43 -0.02 M227.85 8.36 C237.63 6.13, 245.46 3.17, 256.57 -1.18" stroke="#000000" stroke-width="1" fill="none"></path></g><g transform="translate(2004.5 2403.75) rotate(0 128.2259260656774 -1.194194747880374)"><path d="M228.07 -9.31 C235.16 -7.71, 243.66 -5.87, 255.43 -0.02 M227.99 -12.16 C237.75 -8.15, 245.54 -4.87, 256.57 -1.18" stroke="#000000" stroke-width="1" fill="none"></path></g></g><g transform="translate(2024.5 2335.25) rotate(0 70 23)"><text x="0" y="32" font-family="Virgil, Segoe UI Emoji" font-size="36px" fill="#000000" text-anchor="start" style="white-space: pre;" direction="ltr">ret = -1</text></g><g stroke-linecap="round"><g transform="translate(1687.2113297221185 2453.25) rotate(0 -0.012424588348949328 68.8031171563016)"><path d="M-0.17 -0.38 C0.24 22.96, 1.22 116.1, 1.69 139.22 M-1.71 -1.62 C-1.4 21.43, 0.09 113.88, 0.77 137.39" stroke="#000000" stroke-width="1" fill="none"></path></g><g transform="translate(1687.2113297221185 2453.25) rotate(0 -0.012424588348949328 68.8031171563016)"><path d="M-10.72 109.54 C-6.74 117.8, -5.61 123.19, 1.61 136.25 M-10.23 109.23 C-6.73 116.32, -3.44 124.73, 0.15 138.38" stroke="#000000" stroke-width="1" fill="none"></path></g><g transform="translate(1687.2113297221185 2453.25) rotate(0 -0.012424588348949328 68.8031171563016)"><path d="M9.8 109.1 C8.86 117.44, 5.08 122.93, 1.61 136.25 M10.29 108.78 C8.34 115.8, 6.19 124.32, 0.15 138.38" stroke="#000000" stroke-width="1" fill="none"></path></g></g><g stroke-linecap="round" transform="translate(1388.25 2592.916666666666) rotate(0 302 28)"><path d="M0.39 -0.27 C151.81 0.98, 302.24 1.2, 604.27 -0.48 M-0.05 0.27 C177.11 2.37, 354.36 1.96, 603.6 -0.37 M602.92 1.61 C602.1 11.88, 605.76 25.02, 602.19 55.74 M603.11 -0.85 C604.87 21.34, 604.3 42.91, 604.96 56.71 M604.27 56.64 C414.7 54.4, 226 54.3, 0.43 56.14 M603.69 55.6 C363.59 56.62, 122.78 56.85, -0.25 55.66 M-1.74 54.52 C1.28 35.85, 0.11 21, 0.88 -1.93 M0.48 56.85 C-0.23 42.32, 1.14 30.25, -0.05 -0.07" stroke="#000000" stroke-width="1" fill="none"></path></g><g transform="translate(1506.75 2597.916666666666) rotate(0 183.5 23)"><text x="183.5" y="32" font-family="Virgil, Segoe UI Emoji" font-size="36px" fill="#000000" text-anchor="middle" style="white-space: pre;" direction="ltr">container_lock(cont);</text></g><g stroke-linecap="round"><g transform="translate(1681.4870813335947 2649.996892556308) rotate(0 3.1291937436217268 62.510300042118615)"><path d="M-0.62 -1.14 C0.31 19.65, 3.45 103.5, 4.56 124.53 M1.26 0.88 C2.66 21.9, 6.15 105.79, 6.87 126.16" stroke="#000000" stroke-width="1" fill="none"></path></g><g transform="translate(1681.4870813335947 2649.996892556308) rotate(0 3.1291937436217268 62.510300042118615)"><path d="M-6.38 97.14 C-1.81 105.61, 1.52 112.1, 5.13 124.29 M-4.24 99.21 C-1.36 104.66, 0.45 108.84, 6.91 125.37" stroke="#000000" stroke-width="1" fill="none"></path></g><g transform="translate(1681.4870813335947 2649.996892556308) rotate(0 3.1291937436217268 62.510300042118615)"><path d="M14.12 96.33 C14.26 104.87, 13.17 111.53, 5.13 124.29 M16.27 98.4 C14.93 104.08, 12.52 108.43, 6.91 125.37" stroke="#000000" stroke-width="1" fill="none"></path></g></g><g stroke-linecap="round" transform="translate(1479.5 2776.25) rotate(0 238.5 28)"><path d="M-0.19 0.09 C98.26 -1.05, 197.57 -0.91, 477.59 0.84 M-0.16 0.08 C143.28 -0.23, 286.88 -0.01, 477.23 0.28 M476.2 -0.98 C475.74 14.06, 478.76 24.36, 477 55.59 M476.3 0.42 C478.35 16.63, 476.76 31.95, 477.04 55.87 M476.84 56.24 C310.62 55.14, 144.12 56.11, 0.54 56.72 M476.76 55.76 C313.26 54.6, 149.47 54.37, 0.3 55.86 M-1.83 57.15 C-0.2 35.55, -1.27 16.1, -1.43 -1.04 M0.4 55.59 C0.51 40.93, -0.03 26.65, 0.13 0.3" stroke="#000000" stroke-width="1" fill="none"></path></g><g transform="translate(1543.5 2781.25) rotate(0 174.5 23)"><text x="174.5" y="32" font-family="Virgil, Segoe UI Emoji" font-size="36px" fill="#000000" text-anchor="middle" style="white-space: pre;" direction="ltr">do_clean_container</text></g><g stroke-linecap="round"><g transform="translate(1689.5 2855) rotate(0 0.48907343931568903 45.08137776738977)"><path d="M-1.08 -0.51 C-0.91 14.85, 1.26 76.54, 2.06 91.99 M0.55 -1.83 C0.44 13.21, 0.38 74.9, 0.88 90.26" stroke="#000000" stroke-width="1" fill="none"></path></g><g transform="translate(1689.5 2855) rotate(0 0.48907343931568903 45.08137776738977)"><path d="M-10.61 61.47 C-4.45 75.1, -0.03 85.47, -0.08 89.99 M-10.59 62.91 C-5.98 71.99, -2.32 80.78, 1.59 89.44" stroke="#000000" stroke-width="1" fill="none"></path></g><g transform="translate(1689.5 2855) rotate(0 0.48907343931568903 45.08137776738977)"><path d="M9.91 61.2 C8.15 74.75, 4.65 85.22, -0.08 89.99 M9.93 62.64 C7.95 71.67, 5.01 80.55, 1.59 89.44" stroke="#000000" stroke-width="1" fill="none"></path></g></g><g stroke-linecap="round" transform="translate(1480.75 2958.75) rotate(0 235 74)"><path d="M-0.81 -0.24 C148.57 -0.34, 296.94 -0.76, 469.62 -0.86 M0.09 0.17 C172.09 -0.77, 344.58 -0.93, 469.94 0.45 M468.62 0.45 C468.15 45.17, 467.07 87.48, 468.28 149.22 M470.5 -0.26 C469.19 31.62, 469.78 65.1, 469.62 147.71 M469.23 147.46 C339.74 145.64, 207.35 145.46, 0.41 148.49 M470.26 147.78 C343.74 147.63, 216.73 147.78, -0.42 148.39 M-1.91 147.97 C0.26 115.75, 1.74 84.66, -1.28 -1.85 M0.43 148 C-0.2 115.73, -0.15 83.45, 0 -0.68" stroke="#000000" stroke-width="1" fill="none"></path></g><g transform="translate(1510.75 2986.75) rotate(0 205 46)"><text x="205" y="32" font-family="Virgil, Segoe UI Emoji" font-size="36px" fill="#000000" text-anchor="middle" style="white-space: pre;" direction="ltr">container_unlock(cont);</text><text x="205" y="78" font-family="Virgil, Segoe UI Emoji" font-size="36px" fill="#000000" text-anchor="middle" style="white-space: pre;" direction="ltr"> container_unref(cont);</text></g><g stroke-linecap="round" transform="translate(105.75000000001091 1638.5000000000027) rotate(0 348.5 52)"><path d="M-0.08 0.28 C198.95 1.81, 398.87 2.62, 696.27 -0.8 M0.36 0.24 C219.7 1.93, 439.72 1.59, 696.91 -0.35 M695.11 1.62 C699.51 23.72, 697.81 48.62, 696.5 105.47 M696.63 -0.56 C696.95 29.97, 695.67 60.04, 697.03 103.8 M696.65 104.32 C443.91 105.85, 190.09 105.62, -0.08 104.77 M697 103.72 C545.15 104.74, 393.69 104.34, -0.25 103.72 M0.8 102.99 C-2.39 66.88, -2.23 33.08, -0.44 -0.67 M0.52 104.8 C0.81 74.07, 1.05 44.15, 0.3 0.64" stroke="#000000" stroke-width="1" fill="none"></path></g><g transform="translate(260.7500000000109 1667.5000000000027) rotate(0 193.5 23)"><text x="193.5" y="32" font-family="Virgil, Segoe UI Emoji" font-size="36px" fill="#000000" text-anchor="middle" style="white-space: pre;" direction="ltr">gc_container_process</text></g><g stroke-linecap="round" transform="translate(89.08333333334667 1275.8333333333358) rotate(0 342.5 48)"><path d="M0.27 0.03 C166.31 1.48, 332.29 0.65, 685.3 -0.43 M-0.15 -0.15 C138.99 -1.87, 277.69 -1.26, 684.68 -0.27 M686.11 -0.94 C684.36 23.87, 683.13 48.19, 686.18 96.29 M685.59 -0.14 C683.79 26.16, 683.64 53.04, 685.8 96.33 M684.21 95.2 C473.55 95.65, 262.66 96.01, 0.72 95.47 M684.66 96.09 C484.84 96.93, 284.72 96.75, -0.25 95.72 M-1.4 96.2 C1.83 72.41, -0.46 49.14, 0.15 -0.25 M-0.33 96.07 C-0.08 59.11, -0.45 21.49, 0.64 0.64" stroke="#000000" stroke-width="1" fill="none"></path></g><g transform="translate(283.0833333333467 1300.8333333333358) rotate(0 148.5 23)"><text x="148.5" y="32" font-family="Virgil, Segoe UI Emoji" font-size="36px" fill="#000000" text-anchor="middle" style="white-space: pre;" direction="ltr">do_gc_container</text></g><g stroke-linecap="round" transform="translate(113.6666666666788 1085.8333333333353) rotate(0 334.5 41.5)"><path d="M0.17 -0.1 C173.44 -1.23, 347.18 -2.25, 669.17 0.59 M-0.16 -0.12 C198.95 -2.35, 397.22 -2.41, 669.16 -0.14 M669.41 0.02 C667.53 18.86, 667.62 35.03, 670.75 81.29 M669.82 0.78 C668.84 27.93, 668.08 57.99, 669.88 82.12 M668.97 82.82 C409.83 80.58, 150.33 80.58, -0.67 83.61 M668.89 82.92 C520.93 81.5, 373.68 81.41, -0.2 83 M-1.62 84.26 C0.88 57.74, -1.91 34.46, -1.92 -0.61 M-0.77 82.39 C-1.71 64.94, -0.31 44.52, -0.97 0.93" stroke="#000000" stroke-width="1" fill="none"></path></g><g transform="translate(367.1666666666788 1104.3333333333353) rotate(0 81 23)"><text x="81" y="32" font-family="Virgil, Segoe UI Emoji" font-size="36px" fill="#000000" text-anchor="middle" style="white-space: pre;" direction="ltr">gchandler</text></g><g stroke-linecap="round"><g transform="translate(426.39334454775235 1174.1666666666688) rotate(0 0.9280541454845661 45.166636793737325)"><path d="M-0.68 -0.32 C-0.44 15.04, 1.84 76.56, 2.53 91.86 M1.17 -1.53 C1.11 13.47, 1.03 74.13, 1.33 89.84" stroke="#000000" stroke-width="1" fill="none"></path></g><g transform="translate(426.39334454775235 1174.1666666666688) rotate(0 0.9280541454845661 45.166636793737325)"><path d="M-9.67 60.93 C-4.76 73.67, -1.25 84.77, 0.44 91.83 M-9.45 61.81 C-6.07 71.54, -1.35 80.84, 1.68 89.78" stroke="#000000" stroke-width="1" fill="none"></path></g><g transform="translate(426.39334454775235 1174.1666666666688) rotate(0 0.9280541454845661 45.166636793737325)"><path d="M10.85 60.77 C7.67 73.46, 3.09 84.62, 0.44 91.83 M11.07 61.66 C7.82 71.51, 5.9 80.86, 1.68 89.78" stroke="#000000" stroke-width="1" fill="none"></path></g></g><g stroke-linecap="round"><g transform="translate(426.1666666666788 1372.0833333333348) rotate(0 1.8091053793250467 127.32852492524785)"><path d="M0.78 -0.1 C1.29 42.52, 3.34 212.37, 3.89 254.92 M-0.28 -1.2 C0.06 41.6, 2.56 212.99, 3.23 255.86" stroke="#000000" stroke-width="1" fill="none"></path></g><g transform="translate(426.1666666666788 1372.0833333333348) rotate(0 1.8091053793250467 127.32852492524785)"><path d="M-7.62 228.71 C-5.63 239.25, -1.29 247.72, 4.89 257.09 M-8.39 227.93 C-4.18 235.51, -1.43 244.64, 2.42 256.61" stroke="#000000" stroke-width="1" fill="none"></path></g><g transform="translate(426.1666666666788 1372.0833333333348) rotate(0 1.8091053793250467 127.32852492524785)"><path d="M12.89 228.41 C7.39 239.19, 4.22 247.77, 4.89 257.09 M12.13 227.63 C10.22 235.32, 6.86 244.54, 2.42 256.61" stroke="#000000" stroke-width="1" fill="none"></path></g></g><g stroke-linecap="round"><g transform="translate(815.333333333343 1702.5000000000018) rotate(0 325.9588684810042 -3.4685728926210686)"><path d="M0.09 0.88 C108.89 -0.37, 544.37 -6.25, 653.23 -7.82 M-1.32 0.3 C107.35 -0.76, 543.63 -5.1, 652.67 -6.45" stroke="#000000" stroke-width="1" fill="none"></path></g><g transform="translate(815.333333333343 1702.5000000000018) rotate(0 325.9588684810042 -3.4685728926210686)"><path d="M626.07 5.34 C633.52 1.88, 641.74 -1.99, 653.58 -5.99 M624.15 4.94 C634.05 0.05, 645.09 -3.01, 652.94 -6.95" stroke="#000000" stroke-width="1" fill="none"></path></g><g transform="translate(815.333333333343 1702.5000000000018) rotate(0 325.9588684810042 -3.4685728926210686)"><path d="M625.84 -15.18 C633.32 -11.74, 641.62 -8.72, 653.58 -5.99 M623.93 -15.58 C633.71 -12.95, 644.83 -8.48, 652.94 -6.95" stroke="#000000" stroke-width="1" fill="none"></path></g></g><g stroke-linecap="round" transform="translate(1263.183934529614 2534.8336690266997) rotate(0 457.5 330)"><path d="M0.66 -0.57 C265.86 -0.7, 532.61 -1.26, 915.33 0.55 M914.46 0.13 C913.89 230.1, 914.98 458.34, 915.47 660.57 M915.73 660.56 C631.23 661.07, 347.9 660.44, 0.51 659.96 M0.54 659.67 C0.33 414.93, 0.69 167.87, 0.55 0.67" stroke="#000000" stroke-width="1.5" fill="none" stroke-dasharray="8 9"></path></g><g stroke-linecap="round"><g transform="translate(1699.8506011962781 3116.5003356933676) rotate(0 1.5005106716089358 115.04145475985024)"><path d="M0.79 0.32 C0.76 38.89, 0.59 192.18, 0.93 230.64 M-0.26 -0.55 C0.01 37.74, 2.77 190.54, 3.26 228.85" stroke="#000000" stroke-width="1" fill="none"></path></g><g transform="translate(1699.8506011962781 3116.5003356933676) rotate(0 1.5005106716089358 115.04145475985024)"><path d="M-6.9 199.6 C-2.38 213.66, 2.55 221.49, 2.68 229.78 M-7.43 199.91 C-5.84 207.98, -2.26 212.48, 3.89 228.46" stroke="#000000" stroke-width="1" fill="none"></path></g><g transform="translate(1699.8506011962781 3116.5003356933676) rotate(0 1.5005106716089358 115.04145475985024)"><path d="M13.62 199.28 C10.12 213.6, 7.02 221.56, 2.68 229.78 M13.09 199.59 C10.17 207.72, 9.24 212.28, 3.89 228.46" stroke="#000000" stroke-width="1" fill="none"></path></g></g><g stroke-linecap="round" transform="translate(1259.8506011962781 3363.1670023600345) rotate(0 477.5 166)"><path d="M-0.52 -0.7 C244.27 -3.04, 489.35 -2.98, 954.71 0.24 M0.3 0.32 C359.21 -2.73, 718.24 -2.88, 954.88 0.39 M953.81 0.27 C954.36 93.91, 954.77 187.93, 954.97 331.63 M954.44 -0.24 C956.08 81.44, 955.14 162.84, 954.43 331.46 M954.68 331.52 C703.2 328.84, 453.07 329.69, -0.64 331.51 M955.01 331.7 C702.28 331.94, 449.92 332.19, -0.05 332.35 M-0.19 332.68 C-2.5 244.6, -1.36 155.08, 0.07 0.3 M0 332.07 C-0.48 248.22, -1.18 164.21, 0.62 0.27" stroke="#000000" stroke-width="1" fill="none"></path></g><g transform="translate(1264.8506011962781 3368.1670023600345) rotate(0 342.5 161)"><text x="0" y="32" font-family="Virgil, Segoe UI Emoji" font-size="36px" fill="#000000" text-anchor="start" style="white-space: pre;" direction="ltr"> /* remove container from gc list */</text><text x="0" y="78" font-family="Virgil, Segoe UI Emoji" font-size="36px" fill="#000000" text-anchor="start" style="white-space: pre;" direction="ltr">        gc_containers_lock();</text><text x="0" y="124" font-family="Virgil, Segoe UI Emoji" font-size="36px" fill="#000000" text-anchor="start" style="white-space: pre;" direction="ltr"></text><text x="0" y="170" font-family="Virgil, Segoe UI Emoji" font-size="36px" fill="#000000" text-anchor="start" style="white-space: pre;" direction="ltr">        linked_list_del(it);</text><text x="0" y="216" font-family="Virgil, Segoe UI Emoji" font-size="36px" fill="#000000" text-anchor="start" style="white-space: pre;" direction="ltr">        (void)gc_containers_to_disk();</text><text x="0" y="262" font-family="Virgil, Segoe UI Emoji" font-size="36px" fill="#000000" text-anchor="start" style="white-space: pre;" direction="ltr"></text><text x="0" y="308" font-family="Virgil, Segoe UI Emoji" font-size="36px" fill="#000000" text-anchor="start" style="white-space: pre;" direction="ltr">        gc_containers_unlock();</text></g><g stroke-linecap="round"><g transform="translate(1723.183934529614 3698.1670023600336) rotate(0 1.536195979688273 90.78280218641112)"><path d="M0.44 0.18 C1.03 30.61, 3.34 151.91, 3.86 182.33 M-0.78 -0.77 C-0.34 29.33, 2.57 150.28, 3.18 180.56" stroke="#000000" stroke-width="1" fill="none"></path></g><g transform="translate(1723.183934529614 3698.1670023600336) rotate(0 1.536195979688273 90.78280218641112)"><path d="M-7.4 153.48 C-3.08 162.03, 1.09 169.43, 3.51 180.56 M-8.51 152.58 C-4.65 162.44, -0.56 172.56, 3.34 180.87" stroke="#000000" stroke-width="1" fill="none"></path></g><g transform="translate(1723.183934529614 3698.1670023600336) rotate(0 1.536195979688273 90.78280218641112)"><path d="M13.12 153.02 C10.73 161.8, 8.19 169.35, 3.51 180.56 M12.01 152.12 C8.82 162.17, 5.86 172.45, 3.34 180.87" stroke="#000000" stroke-width="1" fill="none"></path></g></g><g stroke-linecap="round" transform="translate(1266.517267862946 3913.1670023600336) rotate(0 518 74)"><path d="M0.25 0.37 C337.62 -3.52, 674.46 -2.77, 1035.51 0.52 M-0.21 0.3 C409.99 -3.22, 819.72 -3.24, 1035.87 0.03 M1036.58 0.8 C1037.06 47.18, 1036.01 90.88, 1035.2 149.51 M1036.43 -0.26 C1033.67 52.4, 1034.12 104.4, 1036.35 147.08 M1035.22 147.25 C749.47 144.87, 463.89 144.36, -0.06 147.93 M1035.73 147.84 C647.46 147.24, 259.27 147.27, -0.07 148.11 M1.59 146.75 C0.61 108.4, 3.34 68.11, 0.05 0.93 M-0.16 147.55 C0.72 103.92, 0.22 61.9, 0.29 0.52" stroke="#000000" stroke-width="1" fill="none"></path></g><g transform="translate(1271.517267862946 3941.1670023600336) rotate(0 475 46)"><text x="0" y="32" font-family="Virgil, Segoe UI Emoji" font-size="36px" fill="#000000" text-anchor="start" style="white-space: pre;" direction="ltr">/* apply restart policy for the container after gc */</text><text x="0" y="78" font-family="Virgil, Segoe UI Emoji" font-size="36px" fill="#000000" text-anchor="start" style="white-space: pre;" direction="ltr">        apply_restart_policy_after_gc(id);</text></g><g stroke-linecap="round"><g transform="translate(1725.209096911869 4066.767654466841) rotate(0 0.6989991075515718 79.60515248962793)"><path d="M-0.91 -0.11 C-0.64 26.22, 1.7 132.58, 2.31 158.99 M0.82 -1.21 C0.84 25.82, 0.99 133.69, 1.2 160.42" stroke="#000000" stroke-width="1" fill="none"></path></g><g transform="translate(1725.209096911869 4066.767654466841) rotate(0 0.6989991075515718 79.60515248962793)"><path d="M-9.36 131.75 C-5.58 142.61, -2.99 150.59, 0.29 161.26 M-8.36 132.24 C-5.97 141.35, -1.92 150.27, 0.86 161.3" stroke="#000000" stroke-width="1" fill="none"></path></g><g transform="translate(1725.209096911869 4066.767654466841) rotate(0 0.6989991075515718 79.60515248962793)"><path d="M11.16 131.67 C7.62 142.4, 2.9 150.41, 0.29 161.26 M12.16 132.16 C7.97 141.44, 5.44 150.38, 0.86 161.3" stroke="#000000" stroke-width="1" fill="none"></path></g></g><g stroke-linecap="round" transform="translate(1259.8506011962781 4231.500335693367) rotate(0 535 107.5)"><path d="M-0.61 0.78 C225.17 2.45, 451.41 1.71, 1069.58 -0.62 M0.19 -0.2 C235.3 -4.17, 471.05 -4.06, 1070.4 -0.11 M1071.47 -1.05 C1070.67 44.5, 1070.8 87.11, 1071.39 214.21 M1069.32 0.52 C1070.53 85.46, 1071.41 170.36, 1070.41 215.33 M1070.78 214.88 C716.97 210.41, 362.38 211.52, 0.22 215.35 M1069.7 214.96 C807.82 216.03, 546.07 216.37, -0.28 215.33 M1.68 216.28 C-0.41 134.39, 0 52.74, -0.66 1.27 M0.62 214.7 C1.54 147.42, 0.62 81.69, -0.74 -0.01" stroke="#000000" stroke-width="1" fill="none"></path></g><g transform="translate(1491.8506011962781 4316.000335693367) rotate(0 303 23)"><text x="303" y="32" font-family="Virgil, Segoe UI Emoji" font-size="36px" fill="#000000" text-anchor="middle" style="white-space: pre;" direction="ltr">apply_auto_remove_after_gc(id);</text></g><g stroke-linecap="round"><g transform="translate(2348.1839345296066 4326.500335693366) rotate(0 112.69728077799118 0.6834064383092482)"><path d="M-0.56 0.67 C37.27 0.78, 188.22 0.5, 225.95 0.47 M1.35 -0.02 C39.2 0.2, 188.14 1.18, 225.51 1.39" stroke="#000000" stroke-width="1" fill="none"></path></g><g transform="translate(2348.1839345296066 4326.500335693366) rotate(0 112.69728077799118 0.6834064383092482)"><path d="M198.37 13.06 C201.33 10.89, 207.43 5.79, 225.54 1.55 M197.26 11.22 C203.59 9.63, 209.16 6.44, 225.81 1.01" stroke="#000000" stroke-width="1" fill="none"></path></g><g transform="translate(2348.1839345296066 4326.500335693366) rotate(0 112.69728077799118 0.6834064383092482)"><path d="M198.5 -7.46 C201.4 -5.24, 207.47 -5.95, 225.54 1.55 M197.38 -9.3 C203.75 -6.22, 209.29 -4.74, 225.81 1.01" stroke="#000000" stroke-width="1" fill="none"></path></g></g><g stroke-linecap="round" transform="translate(2588.0172678629424 4140.667002360034) rotate(0 373 190.5)"><path d="M372.96 0.97 C476.01 53.04, 579.33 106.95, 745.95 191.82 M374.38 0.07 C470.38 48.81, 566.7 99.06, 745.63 191.07 M746.2 190.4 C632.81 248.33, 517.86 305.77, 374.16 380.93 M746.17 190.8 C670.29 230.83, 593.41 269.91, 373.95 381.36 M373.37 380.13 C245.67 314.49, 118.56 250.35, -0.2 191.5 M374.52 381.09 C287.42 336.96, 200.04 292.93, 0.52 190.53 M0.92 191.09 C138.2 120.22, 278.28 48.89, 373.19 1.03 M0.05 191.17 C99.97 139.7, 198.3 89.54, 373.85 0.25" stroke="#000000" stroke-width="1" fill="none"></path></g><g transform="translate(2617.5172678629424 4308.167002360034) rotate(0 343.5 23)"><text x="343.5" y="32" font-family="Virgil, Segoe UI Emoji" font-size="36px" fill="#000000" text-anchor="middle" style="white-space: pre;" direction="ltr">if (container_is_running(cont-&gt;state)) </text></g><g stroke-linecap="round"><g transform="translate(3343.8790957922465 4330.722490167718) rotate(0 172.92150096875957 0.5766149262749423)"><path d="M0.06 -0.56 C57.94 -0.67, 289.12 -0.59, 347.21 -0.45 M-1.36 1.76 C56.34 1.8, 287.83 0.85, 346.12 0.85" stroke="#000000" stroke-width="1" fill="none"></path></g><g transform="translate(3343.8790957922465 4330.722490167718) rotate(0 172.92150096875957 0.5766149262749423)"><path d="M317.02 10.73 C325.5 9.96, 335.02 5.47, 345.18 0.13 M317.75 10.51 C325.95 8.02, 332.99 5.98, 346.18 1.1" stroke="#000000" stroke-width="1" fill="none"></path></g><g transform="translate(3343.8790957922465 4330.722490167718) rotate(0 172.92150096875957 0.5766149262749423)"><path d="M316.97 -9.79 C325.5 -4.5, 335.04 -2.93, 345.18 0.13 M317.7 -10.01 C326.11 -6.92, 333.16 -3.38, 346.18 1.1" stroke="#000000" stroke-width="1" fill="none"></path></g></g><g transform="translate(3426.3506011962745 4282.000335693368) rotate(0 39 23)"><text x="0" y="32" font-family="Virgil, Segoe UI Emoji" font-size="36px" fill="#000000" text-anchor="start" style="white-space: pre;" direction="ltr">true</text></g><g stroke-linecap="round" transform="translate(3698.017267862935 4213.8336690267015) rotate(0 486 120)"><path d="M0.77 0.52 C352.22 -1.17, 705.66 -1.4, 972.69 -0.63 M-0.37 -0.12 C259.23 3.42, 518.12 3.77, 972.11 0.26 M972 0.15 C971.99 88.36, 973.69 177.43, 972.38 240.64 M972.53 0.38 C969.76 55.81, 970.26 112.06, 971.72 239.22 M972.47 240 C615.77 242.09, 258.97 241.54, -0.38 240.26 M972.05 240.21 C659.26 241.96, 346.54 242.04, -0.12 240.03 M1.13 239.71 C0.92 188.71, -0.74 137.2, 0.4 -1.5 M-0.26 240.67 C1.74 181.64, 1.22 124.79, 0.03 -0.11" stroke="#000000" stroke-width="1" fill="none"></path></g><g transform="translate(3703.017267862935 4241.8336690267015) rotate(0 439 92)"><text x="0" y="32" font-family="Virgil, Segoe UI Emoji" font-size="36px" fill="#000000" text-anchor="start" style="white-space: pre;" direction="ltr"></text><text x="0" y="78" font-family="Virgil, Segoe UI Emoji" font-size="36px" fill="#000000" text-anchor="start" style="white-space: pre;" direction="ltr">        INFO("container %s already running, skip </text><text x="0" y="124" font-family="Virgil, Segoe UI Emoji" font-size="36px" fill="#000000" text-anchor="start" style="white-space: pre;" direction="ltr">apply auto remove after gc", id);</text><text x="0" y="170" font-family="Virgil, Segoe UI Emoji" font-size="36px" fill="#000000" text-anchor="start" style="white-space: pre;" direction="ltr">        goto out;</text></g><g stroke-linecap="round"><g transform="translate(2961.2310219976243 4536.05567241161) rotate(0 -1.9069286701687815 92.24536102907041)"><path d="M-0.87 1.07 C-1.81 31.57, -4.08 153.53, -4.69 183.9 M0.88 0.59 C0.21 30.68, -2.06 151.54, -2.57 182.23" stroke="#000000" stroke-width="1" fill="none"></path></g><g transform="translate(2961.2310219976243 4536.05567241161) rotate(0 -1.9069286701687815 92.24536102907041)"><path d="M-10.54 151.98 C-6.96 163.05, -4.23 174.91, -3.23 182.64 M-11.91 153.91 C-10.55 159.73, -7.41 165.54, -2.83 183.21" stroke="#000000" stroke-width="1" fill="none"></path></g><g transform="translate(2961.2310219976243 4536.05567241161) rotate(0 -1.9069286701687815 92.24536102907041)"><path d="M9.98 152.35 C5.77 163.13, 0.71 174.85, -3.23 182.64 M8.61 154.28 C5.52 160.09, 4.21 165.83, -2.83 183.21" stroke="#000000" stroke-width="1" fill="none"></path></g></g><g stroke-linecap="round" transform="translate(2620.517267862935 4720.083669026702) rotate(0 411.5 166)"><path d="M-0.41 0.63 C291.28 1.75, 582.53 2.04, 823 0.78 M-0.23 -0.09 C256.3 0.37, 511.71 0.35, 822.78 0.14 M822.72 -1.32 C825.56 99.44, 825.24 197.49, 823.55 332.26 M823.65 0.38 C822.05 100.18, 821.25 200.3, 823.25 331.88 M823.45 332.31 C528.31 331.46, 233.33 330.69, -0.64 331.3 M822.67 331.78 C497.91 332.37, 172.79 332.15, -0.11 331.89 M-1.22 331.69 C-2.45 263.5, -0.77 195.42, 0.02 0.81 M0.29 332.15 C-0.56 219.62, 0.09 105.73, 0.48 -0.09" stroke="#000000" stroke-width="1" fill="none"></path></g><g transform="translate(2656.017267862935 4725.083669026702) rotate(0 376 161)"><text x="376" y="32" font-family="Virgil, Segoe UI Emoji" font-size="36px" fill="#000000" text-anchor="middle" style="white-space: pre;" direction="ltr">if (cont-&gt;hostconfig != NULL &amp;&amp; </text><text x="376" y="78" font-family="Virgil, Segoe UI Emoji" font-size="36px" fill="#000000" text-anchor="middle" style="white-space: pre;" direction="ltr">cont-&gt;hostconfig-&gt;auto_remove_bak) {</text><text x="376" y="124" font-family="Virgil, Segoe UI Emoji" font-size="36px" fill="#000000" text-anchor="middle" style="white-space: pre;" direction="ltr">        </text><text x="376" y="170" font-family="Virgil, Segoe UI Emoji" font-size="36px" fill="#000000" text-anchor="middle" style="white-space: pre;" direction="ltr">(void)set_container_to_removal(cont);</text><text x="376" y="216" font-family="Virgil, Segoe UI Emoji" font-size="36px" fill="#000000" text-anchor="middle" style="white-space: pre;" direction="ltr">        (void)delete_container(cont, true);</text><text x="376" y="262" font-family="Virgil, Segoe UI Emoji" font-size="36px" fill="#000000" text-anchor="middle" style="white-space: pre;" direction="ltr">    }</text><text x="376" y="308" font-family="Virgil, Segoe UI Emoji" font-size="36px" fill="#000000" text-anchor="middle" style="white-space: pre;" direction="ltr"></text></g><g stroke-linecap="round"><g transform="translate(2308.4286851858196 3944.2235384808027) rotate(0 181.3141913878535 -2.0947727732127532)"><path d="M1 0.6 C61.23 -0.22, 302.27 -3.95, 362.57 -4.79 M0.06 -0.12 C60.07 -0.84, 301.48 -3.19, 361.86 -3.76" stroke="#000000" stroke-width="1" fill="none"></path></g><g transform="translate(2308.4286851858196 3944.2235384808027) rotate(0 181.3141913878535 -2.0947727732127532)"><path d="M334.78 7.54 C343.33 3.45, 355.01 -3.73, 359.9 -2.2 M333.42 7.39 C341.3 3.93, 349.26 0.79, 362.72 -2.96" stroke="#000000" stroke-width="1" fill="none"></path></g><g transform="translate(2308.4286851858196 3944.2235384808027) rotate(0 181.3141913878535 -2.0947727732127532)"><path d="M334.58 -12.98 C343.24 -8.92, 355 -7.95, 359.9 -2.2 M333.23 -13.13 C341.19 -10.97, 349.21 -8.48, 362.72 -2.96" stroke="#000000" stroke-width="1" fill="none"></path></g></g><g stroke-linecap="round" transform="translate(2682.0172678630042 3821.250335693364) rotate(0 512.5 123.33333333333303)"><path d="M0.25 0.46 C253.73 -0.71, 508.21 -0.15, 1025.1 0.3 M-0.08 -0.12 C300.41 1.32, 601.67 1.56, 1024.66 0.01 M1024.43 0.82 C1024.62 82.05, 1023.25 163.85, 1023.98 245.22 M1025.28 0.24 C1026.72 97.65, 1025.6 194.69, 1024.3 246.68 M1024.95 246.95 C726.84 244.97, 427.24 245.88, 0.09 246.35 M1024.66 246.36 C642.89 243.49, 260.44 243.05, -0.16 246.91 M-0.5 246.7 C0.77 154.33, 0.06 59.18, 0.22 -1.2 M-0.24 246.41 C0.96 161.45, 0.4 75.74, 0.58 0.42" stroke="#000000" stroke-width="1" fill="none"></path></g><g transform="translate(2688.0172678630042 3875.583669026697) rotate(0 506.5 69)"><text x="506.5" y="32" font-family="Virgil, Segoe UI Emoji" font-size="36px" fill="#000000" text-anchor="middle" style="white-space: pre;" direction="ltr">获得锁之后确定容器不是running状态，之后根据重启策略，若需</text><text x="506.5" y="78" font-family="Virgil, Segoe UI Emoji" font-size="36px" fill="#000000" text-anchor="middle" style="white-space: pre;" direction="ltr">要重启，则调用container_restart_in_thread进行系统的res</text><text x="506.5" y="124" font-family="Virgil, Segoe UI Emoji" font-size="36px" fill="#000000" text-anchor="middle" style="white-space: pre;" direction="ltr">tart</text></g><g stroke-linecap="round" transform="translate(2215.2030309041074 1614.233477274588) rotate(0 355 55)"><path d="M-0.22 -0.61 C224.28 -0.89, 448.65 -1.62, 709.45 0.21 M-0.23 -0.06 C206.89 -0.46, 414.62 -0.32, 709.83 -0.18 M708.9 -0.09 C709.81 36.34, 708.46 70.14, 709.94 108.07 M709.53 -0.44 C710.48 34.13, 710.09 66.98, 709.52 110.19 M709.37 110.46 C518.4 108.01, 327.64 107.75, -0.22 110.21 M709.83 110.05 C475.15 112.76, 239.53 112.98, 0.14 110.13 M-1.21 110.35 C0.95 85.18, 2.8 59.36, -1.87 -0.85 M0.97 110.34 C-0.62 86.38, -0.24 63.75, 0.18 -0.63" stroke="#000000" stroke-width="1" fill="none"></path></g><g transform="translate(2232.2030309041074 1646.233477274588) rotate(0 338 23)"><text x="338" y="32" font-family="Virgil, Segoe UI Emoji" font-size="36px" fill="#000000" text-anchor="middle" style="white-space: pre;" direction="ltr">try_to_resume_container(id, runtime);</text></g><g stroke-linecap="round"><g transform="translate(2548.9530309041074 1731.733477274588) rotate(0 -0.35999624860960466 100.99295868023319)"><path d="M0.25 0.99 C0.44 34.49, 0.32 166.93, 0.35 200.42 M-1.08 0.47 C-0.94 34.15, -0.58 168.28, -0.41 201.52" stroke="#000000" stroke-width="1" fill="none"></path></g><g transform="translate(2548.9530309041074 1731.733477274588) rotate(0 -0.35999624860960466 100.99295868023319)"><path d="M-9.12 173.95 C-9.9 180.62, -5.05 186.73, 1.17 199.61 M-10.37 173.11 C-6.36 181.89, -4.33 191.69, 0.56 201.08" stroke="#000000" stroke-width="1" fill="none"></path></g><g transform="translate(2548.9530309041074 1731.733477274588) rotate(0 -0.35999624860960466 100.99295868023319)"><path d="M11.4 173.87 C5.86 180.6, 5.95 186.73, 1.17 199.61 M10.15 173.03 C7.26 181.98, 2.39 191.81, 0.56 201.08" stroke="#000000" stroke-width="1" fill="none"></path></g></g></svg>