<svg version="1.1" xmlns="http://www.w3.org/2000/svg" viewBox="0 0 2156.345109727654 2957.8833211263004" width="2156.345109727654" height="2957.8833211263004">
  <!-- svg-source:excalidraw -->
  
  <defs>
    <style class="style-fonts">
      @font-face {
        font-family: "Virgil";
        src: url("https://excalidraw.com/Virgil.woff2");
      }
      @font-face {
        font-family: "Cascadia";
        src: url("https://excalidraw.com/Cascadia.woff2");
      }
    </style>
  </defs>
  <rect x="0" y="0" width="2156.345109727654" height="2957.8833211263004" fill="#ffffff"></rect><g stroke-linecap="round" transform="translate(124.23335774738916 10) rotate(0 141.5999755859375 116.79998779296875)"><path d="M16 62.94 C16 62.94, 16 62.94, 16 62.94 M16 62.94 C16 62.94, 16 62.94, 16 62.94 M10.77 73.51 C24.81 59.12, 36.45 46.94, 44.15 34.09 M12.84 73.86 C24.43 59.37, 38.51 44.88, 45.13 36.37 M8.94 82.54 C22.27 66.7, 41.12 47.66, 57.15 29.73 M7.33 83.69 C21.42 68.68, 34.03 54.43, 57.15 27.78 M3.07 95.19 C27.89 64.72, 53.51 40.88, 69.68 21.2 M3.81 93.27 C22.79 74.48, 39.1 54.31, 68.3 20.92 M2.62 101.52 C29.89 74.42, 52.26 45.72, 84.46 12.73 M2.22 101.5 C20.98 80.72, 40.87 59.46, 82.37 11.6 M4.01 110.12 C25.9 86.34, 45.93 61.04, 89.34 10.27 M2.48 108.23 C18.95 87.32, 37.34 66.71, 87.94 10.54 M2.33 115.13 C28.85 86.96, 54.01 57.49, 94.96 8.98 M4.15 114.81 C35.43 75.13, 70.19 38.25, 95.15 9.42 M2.36 120.33 C29.99 91.78, 56.32 57.44, 103.66 7.75 M2.4 120.72 C26.48 91.5, 51.41 62.74, 102.42 6.92 M3.52 124.66 C32.64 91.72, 63.48 54.28, 106.99 5.76 M2.98 126.61 C23.63 101.3, 45.47 76.04, 109.08 5.79 M2.34 131.6 C44.1 85.7, 90.1 34.29, 115.4 3.24 M3.61 132.21 C42.61 87.21, 82.64 41.61, 114.91 5.15 M2.71 137.15 C32.1 104.41, 63.25 70.67, 119.26 3.78 M2.21 139.87 C43.23 91.6, 84.14 43.92, 120.19 3.36 M2.93 141.97 C29.79 115.04, 54.63 84.61, 127.23 2.93 M4.93 143.14 C37.1 105.35, 68.95 68.28, 128.02 2.09 M8.14 146.64 C34.67 115.66, 63.71 82.85, 132.62 0.99 M6.56 147.72 C47.39 99.63, 91.16 50.88, 131.66 1.73 M8.57 151.51 C56.92 97.94, 102.52 46.14, 139.02 3.81 M7.72 149.67 C55.87 99.43, 100.51 48.67, 138.11 3.62 M8.81 155.2 C54.77 106.29, 98.48 55.34, 143.86 2.67 M9.98 155.52 C49.16 109.93, 89.11 64.76, 142.79 2.55 M10.73 157.77 C61.51 101.63, 109.77 43.97, 146.44 2.04 M12.22 158.07 C65.38 97.39, 119.42 36.16, 146.85 3.75 M13.49 163.77 C43.92 128.31, 75.64 91.18, 153.15 2.62 M14.14 162.94 C57.6 111, 100.39 60.95, 152.88 3.51 M13.87 167.2 C66.58 108.24, 118.53 47.53, 158.44 3.27 M15.24 167.4 C47.81 127.16, 83.43 88.06, 158 4.83 M18.17 170.32 C48.74 133.58, 80.79 97.99, 162.88 3.14 M18.06 171.98 C59.07 122.74, 100.5 75.22, 162.16 3.95 M17.55 175.84 C75.68 112.2, 130.87 46.02, 168.32 5.69 M18.32 175.01 C66.27 121.64, 110.53 69.55, 168.58 4.73 M22.03 179.75 C81.84 106.37, 143.58 38.76, 171.88 2.65 M21.54 178.78 C54.28 140.99, 85.65 105.46, 173.37 4.44 M25.2 182.18 C60.83 138.48, 97.3 97.9, 178.6 5.75 M24.13 180.17 C66.71 130.98, 110.24 82.05, 178.25 4.82 M26.18 184.67 C67.83 135.37, 111.04 88.48, 179.91 5.34 M26.7 184.67 C77.82 125.19, 128.1 65.77, 181.64 6.77 M30.55 188.07 C75.33 137.38, 115.02 89.4, 186.94 7.68 M30.76 186.08 C65.74 145.38, 101.08 105.05, 186.58 8.3 M34.35 188.09 C81.19 136.7, 126.43 81.44, 190.48 10.29 M32.88 188.65 C67.52 150.99, 102.15 109.78, 190.22 9.09 M36.59 191.84 C70.97 149.42, 106.1 111.3, 195.38 10.27 M36.25 192.13 C83.33 140.06, 128.88 87.45, 194.57 9.86 M39.28 196.96 C72.36 156.18, 108.01 116.48, 198.74 11.83 M38.98 195.65 C79.52 147.21, 120.75 99.97, 197.35 12.06 M43.14 198.18 C94.91 139.56, 146.03 79.01, 204.07 14.33 M42.35 198 C102.12 129.47, 161.33 60.21, 202.66 12.26 M45.12 199.45 C95.3 145.09, 141.52 90.93, 207.07 13.03 M44.88 201.06 C102.59 132.43, 162.52 66.5, 207.62 14.78 M47.31 203.75 C81.26 168.27, 112.86 128.84, 209.6 16.88 M47.19 203.47 C88.67 154.75, 131.27 106.16, 211.4 14.58 M51.1 205.08 C93.61 157.88, 135.64 108.48, 215.41 15.86 M50.99 205.29 C93.29 156.51, 136.85 107.5, 215.02 15.93 M53.66 207.58 C88.75 168.25, 122.37 129.22, 217.15 19.61 M53.14 207.89 C105.66 149.94, 156.53 91.78, 218.13 18.23 M56.52 209.48 C121.32 136.83, 181.95 64.91, 222.93 22.92 M57.41 210.65 C90.72 171.41, 124.35 133.4, 221.84 21.15 M60.07 211.33 C106.08 160.12, 150.62 109.38, 224.37 24.38 M61.66 211.4 C118.42 144.43, 176.81 77.4, 224.57 24.99 M63.66 214.84 C129.36 138.95, 194.98 64.53, 227.72 26.82 M64.4 214.71 C111.13 159.7, 159.06 106.28, 227.71 26.62 M67.91 216.47 C108.36 168.12, 151.99 122.39, 229.69 28.36 M67.94 216.13 C103.02 175.85, 135.86 137.09, 231.18 28.07 M72.9 218.39 C136.05 143.61, 197.82 74.45, 234.28 30.35 M71.57 217.6 C122.5 160.32, 171.63 103.49, 234.6 31.94 M74.52 218.04 C135.88 151.24, 195.11 80.83, 239.08 34.23 M75.41 219.18 C131.29 158.36, 184.53 97.06, 238.28 32.83 M79.1 222.37 C125.6 169.29, 169.93 120.51, 239.52 36.61 M80.06 221.35 C125.42 167.3, 170.43 114.96, 240.18 35.93 M83.37 224.24 C145.16 151.79, 207.46 79.78, 244.16 38.97 M83.89 223.22 C144.24 153.17, 207.75 81.04, 244.52 38.33 M85.72 226.56 C139.87 162.86, 195.28 98.36, 246.1 39.5 M87.69 224.9 C148.09 153.59, 208.5 82.99, 247.14 41.11 M88.6 229.28 C128.47 183.72, 167.49 136.05, 252.04 43.04 M89.61 228.12 C137.39 173.32, 185.51 117.12, 251.39 42.34 M93.96 229.24 C149.8 165.84, 202.06 106.41, 252.34 46.85 M95.43 227.45 C151.31 163.25, 209.91 95.08, 253.83 46.42 M97.73 229.41 C160.71 157.4, 220.98 86.21, 254.74 49 M98.97 229.88 C155.55 164.13, 213.54 97.21, 254.78 48.99 M103.78 229.46 C156.73 169.53, 210.52 109.45, 256.4 52.7 M104.27 230.06 C155.71 170.72, 207.86 110.2, 257.67 53.25 M107.02 229.33 C150.97 184.69, 190.15 136.34, 259.17 56.65 M107.92 231 C163.06 168.49, 217.68 105.8, 259.32 56.54 M113.56 231.11 C155.26 184.11, 199.04 132.77, 262.7 61.1 M114.09 230.4 C148.01 194.51, 179.39 155.94, 262.3 60.31 M118.28 230.86 C152.92 193.09, 186.78 151.9, 265.79 62.2 M117.99 231.61 C150.93 194.01, 182.88 157.09, 264.42 64.05 M121.64 234.17 C161.13 188.8, 200.33 144.44, 266.09 65.05 M122.71 233.26 C160.78 191.13, 197.83 148.83, 267.88 66.83 M127.72 234.18 C162.06 193.61, 198.89 150.3, 268.52 71.27 M127.76 233.33 C180.13 172.44, 233.78 111.08, 270.33 69.81 M133.68 234.21 C161.08 201.26, 193.25 165.58, 271.19 74.71 M132.23 234.26 C175.84 185.88, 217.93 136.97, 272.37 72.61 M137.95 236 C187.44 177.74, 236.73 121.88, 273.73 76.54 M137.07 234.99 C166.16 201.27, 194.84 167.2, 273.78 77.56 M140.73 233.87 C173.73 199.1, 203.47 165.94, 275.77 82.8 M141.97 235.35 C193.32 178.98, 242.76 120.8, 274.55 82.29 M148.49 235.38 C177 203.54, 205.77 168.17, 275.72 86.08 M148.87 233.92 C200.15 177.55, 249.74 119.05, 277.5 85.65 M152.27 234.47 C187.25 195.62, 216.42 160.2, 279.1 90.02 M154.61 233.56 C188.57 194.28, 221.55 157, 278.41 89.98 M159.54 234.11 C204.81 181.9, 250.39 127.26, 278.19 94.27 M159.61 233.01 C201.69 183.55, 246.52 133.55, 278.42 95.99 M166.34 231.38 C208.13 178.75, 254.45 127.71, 280.76 100.07 M165.1 232.37 C203.54 190.67, 239.51 148.31, 280.46 101.36 M169.39 231.81 C196.15 205.34, 217.24 175.56, 281.18 106.24 M170.41 232.31 C196.4 201.73, 221.83 172.56, 282.11 104.18 M178.47 227.75 C217.88 182.14, 261.53 137.61, 281.39 111.48 M179.22 227.87 C212.28 192.3, 242.74 154.62, 283.63 109.75 M188.19 226.72 C223.66 182.09, 262.13 140.29, 284.63 115.18 M188.39 225.35 C213.81 191.54, 241.26 160.39, 283.59 114.97 M194.91 224.42 C223.27 189.85, 251.2 158.53, 281.8 122.75 M194.82 222.88 C221.72 192.5, 249.3 162.09, 282.22 122.17 M204.41 220 C229.29 191.3, 255.88 161.65, 281.71 129.12 M204.07 220.22 C226.44 193.64, 248.01 168.41, 281.63 130.14 M213.04 214.73 C234.09 189.94, 262.28 160.6, 278.87 139.12 M211.48 216.94 C224.97 198.26, 241.74 180.58, 278.6 139.07 M220.57 213.23 C233.12 195.28, 248.59 181.77, 277.85 145.77 M220.03 212.18 C241.18 188.53, 262.1 163.62, 276.85 146.35 M223.41 214.61 C234.06 202.87, 247.81 187.04, 277.57 152.83 M223.49 213.35 C238.53 196.49, 255.34 178.88, 276.33 153.64 M240.55 201.55 C245.3 193.7, 252.06 187.17, 263.24 171.99 M239.3 201.74 C247.38 193.43, 256.47 183.53, 263.13 173.61" stroke="#4c6ef5" stroke-width="0.5" fill="none"></path><path d="M82.03 10.37 C94.19 3.55, 110.81 2.54, 126 1.44 C141.19 0.35, 158.3 1.25, 173.18 3.79 C188.07 6.33, 202.46 10.22, 215.32 16.68 C228.18 23.14, 240.58 32.55, 250.35 42.54 C260.13 52.53, 268.35 64.76, 273.97 76.63 C279.58 88.51, 283.7 101.19, 284.03 113.8 C284.36 126.42, 280.82 140.15, 275.92 152.32 C271.03 164.5, 263.67 176.85, 254.64 186.84 C245.62 196.83, 234.34 205.29, 221.78 212.25 C209.22 219.22, 193.89 225.18, 179.28 228.62 C164.67 232.07, 149.37 233.4, 134.12 232.92 C118.87 232.43, 102.01 230.42, 87.79 225.7 C73.58 220.99, 60.42 213.12, 48.85 204.65 C37.28 196.18, 26.08 185.96, 18.35 174.9 C10.62 163.84, 5.16 150.52, 2.46 138.29 C-0.25 126.06, -0.13 114.05, 2.1 101.52 C4.34 88.99, 8.89 74.45, 15.85 63.11 C22.81 51.78, 30.92 42.73, 43.88 33.52 C56.84 24.31, 83.09 12.37, 93.63 7.86 C104.18 3.35, 106.25 4.65, 107.15 6.45 M76.29 13.72 C88.23 6.39, 103.99 3.86, 119.15 2.08 C134.3 0.29, 152.17 0.69, 167.21 2.99 C182.24 5.29, 196.27 9.75, 209.37 15.86 C222.46 21.96, 235.5 30.34, 245.77 39.6 C256.05 48.86, 264.85 59.66, 271.03 71.39 C277.2 83.12, 281.84 97.61, 282.82 109.97 C283.81 122.33, 280.98 133.65, 276.94 145.55 C272.89 157.45, 266.73 170.85, 258.57 181.35 C250.41 191.86, 240.16 200.82, 227.98 208.56 C215.8 216.3, 200.02 223.72, 185.49 227.79 C170.95 231.86, 156.09 233.18, 140.78 232.98 C125.47 232.78, 108.41 230.55, 93.63 226.61 C78.85 222.68, 64 217.13, 52.08 209.38 C40.15 201.62, 29.97 191.14, 22.08 180.09 C14.18 169.04, 8.22 155.62, 4.72 143.07 C1.22 130.52, -0.25 117.13, 1.09 104.8 C2.42 92.48, 6.61 80.45, 12.73 69.1 C18.85 57.75, 27.44 46.16, 37.83 36.7 C48.22 27.23, 68.51 15.85, 75.05 12.33 C81.59 8.82, 75.88 13.56, 77.09 15.58" stroke="#000000" stroke-width="1" fill="none"></path></g><g transform="translate(203.83333333332666 103.79998779296875) rotate(0 62 23)"><text x="62" y="32" font-family="Virgil, Segoe UI Emoji" font-size="36px" fill="#000000" text-anchor="middle" style="white-space: pre;" direction="ltr">paused</text></g><g stroke-linecap="round"><g transform="translate(260.4024193652822 247.32211908041086) rotate(0 -0.9640528201007328 67.96814859542974)"><path d="M0.68 -1.18 C0.29 21.62, -1.41 113.06, -2.15 135.83 M-0.43 0.82 C-0.9 23.86, -2.46 114.53, -2.61 137.11" stroke="#000000" stroke-width="1" fill="none"></path></g><g transform="translate(260.4024193652822 247.32211908041086) rotate(0 -0.9640528201007328 67.96814859542974)"><path d="M-14.47 110.37 C-10.46 116.41, -8.01 125.23, -1.73 136.11 M-12.67 108.23 C-9.96 115.95, -7.98 124.17, -1.75 137.65" stroke="#000000" stroke-width="1" fill="none"></path></g><g transform="translate(260.4024193652822 247.32211908041086) rotate(0 -0.9640528201007328 67.96814859542974)"><path d="M6.05 110.63 C3.66 116.71, -0.31 125.44, -1.73 136.11 M7.85 108.49 C5.25 116.21, 1.92 124.36, -1.75 137.65" stroke="#000000" stroke-width="1" fill="none"></path></g></g><g stroke-linecap="round" transform="translate(24.166666666660603 386.79998779296864) rotate(0 265 52.5)"><path d="M0.44 0.44 C156.11 -0.56, 310.26 0.94, 530.3 0.16 M0.31 -0.3 C129.47 -1.17, 258.58 -1.1, 530.06 -0.01 M529.16 -0.68 C529.98 39.58, 528.34 82.65, 531.2 104.18 M530.85 -0.03 C530.27 29.44, 529.18 58.12, 529.37 105.07 M529.64 104.43 C352.79 105.11, 175.52 105.43, -0.64 105.56 M529.85 105.03 C336.2 105.15, 142.54 104.67, 0.23 104.82 M0.34 103.23 C0.99 80.69, 0.71 55.35, 1.11 -1.33 M0.22 104.8 C1.09 68.15, 0.33 29.81, 0.89 0.62" stroke="#000000" stroke-width="1" fill="none"></path></g><g transform="translate(110.1666666666606 416.29998779296864) rotate(0 179 23)"><text x="179" y="32" font-family="Virgil, Segoe UI Emoji" font-size="36px" fill="#000000" text-anchor="middle" style="white-space: pre;" direction="ltr">container_pause_cb</text></g><g stroke-linecap="round"><g transform="translate(274.7023583499322 492.9379188274514) rotate(0 1.8324092731536439 78.33460303248566)"><path d="M-0.76 0.67 C-0.16 26.68, 3.57 129.46, 4.43 155.14 M1.04 -0.02 C1.52 26.27, 3.56 130.71, 4.09 156.69" stroke="#000000" stroke-width="1" fill="none"></path></g><g transform="translate(274.7023583499322 492.9379188274514) rotate(0 1.8324092731536439 78.33460303248566)"><path d="M-5.61 130.63 C-2.95 140.86, 0.35 149.8, 3.96 156.03 M-6.56 127.77 C-2.73 137.28, -0.9 145.14, 4.42 156.07" stroke="#000000" stroke-width="1" fill="none"></path></g><g transform="translate(274.7023583499322 492.9379188274514) rotate(0 1.8324092731536439 78.33460303248566)"><path d="M14.9 130.23 C10.06 140.47, 5.86 149.56, 3.96 156.03 M13.96 127.36 C11.86 137.18, 7.76 145.15, 4.42 156.07" stroke="#000000" stroke-width="1" fill="none"></path></g></g><g stroke-linecap="round" transform="translate(29.58333333333212 651.3833211263013) rotate(0 308.5 74)"><path d="M0.36 -0.47 C187.56 1.75, 376.74 1.52, 617.49 0.71 M0.1 0.28 C158.12 0.53, 317.01 0.58, 616.98 -0.18 M618.58 1.76 C615.4 39.09, 615.21 77.95, 617.2 146.1 M616.73 -0.66 C616.75 51.34, 617.3 101.72, 616.49 148.32 M616.9 148.25 C437.48 146.07, 258.24 147.16, 0.71 148.56 M617.39 147.92 C474.6 148.25, 331.61 148.18, -0.09 148.31 M1.41 148.12 C0.36 115.9, 1.79 83.12, 0.05 1.85 M0.2 148.33 C-0.06 99.44, 0.07 48.66, -0.37 0.53" stroke="#000000" stroke-width="1" fill="none"></path></g><g transform="translate(50.58333333333212 656.3833211263013) rotate(0 287.5 69)"><text x="287.5" y="32" font-family="Virgil, Segoe UI Emoji" font-size="36px" fill="#000000" text-anchor="middle" style="white-space: pre;" direction="ltr"> cont = </text><text x="287.5" y="78" font-family="Virgil, Segoe UI Emoji" font-size="36px" fill="#000000" text-anchor="middle" style="white-space: pre;" direction="ltr">containers_store_get(name)用于</text><text x="287.5" y="124" font-family="Virgil, Segoe UI Emoji" font-size="36px" fill="#000000" text-anchor="middle" style="white-space: pre;" direction="ltr">获得id对应的conf</text></g><g stroke-linecap="round"><g transform="translate(284.4382154133691 802.4899518260797) rotate(0 0.38553017190588434 64.11006825175059)"><path d="M-1.07 0.44 C-0.75 21.81, 1.41 107.36, 1.84 128.59 M0.57 -0.37 C0.78 20.62, 1.1 105.24, 1.15 126.81" stroke="#000000" stroke-width="1" fill="none"></path></g><g transform="translate(284.4382154133691 802.4899518260797) rotate(0 0.38553017190588434 64.11006825175059)"><path d="M-8.47 99.46 C-5 107.29, -3.24 113.42, 0.07 126.53 M-9.92 98.98 C-5.86 107.49, -3.47 116.48, 0.91 127.14" stroke="#000000" stroke-width="1" fill="none"></path></g><g transform="translate(284.4382154133691 802.4899518260797) rotate(0 0.38553017190588434 64.11006825175059)"><path d="M12.05 99.39 C9.49 107.06, 5.22 113.21, 0.07 126.53 M10.61 98.92 C8.04 107.48, 3.81 116.49, 0.91 127.14" stroke="#000000" stroke-width="1" fill="none"></path></g></g><g stroke-linecap="round" transform="translate(22.5 935.5499877929681) rotate(0 299 67)"><path d="M0.34 0.04 C201.04 1.27, 401.5 0.7, 597.62 0.28 M-0.23 0.08 C121.81 -0.39, 243.21 -0.25, 598.23 -0.2 M597.33 0.7 C600.5 53.26, 599.57 107.74, 597.44 133.91 M597.16 0.7 C596.95 42.36, 597.71 86.24, 598.11 134.56 M598.11 133.96 C409.26 135.96, 219.72 134.74, 0.69 134.73 M597.76 133.61 C359.46 131.76, 121.08 132, -0.36 133.96 M1.98 133.69 C-2.79 107.08, -0.95 78.72, 1.2 -0.02 M-0.34 133.49 C1.31 89.1, 1.08 45.16, -0.25 -0.35" stroke="#000000" stroke-width="1" fill="none"></path></g><g transform="translate(37.5 956.5499877929681) rotate(0 284 46)"><text x="284" y="32" font-family="Virgil, Segoe UI Emoji" font-size="36px" fill="#000000" text-anchor="middle" style="white-space: pre;" direction="ltr">container_is_in_gc_progress(id)</text><text x="284" y="78" font-family="Virgil, Segoe UI Emoji" font-size="36px" fill="#000000" text-anchor="middle" style="white-space: pre;" direction="ltr">若进程在gc状态，则直接退出</text></g><g stroke-linecap="round"><g transform="translate(282.2298039694542 1071.0678449358252) rotate(0 0.0755985393834635 49.29556004294207)"><path d="M-0.16 0.78 C-0.04 17.32, -0.62 82.49, -0.27 98.45 M-1.7 0.14 C-1.15 16.44, 1.27 80.66, 1.85 96.87" stroke="#000000" stroke-width="1" fill="none"></path></g><g transform="translate(282.2298039694542 1071.0678449358252) rotate(0 0.0755985393834635 49.29556004294207)"><path d="M-8.14 67.21 C-5.41 77.07, -6.09 81.03, 1.47 97.89 M-9.2 68.23 C-6.11 76.72, -4.44 83.41, 2.41 96.26" stroke="#000000" stroke-width="1" fill="none"></path></g><g transform="translate(282.2298039694542 1071.0678449358252) rotate(0 0.0755985393834635 49.29556004294207)"><path d="M12.37 66.46 C10.59 76.46, 5.39 80.58, 1.47 97.89 M11.31 67.48 C9.42 76.09, 6.11 82.96, 2.41 96.26" stroke="#000000" stroke-width="1" fill="none"></path></g></g><g stroke-linecap="round" transform="translate(10 1170.3833618164062) rotate(0 289.5 42.5)"><path d="M0.63 0.45 C193.07 1.06, 387.09 2.29, 579.11 -0.65 M0.31 -0.19 C201.84 0.41, 402.57 0.77, 578.72 0.35 M577.88 -1.27 C577.2 20.79, 577.08 43.45, 578.67 86.36 M579.04 0.79 C579.6 25.63, 580.1 52.35, 579.31 85.22 M579.04 84.53 C416.59 85.98, 253.45 85.03, 0.53 84.58 M578.71 85.36 C378.9 86.63, 178.82 87.04, 0.34 85.02 M-0.12 84.17 C0.8 66.35, -0.8 46.56, 0.12 0.26 M0.8 85.52 C-1.28 52.26, -0.39 18.43, 0.82 0.42" stroke="#000000" stroke-width="1" fill="none"></path></g><g transform="translate(118.5 1189.8833618164062) rotate(0 181 23)"><text x="181" y="32" font-family="Virgil, Segoe UI Emoji" font-size="36px" fill="#000000" text-anchor="middle" style="white-space: pre;" direction="ltr">do_pause_container</text></g><g stroke-linecap="round"><g transform="translate(605.7142857142862 1200.8822441392585) rotate(0 87.94963848021325 0.9440986094207631)"><path d="M-0.57 0.24 C28.89 0.83, 147.07 2.53, 176.47 2.57 M1.33 -0.69 C30.69 -0.32, 146.8 0.67, 175.73 0.99" stroke="#000000" stroke-width="1" fill="none"></path></g><g transform="translate(605.7142857142862 1200.8822441392585) rotate(0 87.94963848021325 0.9440986094207631)"><path d="M147.83 11.64 C157.09 7.95, 161.44 6.37, 177.65 0.83 M146.83 11.95 C154.03 9.08, 161.1 5.47, 176.17 1.25" stroke="#000000" stroke-width="1" fill="none"></path></g><g transform="translate(605.7142857142862 1200.8822441392585) rotate(0 87.94963848021325 0.9440986094207631)"><path d="M148.03 -8.88 C157.06 -6.89, 161.36 -2.78, 177.65 0.83 M147.03 -8.57 C154.38 -6.45, 161.4 -5.07, 176.17 1.25" stroke="#000000" stroke-width="1" fill="none"></path></g></g><g stroke-linecap="round" transform="translate(792.5 1153.0499877929688) rotate(0 274.5 51)"><path d="M-0.04 -0.66 C188.65 -0.87, 378.14 -1.61, 549.8 -0.59 M0.16 -0.01 C186.72 0.05, 374.13 0.2, 548.92 -0.07 M549.73 0.89 C549.32 31.96, 550.04 60.74, 549.59 103.4 M549.76 -0.18 C548.04 37.11, 547.14 71.69, 549.93 101.21 M548.39 101.86 C357.53 100.29, 165.65 100.32, -0.64 101.84 M549.28 102.04 C351.47 100.84, 153.73 100.34, 0.11 102.27 M-1.54 103.1 C1.77 65.32, -0.72 26.97, 0.69 -1.42 M-0.5 102.8 C0.29 75.2, 1.24 46.71, -0.82 -0.18" stroke="#000000" stroke-width="1" fill="none"></path></g><g transform="translate(803 1158.0499877929688) rotate(0 264 46)"><text x="264" y="32" font-family="Virgil, Segoe UI Emoji" font-size="36px" fill="#000000" text-anchor="middle" style="white-space: pre;" direction="ltr">container_lock(cont);获得容器 </text><text x="264" y="78" font-family="Virgil, Segoe UI Emoji" font-size="36px" fill="#000000" text-anchor="middle" style="white-space: pre;" direction="ltr">的锁</text></g><g stroke-linecap="round"><g transform="translate(1065.5016794276453 1273.049987792967) rotate(0 0.6356611852552305 47.26400607538727)"><path d="M0.42 -0.59 C0.7 15.21, 1.92 79.44, 2.1 95.12 M-0.83 1.72 C-0.74 17.16, 0.94 78.04, 1.13 93.49" stroke="#000000" stroke-width="1" fill="none"></path></g><g transform="translate(1065.5016794276453 1273.049987792967) rotate(0 0.6356611852552305 47.26400607538727)"><path d="M-10.69 65.47 C-4.44 73.7, -3.53 85.21, -0.76 94.77 M-9.22 64.7 C-7.25 74.04, -3.15 82.39, 0.9 92.58" stroke="#000000" stroke-width="1" fill="none"></path></g><g transform="translate(1065.5016794276453 1273.049987792967) rotate(0 0.6356611852552305 47.26400607538727)"><path d="M9.83 65.05 C9.24 73.49, 3.31 85.14, -0.76 94.77 M11.3 64.27 C7.06 73.94, 4.95 82.42, 0.9 92.58" stroke="#000000" stroke-width="1" fill="none"></path></g></g><g stroke-linecap="round" transform="translate(711.0833333333358 1371.3833211263004) rotate(0 476.5 51.5)"><path d="M-0.6 0.13 C377.47 3.18, 754.63 2.41, 952.93 0.07 M-0.01 -0.24 C279.2 3.61, 558.98 3.53, 953.35 -0.1 M954.55 -0.71 C952.42 34.59, 952.85 70.19, 952.3 104.63 M952.89 -0.37 C953.55 30.89, 952.67 61.66, 952.11 102.03 M953.2 102.26 C635.88 105.87, 319.71 106.18, 0 103.3 M952.78 103.11 C725.53 106.12, 497.17 106.16, 0.34 103.29 M-1.76 102.98 C0.2 65.85, -0.25 30.71, 0.64 1.76 M0.67 102.91 C-0.94 80.06, -0.78 57.01, -0.66 -0.98" stroke="#000000" stroke-width="1" fill="none"></path></g><g transform="translate(726.0833333333358 1399.8833211263004) rotate(0 461.5 23)"><text x="461.5" y="32" font-family="Virgil, Segoe UI Emoji" font-size="36px" fill="#000000" text-anchor="middle" style="white-space: pre;" direction="ltr">container_is_running(cont-&gt;state)确保容器在运行阶段</text></g><g stroke-linecap="round"><g transform="translate(1079.054580656748 1475.3833211263004) rotate(0 1.6433496054223724 39.86193546968826)"><path d="M-0.62 1.07 C-0.49 14.05, 1.27 65.03, 1.7 77.71 M1.25 0.58 C1.67 13.77, 3.97 66.22, 3.91 79.14" stroke="#000000" stroke-width="1" fill="none"></path></g><g transform="translate(1079.054580656748 1475.3833211263004) rotate(0 1.6433496054223724 39.86193546968826)"><path d="M-5.22 49.59 C-3.28 60.64, -0.06 71, 2.98 78.74 M-6.14 51.57 C-4.09 59.91, -0.17 68.49, 3.55 79.02" stroke="#000000" stroke-width="1" fill="none"></path></g><g transform="translate(1079.054580656748 1475.3833211263004) rotate(0 1.6433496054223724 39.86193546968826)"><path d="M15.29 49.12 C9.52 60.24, 5.04 70.78, 2.98 78.74 M14.37 51.09 C10.45 59.45, 8.39 68.16, 3.55 79.02" stroke="#000000" stroke-width="1" fill="none"></path></g></g><g stroke-linecap="round" transform="translate(594.0000000000018 1554.299987792967) rotate(0 523.5 28)"><path d="M-0.65 -0.31 C392.64 4.68, 784.49 3.55, 1047.07 0.38 M0.11 0.12 C344.65 3.45, 689.42 3.61, 1046.86 0.08 M1048.78 1.88 C1046.45 11.93, 1048.43 24.52, 1048.2 56.86 M1046.14 0.16 C1048.08 11.51, 1047.54 25.04, 1047.82 55.2 M1047.19 55.47 C653.97 53.39, 261.11 52.4, -0.56 55.68 M1046.95 55.72 C811.56 54.46, 576.09 55.06, -0.27 55.81 M1.23 58 C-1.3 40.66, -0.31 22.85, 0.93 -0.85 M0.62 55.03 C0.46 37.19, -0.96 18.82, -0.46 0.7" stroke="#000000" stroke-width="1" fill="none"></path></g><g transform="translate(608.5000000000018 1559.299987792967) rotate(0 509 23)"><text x="509" y="32" font-family="Virgil, Segoe UI Emoji" font-size="36px" fill="#000000" text-anchor="middle" style="white-space: pre;" direction="ltr">container_is_paused(cont-&gt;state)查询是不是已经paused了</text></g><g stroke-linecap="round"><g transform="translate(1091.0631961905092 1623.049987792967) rotate(0 -1.2101259170722187 34.430609755590524)"><path d="M0.44 -1.07 C-0.01 10.54, -1.58 58.25, -2.31 69.93 M-0.79 0.99 C-1.36 12.27, -2.74 56.84, -2.86 68.42" stroke="#000000" stroke-width="1" fill="none"></path></g><g transform="translate(1091.0631961905092 1623.049987792967) rotate(0 -1.2101259170722187 34.430609755590524)"><path d="M-14.26 41.27 C-7.28 47.89, -5.64 56.92, -2.99 66.53 M-13.08 40.14 C-9.93 48.74, -5.65 56.79, -2.89 68" stroke="#000000" stroke-width="1" fill="none"></path></g><g transform="translate(1091.0631961905092 1623.049987792967) rotate(0 -1.2101259170722187 34.430609755590524)"><path d="M6.25 41.73 C6.46 48.27, 1.34 57.15, -2.99 66.53 M7.44 40.6 C4.33 49.11, 2.36 57.02, -2.89 68" stroke="#000000" stroke-width="1" fill="none"></path></g></g><g stroke-linecap="round" transform="translate(576.5000000000018 1715.549987792967) rotate(0 553.5 61.5)"><path d="M-0.47 0.11 C336.88 -1.08, 675.28 -1.56, 1106.98 -0.34 M-0.08 0.1 C266.87 -0.02, 534.14 0.27, 1107.21 -0.2 M1106.68 -0.11 C1108.48 37.07, 1105.89 69.87, 1107.8 122.82 M1106.15 0.44 C1106.7 44.26, 1106.43 88.37, 1107.86 122.99 M1106.96 123.52 C839.34 120.03, 573.03 120.31, 0.21 123.4 M1106.63 122.76 C871.13 119.38, 635.18 118.81, 0.38 123.25 M1.89 124.6 C-0.48 89.61, 2.04 52.43, 0.36 -0.58 M0.1 122.36 C0.22 95.35, -1.45 69.36, 0.11 0.43" stroke="#000000" stroke-width="1" fill="none"></path></g><g transform="translate(586.5000000000018 1751.049987792967) rotate(0 543.5 23)"><text x="543.5" y="32" font-family="Virgil, Segoe UI Emoji" font-size="36px" fill="#000000" text-anchor="middle" style="white-space: pre;" direction="ltr">container_is_restarting(cont-&gt;state)查询是不是在restart过程</text></g><g stroke-linecap="round"><g transform="translate(1071.5000000000018 1865.549987792967) rotate(0 2.4379339497254477 38.628274856489156)"><path d="M0.25 0.64 C1.09 13.14, 5.04 63.46, 5.95 75.94 M-1.08 -0.07 C-0.51 12.53, 3.89 64.56, 4.85 77.32" stroke="#000000" stroke-width="1" fill="none"></path></g><g transform="translate(1071.5000000000018 1865.549987792967) rotate(0 2.4379339497254477 38.628274856489156)"><path d="M-6.55 49.54 C-3.2 59.41, 0.88 70.29, 6.58 77.26 M-7.58 50.2 C-5.34 56.73, -3.07 61.64, 5.48 78.17" stroke="#000000" stroke-width="1" fill="none"></path></g><g transform="translate(1071.5000000000018 1865.549987792967) rotate(0 2.4379339497254477 38.628274856489156)"><path d="M13.9 47.91 C9.54 58.44, 5.9 69.94, 6.58 77.26 M12.87 48.57 C10.93 55.26, 9.01 60.51, 5.48 78.17" stroke="#000000" stroke-width="1" fill="none"></path></g></g><g stroke-linecap="round" transform="translate(576.5000000000018 1955.549987792967) rotate(0 534 80.5)"><path d="M0.03 0.13 C218.51 4.27, 437.12 3.73, 1068.51 0.68 M0.23 0.24 C248.1 2.02, 496.47 2.05, 1067.61 0.26 M1068.38 -1.82 C1069.64 36.59, 1067.83 72.59, 1066.16 161.66 M1067.43 0.19 C1066.46 38.32, 1066.56 76.86, 1067.45 160.04 M1067.36 160.3 C746.54 158.5, 426.61 159.41, 0.4 160.67 M1068.36 161.2 C685.93 162.89, 303.54 162.91, 0.27 161.24 M-0.33 160.47 C1.19 113.02, -0.13 63.04, 0.15 0.37 M-0.54 161.48 C-0.9 123.12, 0.21 84.87, -0.17 0.38" stroke="#000000" stroke-width="1" fill="none"></path></g><g transform="translate(728.5000000000018 2013.049987792967) rotate(0 382 23)"><text x="382" y="32" font-family="Virgil, Segoe UI Emoji" font-size="36px" fill="#000000" text-anchor="middle" style="white-space: pre;" direction="ltr">container_stop_health_checks停止健康检查</text></g><g stroke-linecap="round"><g transform="translate(1084.0000000000018 2115.549987792967) rotate(0 -4.9385672791686375 53.80110662004802)"><path d="M0.64 0.39 C-1.18 18.18, -8.33 88.98, -10.19 106.48 M-0.49 -0.45 C-2.42 17.57, -8.79 90.27, -10.51 108.05" stroke="#000000" stroke-width="1" fill="none"></path></g><g transform="translate(1084.0000000000018 2115.549987792967) rotate(0 -4.9385672791686375 53.80110662004802)"><path d="M-17.5 81.03 C-15.37 90.9, -14.35 99.72, -8.81 106.53 M-17.35 78.56 C-15.27 90.07, -13.64 99.56, -11.28 107.54" stroke="#000000" stroke-width="1" fill="none"></path></g><g transform="translate(1084.0000000000018 2115.549987792967) rotate(0 -4.9385672791686375 53.80110662004802)"><path d="M2.93 82.91 C-2.29 92.21, -8.64 100.36, -8.81 106.53 M3.09 80.44 C-2.07 91.4, -7.67 100.22, -11.28 107.54" stroke="#000000" stroke-width="1" fill="none"></path></g></g><g stroke-linecap="round" transform="translate(581.5000000000018 2231.799987792967) rotate(0 522.5 39)"><path d="M0.16 0.65 C371.3 2.01, 743.4 1.59, 1044.91 -0.24 M0.39 -0.24 C326.22 0.74, 653.18 1.01, 1045.05 0.21 M1046.36 -1.92 C1046.16 22.85, 1046.57 42.16, 1043.51 79.07 M1044.74 0.52 C1044.82 28.72, 1044.8 55.8, 1045.69 78.67 M1045.61 77.9 C627.33 76.8, 211.17 76.74, 0.69 77.63 M1045.06 77.81 C672.04 78.83, 299.34 78.66, 0.04 77.8 M-1.36 78.91 C-1.44 56.47, 0.76 35.37, -1.72 -1.51 M0.19 78.79 C-0.28 58.33, 0.32 37.88, -0.6 0.62" stroke="#000000" stroke-width="1" fill="none"></path></g><g transform="translate(975.5000000000018 2247.799987792967) rotate(0 128.5 23)"><text x="128.5" y="32" font-family="Virgil, Segoe UI Emoji" font-size="36px" fill="#000000" text-anchor="middle" style="white-space: pre;" direction="ltr">runtime_pause</text></g><g stroke-linecap="round"><g transform="translate(1095.0562521909833 2311.3298739409747) rotate(0 -2.8219591935112476 55.85726204600462)"><path d="M-0.66 1.09 C-1.58 19.27, -5.08 91.65, -5.89 110.13 M1.19 0.61 C0.16 19.42, -5.62 92.86, -6.84 111.1" stroke="#000000" stroke-width="1" fill="none"></path></g><g transform="translate(1095.0562521909833 2311.3298739409747) rotate(0 -2.8219591935112476 55.85726204600462)"><path d="M-13.2 82.24 C-14.39 90.55, -9.14 96.37, -4.91 109.81 M-15.29 81.42 C-13.91 87.95, -11.92 94.9, -6.51 110.15" stroke="#000000" stroke-width="1" fill="none"></path></g><g transform="translate(1095.0562521909833 2311.3298739409747) rotate(0 -2.8219591935112476 55.85726204600462)"><path d="M7.27 83.74 C0.61 91.54, 0.39 96.96, -4.91 109.81 M5.18 82.92 C1.87 88.91, -0.84 95.51, -6.51 110.15" stroke="#000000" stroke-width="1" fill="none"></path></g></g><g stroke-linecap="round" transform="translate(661.5000000000018 2423.549987792967) rotate(0 479 64.5)"><path d="M-0.54 0.58 C329.06 -1.59, 656.24 -1.29, 957.43 0.36 M0.19 -0.02 C257.69 -3.36, 515.02 -3.68, 958.08 0.11 M959.53 1.41 C957.69 49.58, 959.66 97.73, 958.74 128.44 M958.39 0.41 C957.36 36.98, 956.73 75.56, 958.59 129.63 M958.45 128.62 C727.33 129.01, 496.01 128.84, 0.1 129.79 M958.24 129.29 C604.85 128.02, 251.61 127.95, -0.24 129.37 M0.41 128.48 C-0.6 86.84, 0.49 43.24, 1.87 -0.21 M-0.65 129.47 C-1.65 94.07, -1.78 57.02, -0.41 -0.69" stroke="#000000" stroke-width="1" fill="none"></path></g><g transform="translate(872.5000000000018 2465.049987792967) rotate(0 268 23)"><text x="268" y="32" font-family="Virgil, Segoe UI Emoji" font-size="36px" fill="#000000" text-anchor="middle" style="white-space: pre;" direction="ltr">container_state_set_paused</text></g><g stroke-linecap="round"><g transform="translate(1095.2500000000036 2569.8833211263) rotate(0 -0.43141029715570767 27.42954142931842)"><path d="M-0.54 -1.19 C-0.68 8.17, -0.99 45.38, -1.19 55.03 M1.38 0.79 C1.09 10.37, -2.13 47.06, -2.24 56.05" stroke="#000000" stroke-width="1" fill="none"></path></g><g transform="translate(1095.2500000000036 2569.8833211263) rotate(0 -0.43141029715570767 27.42954142931842)"><path d="M-12.34 28.93 C-10.03 35.25, -5.04 44.5, -3.09 54.12 M-10.4 28.95 C-6.77 40.04, -4.4 50.82, -2.89 55.5" stroke="#000000" stroke-width="1" fill="none"></path></g><g transform="translate(1095.2500000000036 2569.8833211263) rotate(0 -0.43141029715570767 27.42954142931842)"><path d="M6.78 29.98 C3.92 35.93, 3.73 44.89, -3.09 54.12 M8.73 30.01 C4.74 40.69, -0.52 51.05, -2.89 55.5" stroke="#000000" stroke-width="1" fill="none"></path></g></g><g stroke-linecap="round" transform="translate(676.2500000000036 2660.3833211263) rotate(0 431 35)"><path d="M-0.75 0.08 C222.22 -3.64, 444.99 -3.32, 861.79 0.16 M0.38 0.18 C202.44 2.46, 405.48 2.91, 861.96 -0.26 M860.06 1.93 C861.29 20.03, 863.28 40.58, 861.6 70.75 M861.45 -0.28 C861.57 24.06, 861.73 47.63, 862.06 70.17 M862.73 69.71 C549.8 67.86, 237.08 66.89, -0.75 70.1 M862.1 70.18 C571.08 73.05, 280.45 73.24, 0.2 70.03 M-1.31 69.33 C0.6 47.82, -1.03 24.83, -0.1 0.88 M0.25 69.04 C-0.21 52.69, -0.91 34.75, 0.52 0.64" stroke="#000000" stroke-width="1" fill="none"></path></g><g transform="translate(877.2500000000036 2672.3833211263) rotate(0 230 23)"><text x="230" y="32" font-family="Virgil, Segoe UI Emoji" font-size="36px" fill="#000000" text-anchor="middle" style="white-space: pre;" direction="ltr">container_state_to_disk</text></g><g stroke-linecap="round"><g transform="translate(1112.5833333333376 2755.8833211263004) rotate(0 0.3707375588364812 57.10176329163846)"><path d="M-0.66 0.29 C-0.29 19.18, 1.06 94.69, 1.4 113.49 M1.2 -0.61 C1.55 18.44, 0.89 95.71, 0.85 114.81" stroke="#000000" stroke-width="1" fill="none"></path></g><g transform="translate(1112.5833333333376 2755.8833211263004) rotate(0 0.3707375588364812 57.10176329163846)"><path d="M-8.78 87.85 C-7.56 94.36, -5.87 100.88, 0.95 115.64 M-8.41 86.07 C-7.03 93.79, -3.45 102.37, 0.81 115.27" stroke="#000000" stroke-width="1" fill="none"></path></g><g transform="translate(1112.5833333333376 2755.8833211263004) rotate(0 0.3707375588364812 57.10176329163846)"><path d="M11.74 87.96 C8.2 94.34, 5.14 100.83, 0.95 115.64 M12.11 86.18 C7.58 94, 5.26 102.55, 0.81 115.27" stroke="#000000" stroke-width="1" fill="none"></path></g></g><g stroke-linecap="round" transform="translate(674.2500000000036 2870.8833211263004) rotate(0 437 38.5)"><path d="M-0.4 -0.66 C304.2 -3.08, 609.42 -3, 874.36 0.28 M-0.3 -0.1 C295.95 0.76, 592.51 1.18, 874.09 0.08 M874.2 0.48 C875.33 19.77, 873.38 44.57, 873.55 78.95 M873.75 0.19 C874.57 18.44, 874.97 38.44, 874.03 76.63 M873.52 76.41 C613.69 74.49, 351.74 74.51, 0.11 76.64 M873.8 77.32 C698.46 76.84, 522.89 76.69, 0.24 76.83 M-1.95 78.65 C0.97 59.78, -0.69 40.24, 0.57 -0.45 M-0.75 76.59 C-0.91 53.41, -0.9 31.09, 0.74 0.5" stroke="#000000" stroke-width="1" fill="none"></path></g><g transform="translate(908.7500000000036 2886.3833211263004) rotate(0 202.5 23)"><text x="202.5" y="32" font-family="Virgil, Segoe UI Emoji" font-size="36px" fill="#000000" text-anchor="middle" style="white-space: pre;" direction="ltr">container_unlock(cont);</text></g><g stroke-linecap="round" transform="translate(848.3451097276538 688.1019933791381) rotate(0 649 166)"><path d="M0 0 C0 0, 0 0, 0 0 M0 0 C0 0, 0 0, 0 0 M0.16 6.67 C1.44 4.15, 3.73 3.02, 4.28 -0.11 M-0.22 6.26 C0.87 4.93, 2.03 3.48, 4.89 0.65 M1.45 12.76 C1.44 9.66, 6.02 7.37, 10.28 0.5 M0.85 11.87 C2.9 8.54, 7 4.54, 10.64 0.46 M-0.46 18.86 C4.01 15.14, 7 8.14, 14.58 -0.89 M0.83 18.6 C5.3 11.84, 10.1 5.58, 15.45 0.99 M0.63 23.67 C9.51 13.09, 18.26 5.38, 22.9 -1.77 M-0.18 23.5 C5.26 19.49, 9.38 14.53, 21.48 0.59 M-1 31.16 C8.12 21.28, 19.17 9.24, 25.71 0.85 M0.52 31.39 C6.33 23, 13.99 14.26, 27.14 -0.26 M-2.24 38.61 C10.29 26.93, 18.5 17.07, 30.09 -1.07 M-0.1 36.15 C8.5 25.17, 19.84 15.38, 31.1 0.41 M-1.59 42.88 C13.03 29.16, 26.2 12.27, 35.59 1.32 M0.3 42.54 C13.82 26.8, 27.37 10.94, 36.94 0.82 M0.08 48.51 C11.4 34.73, 26.29 20.68, 42.61 -0.45 M-0.59 49.07 C11.41 36.86, 21.18 24.18, 43.33 -1.04 M-0.75 54.21 C16 36.09, 29.02 22.1, 48.42 -0.29 M-0.3 54.28 C14.42 40.23, 26.29 23.78, 46.64 -0.71 M1.75 60.72 C14.73 44.59, 31.4 24.33, 51.52 0.19 M-0.85 61.41 C19.53 37.28, 40.85 16.26, 53.15 0.24 M-1.47 65.36 C22.3 41.06, 44.33 12.52, 59.62 -0.48 M0.71 66.68 C15.67 47.53, 32.82 28.93, 57.66 0.86 M0.84 74.09 C25.67 41.56, 52.96 13.3, 62.09 -1.81 M0.24 72.17 C22.08 48.24, 43.62 24.67, 63.67 0.38 M1.48 79.57 C19.52 57.44, 35.05 35.57, 69.84 -1.51 M-0.54 79.67 C19.52 57.61, 37.7 35.79, 68.05 0.83 M0.59 85.74 C30.2 48.87, 61.38 15.68, 75.82 -1.77 M0.42 85.98 C19.56 63.81, 37.21 41.94, 75.15 0.61 M-0.43 89.62 C22.24 66.93, 44.62 39.99, 78.92 -1.33 M-0.78 90.55 C24.84 63.48, 47.47 35.35, 79.51 1.12 M-1.16 97.86 C31.62 63.3, 62.32 28.62, 84.43 -1.77 M0.43 98.81 C18.28 74.98, 38.94 53.45, 85.98 0.28 M-0.88 104.81 C33.89 63.83, 70 22.09, 91.95 0.38 M0.08 103.98 C33.37 66.96, 65.88 27.81, 90.39 -0.76 M0.6 108.62 C35.42 66.87, 72.58 29.02, 95.85 -0.6 M-0.4 109.99 C20.47 86.56, 39.6 62.3, 95.71 -0.16 M-1.28 113.74 C34.64 76.61, 69.02 34.79, 101.22 0.23 M1.27 115.72 C24.96 86.44, 50.56 57.12, 100.67 -0.67 M0.13 122.78 C26.52 87.74, 55.69 56.45, 108.25 0.24 M0.95 121.71 C34.97 83.03, 67.58 43.97, 105.99 -0.15 M-1.54 127.03 C36.53 87.95, 76.04 43.78, 112.23 1.1 M-0.5 128.4 C27.3 94.29, 56.64 62.31, 110.97 -0.88 M1.56 134.57 C26.49 105.29, 52.65 74.9, 115.32 -0.72 M0.78 133.03 C35.78 91.74, 70.65 49.87, 117.01 0.73 M0.68 140.32 C44.35 92.55, 84.38 42.18, 121.73 -1.84 M0.57 139.49 C37.51 98.04, 75.29 54.23, 121.55 0.98 M0.27 146.55 C27.47 116.18, 53.36 83.32, 126.98 2.07 M1.06 145.62 C40.6 98.8, 82.76 50.14, 127.02 0.76 M-0.07 152.75 C48.49 96.34, 98.44 37.56, 131.75 0.76 M0.44 152.8 C31.06 117.2, 62.53 81.42, 133.24 0.76 M0.11 160.12 C49.64 100.58, 99.23 41.05, 139.17 -0.23 M-0.29 159.41 C48.58 101.39, 98.85 44.45, 137.48 -0.34 M-0.31 165.94 C36.4 121.68, 72.4 79.72, 143.19 -0.96 M0.92 164.63 C39.51 122.93, 75.7 79.49, 142.86 -0.61 M-1.44 171.32 C51.5 110.78, 104.52 53.13, 147.64 -0.15 M0.21 171.01 C53.66 107.82, 109.66 45.65, 148.55 0.19 M1.26 175.6 C62.07 109.41, 120.03 37.39, 154.58 0.27 M0.16 177.13 C54.42 114.39, 108.03 52.25, 153.32 0.43 M-0.69 183.81 C39.1 140.18, 77.33 95.73, 158.75 1.06 M0.81 182.55 C58.68 116.69, 117.19 49.85, 157.97 0.6 M-1.19 187.94 C41.11 138.64, 87.52 87.09, 163.96 1.15 M0.12 188.87 C39.44 142.28, 80.8 96.81, 165.21 -0.59 M-0.87 193.99 C39.56 148.7, 80.25 101.97, 170.22 0.22 M0.28 194.13 C57.96 129.46, 113.63 66.69, 168.75 -0.53 M0.35 200.91 C53.59 139.76, 108.62 74.83, 173.75 0.58 M-0.22 201.29 C40.73 154.27, 79.76 107.39, 174.81 0 M-0.77 206.72 C63.26 136.71, 121.34 66.75, 180.21 0.21 M-0.36 207.07 C55.69 145.79, 108.82 84.68, 179.7 -0.47 M-0.94 214.26 C42.88 166.39, 83.72 117.32, 185.48 0.87 M0.37 213.97 C69.31 134.13, 139.91 52.62, 186.25 -0.25 M-0.57 221.15 C51.37 163.19, 99.02 105.08, 191.8 1.5 M0.34 219.24 C52.18 159.62, 104.21 100.1, 191.42 0.24 M0 225.08 C52.41 166.68, 107.9 103.06, 195.47 -0.16 M0.69 225.94 C55.68 162.01, 112.97 96.57, 196.2 -0.8 M-0.57 233.16 C69.25 152.48, 137.99 74.85, 202.01 1.1 M0.19 232.11 C62.83 162.23, 124.65 90.22, 200.88 0.48 M-0.76 236.05 C78.25 145.58, 156.52 58.56, 205.66 -1.37 M0.49 237.19 C73.69 153.48, 147.47 70.49, 207.23 -0.75 M-0.56 244.23 C47.74 188.89, 93.18 134.6, 212.63 0.08 M-0.57 243.89 C49.27 189.62, 97.8 133.59, 212.56 0.75 M-0.32 251.1 C50.46 189.88, 103.27 130.62, 218.55 -0.22 M0.39 249.89 C65.81 177.05, 129.25 104.16, 217.87 -0.95 M1.01 256.52 C83.43 160.58, 166.24 63.93, 222.64 -1.08 M0.63 256.12 C72.12 175.04, 141.85 93.04, 223.03 -0.44 M0.59 263.09 C47.08 206.98, 93.89 155.86, 227.88 0.4 M-0.4 261.86 C54.45 200.27, 108.55 139.5, 227.95 -0.44 M-0.18 266.9 C87.16 169.45, 172.66 70.26, 232.61 -1.16 M0.57 267.95 C50.17 208.7, 99.92 151.76, 233.28 -0.44 M0.94 273.81 C95.94 163.32, 192.04 54.22, 238.53 0.2 M-0.48 274.58 C50.08 215.96, 101.12 157.65, 238.33 0.88 M-0.3 279.84 C96.11 170.86, 192.43 61.88, 243.18 0.42 M-0.02 280.42 C54.56 217.55, 109.17 154.15, 243.67 -0.01 M0.58 286.14 C50.96 227.94, 102.47 168.11, 248.77 -0.6 M0.2 286.95 C68.58 210.43, 135.05 133.64, 248.98 0.06 M0.55 292.38 C91.52 188.08, 179.83 84.9, 253.81 0.17 M-0.06 292.6 C55.14 231.02, 109.84 166.82, 254.55 0.25 M0.65 298.63 C95.91 186.03, 195.12 73.52, 258.42 -0.8 M0.58 298.08 C94.96 189.3, 190.54 79.36, 259.62 -0.08 M-1 305.34 C96.59 195.83, 192.31 84.65, 264.18 -0.71 M-0.03 304.39 C84.07 208.94, 165.56 113.41, 264.62 -0.63 M-0.61 310.41 C86.78 211.54, 172.4 112.53, 269.64 0.16 M-0.25 310.83 C74.92 224.72, 148.54 139.88, 270.39 0.31 M0.93 316.76 C73.23 232.69, 145.21 149.97, 275.2 -0.53 M0.01 316.49 C109.28 190.86, 219.22 66.1, 276.1 -0.21 M0.42 323.49 C57.6 255.29, 117.72 188.78, 280.65 -0.32 M-0.05 323.36 C76.2 234.99, 151.58 147.09, 280.68 -0.15 M-0.42 328.28 C82.12 232.09, 164.86 138.17, 285.7 -0.32 M0.35 329.26 C63.57 256.91, 126.12 184.93, 286.27 0.03 M0.46 333.69 C85.1 235.62, 168.92 138.3, 291.6 -0.21 M1.15 334.23 C72.59 252.94, 143.38 171.57, 291.8 -0.31 M7.22 333.81 C66.06 265.47, 125.24 197.49, 297.76 -0.29 M6.62 333.81 C89.71 237.67, 173.14 141.93, 296.86 -0.11 M12.8 333.5 C118.66 210.88, 227.03 86.18, 301.25 -0.6 M11.69 333.85 C127.04 199.98, 241.35 67.89, 302.31 0.64 M17.19 333.02 C130.02 206.5, 242.17 76.07, 307.54 -1.01 M17.63 333.74 C127.55 209.93, 235.23 85.43, 308.03 -0.3 M21.76 334.59 C111.5 233, 199.39 129.23, 311.93 -0.35 M22.39 333.76 C120.36 220.85, 220.16 106.64, 312.6 -0.12 M29.19 333.24 C119.19 228.45, 212.04 121.7, 318.31 -0.43 M28.69 333.36 C86.74 265.13, 146.39 197.34, 318.02 -0.17 M33.85 332.73 C132.19 220.82, 232.72 107.54, 322.58 0.79 M33.35 333.97 C90.99 264.66, 149.58 197.44, 323.38 0.36 M39.51 332.42 C125.82 232.04, 215.73 128.96, 329.44 -0.83 M39.36 333.3 C148.73 210.06, 256.93 85, 328.64 -0.79 M43.81 333.27 C149.13 211.93, 256.8 89.58, 333.76 -0.76 M44.22 334.09 C136.44 228.38, 226.34 123.68, 334.21 0.36 M50.01 332.64 C155.51 212.07, 261.08 89.33, 339.42 0.12 M50.02 333.48 C116.43 254.63, 184.11 177.4, 339.77 -0.18 M55.4 334.25 C124.9 251.34, 195.57 170.61, 344.64 0.49 M54.74 333.75 C146.58 228.1, 238.45 121.91, 344.92 -0.05 M61.14 333.11 C154.71 224.79, 249.11 117.54, 350.18 1.16 M60.37 333.63 C173.91 201.36, 288.45 70.11, 349.23 -0.03 M64.56 333.36 C151.27 234.13, 239.22 134.78, 355.98 0.26 M65.2 333.14 C145.58 241.82, 225.15 149.83, 355.22 -0.48 M71.02 333.22 C164.49 225.45, 259.69 117.31, 360.74 -0.59 M70.93 332.8 C139.52 256.74, 208.08 178.21, 359.85 0.72 M76.27 332.9 C139.5 261.18, 203.6 187.59, 365.17 -0.65 M75.97 333.51 C178.59 215.19, 280.58 98, 366.08 0.22 M82.31 333.46 C179.57 223.65, 276.27 112.98, 370.26 -0.12 M81.55 332.81 C192.9 203.59, 304.66 75.1, 371.06 -0.01 M85.68 332.8 C192.66 213.66, 295.4 92.84, 377.19 0.71 M86 333.68 C181.2 226.46, 275.26 118.62, 376.33 -0.42 M91.34 332.48 C155.05 260.7, 216.59 190.43, 381.65 -0.53 M91.89 332.82 C162.66 250.86, 233.21 168.78, 381.03 -0.02 M97 333.67 C164.76 254.95, 234.26 174.9, 387.65 0.46 M97.28 333.49 C178.91 239.48, 260.51 146.01, 387.11 -0.14 M103 334.05 C176.71 245.27, 253.32 160.55, 391.94 0.72 M102.92 332.76 C178.25 243.08, 256.26 153.99, 391.51 0.43 M108.58 333.74 C174.17 257.17, 241.39 182.11, 397.76 0.82 M107.42 333.36 C200.3 225.81, 293.67 118.79, 397.38 -0.32 M113.17 332.89 C189.5 245.02, 266.44 156.3, 403.27 0.83 M112.81 333.65 C191.36 242.42, 271.66 150.83, 402.3 0.18 M117.9 333.88 C200.87 240.32, 281.61 145.68, 407.34 -0.81 M118.05 333.75 C193.2 247.62, 268.26 160.92, 408.42 -0.58 M122.3 334.52 C196.71 250.09, 268.11 165.97, 413.89 0.62 M122.98 334.04 C223.84 219.86, 324.18 105.21, 412.77 0.57 M128.48 332.61 C187.99 264.72, 247.95 195.91, 419.8 -0.93 M129.39 333.7 C220.23 227.97, 311.49 123.36, 419.33 -0.2 M134.45 332.93 C233.52 219.62, 332.51 105.67, 423.18 -0.44 M133.72 334.05 C223.51 229.17, 314.49 124.16, 424.36 0.05 M139.01 333.07 C246.15 209.86, 355.06 83.67, 429.21 -0.87 M139.74 333.28 C202.92 261.65, 266.41 188.22, 429.53 -0.67 M145 334.44 C226.59 241.18, 305.78 148.38, 434.57 0.74 M144.3 333.83 C226.09 237.83, 309.4 142.86, 434.12 0.56 M150.26 334.06 C214.46 258.44, 281.13 182.72, 439.2 0.16 M149.97 333.12 C243.2 225.97, 335.41 119.58, 440.26 -0.18 M154.9 333.57 C247.29 226.71, 340.22 121.47, 444.66 -0.08 M154.8 333.87 C248.34 226.77, 341.24 120.21, 445.12 0.16 M160.14 333.03 C266.22 214.19, 370.64 95.02, 450.02 0.13 M160.99 332.91 C238.64 243.49, 316.41 154.85, 451.08 -0.1 M165.71 333.92 C265.25 220.9, 363.09 107.35, 456.12 0.49 M165.62 333.44 C266.23 217.89, 365.89 103.73, 456.01 0.43 M170.64 333.03 C241.29 253.82, 309.69 174, 461.53 -0.89 M171.32 332.88 C264.87 223.21, 360.35 113.41, 461.38 -0.51 M176.61 333.3 C268.87 227.15, 359.94 120.5, 466.77 0.47 M176 333.13 C245.71 255.14, 313.71 177.25, 466.53 0 M182.84 333.78 C269.41 234.97, 354.12 136.09, 471.58 1.07 M182.52 333.34 C264.23 239.3, 344.59 145.3, 471.2 0.07 M187.39 332.59 C261.49 247.31, 335.81 160.72, 476.5 -0.45 M187.46 333.31 C286.89 221.41, 384.59 108.06, 476.98 0.07 M192.01 332.66 C256.86 257.17, 322.07 181.91, 481.54 -0.12 M192.75 333.14 C282.11 230.99, 371.97 127.28, 482.36 0.17 M197.46 332.84 C276.46 244.77, 353.41 154.79, 488.32 0 M197.4 333.67 C302.93 211.2, 408.89 89.44, 487.73 -0.11 M202.43 333.64 C285.28 237.85, 368.3 144.19, 493.45 0.78 M203.21 333.18 C296.88 226.76, 387.81 121.54, 493.07 0.39 M208.8 334.25 C290.18 240.36, 372.97 146.45, 497.37 -0.19 M208.48 333.72 C288.11 240.01, 368.56 148.93, 498.71 0.26 M214.56 332.38 C328.56 204.1, 441.35 74.45, 503.63 0.43 M213.69 332.92 C274.98 265.52, 335.55 196.12, 502.98 -0.14 M219.06 333.17 C316.32 220.44, 413.69 108.44, 509.85 -0.45 M219.22 333.26 C334.41 201.49, 449.65 69.04, 508.94 0.05 M223.29 333.89 C293.08 255.76, 360.58 176.8, 512.99 0.61 M224.39 333.64 C283.97 263.89, 343.67 195.31, 514.08 0.54 M230.43 333.06 C312.29 238.33, 395 143.93, 520.15 -0.54 M229.44 333.88 C324.33 226.52, 418.11 119.29, 520 -0.34 M235.56 334.6 C338.75 212.8, 444.99 91.84, 524.03 -0.73 M235.03 333.88 C331.65 221.59, 429.57 109.09, 524.17 0.67 M240.77 333.53 C325.46 234.64, 413.9 134.2, 529.69 0.4 M239.79 333.51 C356.7 201.17, 471.7 68.83, 530.54 -0.44 M245.53 333.82 C329.16 234.83, 414.25 139.89, 535.9 -0.56 M245.48 333.54 C347.1 216.35, 449.21 98.72, 535.36 0.33 M250.52 333.34 C357.53 212.97, 462.3 90.97, 540.04 -1.09 M251.23 332.85 C316.89 255.53, 384.11 178.6, 540.78 -0.22 M256.03 333.75 C370.16 202.3, 483.1 71.73, 545.35 0.35 M255.77 333.29 C372.02 200.54, 486.95 68.42, 545.62 -0.13 M261.73 333.38 C372.26 209.38, 479.72 84.61, 551.85 0.11 M261.56 332.92 C376.52 200.5, 491.7 68.06, 551.02 -0.6 M267.05 333.22 C327.8 262.41, 392.48 189.19, 555.71 0.34 M266.06 333.86 C365.38 221.97, 463.35 109.54, 556.19 0.44 M273.05 333.7 C341.73 253.28, 412.61 171.68, 561.94 -1.17 M271.89 333.54 C367.81 225.43, 461.89 116.33, 562.1 0.04 M276.71 332.73 C384.55 212.1, 490.93 88.4, 567.93 -0.08 M277.05 333.55 C349.21 250.24, 420.96 167.08, 567.17 -0.45 M282.77 332.48 C394.65 203.35, 509.62 71.97, 572.18 0.46 M283.13 332.86 C344.96 263.24, 406.44 193.51, 572.97 -0.6 M288.17 333.38 C348.51 263.97, 408.64 192.91, 577.62 0.69 M287.51 333.69 C378.82 227.43, 469.51 122.8, 577.96 0.44 M293.77 333 C371.89 243.62, 449.97 155.27, 581.9 0.86 M293.54 332.78 C382.13 231.08, 470.35 130.1, 582.48 0.46 M298.77 333.95 C410.84 205, 521.91 78.52, 587.93 0.44 M298.78 333.19 C396.59 221.59, 493.72 109.43, 588.78 -0.28 M304.53 332.76 C366.32 260.14, 430.99 187.3, 593.53 0.24 M304.19 333.56 C367.17 259.79, 432.35 185.97, 593.5 0.03 M308.93 333.84 C389.62 240.72, 472.14 145.4, 598.65 0.08 M309.3 333.98 C372.2 262.51, 434.55 189.71, 599.19 -0.24 M314.17 332.35 C378.4 262.48, 439.59 192.26, 603.64 0.7 M314.46 333.24 C384.61 253.34, 454.52 172.76, 603.53 0.69 M319.17 334.09 C428.01 210.89, 536.78 86.41, 609.18 0.66 M320.03 333.6 C401.36 241.95, 481.91 149.49, 609.54 0.25 M325.37 332.49 C420.21 222.02, 518.04 109.42, 614.55 0.25 M325.58 333.16 C440.68 200.26, 555.32 68.34, 614.78 0.36 M331.12 334.39 C410.12 239.5, 490.39 147.05, 619.53 0.37 M330.06 333.59 C429.78 217.54, 530.63 101.91, 620.53 -0.31 M334.83 333.83 C415.86 241.84, 495.66 151.44, 624.7 0.5 M335.4 334.23 C447.58 204.73, 559.13 76.04, 625.03 0.5 M340.56 334.07 C425.13 236.6, 507.62 140.84, 631.31 -0.45 M340.98 333.08 C419.5 246.1, 495.79 157.88, 630.66 -0.12 M346.74 332.89 C417.96 252.32, 488.95 169.41, 635.62 -0.24 M345.6 333.4 C423.73 243.13, 501.87 153.46, 636.13 0.62 M352.32 333.09 C426.47 247.51, 501.47 161.51, 640.75 -0.34 M351.52 333.23 C465.25 205.2, 577.06 75.91, 641.74 -0.57 M356.04 333.56 C437.48 241.41, 518.07 148.59, 646.98 -0.06 M356.19 333.68 C463.31 212.15, 568.52 90.73, 646.52 -0.2 M361.39 333.06 C450.69 229.31, 541.14 125.95, 651.68 0.32 M361.93 333.76 C441.46 243.23, 519.77 152.72, 652.45 0.24 M367.84 333.17 C453.23 231.85, 540.41 131.5, 657.55 -0.41 M366.65 333.64 C467.61 216.83, 569.35 100.03, 656.69 0.15 M371.82 334.2 C467.19 226.01, 560.77 118.19, 662.55 0.3 M372.55 333.46 C485.49 201.67, 598.09 71.58, 662.74 0.03 M377.91 334.14 C454.96 244.67, 532.87 155.74, 668.19 0.9 M377.8 333.65 C484.69 208.8, 591.8 85.62, 667.69 0.36 M383.8 332.45 C453.91 253.42, 524.1 172.18, 673.41 0.48 M383.29 333.67 C451.13 256.75, 517.52 179.64, 673.39 -0.18 M387.61 333.08 C459.16 250.03, 530.63 167.49, 678.89 0.74 M388.27 333.39 C484.34 225.59, 579.47 116.68, 678.67 0.16 M394.65 332.3 C506.24 206.21, 616.38 78.8, 684.91 -1.09 M394.13 332.79 C506.43 203.34, 619.75 73.39, 683.52 -0.57 M398.91 333.68 C491.26 226.98, 584.43 120.63, 689.73 -0.41 M399.02 333.33 C508.54 206.5, 619.57 79.35, 689.33 -0.16 M403.77 333.92 C493.49 227.47, 585.89 122.33, 695.35 -0.26 M404.62 332.73 C480.87 243.41, 558.87 154.27, 695.05 -0.01 M409.41 333.82 C488.76 240.2, 570.65 147.58, 699.94 0.55 M409.81 333.26 C485.85 247.33, 561.34 160.98, 699.45 -0.26 M415.65 334.13 C526.07 206.14, 635.88 79.83, 704.95 1.07 M415.38 333.51 C529.22 203.84, 640.86 74.64, 704.59 0.19 M419.3 334.51 C518.09 221.03, 613.18 110.74, 710.8 0.4 M420.74 333.76 C520.46 216.99, 621.01 101.81, 710.37 -0.24 M424.94 333.39 C536.51 206.1, 647.42 78.68, 715.49 0.84 M425.61 332.69 C506.95 243.08, 585.18 152.62, 715.5 0.74 M430.37 332.91 C489.12 266.64, 546.9 198, 720.76 0.53 M430.72 333.74 C542.47 204.71, 654.22 75.84, 720.52 -0.15 M437.36 332.78 C516.69 238.6, 600.45 143.25, 725.44 0.4 M436.55 332.87 C543.3 212.23, 648.96 90.55, 725.53 0.47 M441.05 333.27 C504.63 259.72, 570.21 183.39, 732.31 0 M441.98 333.89 C554.86 202.5, 667.85 72.05, 731.87 -0.48 M446.75 333.03 C539.73 226.64, 631.2 120.97, 737.48 0.49 M447.04 333.22 C539.35 229.28, 629.76 124.35, 736.87 0.7 M451.35 334.04 C524.76 250.64, 598.44 166.2, 743.13 0.48 M452.58 333.22 C543.99 227.21, 637.6 120.51, 742.49 0.32 M457.41 334.26 C540.08 239.54, 621.8 146, 746.96 0.99 M457.33 333.7 C538.95 241.79, 619.69 148.51, 747.06 0.59 M461.91 332.79 C565.34 216.6, 665.2 100.73, 752.96 -0.69 M462.89 333.52 C523.31 263.41, 584.69 193.96, 753 -0.6 M467.72 334 C535.26 255.86, 603.72 178.05, 756.8 -0.07 M468.2 333.59 C536.88 255.61, 604.24 177.6, 757.46 0.61 M472.96 333.22 C555.6 237.59, 641.02 140.86, 762.65 0.44 M473.1 332.92 C544.34 252.77, 615.84 170.83, 763.1 -0.11 M479.19 334.63 C594.23 202.36, 708.69 71.01, 768.52 0.46 M478.53 333.46 C554.14 247.77, 629.65 161.01, 768.73 0 M483.37 334.17 C561.63 243.08, 639.97 153.38, 773.16 -0.5 M483.74 333.33 C564.09 240.91, 644.67 147.8, 774.06 -0.45 M488.1 333.46 C561.68 249.9, 636.94 164.14, 779.29 -0.11 M489.44 333.7 C561.61 250.16, 633.75 166.47, 779.36 0.33 M495.56 332.66 C552.3 264.42, 610.39 197.84, 784.57 0.7 M495.12 332.98 C588.91 225.89, 682.52 118.59, 784.22 0.13 M499.83 334.41 C577.02 244.07, 653.59 157.29, 788.86 0.65 M500.11 333.74 C560.06 262.27, 622.16 191.62, 789.17 -0.01 M504.66 332.78 C620.79 199.76, 737.51 67.93, 795.08 -0.03 M504.91 332.89 C576.34 250.64, 649.43 167.42, 795.47 -0.01 M509.9 333.08 C607.6 220.99, 704.7 109.19, 800.58 -0.65 M510.3 333.57 C614.37 215.06, 717.57 95.41, 799.78 -0.37 M515.3 332.83 C600.31 232.85, 686.26 134.02, 805.97 -0.19 M515.59 333.39 C600.89 237.07, 685.76 140.34, 805.82 -0.49 M520.89 333.67 C622.23 216.43, 723.91 99.65, 810.45 -0.32 M520.81 333.25 C583.06 263.43, 645.19 192.86, 811.15 -0.26 M526.78 332.22 C626.78 218.33, 726.52 102.83, 816 1.15 M526.94 333.62 C627.06 217.93, 726.1 103.84, 816.15 0.39 M531.54 334.03 C606.87 246.83, 681.07 161.31, 822.04 -0.48 M532.05 333.37 C622.99 227.98, 715.53 121.72, 821.05 0.1 M538 332.48 C625.58 229.84, 715.97 125.58, 827 1.3 M537.59 333.01 C611.42 245.29, 687.22 159.19, 826.38 0.12 M541.67 332.67 C646.36 213.22, 751 95.44, 831.55 -0.12 M542.49 333.58 C636.65 224.65, 729.63 116.87, 832.56 0.31 M548.47 332.32 C652.9 211.59, 758.9 90.34, 836.92 -0.54 M547.47 332.83 C651.09 214.09, 755.99 95.07, 837.06 0.01 M553.21 333.72 C616.72 261.28, 680.79 186.97, 842.78 -0.1 M553.15 333.11 C636.31 239.97, 718.22 145.98, 842.62 0.25 M559.31 332.58 C616.19 265.36, 674.91 197.8, 847.51 0.71 M558.33 332.61 C650.2 227.28, 741.34 121.85, 847.45 0.66 M563.22 333.96 C676.74 202.75, 788.35 74.75, 854.13 -0.13 M563.14 333.2 C668.82 211.82, 775.58 89.29, 853.44 -0.36 M567.58 333.97 C662.86 224.3, 757.84 114.31, 858.61 -0.2 M568.61 333.46 C648.59 243.01, 727.14 151.78, 858.37 0.25 M574.83 333.82 C649.12 248.71, 724.59 163.48, 863.66 0.21 M574.13 333.69 C678.73 212.53, 783.56 91.56, 864.08 -0.53 M579.91 333.11 C684.27 210.97, 791.02 90.68, 869.16 0.09 M579.49 333.53 C670.95 227.31, 765.12 118.79, 868.73 -0.01 M584.35 334.34 C698.04 203.83, 811.98 72.58, 873.97 0.5 M584.87 333.44 C686.61 214.5, 789.96 96.08, 874.92 -0.46 M589.63 333.99 C687.82 222.39, 784.7 111.26, 880.23 0.59 M589.57 334.05 C655.71 256.41, 722.75 179.69, 879.99 0.64 M596.1 334.24 C660.16 259.5, 724.56 186.61, 885.3 0.43 M595.68 332.9 C666.72 249.18, 740.23 165.6, 885.15 -0.04 M600.26 334.03 C716.71 204.14, 830.35 70.57, 890 0.96 M599.85 333.78 C690.83 228, 782.23 123.12, 890.7 0.06 M605.6 332.87 C704.35 223.94, 800.64 112.21, 896.51 -1.12 M605.93 333.53 C683.25 245.23, 760.63 156.54, 896.27 -0.33 M609.98 333.76 C700.53 233.48, 788.42 130.99, 900.73 0.51 M610.71 333.3 C713.75 215.13, 818.66 95.15, 900.98 -0.4 M616.43 333.17 C729.99 205.02, 842.11 75.3, 906.07 -1.2 M616.59 333.38 C680.86 259.97, 744.83 186.02, 906.64 -0.12 M622.53 333.85 C719.51 220.87, 817.57 108.18, 911.82 -0.84 M621.32 333.48 C709.9 232.7, 798.59 130.27, 911.99 -0.29 M627.28 332.8 C686.59 264.99, 747.08 197.04, 917.02 0.34 M627.68 333.54 C702.08 249.78, 775.3 164.77, 916.9 -0.38 M632.34 334.12 C743.55 202.69, 856.72 73.95, 922.77 0.46 M632.19 334.01 C736.56 213.78, 839.82 94.34, 922.51 0.37 M636.99 333 C716.18 244.44, 793.29 156.83, 928.07 -0.22 M637.8 333.66 C729.9 228.26, 819.86 124.04, 927.52 -0.79 M643.38 334.52 C715.23 247.57, 789.07 162.53, 932.19 0.66 M642.62 333.87 C724.06 241.17, 804.58 147.65, 932.35 -0.34 M649.45 333.68 C714.18 260.55, 775.76 189.24, 937.83 1.26 M648.61 333.44 C720.08 250.29, 792.88 167.51, 937.65 0.55 M654.24 334.17 C755.48 215.61, 858.69 98.22, 942.79 -0.38 M653.26 333.87 C741.17 235.62, 827.03 135.97, 943.89 0.14 M658.72 332.4 C768.81 206.68, 877.71 80.61, 948.52 0.85 M659.34 333.14 C758.83 219.69, 856.56 106.51, 948.22 0.57 M663.15 334.3 C727.89 257.35, 793.92 182.9, 954.4 -0.19 M664.57 333.09 C781.05 199.91, 896.09 67.04, 953.61 -0.51 M669.91 333.32 C733.13 260.22, 797.31 185.64, 958.99 -0.01 M669.32 333.08 C774.72 214.22, 879.01 95.01, 959.5 0.28 M674.89 333.28 C735.05 263.4, 794.71 196.35, 964.96 -0.61 M674.34 333.43 C742.36 256.11, 808.63 179.3, 964.54 -0.09 M680.29 332.29 C764.16 237.36, 847.19 141.02, 970.35 -0.5 M680.41 333.11 C767.09 232.46, 853.12 132.65, 969.26 0.21 M685.93 333.64 C788.25 212.87, 893.21 91.84, 975.51 -0.86 M685.14 333.1 C744.73 265.13, 802.91 198.4, 975.78 -0.33 M689.55 334.5 C771.88 240.21, 853.79 146.88, 980.34 -0.63 M689.92 333.91 C765.97 247.02, 841.49 159.24, 980.56 -0.27 M695.31 333.04 C800.41 212.62, 905.86 92.53, 985.21 -0.55 M695.92 333.12 C804.35 208.06, 914.18 81.57, 986.02 -0.42 M701.47 334.58 C808.55 209.92, 916.12 87.96, 990.28 -0.3 M700.65 333.46 C805.69 214.54, 909.45 94.71, 991.3 0.49 M705.64 333.28 C764.48 268.49, 822.67 201.4, 996.32 -0.59 M706.41 333.79 C822.7 202.22, 937.36 70.94, 996.98 -0.47 M710.99 334.02 C793.32 237.96, 876.73 143.59, 1002.1 -0.24 M711.56 334.02 C775.07 263.03, 837.37 191.18, 1001.71 -0.04 M718.19 333.3 C796.41 241.44, 875.23 149.82, 1007.22 -0.29 M717.67 333.25 C816.51 218.39, 916.08 104.62, 1007 -0.06 M721.77 333.2 C786.9 257.43, 852.63 181.61, 1011.4 0.93 M721.79 333.7 C797.18 247.43, 872.5 159.59, 1011.83 -0.09 M727.86 334.19 C816.17 233.65, 904.69 132.78, 1017.39 -0.31 M727.59 332.92 C804.77 241.64, 883.66 152.27, 1017.44 -0.69 M732.62 333.16 C833.56 215.68, 936.46 99.61, 1022.3 -0.24 M732.59 333.63 C802.94 252.37, 873.93 170.72, 1022.99 -0.09 M738.08 334.17 C800.71 262.45, 861.86 190.47, 1028.41 0.33 M738.36 333.02 C822.35 235.17, 907.69 136.63, 1028.28 -0.36 M744.43 334.55 C828.02 238.01, 910.45 141.42, 1032.58 0.92 M743.73 333.51 C836.75 227.34, 930.14 120.39, 1033.4 -0.15 M749.95 333.61 C821.68 250.67, 893.72 167.31, 1039.01 -0.74 M749 333.08 C832.11 237.48, 915.18 141.7, 1039.52 0.06 M753.26 332.71 C819.93 258.92, 883.73 185.38, 1044.63 0.23 M754.11 334.07 C857.95 213.24, 961.44 93.49, 1044.54 0.39 M759.18 334.01 C840.84 241.67, 919.83 150.73, 1049.31 0.49 M759.87 333.46 C871.2 204.62, 982.61 76.53, 1049.13 -0.04 M765.17 332.57 C823.38 262.99, 885.03 194.78, 1054.45 -0.35 M765.15 333.65 C833.25 253.02, 901.47 174.54, 1054.74 -0.46 M771.05 333.02 C846.57 249.5, 920.45 163.65, 1060.57 0.42 M770.12 332.79 C853.24 240.31, 934.18 146.67, 1060.07 0.53 M775.43 333.71 C851.93 245.48, 928.63 157.1, 1064.62 0.27 M775.38 333.57 C873 221.03, 971.4 108.31, 1065.62 0.07 M781.49 333.42 C891.57 206.99, 1002.12 78.61, 1070.17 -0.65 M781.23 333.51 C878.37 221.78, 976.02 110, 1069.92 0.79 M785.38 333.39 C864.39 245.75, 941.09 154.69, 1075.36 -0.65 M785.86 333.77 C862.94 243.15, 940.76 153.54, 1075.67 0.1 M792.01 332.14 C894.32 214.07, 997.2 96.31, 1081.22 -0.54 M791.51 333.4 C870.01 244.76, 946.58 156.69, 1081 0.04 M797.46 333.46 C875.05 246, 952.54 155.59, 1087.48 -0.75 M796.74 333.21 C893.76 221.49, 991.86 108.31, 1086.64 -0.48 M802.1 334 C885.64 237.46, 968.89 139.71, 1090.99 0.57 M801.93 333.75 C873.97 249.7, 945.98 167.28, 1091.17 0.16 M808.24 333.45 C914.02 210.9, 1020.05 86.4, 1097.43 0.48 M807.76 333.41 C885.21 244.94, 963.11 156.2, 1097.16 -0.46 M812.8 333.71 C871.72 262.77, 932.77 193.45, 1101.83 1.15 M812.24 333.92 C877.67 260.12, 943.03 183.76, 1102.39 0.06 M817.41 333.5 C889.59 249.05, 960.9 166.57, 1108.23 0.73 M817.7 332.95 C902.67 238.57, 986.39 142.83, 1108.12 0.16 M823.8 333.36 C926.46 210.83, 1031.39 90.73, 1112.21 -0.67 M822.55 333.34 C936.24 201.01, 1052.12 68.25, 1113.18 0.21 M828.71 333.41 C897.23 252.2, 968.64 170.73, 1118.54 -0.2 M828.92 332.96 C899.93 252.3, 970.94 170.66, 1118.28 -0.28 M833.09 334.43 C920.87 232.39, 1007.78 133.24, 1123.69 -0.19 M833.44 333.97 C929.23 225.91, 1023.38 118.05, 1123.13 0.16 M839.05 333.62 C911.89 248.29, 984.41 164.54, 1129.6 0.61 M838.87 333.62 C926.01 235.17, 1011.13 136.83, 1128.69 -0.68 M843.2 333.58 C901.64 266.76, 961.19 197.92, 1133.99 1.01 M843.83 333.59 C910.81 258.57, 976.91 181.45, 1134.38 -0.01 M849.43 334.19 C919.08 251.68, 988.93 172.27, 1140.28 0.26 M849.53 333.69 C966.39 201.01, 1081.75 68.54, 1140.24 -0.62 M854.33 333.56 C954.12 218.61, 1055.13 104.42, 1143.89 -0.03 M854.43 333.28 C941.73 234.17, 1027.81 134.46, 1145.17 -0.16 M859.96 333.85 C959.09 219.38, 1057.83 105.62, 1150.07 -1.02 M859.98 332.96 C927.83 255.26, 994.77 177.35, 1150.14 0.15 M865.26 334.29 C930.67 257.2, 998.71 180.8, 1156.28 -0.67 M865.29 333.93 C971.65 209.12, 1079.55 85.63, 1155.32 0.39 M870.85 332.96 C973.17 219.71, 1072.53 105.35, 1161.38 -0.13 M870.86 332.77 C955.56 237.67, 1040.33 141.02, 1160.73 -0.09 M876.39 333.81 C954.31 242.35, 1031.27 154.15, 1165.21 0.41 M876.27 333.73 C951.15 249.45, 1024.96 163.47, 1165.67 0.4 M881.43 332.51 C941.56 262.93, 1002.3 192.13, 1171.23 0.93 M881.9 333.54 C986.03 212.46, 1091.31 90.31, 1170.69 0.49 M886.73 333.34 C973.08 236.63, 1057.69 137.35, 1176.76 0.16 M886.58 333.68 C949.75 260.93, 1013.16 187.68, 1176.67 0.18 M893.14 333.13 C995.21 213.33, 1099.11 94.49, 1182.26 0.57 M892.36 333.22 C971.01 245.17, 1048.41 156.33, 1181.51 0.28 M896.9 334.17 C968.37 254.24, 1037.87 174.28, 1188.19 0.18 M897.2 333.08 C981.24 238.21, 1064.01 142.84, 1186.83 0.09 M902.52 332.11 C1008.76 210.73, 1117.54 86.03, 1192.38 -0.42 M902.62 332.83 C996.41 228.24, 1088.22 122.09, 1192.68 0.74 M908.11 332.82 C986.53 244.22, 1065.2 153.82, 1198.84 -0.3 M907.46 333.02 C1008.29 217.9, 1108.69 102.16, 1198.23 0.02 M914.23 332.36 C1001.65 229.72, 1091.69 126.09, 1203.12 0.86 M913.58 332.93 C984.59 251.96, 1056.11 169.76, 1202.51 0.63 M919.21 333.87 C990.63 251.46, 1059.39 171.53, 1209.16 0.58 M918.52 333.91 C991.56 248.95, 1063.73 166.44, 1209.03 -0.03 M923.37 334.2 C1033.02 207.65, 1141.61 83.42, 1212.62 0.51 M923.59 333.91 C1010.34 235.97, 1096.64 136.82, 1213.61 0.49 M929.63 333.09 C1000.74 251.72, 1073.67 168, 1219.71 0.34 M928.84 333 C1019.21 229.97, 1107.65 128.63, 1218.95 -0.56 M935.13 333.33 C1008.69 251.18, 1080.61 166.91, 1224.59 0.72 M934.53 333.45 C1028.25 225.83, 1120.79 118.11, 1224.43 0.19 M940.44 332.38 C1023.54 239.31, 1105.55 144.45, 1230.16 -0.86 M939.7 333.76 C1052.45 205.33, 1164.37 77.17, 1229.77 0.02 M943.86 334.32 C1053.23 206.26, 1163.41 80.68, 1235.41 0.84 M944.38 333.51 C1028.27 240.36, 1111.24 145.41, 1234.74 0.4 M951.29 332.76 C1055.47 211.82, 1160.79 92.28, 1240.29 -1.23 M950.72 333.55 C1014.61 261.37, 1078.44 189.08, 1240.85 -0.17 M954.62 332.69 C1030.8 246.07, 1107.21 158.04, 1245.03 0.38 M955.33 333.9 C1058.95 213.87, 1162.09 94.11, 1245.11 0.1 M961.46 333.42 C1017.61 266.75, 1077.43 197.63, 1250.99 -0.35 M961.33 332.98 C1048.06 231.97, 1135.8 131.4, 1250.65 0.07 M965.61 334.52 C1075.78 208.95, 1185.46 83.38, 1256.02 -0.06 M965.67 333.46 C1033.1 256.29, 1100.53 178.58, 1256.46 0.04 M970.83 332.68 C1071.32 215.68, 1174.34 98.64, 1261.26 -0.13 M971.28 333.48 C1083.33 203.68, 1194.98 75.53, 1262.13 -0.52 M977.16 333.61 C1051.71 249.28, 1123.92 164.84, 1266.55 0.3 M976.25 333.57 C1035.59 265.83, 1093.81 198.93, 1266.51 0.33 M982.87 332.99 C1059.36 246.65, 1133.4 161.72, 1273.2 0.15 M982.12 332.81 C1092.65 203.96, 1204.67 75.43, 1272.41 -0.16 M986.7 334.34 C1100.98 205.19, 1213.19 76.17, 1277.42 -0.61 M986.98 333.71 C1067.59 243.86, 1147.37 153.11, 1277.31 -0.16 M993.71 333.94 C1106.6 203.13, 1220.85 72.23, 1282.4 -0.39 M992.75 333.49 C1072.53 239.53, 1153.06 147.4, 1282.44 0.28 M997.73 332.77 C1098.46 219.11, 1199.52 105.21, 1287.03 -0.76 M998.34 333.87 C1074.04 244.09, 1151.34 154.74, 1287.72 -0.23 M1003.06 333.3 C1100.01 223.93, 1197.48 110.91, 1293.46 -0.3 M1003.88 333.38 C1060.79 266.11, 1118.65 199.64, 1293.26 0.67 M1008.91 333.56 C1080.54 248.69, 1154.69 166.28, 1298.36 -0.95 M1008.9 333.13 C1098.71 230.81, 1188.61 127.5, 1298.92 0.1 M1015.24 333.94 C1093.21 240.83, 1172.97 148.84, 1297.93 5.88 M1014.56 333.12 C1113.79 220.45, 1212.28 106.33, 1298.24 6.8 M1018.97 333.04 C1102.12 237.8, 1184.82 141.88, 1298.94 12.99 M1018.76 333.06 C1114.69 221.3, 1211.44 109.9, 1297.76 12.99 M1024.06 332.82 C1117.94 225.98, 1211.4 116.74, 1298.36 17.36 M1024.57 332.64 C1101.11 242.96, 1178.05 154.65, 1298.78 18.65 M1029.8 334.31 C1093.16 260.89, 1155.12 188.8, 1297.63 23.83 M1030.22 333.4 C1089.18 262.83, 1150.76 193.23, 1298.43 24.94 M1035.75 332.86 C1099.04 260.38, 1163.45 186.95, 1298.66 31.33 M1034.5 333.53 C1093.29 268.68, 1151.09 202.27, 1299.01 30.79 M1041.48 333.72 C1113.97 249.8, 1188.12 165.55, 1298.96 37.31 M1040.94 333.32 C1093.77 270.79, 1149.26 207.87, 1298.33 37.13 M1045.24 332.96 C1102.88 270.08, 1158.62 205.69, 1297.88 43.64 M1045.72 333.25 C1131.35 234.48, 1216.99 135.97, 1298.22 43.55 M1050.6 332.49 C1108.85 268.46, 1164.93 202.81, 1297.81 48.67 M1050.61 333.09 C1121.06 253.75, 1188.94 175.68, 1297.89 48.65 M1057.31 333.34 C1133.98 243.87, 1213.29 152.28, 1297.11 56.39 M1055.57 333.58 C1125.49 254.39, 1194.14 173.23, 1298.38 55.64 M1060.81 334.19 C1134.35 246.5, 1210.07 162.06, 1297.7 60.02 M1062.13 333.74 C1110.48 280.08, 1158.38 224.13, 1298.71 61.35 M1067.65 333.46 C1141.54 249.29, 1217.77 161.58, 1299.46 67.72 M1066.63 333.54 C1128.92 261.84, 1190.68 192.41, 1298.4 66.83 M1072.68 333.33 C1150.47 241.49, 1230.9 150.37, 1297.68 73.46 M1072.43 333.94 C1138.49 257.86, 1203.9 182.33, 1298.46 73.9 M1077.32 334.29 C1167.54 232.61, 1254.54 129.69, 1298.74 79.41 M1076.97 333.05 C1150.75 250, 1223.65 165.69, 1298.54 79.41 M1084.22 333.93 C1129.66 277.7, 1175.02 224.95, 1298.14 86.55 M1082.79 332.86 C1132.23 272.39, 1184.38 214.49, 1297.61 85.56 M1087.08 334.3 C1137.86 277.38, 1188.78 218.48, 1297.63 91.71 M1088.28 333.85 C1154.17 258.29, 1221.1 181.57, 1299.2 91.94 M1094.68 333.02 C1163.9 251.44, 1236.12 171.26, 1298.25 97.67 M1093.39 333.9 C1147.75 271.35, 1203.81 207.83, 1297.84 97.68 M1098.67 333.4 C1170.55 251.57, 1243.38 168.91, 1298.79 105.09 M1098.62 333.32 C1157.77 266.25, 1216.17 198.34, 1298.11 104.29 M1103.39 332.59 C1150.86 278.99, 1197.6 223.74, 1297.2 110.23 M1103.8 332.95 C1144.05 287.11, 1185.56 240.04, 1298.66 109.92 M1110.5 334.73 C1183.38 250.7, 1255.49 168.46, 1296.98 115.67 M1108.52 333.41 C1170.82 261.65, 1233.14 190.51, 1297.84 115.52 M1114.33 332.84 C1182.8 253.19, 1250.09 173.79, 1298.09 120.71 M1115.18 333.04 C1188.49 248.37, 1262.17 163.76, 1298.42 121.6 M1118.55 334.3 C1179.59 262.84, 1240.86 193.61, 1299.78 127.18 M1120.62 332.93 C1173.05 269.51, 1227.47 205.98, 1298.5 127.93 M1125.93 333.41 C1171.7 280.35, 1217.29 225.97, 1296.83 135.59 M1124.96 333.73 C1193.18 254.97, 1259.35 178.39, 1297.47 134.75 M1130.53 334.21 C1193.99 260.56, 1256.22 187.13, 1299 140.82 M1131.2 334.25 C1182.74 275.14, 1234.27 214.53, 1297.88 140.12 M1134.88 331.67 C1172.09 287.37, 1210.94 244.34, 1298.41 145.31 M1136.92 332.98 C1173.61 289.41, 1210.3 246.54, 1298.82 147.38 M1139.57 332.12 C1183.24 285.23, 1226.44 233.92, 1298.87 150.69 M1141.58 333.07 C1181.99 285.5, 1224.61 236.39, 1299.39 153.11 M1147.81 334.18 C1179.06 297.39, 1213.4 258.86, 1298.85 158.73 M1146.16 332.81 C1179.44 296.18, 1210.56 258.64, 1298.32 158.48 M1150.94 332.49 C1194.24 282.86, 1240.04 234.59, 1298.56 165.71 M1151.19 333.63 C1191.2 291.31, 1228.77 247.19, 1297.75 165.44 M1156 332.76 C1205.49 281.93, 1250.51 224.56, 1298.99 169.47 M1157.06 334.59 C1198.96 283.87, 1242.21 234.17, 1297.84 170.99 M1161.07 331.76 C1208.28 279.1, 1256.52 225.02, 1299.35 178.77 M1161.77 333.3 C1195.9 295.17, 1227.8 258.9, 1298.96 177.63 M1166.29 333.2 C1216.32 273.36, 1268.89 217.47, 1299.06 181.44 M1166.86 333.13 C1206.62 288.93, 1246.72 242.42, 1299.18 183.36 M1172.46 333.46 C1202.07 300.64, 1228.03 269.66, 1299.01 189.12 M1173.13 333.29 C1213.46 286.84, 1254.46 240.7, 1298.64 189.17 M1178.94 334.58 C1215.89 287.69, 1256.73 245.41, 1299.94 194.38 M1177.84 334.44 C1215.41 291.45, 1253.49 248.64, 1298.76 196.13 M1185.61 332.32 C1221.61 285.55, 1264.17 242.32, 1299.56 202.03 M1183.7 332.75 C1214.55 296.93, 1247.21 257.88, 1299.26 201.62 M1187.22 334.09 C1226.98 289.46, 1266.29 244.31, 1299.6 206.22 M1188.73 333.83 C1215.43 301.67, 1243.87 271.79, 1297.87 207.98 M1195.71 334.68 C1222.43 301.66, 1247.32 271.87, 1297.72 212.75 M1193.37 333.3 C1220.52 304.78, 1247.54 273.41, 1297.88 212.82 M1198.2 334.1 C1225.06 303.24, 1251.67 275.6, 1299.38 219 M1200.12 334.33 C1233.9 293.86, 1267.71 256.09, 1298.82 219.69 M1203.35 333.36 C1232.53 299.63, 1260.87 266.95, 1297.66 224.38 M1204.73 334.24 C1225.55 308.25, 1246.5 284.72, 1297.94 226.4 M1211.34 332.33 C1234.61 305.69, 1259.37 273.36, 1300.45 230.47 M1209.8 334.13 C1229.07 309.91, 1249.92 286.73, 1298.15 231.84 M1216.31 333.47 C1243.29 301.89, 1274 265.68, 1299.7 239.03 M1216 333.44 C1244.07 300.03, 1272.98 266.52, 1298.99 237.86 M1220.28 331.76 C1241.33 313.32, 1257.86 289.41, 1297.2 244.62 M1219.68 333.55 C1241.17 311.21, 1259.56 289.56, 1299.06 244.59 M1227.6 334.39 C1244.57 311.64, 1265.72 286.78, 1298.46 248.35 M1226.06 332.38 C1244.93 311.05, 1261.82 291.03, 1297.76 250.06 M1230.89 334.67 C1245.92 317.5, 1257.42 303.73, 1298.57 258.5 M1230.85 334 C1256.27 305.3, 1279.93 276.39, 1297.71 257.5 M1237.47 331.78 C1251.32 314.98, 1269.79 298.36, 1299.38 260.53 M1237.42 333.18 C1255.44 311.73, 1275.06 289.75, 1297.76 261.22 M1243.27 332.63 C1264.42 308.39, 1287.27 282.5, 1296.72 269.18 M1242.5 333.03 C1257.49 317.12, 1270.85 301.04, 1298.88 269.45 M1247.35 331.6 C1262.41 315.21, 1279.19 297.19, 1299.51 275.78 M1247.24 333.54 C1265.1 312.18, 1282.76 292.6, 1297.01 275.41 M1253.73 332.46 C1264.95 315.59, 1281.58 301.12, 1297.02 280.27 M1252.98 333.26 C1271.19 313.06, 1289.46 291.09, 1299.02 280.19 M1257.92 332.07 C1271.06 315.88, 1287.07 302.9, 1300.05 285.33 M1258.31 333.78 C1272.12 315.76, 1287.2 299.13, 1297.62 286.57 M1264.8 334.29 C1269.95 325.33, 1282.08 315.13, 1298.74 292.89 M1262.79 333.44 C1276.36 318.83, 1289.53 303.22, 1297.87 292.36 M1266.41 334.47 C1277.5 322.84, 1286.13 312.38, 1296.47 297.98 M1267.41 334.59 C1275.27 324.53, 1282.2 315.31, 1298.87 300 M1275.21 333.52 C1280.31 324.66, 1287.27 316.74, 1299.7 305.23 M1273.56 333.44 C1278.09 327.83, 1283.65 322.96, 1298.18 305.92 M1279.25 334.06 C1284.14 330.15, 1288.74 324.51, 1299.12 311.02 M1278.93 332.98 C1283.66 329.39, 1285.8 324.19, 1298.84 310.35 M1285.95 334.84 C1290.16 329.08, 1293.68 323.09, 1296.92 319.47 M1285.05 333.23 C1288.65 326.99, 1294.61 321.21, 1297.27 318.21 M1289.86 334.39 C1292.1 331.92, 1293.89 330.35, 1298.53 324.48 M1289.74 333.83 C1292.67 329.92, 1294.45 327.08, 1298.69 323.32 M1294.77 333.55 C1296.06 331.83, 1297.41 330.52, 1297.84 329.25 M1294.76 333.46 C1295.83 332.16, 1296.51 331.51, 1298.22 329.52" stroke="#fa5252" stroke-width="0.5" fill="none"></path><path d="M-0.29 -0.51 C334.74 4.42, 670.02 5.85, 1298.43 0.64 M0.39 -0.16 C465.25 -2.45, 931 -2.47, 1297.94 0 M1298.03 1.07 C1296.98 114.32, 1296.24 226.14, 1296.82 332.07 M1297.82 -0.3 C1297.53 84.44, 1297.69 167.98, 1297.44 331.67 M1298.26 332.02 C791.15 330.49, 284.7 330.49, 0.23 331.97 M1297.73 332.06 C841.91 328.14, 385.48 328.04, 0.12 331.97 M0.07 333.26 C-2.82 201.72, -0.98 69.78, 1.03 0.04 M-0.18 332.29 C1.61 229.4, 2.49 128.22, -0.58 0.51" stroke="#000000" stroke-width="1" fill="none"></path></g><g transform="translate(1021.3451097276538 782.6019933791381) rotate(0 476 69)"><text x="476" y="32" font-family="Virgil, Segoe UI Emoji" font-size="36px" fill="#000000" text-anchor="middle" style="white-space: pre;" direction="ltr">if (container_is_removal_in_progress(cont-&gt;state) || </text><text x="476" y="78" font-family="Virgil, Segoe UI Emoji" font-size="36px" fill="#000000" text-anchor="middle" style="white-space: pre;" direction="ltr">container_is_dead(cont-&gt;state))</text><text x="476" y="124" font-family="Virgil, Segoe UI Emoji" font-size="36px" fill="#000000" text-anchor="middle" style="white-space: pre;" direction="ltr">若位于删除状态了，应该不用再获取锁进行pause操作了</text></g></svg>