<svg xmlns="http://www.w3.org/2000/svg" xmlns:xlink="http://www.w3.org/1999/xlink" width="1132" viewBox="0 0 1132 804" xmlns:ev="http://www.w3.org/2001/xml-events" height="804"><defs/><g id="page1" transform="translate(5.5,5.5)"><rect fill="#ffffff" x="0" y="0" width="1123" height="794"/><g id="shape1" transform="translate(166.77,81.18)"><path fill="#ffffff" stroke="#323232" d="M120.0,70.0L120.0,.0L.0,.0L.0,70.0L120.0,70.0z" fill-rule="nonzero"/><text style="fill:#191919;font-family:Microsoft YaHei;font-size:10.00pt" xml:space="preserve"><tspan x="21.0" y="40.5">获取容器列表</tspan></text></g><g id="shape2" transform="translate(166.77,188.98)"><path fill="#ffffff" stroke="#323232" d="M120.0,70.0L120.0,.0L.0,.0L.0,70.0L120.0,70.0z" fill-rule="nonzero"/><text style="fill:#191919;font-family:Microsoft YaHei;font-size:10.00pt" xml:space="preserve"><tspan x="21.0" y="31.0">根据条件过滤</tspan><tspan x="14.0" y="50.0">(status, filters?)</tspan></text></g><g id="shape3" transform="translate(166.77,484.68)"><path fill="#ffffff" stroke="#323232" d="M120.0,70.0L120.0,.0L.0,.0L.0,70.0L120.0,70.0z" fill-rule="nonzero"/><text style="fill:#191919;font-family:Microsoft YaHei;font-size:10.00pt" xml:space="preserve"><tspan x="34.0" y="40.5">删除容器</tspan></text></g><g id="shape4" transform="translate(166.77,586.24)"><path fill="#ffffff" stroke="#323232" d="M120.0,70.0L120.0,.0L.0,.0L.0,70.0L120.0,70.0z" fill-rule="nonzero"/><text style="fill:#191919;font-family:Microsoft YaHei;font-size:10.00pt" xml:space="preserve"><tspan x="7.5" y="31.0">记录容器ID和回收</tspan><tspan x="40.5" y="50.0">的空间</tspan></text></g><g id="shape5" transform="translate(166.77,378.36)"><path fill="#ffffff" stroke="#323232" d="M120.0,70.0L120.0,.0L.0,.0L.0,70.0L120.0,70.0z" fill-rule="nonzero"/><text style="fill:#191919;font-family:Microsoft YaHei;font-size:10.00pt" xml:space="preserve"><tspan x="8.0" y="40.5">计算容器占用空间</tspan></text></g><g id="shape6" transform="translate(226.77,448.36)"><path stroke="#191919" fill="none" d="M.0,.0L.0,30.3"/><path fill="#191919" stroke="#191919" d="M3.0,30.3L.0,36.3L-3.0,30.3L3.0,30.3" stroke-width="1" stroke-linecap="round"/></g><g id="shape7" transform="translate(226.77,554.68)"><path stroke="#191919" fill="none" d="M.0,.0L.0,25.6"/><path fill="#191919" stroke="#191919" d="M3.0,25.6L.0,31.6L-3.0,25.6L3.0,25.6" stroke-width="1" stroke-linecap="round"/></g><g id="shape8" transform="translate(226.77,656.24)"><path stroke="#191919" fill="none" d="M.0,.0L.0,26.5L-113.4,26.5L-113.4,-337.6L-66.0,-337.6"/><path fill="#191919" stroke="#191919" d="M-66.0,-340.6L-60.0,-337.6L-66.0,-334.6L-66.0,-340.6" stroke-width="1" stroke-linecap="round"/></g><g id="shape9" transform="translate(226.77,151.18)"><path stroke="#191919" fill="none" d="M.0,.0L.0,31.8"/><path fill="#191919" stroke="#191919" d="M3.0,31.8L.0,37.8L-3.0,31.8L3.0,31.8" stroke-width="1" stroke-linecap="round"/></g><g id="shape10" transform="translate(166.77,278.67)"><path fill="#ffffff" stroke="#323232" d="M60.0,80.0L120.0,40.0L60.0,.0L.0,40.0L60.0,80.0z" fill-rule="nonzero"/><text style="fill:#191919;font-family:Microsoft YaHei;font-size:10.00pt" xml:space="preserve"><tspan x="21.0" y="45.5">得到一个容器</tspan></text></g><g id="shape11" transform="translate(226.77,358.67)"><path stroke="#191919" fill="none" d="M.0,.0L.0,13.7"/><path fill="#191919" stroke="#191919" d="M3.0,13.7L.0,19.7L-3.0,13.7L3.0,13.7" stroke-width="1" stroke-linecap="round"/></g><g id="shape12" transform="translate(188.98,353.14)"><text style="fill:#191919;font-family:Microsoft YaHei;font-size:10.00pt" xml:space="preserve"><tspan x="17.1" y="20.0">是</tspan></text></g><g id="shape13" transform="translate(226.77,258.98)"><path stroke="#191919" fill="none" d="M.0,.0L.0,13.7"/><path fill="#191919" stroke="#191919" d="M3.0,13.7L.0,19.7L-3.0,13.7L3.0,13.7" stroke-width="1" stroke-linecap="round"/></g><g id="shape14" transform="translate(286.77,318.67)"><path stroke="#191919" fill="none" d="M.0,.0L37.9,.0"/><path fill="#191919" stroke="#191919" d="M37.9,-3.0L43.9,.0L37.9,3.0L37.9,-3.0" stroke-width="1" stroke-linecap="round"/></g><g id="shape15" transform="translate(265.74,283.46)"><text style="fill:#191919;font-family:Microsoft YaHei;font-size:10.00pt" xml:space="preserve"><tspan x="33.7" y="34.0">否</tspan></text></g><g id="shape16" transform="translate(330.71,293.67)"><path fill="#ffffff" stroke="#323232" d="M25.0,50.0L95.0,50.0C108.8,50.0,120.0,38.8,120.0,25.0C120.0,11.2,108.8,.0,95.0,.0L25.0,.0C11.2,.0,.0,11.2,.0,25.0C.0,38.8,11.2,50.0,25.0,50.0z" fill-rule="nonzero"/><text style="fill:#191919;font-family:Microsoft YaHei;font-size:10.00pt" xml:space="preserve"><tspan x="34.0" y="30.5">返回结果</tspan></text></g></g></svg>