<svg xmlns="http://www.w3.org/2000/svg" xmlns:xlink="http://www.w3.org/1999/xlink" width="1133" viewBox="0 0 1133 804" xmlns:ev="http://www.w3.org/2001/xml-events" height="804"><defs/><g id="page1" transform="translate(5.5,5.5)"><rect fill="#ffffff" x="0" y="0" width="1123" height="794"/><g id="shape1" transform="translate(114.63,46.74)"><path fill="#ffffff" stroke="#323232" d="M120.0,70.0L120.0,.0L.0,.0L.0,70.0L120.0,70.0z" fill-rule="nonzero"/><text style="fill:#191919;font-family:Microsoft YaHei;font-size:10.00pt" xml:space="preserve"><tspan x="21.0" y="40.5">获得镜像列表</tspan></text></g><g id="shape2" transform="translate(114.63,144.53)"><path fill="#ffffff" stroke="#323232" d="M60.0,80.0L120.0,40.0L60.0,.0L.0,40.0L60.0,80.0z" fill-rule="nonzero"/><text style="fill:#191919;font-family:Microsoft YaHei;font-size:10.00pt" xml:space="preserve"><tspan x="14.5" y="45.5">是否只删除悬空</tspan></text></g><g id="shape3" transform="translate(114.63,263.33)"><path fill="#ffffff" stroke="#323232" d="M120.0,70.0L120.0,.0L.0,.0L.0,70.0L120.0,70.0z" fill-rule="nonzero"/><text style="fill:#191919;font-family:Microsoft YaHei;font-size:10.00pt" xml:space="preserve"><tspan x="4.0" y="31.0">增加被引用为0的过</tspan><tspan x="40.5" y="50.0">滤条件</tspan></text></g><g id="shape4" transform="translate(114.63,476.92)"><path fill="#ffffff" stroke="#323232" d="M120.0,70.0L120.0,.0L.0,.0L.0,70.0L120.0,70.0z" fill-rule="nonzero"/><text style="fill:#191919;font-family:Microsoft YaHei;font-size:10.00pt" xml:space="preserve"><tspan x="8.0" y="40.5">得到镜像占用空间</tspan></text></g><g id="shape5" transform="translate(114.63,582.62)"><path fill="#ffffff" stroke="#323232" d="M120.0,70.0L120.0,.0L.0,.0L.0,70.0L120.0,70.0z" fill-rule="nonzero"/><text style="fill:#191919;font-family:Microsoft YaHei;font-size:10.00pt" xml:space="preserve"><tspan x="34.0" y="40.5">删除镜像</tspan></text></g><g id="shape6" transform="translate(114.63,685.31)"><path fill="#ffffff" stroke="#323232" d="M120.0,70.0L120.0,.0L.0,.0L.0,70.0L120.0,70.0z" fill-rule="nonzero"/><text style="fill:#191919;font-family:Microsoft YaHei;font-size:10.00pt" xml:space="preserve"><tspan x="7.5" y="31.0">记录镜像ID和占用</tspan><tspan x="47.0" y="50.0">空间</tspan></text></g><g id="shape7" transform="translate(174.63,116.74)"><path stroke="#191919" fill="none" d="M.0,.0L.0,21.8"/><path fill="#191919" stroke="#191919" d="M3.0,21.8L.0,27.8L-3.0,21.8L3.0,21.8" stroke-width="1" stroke-linecap="round"/></g><g id="shape8" transform="translate(174.63,224.53)"><path stroke="#191919" fill="none" d="M.0,.0L.0,32.8"/><path fill="#191919" stroke="#191919" d="M3.0,32.8L.0,38.8L-3.0,32.8L3.0,32.8" stroke-width="1" stroke-linecap="round"/><rect fill="#ffffff" x="-5.5" y="4.7" width="13.0" height="19.0"/><text style="fill:#191919;font-family:Microsoft YaHei;font-size:10.00pt" xml:space="preserve"><tspan x="-5.5" y="19.7">否</tspan></text></g><g id="shape9" transform="translate(234.63,184.53)"><path stroke="#191919" fill="none" d="M.0,.0L98.9,.0L98.9,72.8"/><path fill="#191919" stroke="#191919" d="M101.9,72.8L98.9,78.8L95.9,72.8L101.9,72.8" stroke-width="1" stroke-linecap="round"/><rect fill="#ffffff" x="30.5" y="-9.5" width="13.0" height="19.0"/><text style="fill:#191919;font-family:Microsoft YaHei;font-size:10.00pt" xml:space="preserve"><tspan x="30.5" y="5.5">是</tspan></text></g><g id="shape10" transform="translate(174.63,546.92)"><path stroke="#191919" fill="none" d="M.0,.0L.0,29.7"/><path fill="#191919" stroke="#191919" d="M3.0,29.7L.0,35.7L-3.0,29.7L3.0,29.7" stroke-width="1" stroke-linecap="round"/></g><g id="shape11" transform="translate(174.63,652.62)"><path stroke="#191919" fill="none" d="M.0,.0L.0,26.7"/><path fill="#191919" stroke="#191919" d="M3.0,26.7L.0,32.7L-3.0,26.7L3.0,26.7" stroke-width="1" stroke-linecap="round"/></g><g id="shape12" transform="translate(174.63,755.31)"><path stroke="#191919" fill="none" d="M.0,.0L.0,30.0L-126.1,30.0L-126.1,-351.2L-66.0,-351.2"/><path fill="#191919" stroke="#191919" d="M-66.0,-354.2L-60.0,-351.2L-66.0,-348.2L-66.0,-354.2" stroke-width="1" stroke-linecap="round"/></g><g id="shape13" transform="translate(174.63,333.33)"><path stroke="#191919" fill="none" d="M.0,.0L.0,24.8"/><path fill="#191919" stroke="#191919" d="M3.0,24.8L.0,30.8L-3.0,24.8L3.0,24.8" stroke-width="1" stroke-linecap="round"/></g><g id="shape14" transform="translate(174.63,444.08)"><path stroke="#191919" fill="none" d="M.0,.0L.0,26.8"/><path fill="#191919" stroke="#191919" d="M3.0,26.8L.0,32.8L-3.0,26.8L3.0,26.8" stroke-width="1" stroke-linecap="round"/></g><g id="shape15" transform="translate(114.63,364.08)"><path fill="#ffffff" stroke="#323232" d="M60.0,80.0L120.0,40.0L60.0,.0L.0,40.0L60.0,80.0z" fill-rule="nonzero"/><text style="fill:#191919;font-family:Microsoft YaHei;font-size:10.00pt" xml:space="preserve"><tspan x="6.5" y="36.0">过滤(filters)获得一</tspan><tspan x="40.5" y="55.0">个镜像</tspan></text></g><g id="shape16" transform="translate(234.63,404.08)"><path stroke="#191919" fill="none" d="M.0,.0L32.9,.0"/><path fill="#191919" stroke="#191919" d="M32.9,-3.0L38.9,.0L32.9,3.0L32.9,-3.0" stroke-width="1" stroke-linecap="round"/></g><g id="shape17" transform="translate(273.52,369.08)"><path fill="#ffffff" stroke="#323232" d="M120.0,70.0L120.0,.0L.0,.0L.0,70.0L120.0,70.0z" fill-rule="nonzero"/><text style="fill:#191919;font-family:Microsoft YaHei;font-size:10.00pt" xml:space="preserve"><tspan x="34.0" y="40.5">返回结果</tspan></text></g><g id="shape18" transform="translate(273.52,263.33)"><path fill="#ffffff" stroke="#323232" d="M120.0,70.0L120.0,.0L.0,.0L.0,70.0L120.0,70.0z" fill-rule="nonzero"/><text style="fill:#191919;font-family:Microsoft YaHei;font-size:10.00pt" xml:space="preserve"><tspan x="4.5" y="31.0">增加tag为空的过滤</tspan><tspan x="47.0" y="50.0">条件</tspan></text></g><g id="shape19" transform="translate(333.52,333.33)"><path stroke="#191919" fill="none" d="M.0,.0L.0,14.8L-158.9,14.8L-158.9,24.8"/><path fill="#191919" stroke="#191919" d="M-155.9,24.8L-158.9,30.8L-161.9,24.8L-155.9,24.8" stroke-width="1" stroke-linecap="round"/></g></g></svg>