<svg xmlns="http://www.w3.org/2000/svg" xmlns:xlink="http://www.w3.org/1999/xlink" width="1132" viewBox="0 0 1132 804" xmlns:ev="http://www.w3.org/2001/xml-events" height="804"><defs/><g id="page1" transform="translate(5.5,5.5)"><rect fill="#ffffff" x="0" y="0" width="1123" height="794"/><g id="shape1" transform="translate(125.83,53.18)"><path fill="#ffffff" stroke="#323232" d="M120.0,70.0L120.0,.0L.0,.0L.0,70.0L120.0,70.0z" fill-rule="nonzero"/><text style="fill:#191919;font-family:Microsoft YaHei;font-size:10.00pt" xml:space="preserve"><tspan x="21.0" y="40.5">获取网络列表</tspan></text></g><g id="shape2" transform="translate(125.83,265.67)"><path fill="#ffffff" stroke="#323232" d="M60.0,80.0L120.0,40.0L60.0,.0L.0,40.0L60.0,80.0z" fill-rule="nonzero"/><text style="fill:#191919;font-family:Microsoft YaHei;font-size:10.00pt" xml:space="preserve"><tspan x="21.0" y="45.5">得到一个网络</tspan></text></g><g id="shape3" transform="translate(125.83,160.98)"><path fill="#ffffff" stroke="#323232" d="M120.0,70.0L120.0,.0L.0,.0L.0,70.0L120.0,70.0z" fill-rule="nonzero"/><text style="fill:#191919;font-family:Microsoft YaHei;font-size:10.00pt" xml:space="preserve"><tspan x="8.0" y="21.5">过滤没有关联容器</tspan><tspan x="8.0" y="40.5">的网络并且满足条</tspan><tspan x="40.5" y="59.5">件过滤</tspan></text></g><g id="shape4" transform="translate(185.83,230.98)"><path stroke="#191919" fill="none" d="M.0,.0L.0,28.7"/><path fill="#191919" stroke="#191919" d="M3.0,28.7L.0,34.7L-3.0,28.7L3.0,28.7" stroke-width="1" stroke-linecap="round"/></g><g id="shape5" transform="translate(125.83,380.36)"><path fill="#ffffff" stroke="#323232" d="M120.0,70.0L120.0,.0L.0,.0L.0,70.0L120.0,70.0z" fill-rule="nonzero"/><text style="fill:#191919;font-family:Microsoft YaHei;font-size:10.00pt" xml:space="preserve"><tspan x="34.0" y="40.5">删除网络</tspan></text></g><g id="shape6" transform="translate(125.83,485.05)"><path fill="#ffffff" stroke="#323232" d="M120.0,70.0L120.0,.0L.0,.0L.0,70.0L120.0,70.0z" fill-rule="nonzero"/><text style="fill:#191919;font-family:Microsoft YaHei;font-size:10.00pt" xml:space="preserve"><tspan x="27.5" y="40.5">记录网络名</tspan></text></g><g id="shape7" transform="translate(185.83,555.05)"><path stroke="#191919" fill="none" d="M.0,.0L.0,29.6L-116.7,29.6L-116.7,-249.4L-66.0,-249.4"/><path fill="#191919" stroke="#191919" d="M-66.0,-252.4L-60.0,-249.4L-66.0,-246.4L-66.0,-252.4" stroke-width="1" stroke-linecap="round"/></g><g id="shape8" transform="translate(185.83,345.67)"><path stroke="#191919" fill="none" d="M.0,.0L.0,28.7"/><path fill="#191919" stroke="#191919" d="M3.0,28.7L.0,34.7L-3.0,28.7L3.0,28.7" stroke-width="1" stroke-linecap="round"/></g><g id="shape9" transform="translate(185.83,450.36)"><path stroke="#191919" fill="none" d="M.0,.0L.0,28.7"/><path fill="#191919" stroke="#191919" d="M3.0,28.7L.0,34.7L-3.0,28.7L3.0,28.7" stroke-width="1" stroke-linecap="round"/></g><g id="shape10" transform="translate(289.29,280.67)"><path fill="#ffffff" stroke="#323232" d="M25.0,50.0L95.0,50.0C108.8,50.0,120.0,38.8,120.0,25.0C120.0,11.2,108.8,.0,95.0,.0L25.0,.0C11.2,.0,.0,11.2,.0,25.0C.0,38.8,11.2,50.0,25.0,50.0z" fill-rule="nonzero"/><text style="fill:#191919;font-family:Microsoft YaHei;font-size:10.00pt" xml:space="preserve"><tspan x="34.0" y="30.5">返回结果</tspan></text></g><g id="shape11" transform="translate(245.83,305.67)"><path stroke="#191919" fill="none" d="M.0,.0L37.5,.0"/><path fill="#191919" stroke="#191919" d="M37.5,-3.0L43.5,.0L37.5,3.0L37.5,-3.0" stroke-width="1" stroke-linecap="round"/></g><g id="shape12" transform="translate(227.40,265.67)"><text style="fill:#191919;font-family:Microsoft YaHei;font-size:10.00pt" xml:space="preserve"><tspan x="33.7" y="34.0">否</tspan></text></g><g id="shape13" transform="translate(144.72,350.36)"><text style="fill:#191919;font-family:Microsoft YaHei;font-size:10.00pt" xml:space="preserve"><tspan x="17.1" y="20.0">是</tspan></text></g><g id="shape14" transform="translate(185.83,123.18)"><path stroke="#191919" fill="none" d="M.0,.0L.0,31.8"/><path fill="#191919" stroke="#191919" d="M3.0,31.8L.0,37.8L-3.0,31.8L3.0,31.8" stroke-width="1" stroke-linecap="round"/></g></g></svg>