<?xml version="1.0" encoding="UTF-8" standalone="no"?><svg xmlns="http://www.w3.org/2000/svg" xmlns:xlink="http://www.w3.org/1999/xlink" contentStyleType="text/css" height="437px" preserveAspectRatio="none" style="width:332px;height:437px;background:#FFFFFF;" version="1.1" viewBox="0 0 332 437" width="332px" zoomAndPan="magnify"><defs/><g><!--MD5=[1d7ba1c7002d54515419844fbd155368]
class Controller--><g id="elem_Controller"><rect codeLine="1" fill="#F1F1F1" height="48" id="Controller" rx="2.5" ry="2.5" style="stroke:#181818;stroke-width:0.5;" width="102" x="82" y="7"/><ellipse cx="97" cy="23" fill="#ADD1B2" rx="11" ry="11" style="stroke:#181818;stroke-width:1.0;"/><path d="M99.4731,29.1431 Q98.8921,29.4419 98.2529,29.5913 Q97.6138,29.7407 96.9082,29.7407 Q94.4014,29.7407 93.0815,28.0889 Q91.7617,26.437 91.7617,23.3159 Q91.7617,20.1865 93.0815,18.5347 Q94.4014,16.8828 96.9082,16.8828 Q97.6138,16.8828 98.2612,17.0322 Q98.9087,17.1816 99.4731,17.4805 L99.4731,20.2031 Q98.8423,19.6221 98.2488,19.3523 Q97.6553,19.0825 97.0244,19.0825 Q95.6797,19.0825 94.9949,20.1492 Q94.3101,21.2158 94.3101,23.3159 Q94.3101,25.4077 94.9949,26.4744 Q95.6797,27.541 97.0244,27.541 Q97.6553,27.541 98.2488,27.2712 Q98.8423,27.0015 99.4731,26.4204 Z " fill="#000000"/><text fill="#000000" font-family="sans-serif" font-size="14" lengthAdjust="spacing" textLength="70" x="111" y="28.291">Controller</text><line style="stroke:#181818;stroke-width:0.5;" x1="83" x2="183" y1="39" y2="39"/><line style="stroke:#181818;stroke-width:0.5;" x1="83" x2="183" y1="47" y2="47"/></g><!--MD5=[9eaf3f536650dfb6cbbc5688754d6a40]
class ShimController--><g id="elem_ShimController"><rect fill="#F1F1F1" height="48" id="ShimController" rx="2.5" ry="2.5" style="stroke:#181818;stroke-width:0.5;" width="136" x="7" y="132"/><ellipse cx="22" cy="148" fill="#ADD1B2" rx="11" ry="11" style="stroke:#181818;stroke-width:1.0;"/><path d="M24.4731,154.1431 Q23.8921,154.4419 23.2529,154.5913 Q22.6138,154.7407 21.9082,154.7407 Q19.4014,154.7407 18.0815,153.0889 Q16.7617,151.437 16.7617,148.3159 Q16.7617,145.1865 18.0815,143.5347 Q19.4014,141.8828 21.9082,141.8828 Q22.6138,141.8828 23.2612,142.0322 Q23.9087,142.1816 24.4731,142.4805 L24.4731,145.2031 Q23.8423,144.6221 23.2488,144.3523 Q22.6553,144.0825 22.0244,144.0825 Q20.6797,144.0825 19.9949,145.1492 Q19.3101,146.2158 19.3101,148.3159 Q19.3101,150.4077 19.9949,151.4744 Q20.6797,152.541 22.0244,152.541 Q22.6553,152.541 23.2488,152.2712 Q23.8423,152.0015 24.4731,151.4204 Z " fill="#000000"/><text fill="#000000" font-family="sans-serif" font-size="14" lengthAdjust="spacing" textLength="104" x="36" y="153.291">ShimController</text><line style="stroke:#181818;stroke-width:0.5;" x1="8" x2="142" y1="164" y2="164"/><line style="stroke:#181818;stroke-width:0.5;" x1="8" x2="142" y1="172" y2="172"/></g><!--MD5=[79d14438b6beabfdf6094256d09aaede]
class ProxyController--><g id="elem_ProxyController"><rect fill="#F1F1F1" height="48" id="ProxyController" rx="2.5" ry="2.5" style="stroke:#181818;stroke-width:0.5;" width="141" x="178.5" y="132"/><ellipse cx="193.5" cy="148" fill="#ADD1B2" rx="11" ry="11" style="stroke:#181818;stroke-width:1.0;"/><path d="M195.9731,154.1431 Q195.3921,154.4419 194.7529,154.5913 Q194.1138,154.7407 193.4082,154.7407 Q190.9014,154.7407 189.5815,153.0889 Q188.2617,151.437 188.2617,148.3159 Q188.2617,145.1865 189.5815,143.5347 Q190.9014,141.8828 193.4082,141.8828 Q194.1138,141.8828 194.7612,142.0322 Q195.4087,142.1816 195.9731,142.4805 L195.9731,145.2031 Q195.3423,144.6221 194.7488,144.3523 Q194.1553,144.0825 193.5244,144.0825 Q192.1797,144.0825 191.4949,145.1492 Q190.8101,146.2158 190.8101,148.3159 Q190.8101,150.4077 191.4949,151.4744 Q192.1797,152.541 193.5244,152.541 Q194.1553,152.541 194.7488,152.2712 Q195.3423,152.0015 195.9731,151.4204 Z " fill="#000000"/><text fill="#000000" font-family="sans-serif" font-size="14" lengthAdjust="spacing" textLength="109" x="207.5" y="153.291">ProxyController</text><line style="stroke:#181818;stroke-width:0.5;" x1="179.5" x2="318.5" y1="164" y2="164"/><line style="stroke:#181818;stroke-width:0.5;" x1="179.5" x2="318.5" y1="172" y2="172"/></g><!--MD5=[22fb62275ddbf8346d6d0a799ba52589]
class ProxyClient--><g id="elem_ProxyClient"><rect fill="#F1F1F1" height="48" id="ProxyClient" rx="2.5" ry="2.5" style="stroke:#181818;stroke-width:0.5;" width="111" x="193.5" y="257"/><ellipse cx="208.5" cy="273" fill="#ADD1B2" rx="11" ry="11" style="stroke:#181818;stroke-width:1.0;"/><path d="M210.9731,279.1431 Q210.3921,279.4419 209.7529,279.5913 Q209.1138,279.7407 208.4082,279.7407 Q205.9014,279.7407 204.5815,278.0889 Q203.2617,276.437 203.2617,273.3159 Q203.2617,270.1865 204.5815,268.5347 Q205.9014,266.8828 208.4082,266.8828 Q209.1138,266.8828 209.7612,267.0322 Q210.4087,267.1816 210.9731,267.4805 L210.9731,270.2031 Q210.3423,269.6221 209.7488,269.3523 Q209.1553,269.0825 208.5244,269.0825 Q207.1797,269.0825 206.4949,270.1492 Q205.8101,271.2158 205.8101,273.3159 Q205.8101,275.4077 206.4949,276.4744 Q207.1797,277.541 208.5244,277.541 Q209.1553,277.541 209.7488,277.2712 Q210.3423,277.0015 210.9731,276.4204 Z " fill="#000000"/><text fill="#000000" font-family="sans-serif" font-size="14" lengthAdjust="spacing" textLength="79" x="222.5" y="278.291">ProxyClient</text><line style="stroke:#181818;stroke-width:0.5;" x1="194.5" x2="303.5" y1="289" y2="289"/><line style="stroke:#181818;stroke-width:0.5;" x1="194.5" x2="303.5" y1="297" y2="297"/></g><!--MD5=[519d075d9612a09322222a27f8dfca92]
class ProxyGrpcClient--><g id="elem_ProxyGrpcClient"><rect fill="#F1F1F1" height="48" id="ProxyGrpcClient" rx="2.5" ry="2.5" style="stroke:#181818;stroke-width:0.5;" width="143" x="177.5" y="382"/><ellipse cx="192.5" cy="398" fill="#ADD1B2" rx="11" ry="11" style="stroke:#181818;stroke-width:1.0;"/><path d="M194.9731,404.1431 Q194.3921,404.4419 193.7529,404.5913 Q193.1138,404.7407 192.4082,404.7407 Q189.9014,404.7407 188.5815,403.0889 Q187.2617,401.437 187.2617,398.3159 Q187.2617,395.1865 188.5815,393.5347 Q189.9014,391.8828 192.4082,391.8828 Q193.1138,391.8828 193.7612,392.0322 Q194.4087,392.1816 194.9731,392.4805 L194.9731,395.2031 Q194.3423,394.6221 193.7488,394.3523 Q193.1553,394.0825 192.5244,394.0825 Q191.1797,394.0825 190.4949,395.1492 Q189.8101,396.2158 189.8101,398.3159 Q189.8101,400.4077 190.4949,401.4744 Q191.1797,402.541 192.5244,402.541 Q193.1553,402.541 193.7488,402.2712 Q194.3423,402.0015 194.9731,401.4204 Z " fill="#000000"/><text fill="#000000" font-family="sans-serif" font-size="14" lengthAdjust="spacing" textLength="111" x="206.5" y="403.291">ProxyGrpcClient</text><line style="stroke:#181818;stroke-width:0.5;" x1="178.5" x2="319.5" y1="414" y2="414"/><line style="stroke:#181818;stroke-width:0.5;" x1="178.5" x2="319.5" y1="422" y2="422"/></g><!--MD5=[bd426d5ec828eba105a21480c352404d]
reverse link Controller to ShimController--><g id="link_Controller_ShimController"><path codeLine="2" d="M107.13,73.18 C104.96,77.12 102.88,81.1 101,85 C93.73,100.06 87.19,117.72 82.48,131.53 " fill="none" id="Controller-backto-ShimController" style="stroke:#181818;stroke-width:1.0;"/><polygon fill="none" points="101.36,70.18,117.53,56.48,113.43,77.27,101.36,70.18" style="stroke:#181818;stroke-width:1.0;"/><text fill="#000000" font-family="sans-serif" font-size="13" lengthAdjust="spacing" textLength="74" x="102" y="98.5684">implements</text></g><!--MD5=[f2a4bb9897e5642abbe3300a019c7c69]
reverse link Controller to ProxyController--><g id="link_Controller_ProxyController"><path codeLine="3" d="M169.3,70.49 C188.21,90.55 210.72,114.41 226.99,131.66 " fill="none" id="Controller-backto-ProxyController" style="stroke:#181818;stroke-width:1.0;"/><polygon fill="none" points="164.72,75.78,156.09,56.42,174.91,66.17,164.72,75.78" style="stroke:#181818;stroke-width:1.0;"/><text fill="#000000" font-family="sans-serif" font-size="13" lengthAdjust="spacing" textLength="74" x="198" y="98.5684">implements</text></g><!--MD5=[e733000af4fb99a3fdc8ef54a8f23311]
reverse link ProxyController to ProxyClient--><g id="link_ProxyController_ProxyClient"><path codeLine="5" d="M249,194.3 C249,214.6 249,239.07 249,256.66 " fill="none" id="ProxyController-backto-ProxyClient" style="stroke:#181818;stroke-width:1.0;"/><polygon fill="#181818" points="249,181.42,245,187.42,249,193.42,253,187.42,249,181.42" style="stroke:#181818;stroke-width:1.0;"/><polygon fill="#000000" points="254,223.6553,256.9389,214.6102,251.0611,214.6102,254,223.6553" style="stroke:#000000;stroke-width:1.0;"/><text fill="#000000" font-family="sans-serif" font-size="13" lengthAdjust="spacing" textLength="54" x="263" y="223.5684">contains</text></g><!--MD5=[05e23d83795b80496514621ee23cb454]
reverse link ProxyClient to ProxyGrpcClient--><g id="link_ProxyClient_ProxyGrpcClient"><path codeLine="6" d="M249,326.24 C249,344.98 249,366.04 249,381.66 " fill="none" id="ProxyClient-backto-ProxyGrpcClient" style="stroke:#181818;stroke-width:1.0;"/><polygon fill="none" points="242,326.42,249,306.42,256,326.42,242,326.42" style="stroke:#181818;stroke-width:1.0;"/><text fill="#000000" font-family="sans-serif" font-size="13" lengthAdjust="spacing" textLength="74" x="250" y="348.5684">implements</text></g><!--MD5=[fb92dd046e600a8df1de9110865a1e25]
@startuml
class Controller
Controller <|- - ShimController : implements
Controller <|- - ProxyController : implements

ProxyController *- - ProxyClient : contains >
ProxyClient <|- - ProxyGrpcClient : implements

@enduml

PlantUML version 1.2022.7(Tue Aug 23 01:01:30 CST 2022)
(GPL source distribution)
Java Runtime: Java(TM) SE Runtime Environment
JVM: Java HotSpot(TM) 64-Bit Server VM
Default Encoding: UTF-8
Language: en
Country: CN
--></g></svg>