<?xml version="1.0" encoding="UTF-8" standalone="no"?><svg xmlns="http://www.w3.org/2000/svg" xmlns:xlink="http://www.w3.org/1999/xlink" contentStyleType="text/css" height="556px" preserveAspectRatio="none" style="width:362px;height:556px;background:#FFFFFF;" version="1.1" viewBox="0 0 362 556" width="362px" zoomAndPan="magnify"><defs/><g><ellipse cx="137.95" cy="16" fill="#222222" rx="10" ry="10" style="stroke:none;stroke-width:1.0;"/><rect fill="#F1F1F1" height="34.1328" rx="12.5" ry="12.5" style="stroke:#181818;stroke-width:0.5;" width="104" x="85.95" y="67"/><text fill="#000000" font-family="sans-serif" font-size="12" lengthAdjust="spacing" textLength="84" x="95.95" y="88.6016">rt_shim_create</text><rect fill="#F1F1F1" height="34.1328" rx="12.5" ry="12.5" style="stroke:#181818;stroke-width:0.5;" width="95" x="90.45" y="142"/><text fill="#000000" font-family="sans-serif" font-size="12" lengthAdjust="spacing" textLength="75" x="100.45" y="163.6016">check param</text><g id="elem_#7"><polygon fill="#F1F1F1" points="137.95,222,149.95,234,137.95,246,125.95,234,137.95,222" style="stroke:#181818;stroke-width:0.5;"/></g><rect fill="#F1F1F1" height="34.1328" rx="12.5" ry="12.5" style="stroke:#181818;stroke-width:0.5;" width="143" x="30.45" y="305"/><text fill="#000000" font-family="sans-serif" font-size="12" lengthAdjust="spacing" textLength="123" x="40.45" y="326.6016">address = task_addr</text><rect fill="#F1F1F1" height="34.1328" rx="12.5" ry="12.5" style="stroke:#181818;stroke-width:0.5;" width="151" x="112.45" y="380"/><text fill="#000000" font-family="sans-serif" font-size="12" lengthAdjust="spacing" textLength="131" x="122.45" y="401.6016">shim_v2_new(address)</text><rect fill="#F1F1F1" height="34.1328" rx="12.5" ry="12.5" style="stroke:#181818;stroke-width:0.5;" width="133" x="202.45" y="217"/><text fill="#000000" font-family="sans-serif" font-size="12" lengthAdjust="spacing" textLength="113" x="212.45" y="238.6016">shim_bin_v2_create</text><rect fill="#F1F1F1" height="34.1328" rx="12.5" ry="12.5" style="stroke:#181818;stroke-width:0.5;" width="163" x="193.45" y="305"/><text fill="#000000" font-family="sans-serif" font-size="12" lengthAdjust="spacing" textLength="143" x="203.45" y="326.6016">address = shim address</text><rect fill="#F1F1F1" height="34.1328" rx="12.5" ry="12.5" style="stroke:#181818;stroke-width:0.5;" width="109" x="133.45" y="455"/><text fill="#000000" font-family="sans-serif" font-size="12" lengthAdjust="spacing" textLength="89" x="143.45" y="476.6016">shim_v2_create</text><ellipse cx="187.95" cy="540" fill="none" rx="10" ry="10" style="stroke:#222222;stroke-width:1.0;"/><ellipse cx="188.45" cy="540.5" fill="#222222" rx="6" ry="6" style="stroke:none;stroke-width:1.0;"/><!--MD5=[669246ca4f0bec802398c424f58ef95e]
link start to rt_shim_create--><g id="link_start_rt_shim_create"><path d="M137.95,26.46 C137.95,35.38 137.95,49.1 137.95,60.78 " fill="none" id="start-to-rt_shim_create" style="stroke:#181818;stroke-width:1.0;"/><polygon fill="#181818" points="137.95,65.68,141.95,56.68,137.95,60.68,133.95,56.68,137.95,65.68" style="stroke:#181818;stroke-width:1.0;"/></g><!--MD5=[09bf75d9c40d48412068e41a80efb34b]
link rt_shim_create to check param--><g id="link_rt_shim_create_check param"><path d="M137.95,101.2 C137.95,111.34 137.95,124.54 137.95,135.66 " fill="none" id="rt_shim_create-to-check param" style="stroke:#181818;stroke-width:1.0;"/><polygon fill="#181818" points="137.95,140.59,141.95,131.59,137.95,135.59,133.95,131.59,137.95,140.59" style="stroke:#181818;stroke-width:1.0;"/></g><!--MD5=[d03c6b98230ab891b092516f18d01309]
link check param to #7--><g id="link_check param_#7"><path d="M137.95,176.2 C137.95,187.93 137.95,203.77 137.95,215.74 " fill="none" id="check param-to-#7" style="stroke:#181818;stroke-width:1.0;"/><polygon fill="#181818" points="137.95,220.6,141.95,211.6,137.95,215.6,133.95,211.6,137.95,220.6" style="stroke:#181818;stroke-width:1.0;"/><text fill="#000000" font-family="sans-serif" font-size="11" lengthAdjust="spacing" textLength="112" x="6" y="213.8499">param has task_addr</text></g><!--MD5=[53340b74665330ef0b903897f135247e]
link #7 to address = task_addr--><g id="link_#7_address = task_addr"><path d="M134.5,243.25 C129.14,256.05 118.64,281.12 111.01,299.35 " fill="none" id="#7-to-address = task_addr" style="stroke:#181818;stroke-width:1.0;"/><polygon fill="#181818" points="108.75,303.76,115.9113,296.9986,110.6781,299.1467,108.53,293.9136,108.75,303.76" style="stroke:#181818;stroke-width:1.0;"/><text fill="#000000" font-family="sans-serif" font-size="11" lengthAdjust="spacing" textLength="22" x="123.95" y="282.6348">true</text></g><!--MD5=[ac847a755a98a0afd30bed2cd771627f]
link address = task_addr to shim_v2_new(address)--><g id="link_address = task_addr_shim_v2_new(address)"><path d="M121.04,339.2 C133.75,349.99 150.56,364.26 164.15,375.79 " fill="none" id="address = task_addr-to-shim_v2_new(address)" style="stroke:#181818;stroke-width:1.0;"/><polygon fill="#181818" points="167.62,379.59,163.3348,370.7223,163.8036,376.3596,158.1662,376.8285,167.62,379.59" style="stroke:#181818;stroke-width:1.0;"/></g><!--MD5=[a2e21dc579e0ea8e818838332e0eee77]
link #7 to shim_bin_v2_create--><g id="link_#7_shim_bin_v2_create"><path d="M150.51,234 C161.6,234 178.72,234 196.54,234 " fill="none" id="#7-to-shim_bin_v2_create" style="stroke:#181818;stroke-width:1.0;"/><polygon fill="#181818" points="201.08,234,192.08,230,196.08,234,192.08,238,201.08,234" style="stroke:#181818;stroke-width:1.0;"/><text fill="#000000" font-family="sans-serif" font-size="11" lengthAdjust="spacing" textLength="25" x="163.7" y="228.6348">false</text></g><!--MD5=[37006a2af558871aa4ac6e34c96bb1f6]
link shim_bin_v2_create to address = shim address--><g id="link_shim_bin_v2_create_address = shim address"><path d="M270.08,251.18 C271.02,264.66 272.37,284.01 273.41,298.92 " fill="none" id="shim_bin_v2_create-to-address = shim address" style="stroke:#181818;stroke-width:1.0;"/><polygon fill="#181818" points="273.81,303.6,277.1567,294.3372,273.4527,298.6128,269.1772,294.9088,273.81,303.6" style="stroke:#181818;stroke-width:1.0;"/></g><!--MD5=[2c1409b549fa95b4652498355b7a5740]
link address = shim address to shim_v2_new(address)--><g id="link_address = shim address_shim_v2_new(address)"><path d="M255.64,339.2 C242.78,349.99 225.78,364.26 212.03,375.79 " fill="none" id="address = shim address-to-shim_v2_new(address)" style="stroke:#181818;stroke-width:1.0;"/><polygon fill="#181818" points="208.5,379.59,217.9648,376.8666,212.3294,376.375,212.8209,370.7396,208.5,379.59" style="stroke:#181818;stroke-width:1.0;"/></g><!--MD5=[85bf02a4d21c7f0dba0c47cecc6e1b0b]
link shim_v2_new(address) to shim_v2_create--><g id="link_shim_v2_new(address)_shim_v2_create"><path d="M187.95,414.2 C187.95,424.34 187.95,437.54 187.95,448.66 " fill="none" id="shim_v2_new(address)-to-shim_v2_create" style="stroke:#181818;stroke-width:1.0;"/><polygon fill="#181818" points="187.95,453.59,191.95,444.59,187.95,448.59,183.95,444.59,187.95,453.59" style="stroke:#181818;stroke-width:1.0;"/></g><!--MD5=[44fc8a9a28dd8287593a48184d51e467]
link shim_v2_create to end--><g id="link_shim_v2_create_end"><path d="M187.95,489.31 C187.95,499.81 187.95,513.36 187.95,523.66 " fill="none" id="shim_v2_create-to-end" style="stroke:#181818;stroke-width:1.0;"/><polygon fill="#181818" points="187.95,528.59,191.95,519.59,187.95,523.59,183.95,519.59,187.95,528.59" style="stroke:#181818;stroke-width:1.0;"/></g><!--MD5=[b30e26da65aca7480c7216c6c7abcaec]
@startuml
(*)- ->"rt_shim_create"
"rt_shim_create" - -> "check param"
if "param has task_addr" then
- ->[true] "address = task_addr"
- -> "shim_v2_new(address)"
else
-right->[false] "shim_bin_v2_create"
- -> "address = shim address"
- -> "shim_v2_new(address)"
endif
- ->"shim_v2_create"
- ->(*)

@enduml

PlantUML version 1.2022.7(Tue Aug 23 01:01:30 CST 2022)
(GPL source distribution)
Java Runtime: Java(TM) SE Runtime Environment
JVM: Java HotSpot(TM) 64-Bit Server VM
Default Encoding: UTF-8
Language: en
Country: CN
--></g></svg>