<?xml version="1.0" encoding="UTF-8" standalone="no"?><svg xmlns="http://www.w3.org/2000/svg" xmlns:xlink="http://www.w3.org/1999/xlink" contentStyleType="text/css" height="558px" preserveAspectRatio="none" style="width:327px;height:558px;background:#FFFFFF;" version="1.1" viewBox="0 0 327 558" width="327px" zoomAndPan="magnify"><defs/><g><line style="stroke:#181818;stroke-width:0.5;stroke-dasharray:5.0,5.0;" x1="69.5" x2="69.5" y1="36.4883" y2="522.8359"/><line style="stroke:#181818;stroke-width:0.5;stroke-dasharray:5.0,5.0;" x1="244" x2="244" y1="36.4883" y2="522.8359"/><rect fill="#E2E2F0" height="30.4883" rx="2.5" ry="2.5" style="stroke:#181818;stroke-width:0.5;" width="97" x="21.5" y="5"/><text fill="#000000" font-family="sans-serif" font-size="14" lengthAdjust="spacing" textLength="83" x="28.5" y="25.5352">sandbox_cb</text><rect fill="#E2E2F0" height="30.4883" rx="2.5" ry="2.5" style="stroke:#181818;stroke-width:0.5;" width="97" x="21.5" y="521.8359"/><text fill="#000000" font-family="sans-serif" font-size="14" lengthAdjust="spacing" textLength="83" x="28.5" y="542.3711">sandbox_cb</text><rect fill="#E2E2F0" height="30.4883" rx="2.5" ry="2.5" style="stroke:#181818;stroke-width:0.5;" width="142" x="173" y="5"/><text fill="#000000" font-family="sans-serif" font-size="14" lengthAdjust="spacing" textLength="128" x="180" y="25.5352">service_sandboxer</text><rect fill="#E2E2F0" height="30.4883" rx="2.5" ry="2.5" style="stroke:#181818;stroke-width:0.5;" width="142" x="173" y="521.8359"/><text fill="#000000" font-family="sans-serif" font-size="14" lengthAdjust="spacing" textLength="128" x="180" y="542.3711">service_sandboxer</text><rect fill="#EEEEEE" height="3" style="stroke:#EEEEEE;stroke-width:1.0;" width="320" x="0" y="67.1436"/><line style="stroke:#000000;stroke-width:1.0;" x1="0" x2="320" y1="67.1436" y2="67.1436"/><line style="stroke:#000000;stroke-width:1.0;" x1="0" x2="320" y1="70.1436" y2="70.1436"/><rect fill="#EEEEEE" height="23.3105" style="stroke:#000000;stroke-width:2.0;" width="56" x="132" y="56.4883"/><text fill="#000000" font-family="sans-serif" font-size="13" font-weight="bold" lengthAdjust="spacing" textLength="42" x="138" y="73.0566">create</text><polygon fill="#181818" points="58,107.1094,68,111.1094,58,115.1094,62,111.1094" style="stroke:#181818;stroke-width:1.0;"/><line style="stroke:#181818;stroke-width:1.0;" x1="0" x2="64" y1="111.1094" y2="111.1094"/><text fill="#000000" font-family="sans-serif" font-size="13" lengthAdjust="spacing" textLength="38" x="7" y="106.3672">create</text><polygon fill="#181818" points="232,136.4199,242,140.4199,232,144.4199,236,140.4199" style="stroke:#181818;stroke-width:1.0;"/><line style="stroke:#181818;stroke-width:1.0;" x1="70" x2="238" y1="140.4199" y2="140.4199"/><text fill="#000000" font-family="sans-serif" font-size="13" lengthAdjust="spacing" textLength="99" x="77" y="135.6777">create_sandbox</text><rect fill="#EEEEEE" height="3" style="stroke:#EEEEEE;stroke-width:1.0;" width="320" x="0" y="169.0752"/><line style="stroke:#000000;stroke-width:1.0;" x1="0" x2="320" y1="169.0752" y2="169.0752"/><line style="stroke:#000000;stroke-width:1.0;" x1="0" x2="320" y1="172.0752" y2="172.0752"/><rect fill="#EEEEEE" height="23.3105" style="stroke:#000000;stroke-width:2.0;" width="45" x="137.5" y="158.4199"/><text fill="#000000" font-family="sans-serif" font-size="13" font-weight="bold" lengthAdjust="spacing" textLength="31" x="143.5" y="174.9883">start</text><polygon fill="#181818" points="58,209.041,68,213.041,58,217.041,62,213.041" style="stroke:#181818;stroke-width:1.0;"/><line style="stroke:#181818;stroke-width:1.0;" x1="0" x2="64" y1="213.041" y2="213.041"/><text fill="#000000" font-family="sans-serif" font-size="13" lengthAdjust="spacing" textLength="29" x="7" y="208.2988">start</text><polygon fill="#181818" points="232,238.3516,242,242.3516,232,246.3516,236,242.3516" style="stroke:#181818;stroke-width:1.0;"/><line style="stroke:#181818;stroke-width:1.0;" x1="70" x2="238" y1="242.3516" y2="242.3516"/><text fill="#000000" font-family="sans-serif" font-size="13" lengthAdjust="spacing" textLength="90" x="77" y="237.6094">start_sandbox</text><polygon fill="#181818" points="232,267.6621,242,271.6621,232,275.6621,236,271.6621" style="stroke:#181818;stroke-width:1.0;"/><line style="stroke:#181818;stroke-width:1.0;" x1="70" x2="238" y1="271.6621" y2="271.6621"/><text fill="#000000" font-family="sans-serif" font-size="13" lengthAdjust="spacing" textLength="150" x="77" y="266.9199">update_sandbox_status</text><rect fill="#EEEEEE" height="3" style="stroke:#EEEEEE;stroke-width:1.0;" width="320" x="0" y="300.3174"/><line style="stroke:#000000;stroke-width:1.0;" x1="0" x2="320" y1="300.3174" y2="300.3174"/><line style="stroke:#000000;stroke-width:1.0;" x1="0" x2="320" y1="303.3174" y2="303.3174"/><rect fill="#EEEEEE" height="23.3105" style="stroke:#000000;stroke-width:2.0;" width="43" x="138.5" y="289.6621"/><text fill="#000000" font-family="sans-serif" font-size="13" font-weight="bold" lengthAdjust="spacing" textLength="29" x="144.5" y="306.2305">stop</text><polygon fill="#181818" points="58,340.2832,68,344.2832,58,348.2832,62,344.2832" style="stroke:#181818;stroke-width:1.0;"/><line style="stroke:#181818;stroke-width:1.0;" x1="0" x2="64" y1="344.2832" y2="344.2832"/><text fill="#000000" font-family="sans-serif" font-size="13" lengthAdjust="spacing" textLength="28" x="7" y="339.541">stop</text><polygon fill="#181818" points="232,369.5938,242,373.5938,232,377.5938,236,373.5938" style="stroke:#181818;stroke-width:1.0;"/><line style="stroke:#181818;stroke-width:1.0;" x1="70" x2="238" y1="373.5938" y2="373.5938"/><text fill="#000000" font-family="sans-serif" font-size="13" lengthAdjust="spacing" textLength="89" x="77" y="368.8516">stop_sandbox</text><polygon fill="#181818" points="232,398.9043,242,402.9043,232,406.9043,236,402.9043" style="stroke:#181818;stroke-width:1.0;"/><line style="stroke:#181818;stroke-width:1.0;" x1="70" x2="238" y1="402.9043" y2="402.9043"/><text fill="#000000" font-family="sans-serif" font-size="13" lengthAdjust="spacing" textLength="150" x="77" y="398.1621">update_sandbox_status</text><rect fill="#EEEEEE" height="3" style="stroke:#EEEEEE;stroke-width:1.0;" width="320" x="0" y="431.5596"/><line style="stroke:#000000;stroke-width:1.0;" x1="0" x2="320" y1="431.5596" y2="431.5596"/><line style="stroke:#000000;stroke-width:1.0;" x1="0" x2="320" y1="434.5596" y2="434.5596"/><rect fill="#EEEEEE" height="23.3105" style="stroke:#000000;stroke-width:2.0;" width="65" x="127.5" y="420.9043"/><text fill="#000000" font-family="sans-serif" font-size="13" font-weight="bold" lengthAdjust="spacing" textLength="51" x="133.5" y="437.4727">remove</text><polygon fill="#181818" points="58,471.5254,68,475.5254,58,479.5254,62,475.5254" style="stroke:#181818;stroke-width:1.0;"/><line style="stroke:#181818;stroke-width:1.0;" x1="0" x2="64" y1="475.5254" y2="475.5254"/><text fill="#000000" font-family="sans-serif" font-size="13" lengthAdjust="spacing" textLength="46" x="7" y="470.7832">remove</text><polygon fill="#181818" points="232,500.8359,242,504.8359,232,508.8359,236,504.8359" style="stroke:#181818;stroke-width:1.0;"/><line style="stroke:#181818;stroke-width:1.0;" x1="70" x2="238" y1="504.8359" y2="504.8359"/><text fill="#000000" font-family="sans-serif" font-size="13" lengthAdjust="spacing" textLength="99" x="77" y="500.0938">delete_sandbox</text><!--MD5=[666cc9f1bf6824d4765cf14ee8bdff90]
@startuml
participant sandbox_cb
participant service_sandboxer

==create==
-> sandbox_cb: create
sandbox_cb -> service_sandboxer: create_sandbox

==start==
-> sandbox_cb: start
sandbox_cb -> service_sandboxer: start_sandbox
sandbox_cb -> service_sandboxer: update_sandbox_status

==stop==
-> sandbox_cb: stop
sandbox_cb -> service_sandboxer: stop_sandbox
sandbox_cb -> service_sandboxer: update_sandbox_status

==remove==
-> sandbox_cb: remove
sandbox_cb -> service_sandboxer: delete_sandbox

@enduml

PlantUML version 1.2022.7(Tue Aug 23 01:01:30 CST 2022)
(GPL source distribution)
Java Runtime: Java(TM) SE Runtime Environment
JVM: Java HotSpot(TM) 64-Bit Server VM
Default Encoding: UTF-8
Language: en
Country: CN
--></g></svg>