<?xml version="1.0" encoding="UTF-8" standalone="no"?><svg xmlns="http://www.w3.org/2000/svg" xmlns:xlink="http://www.w3.org/1999/xlink" contentStyleType="text/css" height="576px" preserveAspectRatio="none" style="width:891px;height:576px;background:#FFFFFF;" version="1.1" viewBox="0 0 891 576" width="891px" zoomAndPan="magnify"><defs/><g><line style="stroke:#181818;stroke-width:0.5;stroke-dasharray:5.0,5.0;" x1="28" x2="28" y1="81.4883" y2="495.5254"/><line style="stroke:#181818;stroke-width:0.5;stroke-dasharray:5.0,5.0;" x1="173" x2="173" y1="81.4883" y2="495.5254"/><line style="stroke:#181818;stroke-width:0.5;stroke-dasharray:5.0,5.0;" x1="337" x2="337" y1="81.4883" y2="495.5254"/><line style="stroke:#181818;stroke-width:0.5;stroke-dasharray:5.0,5.0;" x1="499.5" x2="499.5" y1="81.4883" y2="495.5254"/><line style="stroke:#181818;stroke-width:0.5;stroke-dasharray:5.0,5.0;" x1="658" x2="658" y1="81.4883" y2="495.5254"/><line style="stroke:#181818;stroke-width:0.5;stroke-dasharray:5.0,5.0;" x1="766" x2="766" y1="81.4883" y2="495.5254"/><line style="stroke:#181818;stroke-width:0.5;stroke-dasharray:5.0,5.0;" x1="851" x2="851" y1="81.4883" y2="495.5254"/><text fill="#000000" font-family="sans-serif" font-size="14" lengthAdjust="spacing" textLength="40" x="5" y="78.5352">Client</text><ellipse cx="28" cy="13.5" fill="#E2E2F0" rx="8" ry="8" style="stroke:#181818;stroke-width:0.5;"/><path d="M28,21.5 L28,48.5 M15,29.5 L41,29.5 M28,48.5 L15,63.5 M28,48.5 L41,63.5 " fill="none" style="stroke:#181818;stroke-width:0.5;"/><text fill="#000000" font-family="sans-serif" font-size="14" lengthAdjust="spacing" textLength="40" x="5" y="508.0605">Client</text><ellipse cx="28" cy="519.5137" fill="#E2E2F0" rx="8" ry="8" style="stroke:#181818;stroke-width:0.5;"/><path d="M28,527.5137 L28,554.5137 M15,535.5137 L41,535.5137 M28,554.5137 L15,569.5137 M28,554.5137 L41,569.5137 " fill="none" style="stroke:#181818;stroke-width:0.5;"/><rect fill="#E2E2F0" height="30.4883" rx="2.5" ry="2.5" style="stroke:#181818;stroke-width:0.5;" width="225" x="61" y="50"/><text fill="#000000" font-family="sans-serif" font-size="14" lengthAdjust="spacing" textLength="211" x="68" y="70.5352">cri_container_manager_service</text><rect fill="#E2E2F0" height="30.4883" rx="2.5" ry="2.5" style="stroke:#181818;stroke-width:0.5;" width="225" x="61" y="494.5254"/><text fill="#000000" font-family="sans-serif" font-size="14" lengthAdjust="spacing" textLength="211" x="68" y="515.0605">cri_container_manager_service</text><rect fill="#E2E2F0" height="30.4883" rx="2.5" ry="2.5" style="stroke:#181818;stroke-width:0.5;" width="82" x="296" y="50"/><text fill="#000000" font-family="sans-serif" font-size="14" lengthAdjust="spacing" textLength="68" x="303" y="70.5352">execution</text><rect fill="#E2E2F0" height="30.4883" rx="2.5" ry="2.5" style="stroke:#181818;stroke-width:0.5;" width="82" x="296" y="494.5254"/><text fill="#000000" font-family="sans-serif" font-size="14" lengthAdjust="spacing" textLength="68" x="303" y="515.0605">execution</text><rect fill="#E2E2F0" height="30.4883" rx="2.5" ry="2.5" style="stroke:#181818;stroke-width:0.5;" width="133" x="433.5" y="50"/><text fill="#000000" font-family="sans-serif" font-size="14" lengthAdjust="spacing" textLength="119" x="440.5" y="70.5352">service_container</text><rect fill="#E2E2F0" height="30.4883" rx="2.5" ry="2.5" style="stroke:#181818;stroke-width:0.5;" width="133" x="433.5" y="494.5254"/><text fill="#000000" font-family="sans-serif" font-size="14" lengthAdjust="spacing" textLength="119" x="440.5" y="515.0605">service_container</text><rect fill="#ADD8E6" height="30.4883" rx="2.5" ry="2.5" style="stroke:#181818;stroke-width:0.5;" width="116" x="600" y="50"/><text fill="#000000" font-family="sans-serif" font-size="14" lengthAdjust="spacing" textLength="102" x="607" y="70.5352">sandbox_store</text><rect fill="#ADD8E6" height="30.4883" rx="2.5" ry="2.5" style="stroke:#181818;stroke-width:0.5;" width="116" x="600" y="494.5254"/><text fill="#000000" font-family="sans-serif" font-size="14" lengthAdjust="spacing" textLength="102" x="607" y="515.0605">sandbox_store</text><rect fill="#ADD8E6" height="30.4883" rx="2.5" ry="2.5" style="stroke:#181818;stroke-width:0.5;" width="81" x="726" y="50"/><text fill="#000000" font-family="sans-serif" font-size="14" lengthAdjust="spacing" textLength="67" x="733" y="70.5352">controller</text><rect fill="#ADD8E6" height="30.4883" rx="2.5" ry="2.5" style="stroke:#181818;stroke-width:0.5;" width="81" x="726" y="494.5254"/><text fill="#000000" font-family="sans-serif" font-size="14" lengthAdjust="spacing" textLength="67" x="733" y="515.0605">controller</text><rect fill="#E2E2F0" height="30.4883" rx="2.5" ry="2.5" style="stroke:#181818;stroke-width:0.5;" width="68" x="817" y="50"/><text fill="#000000" font-family="sans-serif" font-size="14" lengthAdjust="spacing" textLength="54" x="824" y="70.5352">runtime</text><rect fill="#E2E2F0" height="30.4883" rx="2.5" ry="2.5" style="stroke:#181818;stroke-width:0.5;" width="68" x="817" y="494.5254"/><text fill="#000000" font-family="sans-serif" font-size="14" lengthAdjust="spacing" textLength="54" x="824" y="515.0605">runtime</text><polygon fill="#181818" points="161.5,108.7988,171.5,112.7988,161.5,116.7988,165.5,112.7988" style="stroke:#181818;stroke-width:1.0;"/><line style="stroke:#181818;stroke-width:1.0;" x1="28" x2="167.5" y1="112.7988" y2="112.7988"/><text fill="#000000" font-family="sans-serif" font-size="13" lengthAdjust="spacing" textLength="90" x="35" y="108.0566">StartContainer</text><polygon fill="#181818" points="325,138.1094,335,142.1094,325,146.1094,329,142.1094" style="stroke:#181818;stroke-width:1.0;"/><line style="stroke:#181818;stroke-width:1.0;" x1="173.5" x2="331" y1="142.1094" y2="142.1094"/><text fill="#000000" font-family="sans-serif" font-size="13" lengthAdjust="spacing" textLength="117" x="180.5" y="137.3672">container_start_cb</text><line style="stroke:#181818;stroke-width:1.0;" x1="337" x2="379" y1="171.4199" y2="171.4199"/><line style="stroke:#181818;stroke-width:1.0;" x1="379" x2="379" y1="171.4199" y2="184.4199"/><line style="stroke:#181818;stroke-width:1.0;" x1="338" x2="379" y1="184.4199" y2="184.4199"/><polygon fill="#181818" points="348,180.4199,338,184.4199,348,188.4199,344,184.4199" style="stroke:#181818;stroke-width:1.0;"/><text fill="#000000" font-family="sans-serif" font-size="13" lengthAdjust="spacing" textLength="149" x="344" y="166.6777">container_start_prepare</text><polygon fill="#181818" points="488,209.7305,498,213.7305,488,217.7305,492,213.7305" style="stroke:#181818;stroke-width:1.0;"/><line style="stroke:#181818;stroke-width:1.0;" x1="337" x2="494" y1="213.7305" y2="213.7305"/><text fill="#000000" font-family="sans-serif" font-size="13" lengthAdjust="spacing" textLength="95" x="344" y="208.9883">start_container</text><polygon fill="#FF0000" points="646,239.041,656,243.041,646,247.041,650,243.041" style="stroke:#FF0000;stroke-width:1.0;"/><line style="stroke:#FF0000;stroke-width:1.0;" x1="500" x2="652" y1="243.041" y2="243.041"/><text fill="#000000" font-family="sans-serif" font-size="13" lengthAdjust="spacing" textLength="134" x="507" y="238.2988">sandboxes_store_get</text><polygon fill="#FF0000" points="511,268.3516,501,272.3516,511,276.3516,507,272.3516" style="stroke:#FF0000;stroke-width:1.0;"/><line style="stroke:#FF0000;stroke-width:1.0;" x1="505" x2="657" y1="272.3516" y2="272.3516"/><text fill="#000000" font-family="sans-serif" font-size="13" lengthAdjust="spacing" textLength="54" x="517" y="267.6094">sandbox</text><polygon fill="#FF0000" points="754.5,297.6621,764.5,301.6621,754.5,305.6621,758.5,301.6621" style="stroke:#FF0000;stroke-width:1.0;"/><line style="stroke:#FF0000;stroke-width:1.0;" x1="500" x2="760.5" y1="301.6621" y2="301.6621"/><text fill="#000000" font-family="sans-serif" font-size="13" lengthAdjust="spacing" textLength="136" x="507" y="296.9199">sandbox_ctrl_prepare</text><polygon fill="#181818" points="839,326.9727,849,330.9727,839,334.9727,843,330.9727" style="stroke:#181818;stroke-width:1.0;"/><line style="stroke:#181818;stroke-width:1.0;" x1="500" x2="845" y1="330.9727" y2="330.9727"/><text fill="#000000" font-family="sans-serif" font-size="13" lengthAdjust="spacing" textLength="94" x="507" y="326.2305">runtime_create</text><polygon fill="#181818" points="839,356.2832,849,360.2832,839,364.2832,843,360.2832" style="stroke:#181818;stroke-width:1.0;"/><line style="stroke:#181818;stroke-width:1.0;" x1="500" x2="845" y1="360.2832" y2="360.2832"/><text fill="#000000" font-family="sans-serif" font-size="13" lengthAdjust="spacing" textLength="85" x="507" y="355.541">runtime_start</text><polygon fill="#181818" points="511,385.5938,501,389.5938,511,393.5938,507,389.5938" style="stroke:#181818;stroke-width:1.0;"/><line style="stroke:#181818;stroke-width:1.0;stroke-dasharray:2.0,2.0;" x1="505" x2="850" y1="389.5938" y2="389.5938"/><text fill="#000000" font-family="sans-serif" font-size="13" lengthAdjust="spacing" textLength="16" x="517" y="384.8516">ok</text><polygon fill="#181818" points="348,414.9043,338,418.9043,348,422.9043,344,418.9043" style="stroke:#181818;stroke-width:1.0;"/><line style="stroke:#181818;stroke-width:1.0;stroke-dasharray:2.0,2.0;" x1="342" x2="499" y1="418.9043" y2="418.9043"/><text fill="#000000" font-family="sans-serif" font-size="13" lengthAdjust="spacing" textLength="16" x="354" y="414.1621">ok</text><polygon fill="#181818" points="184.5,444.2148,174.5,448.2148,184.5,452.2148,180.5,448.2148" style="stroke:#181818;stroke-width:1.0;"/><line style="stroke:#181818;stroke-width:1.0;stroke-dasharray:2.0,2.0;" x1="178.5" x2="336" y1="448.2148" y2="448.2148"/><text fill="#000000" font-family="sans-serif" font-size="13" lengthAdjust="spacing" textLength="16" x="190.5" y="443.4727">ok</text><polygon fill="#181818" points="39,473.5254,29,477.5254,39,481.5254,35,477.5254" style="stroke:#181818;stroke-width:1.0;"/><line style="stroke:#181818;stroke-width:1.0;stroke-dasharray:2.0,2.0;" x1="33" x2="172.5" y1="477.5254" y2="477.5254"/><text fill="#000000" font-family="sans-serif" font-size="13" lengthAdjust="spacing" textLength="16" x="45" y="472.7832">ok</text><!--MD5=[0c54edd8b481bf041f1a13e01d4a88c4]
@startuml
actor Client as criClient
participant cri_container_manager_service as criServer
participant execution
participant service_container
participant sandbox_store #LightBlue
participant controller #LightBlue

criClient -> criServer: StartContainer
criServer -> execution: container_start_cb
execution -> execution: container_start_prepare
execution -> service_container: start_container
service_container -[#Red]> sandbox_store: sandboxes_store_get
sandbox_store -[#Red]> service_container: sandbox
service_container -[#Red]> controller: sandbox_ctrl_prepare
service_container -> runtime: runtime_create
service_container -> runtime: runtime_start
service_container <- - runtime: ok
execution <- - service_container: ok
criServer <- - execution: ok
criClient <- - criServer: ok
@enduml

PlantUML version 1.2022.7(Tue Aug 23 01:01:30 CST 2022)
(GPL source distribution)
Java Runtime: Java(TM) SE Runtime Environment
JVM: Java HotSpot(TM) 64-Bit Server VM
Default Encoding: UTF-8
Language: en
Country: CN
--></g></svg>