<?xml version="1.0" encoding="UTF-8" standalone="no"?><svg xmlns="http://www.w3.org/2000/svg" xmlns:xlink="http://www.w3.org/1999/xlink" contentStyleType="text/css" height="1028px" preserveAspectRatio="none" style="width:338px;height:1028px;background:#FFFFFF;" version="1.1" viewBox="0 0 338 1028" width="338px" zoomAndPan="magnify"><defs/><g><line style="stroke:#181818;stroke-width:0.5;stroke-dasharray:5.0,5.0;" x1="28" x2="28" y1="81.4883" y2="947.5625"/><line style="stroke:#181818;stroke-width:0.5;stroke-dasharray:5.0,5.0;" x1="177.5" x2="177.5" y1="81.4883" y2="947.5625"/><line style="stroke:#181818;stroke-width:0.5;stroke-dasharray:5.0,5.0;" x1="277.5" x2="277.5" y1="81.4883" y2="947.5625"/><text fill="#000000" font-family="sans-serif" font-size="14" lengthAdjust="spacing" textLength="40" x="5" y="78.5352">Client</text><ellipse cx="28" cy="13.5" fill="#E2E2F0" rx="8" ry="8" style="stroke:#181818;stroke-width:0.5;"/><path d="M28,21.5 L28,48.5 M15,29.5 L41,29.5 M28,48.5 L15,63.5 M28,48.5 L41,63.5 " fill="none" style="stroke:#181818;stroke-width:0.5;"/><text fill="#000000" font-family="sans-serif" font-size="14" lengthAdjust="spacing" textLength="40" x="5" y="960.0977">Client</text><ellipse cx="28" cy="971.5508" fill="#E2E2F0" rx="8" ry="8" style="stroke:#181818;stroke-width:0.5;"/><path d="M28,979.5508 L28,1006.5508 M15,987.5508 L41,987.5508 M28,1006.5508 L15,1021.5508 M28,1006.5508 L41,1021.5508 " fill="none" style="stroke:#181818;stroke-width:0.5;"/><rect fill="#E2E2F0" height="30.4883" rx="2.5" ry="2.5" style="stroke:#181818;stroke-width:0.5;" width="37" x="159.5" y="50"/><text fill="#000000" font-family="sans-serif" font-size="14" lengthAdjust="spacing" textLength="23" x="166.5" y="70.5352">CRI</text><rect fill="#E2E2F0" height="30.4883" rx="2.5" ry="2.5" style="stroke:#181818;stroke-width:0.5;" width="37" x="159.5" y="946.5625"/><text fill="#000000" font-family="sans-serif" font-size="14" lengthAdjust="spacing" textLength="23" x="166.5" y="967.0977">CRI</text><rect fill="#E2E2F0" height="30.4883" rx="2.5" ry="2.5" style="stroke:#181818;stroke-width:0.5;" width="97" x="229.5" y="50"/><text fill="#000000" font-family="sans-serif" font-size="14" lengthAdjust="spacing" textLength="83" x="236.5" y="70.5352">sandbox_cb</text><rect fill="#E2E2F0" height="30.4883" rx="2.5" ry="2.5" style="stroke:#181818;stroke-width:0.5;" width="97" x="229.5" y="946.5625"/><text fill="#000000" font-family="sans-serif" font-size="14" lengthAdjust="spacing" textLength="83" x="236.5" y="967.0977">sandbox_cb</text><rect fill="#EEEEEE" height="3" style="stroke:#EEEEEE;stroke-width:1.0;" width="331.5" x="0" y="112.1436"/><line style="stroke:#000000;stroke-width:1.0;" x1="0" x2="331.5" y1="112.1436" y2="112.1436"/><line style="stroke:#000000;stroke-width:1.0;" x1="0" x2="331.5" y1="115.1436" y2="115.1436"/><rect fill="#EEEEEE" height="23.3105" style="stroke:#000000;stroke-width:2.0;" width="124" x="103.75" y="101.4883"/><text fill="#000000" font-family="sans-serif" font-size="13" font-weight="bold" lengthAdjust="spacing" textLength="110" x="109.75" y="118.0566">RunPodSandbox</text><polygon fill="#181818" points="166,152.1094,176,156.1094,166,160.1094,170,156.1094" style="stroke:#181818;stroke-width:1.0;"/><line style="stroke:#181818;stroke-width:1.0;" x1="28" x2="172" y1="156.1094" y2="156.1094"/><text fill="#000000" font-family="sans-serif" font-size="13" lengthAdjust="spacing" textLength="101" x="35" y="151.3672">RunPodSandbox</text><polygon fill="#181818" points="266,181.4199,276,185.4199,266,189.4199,270,185.4199" style="stroke:#181818;stroke-width:1.0;"/><line style="stroke:#181818;stroke-width:1.0;" x1="178" x2="272" y1="185.4199" y2="185.4199"/><text fill="#000000" font-family="sans-serif" font-size="13" lengthAdjust="spacing" textLength="68" x="185" y="180.6777">allocate_id</text><polygon fill="#181818" points="266,210.7305,276,214.7305,266,218.7305,270,214.7305" style="stroke:#181818;stroke-width:1.0;"/><line style="stroke:#181818;stroke-width:1.0;" x1="178" x2="272" y1="214.7305" y2="214.7305"/><text fill="#000000" font-family="sans-serif" font-size="13" lengthAdjust="spacing" textLength="38" x="185" y="209.9883">create</text><polygon fill="#181818" points="266,240.041,276,244.041,266,248.041,270,244.041" style="stroke:#181818;stroke-width:1.0;"/><line style="stroke:#181818;stroke-width:1.0;" x1="178" x2="272" y1="244.041" y2="244.041"/><text fill="#000000" font-family="sans-serif" font-size="13" lengthAdjust="spacing" textLength="29" x="185" y="239.2988">start</text><rect fill="#EEEEEE" height="3" style="stroke:#EEEEEE;stroke-width:1.0;" width="331.5" x="0" y="272.6963"/><line style="stroke:#000000;stroke-width:1.0;" x1="0" x2="331.5" y1="272.6963" y2="272.6963"/><line style="stroke:#000000;stroke-width:1.0;" x1="0" x2="331.5" y1="275.6963" y2="275.6963"/><rect fill="#EEEEEE" height="23.3105" style="stroke:#000000;stroke-width:2.0;" width="126" x="102.75" y="262.041"/><text fill="#000000" font-family="sans-serif" font-size="13" font-weight="bold" lengthAdjust="spacing" textLength="112" x="108.75" y="278.6094">StopPodSandbox</text><polygon fill="#181818" points="166,312.6621,176,316.6621,166,320.6621,170,316.6621" style="stroke:#181818;stroke-width:1.0;"/><line style="stroke:#181818;stroke-width:1.0;" x1="28" x2="172" y1="316.6621" y2="316.6621"/><text fill="#000000" font-family="sans-serif" font-size="13" lengthAdjust="spacing" textLength="105" x="35" y="311.9199">StopPodSandbox</text><polygon fill="#181818" points="266,341.9727,276,345.9727,266,349.9727,270,345.9727" style="stroke:#181818;stroke-width:1.0;"/><line style="stroke:#181818;stroke-width:1.0;" x1="178" x2="272" y1="345.9727" y2="345.9727"/><text fill="#000000" font-family="sans-serif" font-size="13" lengthAdjust="spacing" textLength="39" x="185" y="341.2305">get_id</text><polygon fill="#181818" points="266,371.2832,276,375.2832,266,379.2832,270,375.2832" style="stroke:#181818;stroke-width:1.0;"/><line style="stroke:#181818;stroke-width:1.0;" x1="178" x2="272" y1="375.2832" y2="375.2832"/><text fill="#000000" font-family="sans-serif" font-size="13" lengthAdjust="spacing" textLength="46" x="185" y="370.541">inspect</text><polygon fill="#181818" points="266,400.5938,276,404.5938,266,408.5938,270,404.5938" style="stroke:#181818;stroke-width:1.0;"/><line style="stroke:#181818;stroke-width:1.0;" x1="178" x2="272" y1="404.5938" y2="404.5938"/><text fill="#000000" font-family="sans-serif" font-size="13" lengthAdjust="spacing" textLength="28" x="185" y="399.8516">stop</text><rect fill="#EEEEEE" height="3" style="stroke:#EEEEEE;stroke-width:1.0;" width="331.5" x="0" y="433.249"/><line style="stroke:#000000;stroke-width:1.0;" x1="0" x2="331.5" y1="433.249" y2="433.249"/><line style="stroke:#000000;stroke-width:1.0;" x1="0" x2="331.5" y1="436.249" y2="436.249"/><rect fill="#EEEEEE" height="23.3105" style="stroke:#000000;stroke-width:2.0;" width="151" x="90.25" y="422.5938"/><text fill="#000000" font-family="sans-serif" font-size="13" font-weight="bold" lengthAdjust="spacing" textLength="137" x="96.25" y="439.1621">RemovePodSandbox</text><polygon fill="#181818" points="166,473.2148,176,477.2148,166,481.2148,170,477.2148" style="stroke:#181818;stroke-width:1.0;"/><line style="stroke:#181818;stroke-width:1.0;" x1="28" x2="172" y1="477.2148" y2="477.2148"/><text fill="#000000" font-family="sans-serif" font-size="13" lengthAdjust="spacing" textLength="126" x="35" y="472.4727">RemovePodSandbox</text><polygon fill="#181818" points="266,502.5254,276,506.5254,266,510.5254,270,506.5254" style="stroke:#181818;stroke-width:1.0;"/><line style="stroke:#181818;stroke-width:1.0;" x1="178" x2="272" y1="506.5254" y2="506.5254"/><text fill="#000000" font-family="sans-serif" font-size="13" lengthAdjust="spacing" textLength="39" x="185" y="501.7832">get_id</text><polygon fill="#181818" points="266,531.8359,276,535.8359,266,539.8359,270,535.8359" style="stroke:#181818;stroke-width:1.0;"/><line style="stroke:#181818;stroke-width:1.0;" x1="178" x2="272" y1="535.8359" y2="535.8359"/><text fill="#000000" font-family="sans-serif" font-size="13" lengthAdjust="spacing" textLength="46" x="185" y="531.0938">remove</text><rect fill="#EEEEEE" height="3" style="stroke:#EEEEEE;stroke-width:1.0;" width="331.5" x="0" y="564.4912"/><line style="stroke:#000000;stroke-width:1.0;" x1="0" x2="331.5" y1="564.4912" y2="564.4912"/><line style="stroke:#000000;stroke-width:1.0;" x1="0" x2="331.5" y1="567.4912" y2="567.4912"/><rect fill="#EEEEEE" height="23.3105" style="stroke:#000000;stroke-width:2.0;" width="138" x="96.75" y="553.8359"/><text fill="#000000" font-family="sans-serif" font-size="13" font-weight="bold" lengthAdjust="spacing" textLength="124" x="102.75" y="570.4043">PodSandboxStatus</text><polygon fill="#181818" points="166,604.457,176,608.457,166,612.457,170,608.457" style="stroke:#181818;stroke-width:1.0;"/><line style="stroke:#181818;stroke-width:1.0;" x1="28" x2="172" y1="608.457" y2="608.457"/><text fill="#000000" font-family="sans-serif" font-size="13" lengthAdjust="spacing" textLength="116" x="35" y="603.7148">PodSandboxStatus</text><polygon fill="#181818" points="266,633.7676,276,637.7676,266,641.7676,270,637.7676" style="stroke:#181818;stroke-width:1.0;"/><line style="stroke:#181818;stroke-width:1.0;" x1="178" x2="272" y1="637.7676" y2="637.7676"/><text fill="#000000" font-family="sans-serif" font-size="13" lengthAdjust="spacing" textLength="39" x="185" y="633.0254">get_id</text><polygon fill="#181818" points="266,663.0781,276,667.0781,266,671.0781,270,667.0781" style="stroke:#181818;stroke-width:1.0;"/><line style="stroke:#181818;stroke-width:1.0;" x1="178" x2="272" y1="667.0781" y2="667.0781"/><text fill="#000000" font-family="sans-serif" font-size="13" lengthAdjust="spacing" textLength="46" x="185" y="662.3359">inspect</text><polygon fill="#181818" points="266,692.3887,276,696.3887,266,700.3887,270,696.3887" style="stroke:#181818;stroke-width:1.0;"/><line style="stroke:#181818;stroke-width:1.0;" x1="178" x2="272" y1="696.3887" y2="696.3887"/><text fill="#000000" font-family="sans-serif" font-size="13" lengthAdjust="spacing" textLength="39" x="185" y="691.6465">status</text><rect fill="#EEEEEE" height="3" style="stroke:#EEEEEE;stroke-width:1.0;" width="331.5" x="0" y="725.0439"/><line style="stroke:#000000;stroke-width:1.0;" x1="0" x2="331.5" y1="725.0439" y2="725.0439"/><line style="stroke:#000000;stroke-width:1.0;" x1="0" x2="331.5" y1="728.0439" y2="728.0439"/><rect fill="#EEEEEE" height="23.3105" style="stroke:#000000;stroke-width:2.0;" width="121" x="105.25" y="714.3887"/><text fill="#000000" font-family="sans-serif" font-size="13" font-weight="bold" lengthAdjust="spacing" textLength="107" x="111.25" y="730.957">ListPodSandbox</text><polygon fill="#181818" points="166,765.0098,176,769.0098,166,773.0098,170,769.0098" style="stroke:#181818;stroke-width:1.0;"/><line style="stroke:#181818;stroke-width:1.0;" x1="28" x2="172" y1="769.0098" y2="769.0098"/><text fill="#000000" font-family="sans-serif" font-size="13" lengthAdjust="spacing" textLength="100" x="35" y="764.2676">ListPodSandbox</text><polygon fill="#181818" points="266,794.3203,276,798.3203,266,802.3203,270,798.3203" style="stroke:#181818;stroke-width:1.0;"/><line style="stroke:#181818;stroke-width:1.0;" x1="178" x2="272" y1="798.3203" y2="798.3203"/><text fill="#000000" font-family="sans-serif" font-size="13" lengthAdjust="spacing" textLength="20" x="185" y="793.5781">list</text><rect fill="#EEEEEE" height="3" style="stroke:#EEEEEE;stroke-width:1.0;" width="331.5" x="0" y="826.9756"/><line style="stroke:#000000;stroke-width:1.0;" x1="0" x2="331.5" y1="826.9756" y2="826.9756"/><line style="stroke:#000000;stroke-width:1.0;" x1="0" x2="331.5" y1="829.9756" y2="829.9756"/><rect fill="#EEEEEE" height="23.3105" style="stroke:#000000;stroke-width:2.0;" width="124" x="103.75" y="816.3203"/><text fill="#000000" font-family="sans-serif" font-size="13" font-weight="bold" lengthAdjust="spacing" textLength="110" x="109.75" y="832.8887">CreateContainer</text><polygon fill="#181818" points="166,866.9414,176,870.9414,166,874.9414,170,870.9414" style="stroke:#181818;stroke-width:1.0;"/><line style="stroke:#181818;stroke-width:1.0;" x1="28" x2="172" y1="870.9414" y2="870.9414"/><text fill="#000000" font-family="sans-serif" font-size="13" lengthAdjust="spacing" textLength="101" x="35" y="866.1992">CreateContainer</text><polygon fill="#181818" points="266,896.252,276,900.252,266,904.252,270,900.252" style="stroke:#181818;stroke-width:1.0;"/><line style="stroke:#181818;stroke-width:1.0;" x1="178" x2="272" y1="900.252" y2="900.252"/><text fill="#000000" font-family="sans-serif" font-size="13" lengthAdjust="spacing" textLength="39" x="185" y="895.5098">get_id</text><polygon fill="#181818" points="266,925.5625,276,929.5625,266,933.5625,270,929.5625" style="stroke:#181818;stroke-width:1.0;"/><line style="stroke:#181818;stroke-width:1.0;" x1="178" x2="272" y1="929.5625" y2="929.5625"/><text fill="#000000" font-family="sans-serif" font-size="13" lengthAdjust="spacing" textLength="76" x="185" y="924.8203">get_runtime</text><!--MD5=[e992a14cc122be312251516ce3b3b03b]
@startuml
actor Client as criClient
participant CRI as criServer
participant sandbox_cb

==RunPodSandbox==
criClient -> criServer: RunPodSandbox
criServer -> sandbox_cb: allocate_id
criServer -> sandbox_cb: create
criServer -> sandbox_cb: start

==StopPodSandbox==
criClient -> criServer: StopPodSandbox
criServer -> sandbox_cb: get_id
criServer -> sandbox_cb: inspect
criServer -> sandbox_cb: stop

==RemovePodSandbox==
criClient -> criServer: RemovePodSandbox
criServer -> sandbox_cb: get_id
criServer -> sandbox_cb: remove

==PodSandboxStatus==
criClient -> criServer: PodSandboxStatus
criServer -> sandbox_cb: get_id
criServer -> sandbox_cb: inspect
criServer -> sandbox_cb: status

==ListPodSandbox==
criClient -> criServer: ListPodSandbox
criServer -> sandbox_cb: list

==CreateContainer==
criClient -> criServer: CreateContainer
criServer -> sandbox_cb: get_id
criServer -> sandbox_cb: get_runtime

@enduml

PlantUML version 1.2022.7(Tue Aug 23 01:01:30 CST 2022)
(GPL source distribution)
Java Runtime: Java(TM) SE Runtime Environment
JVM: Java HotSpot(TM) 64-Bit Server VM
Default Encoding: UTF-8
Language: en
Country: CN
--></g></svg>