<?xml version="1.0" encoding="UTF-8" standalone="no"?><svg xmlns="http://www.w3.org/2000/svg" xmlns:xlink="http://www.w3.org/1999/xlink" contentStyleType="text/css" height="1334px" preserveAspectRatio="none" style="width:660px;height:1334px;background:#FFFFFF;" version="1.1" viewBox="0 0 660 1334" width="660px" zoomAndPan="magnify"><defs/><g><!--MD5=[92bff4a90067656020f4b60af8c1ba63]
cluster iSulad--><g id="cluster_iSulad"><path d="M8.5,6 L53.5,6 A3.75,3.75 0 0 1 56,8.5 L63,28.4883 L650.5,28.4883 A2.5,2.5 0 0 1 653,30.9883 L653,1059.5 A2.5,2.5 0 0 1 650.5,1062 L8.5,1062 A2.5,2.5 0 0 1 6,1059.5 L6,8.5 A2.5,2.5 0 0 1 8.5,6 " fill="none" style="stroke:#000000;stroke-width:1.5;"/><line style="stroke:#000000;stroke-width:1.5;" x1="6" x2="63" y1="28.4883" y2="28.4883"/><text fill="#000000" font-family="sans-serif" font-size="14" font-weight="bold" lengthAdjust="spacing" textLength="44" x="10" y="21.5352">iSulad</text></g><!--MD5=[1ff241b9a785a59cfb85bad121820e27]
cluster daemon/module/runtime--><g id="cluster_daemon/module/runtime"><rect fill="none" height="97" rx="2.5" ry="2.5" style="stroke:#181818;stroke-width:1.0;" width="200" x="31" y="941"/><rect fill="none" height="10" style="stroke:#181818;stroke-width:1.0;" width="15" x="211" y="946"/><rect fill="none" height="2" style="stroke:#181818;stroke-width:1.0;" width="4" x="209" y="948"/><rect fill="none" height="2" style="stroke:#181818;stroke-width:1.0;" width="4" x="209" y="952"/><text fill="#000000" font-family="sans-serif" font-size="14" font-weight="bold" lengthAdjust="spacing" textLength="184" x="39" y="967.5352">daemon/module/runtime</text></g><!--MD5=[0ce535f88fcdcb2f5d4c94366cbaed25]
cluster daemon/module/sandbox--><g id="cluster_daemon/module/sandbox"><rect fill="#ADD8E6" height="97" rx="2.5" ry="2.5" style="stroke:#181818;stroke-width:1.0;" width="317" x="255" y="941"/><rect fill="#ADD8E6" height="10" style="stroke:#181818;stroke-width:1.0;" width="15" x="552" y="946"/><rect fill="#ADD8E6" height="2" style="stroke:#181818;stroke-width:1.0;" width="4" x="550" y="948"/><rect fill="#ADD8E6" height="2" style="stroke:#181818;stroke-width:1.0;" width="4" x="550" y="952"/><text fill="#000000" font-family="sans-serif" font-size="14" font-weight="bold" lengthAdjust="spacing" textLength="187" x="320" y="967.5352">daemon/module/sandbox</text></g><!--MD5=[cc06c4108cdaaabefa9339fb784bcac9]
cluster daemon/module/service--><g id="cluster_daemon/module/service"><rect fill="none" height="97" rx="2.5" ry="2.5" style="stroke:#181818;stroke-width:1.0;" width="395" x="203" y="676"/><rect fill="none" height="10" style="stroke:#181818;stroke-width:1.0;" width="15" x="578" y="681"/><rect fill="none" height="2" style="stroke:#181818;stroke-width:1.0;" width="4" x="576" y="683"/><rect fill="none" height="2" style="stroke:#181818;stroke-width:1.0;" width="4" x="576" y="687"/><text fill="#000000" font-family="sans-serif" font-size="14" font-weight="bold" lengthAdjust="spacing" textLength="177" x="312" y="702.5352">daemon/module/service</text></g><!--MD5=[14bd5b9338191d3422b2005ae967ac2c]
cluster daemon/executor--><g id="cluster_daemon/executor"><rect fill="none" height="97" rx="2.5" ry="2.5" style="stroke:#181818;stroke-width:1.0;" width="319" x="229" y="411"/><rect fill="none" height="10" style="stroke:#181818;stroke-width:1.0;" width="15" x="528" y="416"/><rect fill="none" height="2" style="stroke:#181818;stroke-width:1.0;" width="4" x="526" y="418"/><rect fill="none" height="2" style="stroke:#181818;stroke-width:1.0;" width="4" x="526" y="422"/><text fill="#000000" font-family="sans-serif" font-size="14" font-weight="bold" lengthAdjust="spacing" textLength="126" x="325.5" y="437.5352">daemon/executor</text></g><!--MD5=[ce6d86842c0a51ad1714aaf525cfb283]
cluster daemon/entry/cri--><g id="cluster_daemon/entry/cri"><rect fill="none" height="97" rx="2.5" ry="2.5" style="stroke:#181818;stroke-width:1.0;" width="599" x="30" y="146"/><rect fill="none" height="10" style="stroke:#181818;stroke-width:1.0;" width="15" x="609" y="151"/><rect fill="none" height="2" style="stroke:#181818;stroke-width:1.0;" width="4" x="607" y="153"/><rect fill="none" height="2" style="stroke:#181818;stroke-width:1.0;" width="4" x="607" y="157"/><text fill="#000000" font-family="sans-serif" font-size="14" font-weight="bold" lengthAdjust="spacing" textLength="128" x="265.5" y="172.5352">daemon/entry/cri</text></g><!--MD5=[33c74e1a363d6677e26fcd36a19d693c]
cluster Sandboxer--><g id="cluster_Sandboxer"><path d="M142.5,1230 L217.5,1230 A3.75,3.75 0 0 1 220,1232.5 L227,1252.4883 L372.5,1252.4883 A2.5,2.5 0 0 1 375,1254.9883 L375,1324.5 A2.5,2.5 0 0 1 372.5,1327 L142.5,1327 A2.5,2.5 0 0 1 140,1324.5 L140,1232.5 A2.5,2.5 0 0 1 142.5,1230 " fill="none" style="stroke:#000000;stroke-width:1.5;"/><line style="stroke:#000000;stroke-width:1.5;" x1="140" x2="227" y1="1252.4883" y2="1252.4883"/><text fill="#000000" font-family="sans-serif" font-size="14" font-weight="bold" lengthAdjust="spacing" textLength="74" x="144" y="1245.5352">Sandboxer</text></g><!--MD5=[315078d1d33eb31893c8ebbc2d213676]
entity CRIP--><g id="elem_CRIP"><ellipse cx="473" cy="70" fill="#F1F1F1" rx="8" ry="8" style="stroke:#181818;stroke-width:0.5;"/><text fill="#000000" font-family="sans-serif" font-size="14" lengthAdjust="spacing" textLength="84" x="431" y="100.5352">CRI Pod RPC</text></g><!--MD5=[18b73aa5e56ebcb8293fe399ae7faa05]
entity CRIC--><g id="elem_CRIC"><ellipse cx="172" cy="70" fill="#F1F1F1" rx="8" ry="8" style="stroke:#181818;stroke-width:0.5;"/><text fill="#000000" font-family="sans-serif" font-size="14" lengthAdjust="spacing" textLength="126" x="109" y="100.5352">CRI Container RPC</text></g><!--MD5=[c70581ad34ae99641231b63100ec6afd]
entity SBCB--><g id="elem_SBCB"><ellipse cx="471" cy="335" fill="#F1F1F1" rx="8" ry="8" style="stroke:#181818;stroke-width:0.5;"/><text fill="#000000" font-family="sans-serif" font-size="14" lengthAdjust="spacing" textLength="123" x="409.5" y="365.5352">Sandbox Callback</text></g><!--MD5=[7dff9a2847848addf094a9df6fba4d5b]
entity CCB--><g id="elem_CCB"><ellipse cx="232" cy="335" fill="#F1F1F1" rx="8" ry="8" style="stroke:#181818;stroke-width:0.5;"/><text fill="#000000" font-family="sans-serif" font-size="14" lengthAdjust="spacing" textLength="130" x="167" y="365.5352">Container Callback</text></g><!--MD5=[eb969a81315c27146f18c102a4a6aca8]
entity SBLC--><g id="elem_SBLC"><ellipse cx="489" cy="600" fill="#F1F1F1" rx="8" ry="8" style="stroke:#181818;stroke-width:0.5;"/><text fill="#000000" font-family="sans-serif" font-size="14" lengthAdjust="spacing" textLength="122" x="428" y="630.5352">Sandbox Lifecycle</text></g><!--MD5=[c03d6e8c9ffa46d8851c0ec00a5d4416]
entity CLC--><g id="elem_CLC"><ellipse cx="302" cy="600" fill="#F1F1F1" rx="8" ry="8" style="stroke:#181818;stroke-width:0.5;"/><text fill="#000000" font-family="sans-serif" font-size="14" lengthAdjust="spacing" textLength="129" x="237.5" y="630.5352">Container Lifecycle</text></g><!--MD5=[0cb2357f9066fcf3d3cc5d6a6b2944cc]
entity SHIMV2--><g id="elem_SHIMV2"><ellipse cx="142" cy="865" fill="#F1F1F1" rx="8" ry="8" style="stroke:#181818;stroke-width:0.5;"/><text fill="#000000" font-family="sans-serif" font-size="14" lengthAdjust="spacing" textLength="119" x="82.5" y="895.5352">Runtime Callback</text></g><!--MD5=[d82cc8f3485e981675c1672037372c8d]
entity SBSTORE--><g id="elem_SBSTORE"><ellipse cx="498" cy="865" fill="#F1F1F1" rx="8" ry="8" style="stroke:#181818;stroke-width:0.5;"/><text fill="#000000" font-family="sans-serif" font-size="14" lengthAdjust="spacing" textLength="127" x="434.5" y="895.5352">Sandbox Store API</text></g><!--MD5=[6ca76c296af8057c9915ee20a4d9bf13]
entity CTRLCB--><g id="elem_CTRLCB"><ellipse cx="318" cy="865" fill="#F1F1F1" rx="8" ry="8" style="stroke:#181818;stroke-width:0.5;"/><text fill="#000000" font-family="sans-serif" font-size="14" lengthAdjust="spacing" textLength="132" x="252" y="895.5352">Controller Callback</text></g><!--MD5=[c0ac361c08dad0d2b989eed26ad6b5f7]
entity shim--><g id="elem_shim"><rect fill="#FFFF00" height="46.4883" rx="2.5" ry="2.5" style="stroke:#181818;stroke-width:0.5;" width="73" x="105.5" y="976"/><rect fill="#FFFF00" height="10" style="stroke:#181818;stroke-width:0.5;" width="15" x="158.5" y="981"/><rect fill="#FFFF00" height="2" style="stroke:#181818;stroke-width:0.5;" width="4" x="156.5" y="983"/><rect fill="#FFFF00" height="2" style="stroke:#181818;stroke-width:0.5;" width="4" x="156.5" y="987"/><text fill="#000000" font-family="sans-serif" font-size="14" lengthAdjust="spacing" textLength="33" x="120.5" y="1009.5352">shim</text></g><!--MD5=[c05fcadc036a699206cfdfa4a4fdb889]
entity controller--><g id="elem_controller"><rect fill="#ADD8E6" height="46.4883" rx="2.5" ry="2.5" style="stroke:#181818;stroke-width:0.5;" width="107" x="271.5" y="976"/><rect fill="#ADD8E6" height="10" style="stroke:#181818;stroke-width:0.5;" width="15" x="358.5" y="981"/><rect fill="#ADD8E6" height="2" style="stroke:#181818;stroke-width:0.5;" width="4" x="356.5" y="983"/><rect fill="#ADD8E6" height="2" style="stroke:#181818;stroke-width:0.5;" width="4" x="356.5" y="987"/><text fill="#000000" font-family="sans-serif" font-size="14" lengthAdjust="spacing" textLength="67" x="286.5" y="1009.5352">controller</text></g><!--MD5=[e4df386e27b972f39b80fdb56dc87d68]
entity sandbox_store--><g id="elem_sandbox_store"><rect fill="#ADD8E6" height="46.4883" rx="2.5" ry="2.5" style="stroke:#181818;stroke-width:0.5;" width="142" x="414" y="976"/><rect fill="#ADD8E6" height="10" style="stroke:#181818;stroke-width:0.5;" width="15" x="536" y="981"/><rect fill="#ADD8E6" height="2" style="stroke:#181818;stroke-width:0.5;" width="4" x="534" y="983"/><rect fill="#ADD8E6" height="2" style="stroke:#181818;stroke-width:0.5;" width="4" x="534" y="987"/><text fill="#000000" font-family="sans-serif" font-size="14" lengthAdjust="spacing" textLength="102" x="429" y="1009.5352">sandbox_store</text></g><!--MD5=[dc41b8b88608632cfe780f493fc77aa2]
entity service_container--><g id="elem_service_container"><rect fill="#FFFF00" height="46.4883" rx="2.5" ry="2.5" style="stroke:#181818;stroke-width:0.5;" width="159" x="219.5" y="711"/><rect fill="#FFFF00" height="10" style="stroke:#181818;stroke-width:0.5;" width="15" x="358.5" y="716"/><rect fill="#FFFF00" height="2" style="stroke:#181818;stroke-width:0.5;" width="4" x="356.5" y="718"/><rect fill="#FFFF00" height="2" style="stroke:#181818;stroke-width:0.5;" width="4" x="356.5" y="722"/><text fill="#000000" font-family="sans-serif" font-size="14" lengthAdjust="spacing" textLength="119" x="234.5" y="744.5352">service_container</text></g><!--MD5=[2ac85ad9269648e4c8679e24d42f4c4e]
entity service_sandboxer--><g id="elem_service_sandboxer"><rect fill="#ADD8E6" height="46.4883" rx="2.5" ry="2.5" style="stroke:#181818;stroke-width:0.5;" width="168" x="414" y="711"/><rect fill="#ADD8E6" height="10" style="stroke:#181818;stroke-width:0.5;" width="15" x="562" y="716"/><rect fill="#ADD8E6" height="2" style="stroke:#181818;stroke-width:0.5;" width="4" x="560" y="718"/><rect fill="#ADD8E6" height="2" style="stroke:#181818;stroke-width:0.5;" width="4" x="560" y="722"/><text fill="#000000" font-family="sans-serif" font-size="14" lengthAdjust="spacing" textLength="128" x="429" y="744.5352">service_sandboxer</text></g><!--MD5=[6338417b9c3e41688062b95c10dba5f1]
entity sandbox_cb--><g id="elem_sandbox_cb"><rect fill="#ADD8E6" height="46.4883" rx="2.5" ry="2.5" style="stroke:#181818;stroke-width:0.5;" width="123" x="408.5" y="446"/><rect fill="#ADD8E6" height="10" style="stroke:#181818;stroke-width:0.5;" width="15" x="511.5" y="451"/><rect fill="#ADD8E6" height="2" style="stroke:#181818;stroke-width:0.5;" width="4" x="509.5" y="453"/><rect fill="#ADD8E6" height="2" style="stroke:#181818;stroke-width:0.5;" width="4" x="509.5" y="457"/><text fill="#000000" font-family="sans-serif" font-size="14" lengthAdjust="spacing" textLength="83" x="423.5" y="479.5352">sandbox_cb</text></g><!--MD5=[54dc600cbf5b156e84bf83bd7c737d72]
entity container_cb--><g id="elem_container_cb"><rect fill="#FFFF00" height="46.4883" rx="2.5" ry="2.5" style="stroke:#181818;stroke-width:0.5;" width="128" x="245" y="446"/><rect fill="#FFFF00" height="10" style="stroke:#181818;stroke-width:0.5;" width="15" x="353" y="451"/><rect fill="#FFFF00" height="2" style="stroke:#181818;stroke-width:0.5;" width="4" x="351" y="453"/><rect fill="#FFFF00" height="2" style="stroke:#181818;stroke-width:0.5;" width="4" x="351" y="457"/><text fill="#000000" font-family="sans-serif" font-size="14" lengthAdjust="spacing" textLength="88" x="260" y="479.5352">container_cb</text></g><!--MD5=[dba07933f52666320b15e8f3d5bf0ff9]
entity cri_pod_sandbox_manager_service--><g id="elem_cri_pod_sandbox_manager_service"><rect fill="#ADD8E6" height="46.4883" rx="2.5" ry="2.5" style="stroke:#181818;stroke-width:0.5;" width="280" x="333" y="181"/><rect fill="#ADD8E6" height="10" style="stroke:#181818;stroke-width:0.5;" width="15" x="593" y="186"/><rect fill="#ADD8E6" height="2" style="stroke:#181818;stroke-width:0.5;" width="4" x="591" y="188"/><rect fill="#ADD8E6" height="2" style="stroke:#181818;stroke-width:0.5;" width="4" x="591" y="192"/><text fill="#000000" font-family="sans-serif" font-size="14" lengthAdjust="spacing" textLength="240" x="348" y="214.5352">cri_pod_sandbox_manager_service</text></g><!--MD5=[524f11b53c706018cbbc1002e9926cd4]
entity cri_container_manager_service--><g id="elem_cri_container_manager_service"><rect fill="#F1F1F1" height="46.4883" rx="2.5" ry="2.5" style="stroke:#181818;stroke-width:0.5;" width="251" x="46.5" y="181"/><rect fill="#F1F1F1" height="10" style="stroke:#181818;stroke-width:0.5;" width="15" x="277.5" y="186"/><rect fill="#F1F1F1" height="2" style="stroke:#181818;stroke-width:0.5;" width="4" x="275.5" y="188"/><rect fill="#F1F1F1" height="2" style="stroke:#181818;stroke-width:0.5;" width="4" x="275.5" y="192"/><text fill="#000000" font-family="sans-serif" font-size="14" lengthAdjust="spacing" textLength="211" x="61.5" y="214.5352">cri_container_manager_service</text></g><!--MD5=[7cba8207f00e6afbafa9be1e8515741d]
entity sandbox--><g id="elem_sandbox"><rect fill="#F1F1F1" height="46.4883" rx="2.5" ry="2.5" style="stroke:#181818;stroke-width:0.5;" width="100" x="259" y="1265"/><rect fill="#F1F1F1" height="10" style="stroke:#181818;stroke-width:0.5;" width="15" x="339" y="1270"/><rect fill="#F1F1F1" height="2" style="stroke:#181818;stroke-width:0.5;" width="4" x="337" y="1272"/><rect fill="#F1F1F1" height="2" style="stroke:#181818;stroke-width:0.5;" width="4" x="337" y="1276"/><text fill="#000000" font-family="sans-serif" font-size="14" lengthAdjust="spacing" textLength="60" x="274" y="1298.5352">sandbox</text></g><!--MD5=[c77a7a9f565a0b8e82ce4b35a94c8a45]
entity task--><g id="elem_task"><rect fill="#F1F1F1" height="46.4883" rx="2.5" ry="2.5" style="stroke:#181818;stroke-width:0.5;" width="68" x="156" y="1265"/><rect fill="#F1F1F1" height="10" style="stroke:#181818;stroke-width:0.5;" width="15" x="204" y="1270"/><rect fill="#F1F1F1" height="2" style="stroke:#181818;stroke-width:0.5;" width="4" x="202" y="1272"/><rect fill="#F1F1F1" height="2" style="stroke:#181818;stroke-width:0.5;" width="4" x="202" y="1276"/><text fill="#000000" font-family="sans-serif" font-size="14" lengthAdjust="spacing" textLength="28" x="171" y="1298.5352">task</text></g><!--MD5=[141b148e19c1db5b5729883233869b1b]
entity SBCRPC--><g id="elem_SBCRPC"><ellipse cx="325" cy="1154" fill="#F1F1F1" rx="8" ry="8" style="stroke:#181818;stroke-width:0.5;"/><text fill="#000000" font-family="sans-serif" font-size="14" lengthAdjust="spacing" textLength="180" x="235" y="1184.5352">Sandboxer Controller RPC</text></g><!--MD5=[88aa61d25e15af0cb62a850685a79432]
entity SHIMV2RPC--><g id="elem_SHIMV2RPC"><ellipse cx="142" cy="1154" fill="#F1F1F1" rx="8" ry="8" style="stroke:#181818;stroke-width:0.5;"/><text fill="#000000" font-family="sans-serif" font-size="14" lengthAdjust="spacing" textLength="85" x="99.5" y="1184.5352">Shim v2 RPC</text></g><!--MD5=[e83e31a38be3700e70b6fd5e180e278d]
link SHIMV2 to shim--><g id="link_SHIMV2_shim"><path d="M142,873.86 C142,893.57 142,945.62 142,975.7 " fill="none" id="SHIMV2-shim" style="stroke:#181818;stroke-width:1.0;"/></g><!--MD5=[43469bd396e4edf7406d103d3f5fc745]
link shim to SHIMV2RPC--><g id="link_shim_SHIMV2RPC"><path d="M142,1022.25 C142,1054.47 142,1113.16 142,1139.53 " fill="none" id="shim-to-SHIMV2RPC" style="stroke:#181818;stroke-width:1.0;stroke-dasharray:7.0,7.0;"/><polygon fill="#181818" points="142,1144.22,146,1135.22,142,1139.22,138,1135.22,142,1144.22" style="stroke:#181818;stroke-width:1.0;"/><text fill="#000000" font-family="sans-serif" font-size="13" lengthAdjust="spacing" textLength="22" x="143" y="1091.5684">use</text></g><!--MD5=[9438a5161983a70fe6e88344e9231979]
link CTRLCB to controller--><g id="link_CTRLCB_controller"><path d="M318.42,873.86 C319.46,893.57 322.22,945.62 323.82,975.7 " fill="none" id="CTRLCB-controller" style="stroke:#181818;stroke-width:1.0;"/></g><!--MD5=[7e85cf7f63ff086a37445c5a29a78cc2]
link controller to SBCRPC--><g id="link_controller_SBCRPC"><path d="M325,1022.25 C325,1054.47 325,1113.16 325,1139.53 " fill="none" id="controller-to-SBCRPC" style="stroke:#181818;stroke-width:1.0;stroke-dasharray:7.0,7.0;"/><polygon fill="#181818" points="325,1144.22,329,1135.22,325,1139.22,321,1135.22,325,1144.22" style="stroke:#181818;stroke-width:1.0;"/><text fill="#000000" font-family="sans-serif" font-size="13" lengthAdjust="spacing" textLength="22" x="326" y="1091.5684">use</text></g><!--MD5=[8ee57c509afaf9fac526047a824a69bd]
link SBSTORE to sandbox_store--><g id="link_SBSTORE_sandbox_store"><path d="M497.23,873.86 C495.29,893.57 490.16,945.62 487.2,975.7 " fill="none" id="SBSTORE-sandbox_store" style="stroke:#181818;stroke-width:1.0;"/></g><!--MD5=[1e5c813b900984f328b8c3d7437162fe]
link CLC to service_container--><g id="link_CLC_service_container"><path d="M301.82,608.86 C301.37,628.57 300.19,680.62 299.51,710.7 " fill="none" id="CLC-service_container" style="stroke:#181818;stroke-width:1.0;"/></g><!--MD5=[70a09d3cf55e9e2a93c6ada3069ac6e2]
link service_container to CTRLCB--><g id="link_service_container_CTRLCB"><path d="M297.69,757.21 C297.26,771.28 297.43,789.81 300,806 C302.51,821.78 308.36,839.21 312.71,850.8 " fill="none" id="service_container-to-CTRLCB" style="stroke:#181818;stroke-width:1.0;stroke-dasharray:7.0,7.0;"/><polygon fill="#181818" points="314.83,855.29,315.3527,845.455,313.0447,850.6196,307.8801,848.3115,314.83,855.29" style="stroke:#181818;stroke-width:1.0;"/><text fill="#000000" font-family="sans-serif" font-size="13" lengthAdjust="spacing" textLength="22" x="301" y="802.5684">use</text></g><!--MD5=[4df44312146a6229df81178f2a36ba78]
link service_container to SHIMV2--><g id="link_service_container_SHIMV2"><path d="M271.65,757.47 C237.58,785.47 180.73,832.18 155.16,853.19 " fill="none" id="service_container-to-SHIMV2" style="stroke:#181818;stroke-width:1.0;stroke-dasharray:7.0,7.0;"/><polygon fill="#181818" points="151.76,856.8,161.257,854.191,155.6279,853.6315,156.1874,848.0024,151.76,856.8" style="stroke:#181818;stroke-width:1.0;"/><text fill="#000000" font-family="sans-serif" font-size="13" lengthAdjust="spacing" textLength="22" x="230" y="802.5684">use</text></g><!--MD5=[e58028f4b64cab9fd41d3a59133c3a1c]
link service_container to SBSTORE--><g id="link_service_container_SBSTORE"><path d="M317.45,757.29 C330.86,772.46 350.08,792.21 370,806 C407.7,832.09 459.03,851.13 483.66,859.41 " fill="none" id="service_container-to-SBSTORE" style="stroke:#181818;stroke-width:1.0;stroke-dasharray:7.0,7.0;"/><polygon fill="#181818" points="488.05,861.2,480.7588,854.5789,483.3023,859.6317,478.2495,862.1752,488.05,861.2" style="stroke:#181818;stroke-width:1.0;"/><text fill="#000000" font-family="sans-serif" font-size="13" lengthAdjust="spacing" textLength="22" x="371" y="802.5684">use</text></g><!--MD5=[ab49f7e285035a7859fee1ac1e680f15]
link SBLC to service_sandboxer--><g id="link_SBLC_service_sandboxer"><path d="M489.54,608.86 C490.88,628.57 494.43,680.62 496.48,710.7 " fill="none" id="SBLC-service_sandboxer" style="stroke:#181818;stroke-width:1.0;"/></g><!--MD5=[60e1fa55cece7d14d72a86652386bf77]
link service_sandboxer to CTRLCB--><g id="link_service_sandboxer_CTRLCB"><path d="M466.65,757.47 C426.85,785.99 359.94,833.94 331.48,854.34 " fill="none" id="service_sandboxer-to-CTRLCB" style="stroke:#181818;stroke-width:1.0;stroke-dasharray:7.0,7.0;"/><polygon fill="#181818" points="327.93,857.6,337.5766,855.6142,331.9958,854.6898,332.9202,849.109,327.93,857.6" style="stroke:#181818;stroke-width:1.0;"/><text fill="#000000" font-family="sans-serif" font-size="13" lengthAdjust="spacing" textLength="22" x="419" y="802.5684">use</text></g><!--MD5=[79ab2b2981c7baa13cbb2ec4ad7cad8f]
link service_sandboxer to SBSTORE--><g id="link_service_sandboxer_SBSTORE"><path d="M498,757.47 C498,784.28 498,828.24 498,850.37 " fill="none" id="service_sandboxer-to-SBSTORE" style="stroke:#181818;stroke-width:1.0;stroke-dasharray:7.0,7.0;"/><polygon fill="#181818" points="498,855.24,502.0257,846.2515,498.0143,850.24,494.0257,846.2286,498,855.24" style="stroke:#181818;stroke-width:1.0;"/><text fill="#000000" font-family="sans-serif" font-size="13" lengthAdjust="spacing" textLength="22" x="499" y="802.5684">use</text></g><!--MD5=[1608b7e123e4cee6cfb4286ff4d20a36]
link SBCB to sandbox_cb--><g id="link_SBCB_sandbox_cb"><path d="M470.94,343.86 C470.79,363.57 470.4,415.62 470.17,445.7 " fill="none" id="SBCB-sandbox_cb" style="stroke:#181818;stroke-width:1.0;"/></g><!--MD5=[a9a2c0e3bfc07431abd2ee4d215af1f9]
link sandbox_cb to SBLC--><g id="link_sandbox_cb_SBLC"><path d="M473.31,492.47 C477.26,519.28 483.73,563.24 486.99,585.37 " fill="none" id="sandbox_cb-to-SBLC" style="stroke:#181818;stroke-width:1.0;stroke-dasharray:7.0,7.0;"/><polygon fill="#181818" points="487.86,590.24,490.5048,580.7529,487.1309,585.2934,482.5903,581.9195,487.86,590.24" style="stroke:#181818;stroke-width:1.0;"/><text fill="#000000" font-family="sans-serif" font-size="13" lengthAdjust="spacing" textLength="22" x="481" y="537.5684">use</text></g><!--MD5=[26156a7a01ea5196d475614815922760]
link CCB to container_cb--><g id="link_CCB_container_cb"><path d="M236.59,343.86 C248.08,363.57 278.45,415.62 295.99,445.7 " fill="none" id="CCB-container_cb" style="stroke:#181818;stroke-width:1.0;"/></g><!--MD5=[d30d446fccc63014a95803df4ea43940]
link container_cb to CLC--><g id="link_container_cb_CLC"><path d="M307.78,492.47 C306.33,519.28 303.94,563.24 302.74,585.37 " fill="none" id="container_cb-to-CLC" style="stroke:#181818;stroke-width:1.0;stroke-dasharray:7.0,7.0;"/><polygon fill="#181818" points="302.42,590.24,306.902,581.4701,302.691,585.2474,298.9137,581.0364,302.42,590.24" style="stroke:#181818;stroke-width:1.0;"/><text fill="#000000" font-family="sans-serif" font-size="13" lengthAdjust="spacing" textLength="22" x="306" y="537.5684">use</text></g><!--MD5=[0fecdfc7ff2a9ccc4b2ec67bb5610ce5]
link CRIP to cri_pod_sandbox_manager_service--><g id="link_CRIP_cri_pod_sandbox_manager_service"><path d="M473,78.86 C473,98.57 473,150.62 473,180.7 " fill="none" id="CRIP-cri_pod_sandbox_manager_service" style="stroke:#181818;stroke-width:1.0;"/></g><!--MD5=[cc962f56d4b748cd03a67d1244341fb9]
link cri_pod_sandbox_manager_service to SBCB--><g id="link_cri_pod_sandbox_manager_service_SBCB"><path d="M472.65,227.47 C472.24,254.28 471.55,298.24 471.21,320.37 " fill="none" id="cri_pod_sandbox_manager_service-to-SBCB" style="stroke:#181818;stroke-width:1.0;stroke-dasharray:7.0,7.0;"/><polygon fill="#181818" points="471.12,325.24,475.2482,316.2981,471.1914,320.2405,467.249,316.1838,471.12,325.24" style="stroke:#181818;stroke-width:1.0;"/><text fill="#000000" font-family="sans-serif" font-size="13" lengthAdjust="spacing" textLength="22" x="473" y="272.5684">use</text></g><!--MD5=[344ab20247dde2b2ee286485ee3a187e]
link CRIC to cri_container_manager_service--><g id="link_CRIC_cri_container_manager_service"><path d="M172,78.86 C172,98.57 172,150.62 172,180.7 " fill="none" id="CRIC-cri_container_manager_service" style="stroke:#181818;stroke-width:1.0;"/></g><!--MD5=[7a1cb736744087b4a79f4ae3a2715a23]
link cri_container_manager_service to CCB--><g id="link_cri_container_manager_service_CCB"><path d="M182.45,227.47 C195.03,254.51 215.72,298.99 225.92,320.93 " fill="none" id="cri_container_manager_service-to-CCB" style="stroke:#181818;stroke-width:1.0;stroke-dasharray:7.0,7.0;"/><polygon fill="#181818" points="228.39,325.24,228.2071,315.3928,226.2748,320.7094,220.9582,318.7772,228.39,325.24" style="stroke:#181818;stroke-width:1.0;"/><text fill="#000000" font-family="sans-serif" font-size="13" lengthAdjust="spacing" textLength="22" x="204" y="272.5684">use</text></g><!--MD5=[de6cfcba2b15e634473e439c4e39fffe]
link SBCRPC to sandbox--><g id="link_SBCRPC_sandbox"><path d="M324.05,1162.86 C321.66,1182.57 315.35,1234.62 311.7,1264.7 " fill="none" id="SBCRPC-sandbox" style="stroke:#181818;stroke-width:1.0;"/></g><!--MD5=[0249e80b18237d806d921b5e11740702]
link SHIMV2RPC to task--><g id="link_SHIMV2RPC_task"><path d="M144.86,1162.86 C152.02,1182.57 170.95,1234.62 181.89,1264.7 " fill="none" id="SHIMV2RPC-task" style="stroke:#181818;stroke-width:1.0;"/></g><!--MD5=[fd58275ef035b4e2bc0815082889bc53]
@startuml

interface "Sandboxer Controller RPC" as SBCRPC
interface "Shim v2 RPC" as SHIMV2RPC

package "iSulad" {
    interface "CRI Pod RPC" as CRIP
    interface "CRI Container RPC" as CRIC

    interface "Sandbox Callback" as SBCB
    interface "Container Callback" as CCB

    interface "Sandbox Lifecycle" as SBLC
    interface "Container Lifecycle" as CLC

    interface "Runtime Callback" as SHIMV2

    interface "Sandbox Store API" as SBSTORE
    interface "Controller Callback" as CTRLCB

    component "daemon/module/runtime" {
        component shim #Yellow
        SHIMV2 - - [shim]
        [shim] ..> SHIMV2RPC: use
    }

    component "daemon/module/sandbox" #LightBlue {
        component controller #LightBlue
        CTRLCB - - [controller]
        [controller] ..> SBCRPC: use
        component sandbox_store #LightBlue
        SBSTORE - - [sandbox_store]
    }

    component "daemon/module/service" {
        component service_container #Yellow
        CLC - - [service_container]
        [service_container] ..> CTRLCB: use
        [service_container] ..> SHIMV2: use
        [service_container] ..> SBSTORE: use
        component service_sandboxer #LightBlue
        SBLC - - [service_sandboxer]
        [service_sandboxer] ..> CTRLCB: use
        [service_sandboxer] ..> SBSTORE: use
    }

    component "daemon/executor" {
        component sandbox_cb #LightBlue
        SBCB - - [sandbox_cb]
        [sandbox_cb] ..> SBLC: use
        component container_cb #Yellow
        CCB - - [container_cb]
        [container_cb] ..> CLC: use
    }

    component "daemon/entry/cri" {
        component cri_pod_sandbox_manager_service #LightBlue
        CRIP - - [cri_pod_sandbox_manager_service]
        [cri_pod_sandbox_manager_service] ..> SBCB: use
        CRIC - - [cri_container_manager_service]
        [cri_container_manager_service] ..> CCB: use
    }
}
package "Sandboxer" {
    SBCRPC - - [sandbox]
    SHIMV2RPC - - [task]
}

@enduml

PlantUML version 1.2022.7(Tue Aug 23 01:01:30 CST 2022)
(GPL source distribution)
Java Runtime: Java(TM) SE Runtime Environment
JVM: Java HotSpot(TM) 64-Bit Server VM
Default Encoding: UTF-8
Language: en
Country: CN
--></g></svg>