<svg version="1.1" xmlns="http://www.w3.org/2000/svg" viewBox="0 0 1386.5730653205294 833.4522030026228" width="1386.5730653205294" height="833.4522030026228">
  <!-- svg-source:excalidraw -->
  
  <defs>
    <style class="style-fonts">
      @font-face {
        font-family: "Virgil";
        src: url("https://excalidraw.com/Virgil.woff2");
      }
      @font-face {
        font-family: "Cascadia";
        src: url("https://excalidraw.com/Cascadia.woff2");
      }
    </style>
  </defs>
  <rect x="0" y="0" width="1386.5730653205294" height="833.4522030026228" fill="#ffffff"></rect><g stroke-linecap="round" transform="translate(473.2278685676763 10) rotate(0 148.5 35)"><path d="M4.66 4.05 C4.66 4.05, 4.66 4.05, 4.66 4.05 M4.66 4.05 C4.66 4.05, 4.66 4.05, 4.66 4.05 M3.08 11.96 C6.5 7.9, 8.48 4.99, 11.61 2.15 M3.08 11.96 C5.97 8.27, 7.9 5.63, 11.61 2.15 M2.17 19.11 C8.4 14.62, 11.87 7.4, 17.91 1 M2.17 19.11 C7.8 13.09, 11.53 6.61, 17.91 1 M1.91 25.51 C4.78 20.71, 8.95 15.02, 23.56 0.6 M1.91 25.51 C7.76 19.69, 13.37 12.45, 23.56 0.6 M2.3 31.15 C6.38 24.81, 14.86 17.86, 28.54 0.96 M2.3 31.15 C7.01 25.32, 13.55 18.4, 28.54 0.96 M2.69 36.79 C10.76 27.55, 20.54 13.65, 34.19 0.57 M2.69 36.79 C11.59 25.24, 21.92 15.27, 34.19 0.57 M2.43 43.19 C9.91 32.83, 18.54 27.33, 39.17 0.93 M2.43 43.19 C14.03 29.81, 26.34 14.24, 39.17 0.93 M2.83 48.83 C20.17 31.44, 34.86 12.4, 44.82 0.53 M2.83 48.83 C17.5 31.84, 32.39 15.7, 44.82 0.53 M3.22 54.48 C16 40.84, 27.55 26.66, 49.8 0.89 M3.22 54.48 C13.2 42.89, 22.32 32.54, 49.8 0.89 M2.31 61.63 C15.97 45.33, 33.57 27.38, 55.45 0.5 M2.31 61.63 C14.83 47.88, 27.13 32.28, 55.45 0.5 M5.32 64.25 C18.39 47.82, 33.02 34.4, 60.43 0.86 M5.32 64.25 C24.31 42.48, 41.69 21.48, 60.43 0.86 M7.69 67.63 C25.22 48.57, 42.54 30.21, 66.08 0.46 M7.69 67.63 C25.16 48.5, 41.44 27.91, 66.08 0.46 M11.36 69.5 C27.95 51.75, 42.18 32.43, 71.06 0.82 M11.36 69.5 C25.88 53.75, 39.66 36.82, 71.06 0.82 M15.04 71.37 C33.18 50.72, 46.83 31.7, 76.71 0.43 M15.04 71.37 C38.4 43.24, 63.04 14.72, 76.71 0.43 M20.68 70.98 C36.42 52.15, 54.39 33.27, 81.69 0.79 M20.68 70.98 C38.17 50.56, 55.76 29.97, 81.69 0.79 M25.67 71.34 C48.86 46.46, 68.06 21.4, 87.34 0.39 M25.67 71.34 C47.45 48.33, 68.08 23.52, 87.34 0.39 M31.31 70.94 C45.46 54.01, 56.72 41.75, 92.32 0.75 M31.31 70.94 C46.05 51.82, 62.72 33.57, 92.32 0.75 M36.3 71.3 C54.73 50.85, 73.65 32.09, 97.97 0.36 M36.3 71.3 C51.16 53.4, 65.33 38.57, 97.97 0.36 M41.94 70.91 C59.89 47.86, 77.36 27.32, 102.95 0.72 M41.94 70.91 C62.03 45.95, 83.05 21.97, 102.95 0.72 M46.93 71.27 C64.11 53.86, 77.18 36.37, 107.94 1.08 M46.93 71.27 C66.53 47.77, 85.06 25.52, 107.94 1.08 M51.91 71.63 C70.22 51.16, 87.25 29.63, 113.58 0.69 M51.91 71.63 C74.37 45.96, 98.78 19.71, 113.58 0.69 M57.56 71.23 C74.54 52.88, 88.33 35.88, 118.57 1.05 M57.56 71.23 C78.16 46.62, 99.25 24.09, 118.57 1.05 M62.54 71.59 C80.12 48.64, 99.93 31.23, 124.21 0.65 M62.54 71.59 C84.62 46.5, 109.1 19.27, 124.21 0.65 M68.19 71.2 C88.38 47.36, 104.83 26.95, 129.2 1.01 M68.19 71.2 C92.96 42.85, 116.47 16.59, 129.2 1.01 M73.17 71.56 C93.97 47, 115.86 23.03, 134.84 0.62 M73.17 71.56 C86.6 55.79, 100.2 39.46, 134.84 0.62 M78.82 71.16 C98.62 49.93, 114.7 28.93, 139.83 0.98 M78.82 71.16 C94.73 52.23, 110.34 34.55, 139.83 0.98 M83.8 71.52 C103.47 45.43, 124.18 23.7, 145.47 0.58 M83.8 71.52 C97.67 56.31, 110.6 42.68, 145.47 0.58 M89.45 71.13 C107.83 47.44, 127.49 25.39, 150.46 0.94 M89.45 71.13 C106.98 50.99, 125.04 32.32, 150.46 0.94 M94.43 71.49 C106.55 54.58, 121.85 38.53, 156.1 0.55 M94.43 71.49 C108.67 55.29, 122 39.93, 156.1 0.55 M100.08 71.1 C115.58 54.58, 129.24 33.79, 161.09 0.91 M100.08 71.1 C116.93 49.56, 136.29 29.01, 161.09 0.91 M105.06 71.46 C127.63 46.07, 150.87 18.26, 166.73 0.51 M105.06 71.46 C117.44 55.43, 131.41 39.08, 166.73 0.51 M110.71 71.06 C125.84 52.24, 142.35 31.81, 171.72 0.87 M110.71 71.06 C127.35 51.8, 143.79 33.6, 171.72 0.87 M115.69 71.42 C134.57 50.19, 152.94 28.19, 177.36 0.48 M115.69 71.42 C135.43 46.82, 158.16 22.72, 177.36 0.48 M121.34 71.03 C143.6 46.74, 161.69 24.58, 182.35 0.84 M121.34 71.03 C138.49 51.19, 155.15 31.15, 182.35 0.84 M126.32 71.39 C143.76 49.5, 165.13 28.24, 187.99 0.44 M126.32 71.39 C149.56 45.42, 170.75 21.07, 187.99 0.44 M131.97 70.99 C148.43 53.11, 164.27 36.01, 192.98 0.8 M131.97 70.99 C154.55 45.45, 176.18 21.44, 192.98 0.8 M136.95 71.35 C156.69 44.53, 178.7 21.81, 197.97 1.16 M136.95 71.35 C154.24 52.8, 169.63 33.46, 197.97 1.16 M141.94 71.71 C157.03 52.98, 176.51 32.4, 203.61 0.77 M141.94 71.71 C155.1 58.32, 168.21 42.61, 203.61 0.77 M147.58 71.32 C169.55 46.19, 193.79 17.04, 208.6 1.13 M147.58 71.32 C165.67 51.64, 182.27 30.99, 208.6 1.13 M152.57 71.68 C164.48 57.17, 177.97 41.95, 214.24 0.74 M152.57 71.68 C170.69 50.79, 190.26 28.83, 214.24 0.74 M158.21 71.28 C173.11 53.82, 186.17 42.19, 219.23 1.1 M158.21 71.28 C174.25 53.5, 189.55 33.99, 219.23 1.1 M163.2 71.64 C186.48 41.17, 209.68 16.62, 224.87 0.7 M163.2 71.64 C176.15 55.17, 189.21 40, 224.87 0.7 M168.84 71.25 C184.96 54.31, 200.83 33.82, 229.86 1.06 M168.84 71.25 C183.74 54.76, 198.47 36.78, 229.86 1.06 M173.83 71.61 C193.89 50.11, 214.08 27, 235.5 0.67 M173.83 71.61 C190.33 53.13, 205.27 35.42, 235.5 0.67 M179.47 71.21 C202.66 44.83, 227.97 17.85, 240.49 1.03 M179.47 71.21 C198.4 47.76, 218.88 25.1, 240.49 1.03 M184.46 71.57 C202.68 48.96, 223.76 26.73, 246.13 0.63 M184.46 71.57 C196.3 56.09, 210.32 41.11, 246.13 0.63 M190.1 71.18 C203 53.25, 218.39 36.01, 251.12 0.99 M190.1 71.18 C202.43 55.27, 216.47 40.68, 251.12 0.99 M195.09 71.54 C219.23 46.03, 240.82 17.21, 256.76 0.6 M195.09 71.54 C210.25 53.76, 226.28 35.5, 256.76 0.6 M200.73 71.15 C222.94 44.7, 245.75 16.12, 261.75 0.96 M200.73 71.15 C213.93 54.7, 227.83 39.2, 261.75 0.96 M205.72 71.51 C225.39 50.87, 242.21 31.23, 267.39 0.56 M205.72 71.51 C220.11 55.11, 234.62 39.04, 267.39 0.56 M211.37 71.11 C231.06 48.69, 247.88 27.63, 272.38 0.92 M211.37 71.11 C230.74 47.89, 251.14 24.35, 272.38 0.92 M216.35 71.47 C230.24 54.39, 248.51 34.61, 278.02 0.53 M216.35 71.47 C236.94 47.65, 258.82 22.86, 278.02 0.53 M221.34 71.83 C236.63 57.06, 249.88 41.05, 283.01 0.89 M221.34 71.83 C237.3 53.22, 253.57 33.63, 283.01 0.89 M226.98 71.44 C248.89 45.61, 272.98 18.33, 286.68 2.76 M226.98 71.44 C242.66 52.25, 260.13 33.02, 286.68 2.76 M231.97 71.8 C249.34 53.45, 261.96 34.79, 291.67 3.12 M231.97 71.8 C247.17 53.87, 263.04 35.94, 291.67 3.12 M237.61 71.4 C256.7 51.37, 273.55 30, 294.03 6.5 M237.61 71.4 C252.75 54.87, 269.38 35.77, 294.03 6.5 M242.6 71.76 C257.36 52.93, 278.19 31.83, 296.4 9.88 M242.6 71.76 C257.7 53.41, 273.71 35.78, 296.4 9.88 M248.24 71.37 C267.08 49.31, 283.81 29.09, 296.13 16.27 M248.24 71.37 C261.81 56.43, 274.93 40.62, 296.13 16.27 M253.23 71.73 C268.58 52.77, 286.03 34.51, 296.53 21.92 M253.23 71.73 C263.21 59.51, 274.5 47.28, 296.53 21.92 M258.87 71.33 C271.5 59.23, 280.63 44.32, 296.27 28.31 M258.87 71.33 C273.22 54.77, 286.46 40.35, 296.27 28.31 M263.86 71.69 C274.11 56.71, 289.8 42.07, 296.66 33.96 M263.86 71.69 C274.41 58.44, 285.58 47.06, 296.66 33.96 M269.5 71.3 C275.96 60.92, 282.85 53.74, 296.4 40.36 M269.5 71.3 C277.92 60.48, 287.31 50.09, 296.4 40.36 M274.49 71.66 C282.24 60.82, 289.64 54.72, 296.8 46 M274.49 71.66 C279.11 64.64, 286.31 59.54, 296.8 46 M280.79 70.51 C287 65.5, 289.4 60.74, 297.19 51.64 M280.79 70.51 C284.72 65.31, 291.01 59.71, 297.19 51.64 M287.09 69.36 C290.02 66.73, 292.91 60.92, 297.58 57.28 M287.09 69.36 C290.14 65.3, 294.22 61.52, 297.58 57.28" stroke="#ffc9c9" stroke-width="0.5" fill="none"></path><path d="M17.5 0 M17.5 0 C101.96 -0.85, 186.55 -0.51, 279.5 0 M17.5 0 C90.11 -1.35, 164.04 -2.03, 279.5 0 M279.5 0 C292.31 1.41, 297.72 4.27, 297 17.5 M279.5 0 C290.9 -1.65, 295.24 4.06, 297 17.5 M297 17.5 C297.69 23.98, 295.78 32.84, 297 52.5 M297 17.5 C297.76 24.88, 297.99 31.52, 297 52.5 M297 52.5 C296.78 64.92, 292.58 71.69, 279.5 70 M297 52.5 C296.2 62.63, 291.88 68.86, 279.5 70 M279.5 70 C178.07 68.77, 77.7 69.8, 17.5 70 M279.5 70 C186.76 70.43, 93.47 70.03, 17.5 70 M17.5 70 C6.63 69.3, 0.77 65.53, 0 52.5 M17.5 70 C3.84 70.52, -0.73 64.96, 0 52.5 M0 52.5 C1.96 41.93, 0.9 36.4, 0 17.5 M0 52.5 C-0.4 42.65, -0.08 33.99, 0 17.5 M0 17.5 C-1.7 6.03, 5.38 -1.88, 17.5 0 M0 17.5 C-1.46 7.53, 6.61 1.53, 17.5 0" stroke="#1e1e1e" stroke-width="1" fill="none"></path></g><g transform="translate(603.0578780281255 32.5) rotate(0 18.66999053955078 12.5)"><text x="18.66999053955078" y="0" font-family="Virgil, Segoe UI Emoji" font-size="20px" fill="#1e1e1e" text-anchor="middle" style="white-space: pre;" direction="ltr" dominant-baseline="text-before-edge">CRI</text></g><g mask="url(#mask-r_HqSGYDu1Se27X58_a8_)" stroke-linecap="round"><g transform="translate(622.1469858883454 79.78275368430513) rotate(0 1.0082239731011668 36.00664331455255)"><path d="M-1.11 -1 C-0.63 11.1, 2.53 59.48, 3.12 71.93 M0.51 1.09 C0.77 13.38, 1.25 61.24, 1.95 73.02" stroke="#1e1e1e" stroke-width="1" fill="none"></path></g><g transform="translate(622.1469858883454 79.78275368430513) rotate(0 1.0082239731011668 36.00664331455255)"><path d="M-10.85 44.45 C-7.16 52.38, -0.69 63.19, 0.77 72.96 M-10.12 45.4 C-7.21 53.17, -2.25 61.8, 2.36 72.25" stroke="#1e1e1e" stroke-width="1" fill="none"></path></g><g transform="translate(622.1469858883454 79.78275368430513) rotate(0 1.0082239731011668 36.00664331455255)"><path d="M9.66 43.81 C6.72 51.76, 6.57 62.78, 0.77 72.96 M10.39 44.76 C7.47 52.85, 6.6 61.67, 2.36 72.25" stroke="#1e1e1e" stroke-width="1" fill="none"></path></g></g><mask id="mask-r_HqSGYDu1Se27X58_a8_"><rect x="0" y="0" fill="#fff" width="725.6949756424976" height="252.56058571555513"></rect><rect x="544.3210509558517" y="103.67166969993013" fill="#000" width="159.19985961914062" height="25" opacity="1"></rect></mask><g transform="translate(544.3210509558512 103.67166969993013) rotate(0 78.83415890559513 12.117727298927548)"><text x="79.59992980957031" y="0" font-family="Virgil, Segoe UI Emoji" font-size="20px" fill="#1e1e1e" text-anchor="middle" style="white-space: pre;" direction="ltr" dominant-baseline="text-before-edge">CreateContainer</text></g><g stroke-linecap="round" transform="translate(452.81365255501146 153.56058571555513) rotate(0 176 36)"><path d="M18 0 M18 0 C102.63 2.05, 184.36 2.06, 334 0 M18 0 C107.11 -1.32, 196.88 -1.37, 334 0 M334 0 C347.74 1.78, 352.82 4.46, 352 18 M334 0 C344.19 -0.08, 351.55 4.58, 352 18 M352 18 C353.07 24.17, 352.66 35.61, 352 54 M352 18 C351.83 28.57, 351.35 41.73, 352 54 M352 54 C351.6 64.58, 346.29 70.3, 334 72 M352 54 C351.68 65.08, 344.99 73.63, 334 72 M334 72 C235.65 71.14, 137.14 71.97, 18 72 M334 72 C267.55 72.23, 201.12 72.65, 18 72 M18 72 C4.98 72.26, 1.53 64.55, 0 54 M18 72 C5.94 72.11, -0.63 64.54, 0 54 M0 54 C0.23 41.01, 1.58 26.04, 0 18 M0 54 C-0.94 45.24, -0.41 34.77, 0 18 M0 18 C-1.54 6.9, 7.93 0.68, 18 0 M0 18 C2.17 4.71, 5.36 1.25, 18 0" stroke="#1e1e1e" stroke-width="1" fill="none"></path></g><g transform="translate(573.8036961951482 177.06058571555513) rotate(0 55.00995635986328 12.5)"><text x="55.00995635986328" y="0" font-family="Virgil, Segoe UI Emoji" font-size="20px" fill="#1e1e1e" text-anchor="middle" style="white-space: pre;" direction="ltr" dominant-baseline="text-before-edge">CRI module</text></g><g mask="url(#mask-OpknWNg9Sznc-QhpTZdV_)" stroke-linecap="round"><g transform="translate(821.1732677211501 387.78532718011866) rotate(0 165.60605119295678 -10.532439672289911)"><path d="M-0.04 -0.19 C27.89 -3.27, 112.41 -18.53, 167.49 -19.17 C222.57 -19.81, 303.27 -6.55, 330.42 -4.04 M-1.51 -1.34 C26.76 -4.69, 113.9 -20.67, 169.61 -20.87 C225.32 -21.08, 305.98 -5.56, 332.73 -2.57" stroke="#1e1e1e" stroke-width="1" fill="none"></path></g><g transform="translate(821.1732677211501 387.78532718011866) rotate(0 165.60605119295678 -10.532439672289911)"><path d="M303.03 1.65 C313.45 -0.15, 321.31 -1.95, 333.07 -0.83 M302.56 3.49 C314.56 0.76, 325.37 -0.14, 332.95 -2.19" stroke="#1e1e1e" stroke-width="1" fill="none"></path></g><g transform="translate(821.1732677211501 387.78532718011866) rotate(0 165.60605119295678 -10.532439672289911)"><path d="M305.99 -18.66 C315.4 -14.43, 322.39 -10.2, 333.07 -0.83 M305.52 -16.82 C316.45 -11.66, 326.11 -4.66, 332.95 -2.19" stroke="#1e1e1e" stroke-width="1" fill="none"></path></g></g><mask id="mask-OpknWNg9Sznc-QhpTZdV_"><rect x="0" y="0" fill="#fff" width="1252.7207974659775" height="507.7607488336844"></rect><rect x="900.3920654031149" y="342.80990552655294" fill="#000" width="178.79989624023438" height="50" opacity="1"></rect></mask><g transform="translate(900.3920654031153 342.80990552655294) rotate(0 86.38725351099174 34.44298198127581)"><text x="89.39994812011719" y="0" font-family="Virgil, Segoe UI Emoji" font-size="20px" fill="#1e1e1e" text-anchor="middle" style="white-space: pre;" direction="ltr" dominant-baseline="text-before-edge">CRI sandbox and </text><text x="89.39994812011719" y="25" font-family="Virgil, Segoe UI Emoji" font-size="20px" fill="#1e1e1e" text-anchor="middle" style="white-space: pre;" direction="ltr" dominant-baseline="text-before-edge">container info</text></g><g stroke-linecap="round" transform="translate(1161.141470437926 372.24409573119283) rotate(0 102 27)"><path d="M13.5 0 M13.5 0 C50.46 -0.21, 86.78 3.4, 190.5 0 M13.5 0 C81.61 1.33, 151.09 0.74, 190.5 0 M190.5 0 C197.86 1.71, 204.46 5.27, 204 13.5 M190.5 0 C197.57 0.4, 206.2 4.97, 204 13.5 M204 13.5 C202.01 21.89, 205.26 33.64, 204 40.5 M204 13.5 C203.9 19.29, 203.6 26.59, 204 40.5 M204 40.5 C204.23 51.12, 199.7 54.11, 190.5 54 M204 40.5 C202.24 49.47, 199.09 51.94, 190.5 54 M190.5 54 C132.29 54.49, 77.26 53.11, 13.5 54 M190.5 54 C135.08 52.76, 79.44 52.08, 13.5 54 M13.5 54 C5.93 53.14, -1.7 49.58, 0 40.5 M13.5 54 C4.95 55.64, -1.38 48.75, 0 40.5 M0 40.5 C1.55 31.26, -0.13 21.91, 0 13.5 M0 40.5 C0.68 30.63, -0.54 22.42, 0 13.5 M0 13.5 C-0.51 2.69, 6.08 1.49, 13.5 0 M0 13.5 C-1.37 6.55, 5.26 0.64, 13.5 0" stroke="#1e1e1e" stroke-width="1" fill="none"></path></g><g transform="translate(1203.5915131625354 386.74409573119283) rotate(0 59.549957275390625 12.5)"><text x="59.549957275390625" y="0" font-family="Virgil, Segoe UI Emoji" font-size="20px" fill="#1e1e1e" text-anchor="middle" style="white-space: pre;" direction="ltr" dominant-baseline="text-before-edge">NRI convert</text></g><g mask="url(#mask-DM-zvSyh5rcHa85d0V_b5)" stroke-linecap="round"><g transform="translate(1152.8566925680036 413.1035137103745) rotate(0 -167.40297087769568 9.746459734911696)"><path d="M1.04 1.07 C-27.2 4, -114.42 17.05, -170.57 17.78 C-226.72 18.52, -308.42 7.65, -335.85 5.49 M0.13 0.59 C-28.12 3.62, -115.66 17.8, -171.26 18.84 C-226.86 19.87, -306.16 9, -333.45 6.78" stroke="#1e1e1e" stroke-width="1" fill="none"></path></g><g transform="translate(1152.8566925680036 413.1035137103745) rotate(0 -167.40297087769568 9.746459734911696)"><path d="M-302.57 0.3 C-311.9 -0.34, -316.44 2.36, -334.69 5.15 M-305.2 -0.35 C-314.6 2.61, -325.96 4.98, -333.92 5.82" stroke="#1e1e1e" stroke-width="1" fill="none"></path></g><g transform="translate(1152.8566925680036 413.1035137103745) rotate(0 -167.40297087769568 9.746459734911696)"><path d="M-304.68 20.71 C-313.6 15.84, -317.72 14.31, -334.69 5.15 M-307.31 20.06 C-315.94 15.14, -326.49 9.65, -333.92 5.82" stroke="#1e1e1e" stroke-width="1" fill="none"></path></g></g><mask id="mask-DM-zvSyh5rcHa85d0V_b5"><rect x="0" y="0" fill="#fff" width="1587.7603540329699" height="531.8099055265529"></rect><rect x="892.3920654031153" y="406.80990552655294" fill="#000" width="178.79989624023438" height="50" opacity="1"></rect></mask><g transform="translate(892.3920654031149 406.80990552655294) rotate(0 93.06165628719282 16.040067918733257)"><text x="89.39994812011719" y="0" font-family="Virgil, Segoe UI Emoji" font-size="20px" fill="#1e1e1e" text-anchor="middle" style="white-space: pre;" direction="ltr" dominant-baseline="text-before-edge">NRI sandbox and </text><text x="89.39994812011719" y="25" font-family="Virgil, Segoe UI Emoji" font-size="20px" fill="#1e1e1e" text-anchor="middle" style="white-space: pre;" direction="ltr" dominant-baseline="text-before-edge">container info</text></g><g mask="url(#mask-Z3OCoE3xkKxAvM-4ZpGdR)" stroke-linecap="round"><g transform="translate(536.975886201901 438.4405519618804) rotate(0 -1.3703625478365211 71.73214034558487)"><path d="M0.97 -0.29 C0.36 23.68, -1.8 119.64, -2.47 144.02 M0.01 -1.48 C-0.9 22.56, -3.58 120.69, -3.71 144.95" stroke="#1e1e1e" stroke-width="1" fill="none"></path></g><g transform="translate(536.975886201901 438.4405519618804) rotate(0 -1.3703625478365211 71.73214034558487)"><path d="M-13.93 115.64 C-11.47 125.83, -4.36 138.54, -5.12 145.23 M-13.89 117.28 C-11.28 123.52, -9.2 128.86, -4.47 144.93" stroke="#1e1e1e" stroke-width="1" fill="none"></path></g><g transform="translate(536.975886201901 438.4405519618804) rotate(0 -1.3703625478365211 71.73214034558487)"><path d="M6.59 116.02 C0.93 126.22, -0.07 138.78, -5.12 145.23 M6.63 117.66 C4.83 123.73, 2.49 129, -4.47 144.93" stroke="#1e1e1e" stroke-width="1" fill="none"></path></g></g><mask id="mask-Z3OCoE3xkKxAvM-4ZpGdR"><rect x="0" y="0" fill="#fff" width="638.8837341569981" height="683.6130377275504"></rect><rect x="429.47204309593417" y="486.02679484471537" fill="#000" width="213.09983825683594" height="50" opacity="1"></rect></mask><g transform="translate(429.4720430959346 486.02679484471537) rotate(0 106.13348055813003 24.145897462749872)"><text x="106.54991912841797" y="0" font-family="Virgil, Segoe UI Emoji" font-size="20px" fill="#1e1e1e" text-anchor="middle" style="white-space: pre;" direction="ltr" dominant-baseline="text-before-edge">call CreateContainer </text><text x="106.54991912841797" y="25" font-family="Virgil, Segoe UI Emoji" font-size="20px" fill="#1e1e1e" text-anchor="middle" style="white-space: pre;" direction="ltr" dominant-baseline="text-before-edge">for all manager plugin</text></g><g stroke-linecap="round" transform="translate(425.72318012936944 586.2855617672712) rotate(0 192 28.5)"><path d="M14.25 0 M14.25 0 C105.24 1.89, 193.62 2.33, 369.75 0 M14.25 0 C90.39 1.37, 167.17 1.43, 369.75 0 M369.75 0 C379.45 0.11, 382.47 4.72, 384 14.25 M369.75 0 C378.84 -2.06, 384.41 5.71, 384 14.25 M384 14.25 C382.93 21.99, 383.98 33.3, 384 42.75 M384 14.25 C383.72 20.09, 384.71 26.78, 384 42.75 M384 42.75 C382.3 52.33, 379.64 58.42, 369.75 57 M384 42.75 C382.62 51.5, 379.62 58.64, 369.75 57 M369.75 57 C294.42 55.21, 219.59 57.43, 14.25 57 M369.75 57 C250.76 56.07, 131.97 55.14, 14.25 57 M14.25 57 C6.33 58.49, -1.19 54.04, 0 42.75 M14.25 57 C5.51 57.64, -0.07 53.45, 0 42.75 M0 42.75 C-0.12 34.56, 1.64 25.73, 0 14.25 M0 42.75 C-0.34 37.25, -0.92 29.6, 0 14.25 M0 14.25 C0.31 6.49, 5.54 -0.15, 14.25 0 M0 14.25 C-0.33 6.35, 4.46 -0.68, 14.25 0" stroke="#1e1e1e" stroke-width="1" fill="none"></path></g><g transform="translate(592.613210036596 602.2855617672712) rotate(0 25.109970092773438 12.5)"><text x="25.109970092773438" y="0" font-family="Virgil, Segoe UI Emoji" font-size="20px" fill="#1e1e1e" text-anchor="middle" style="white-space: pre;" direction="ltr" dominant-baseline="text-before-edge">plugin</text></g><g mask="url(#mask-PDz157tTqh314uxFblmw3)" stroke-linecap="round"><g transform="translate(633.5577914951557 645.6455478774196) rotate(0 -75.62674011992544 55.1054164023335)"><path d="M0.17 -1.02 C-24.83 8.49, -145.64 37.52, -150.25 56.23 C-154.86 74.94, -48.06 102.04, -27.49 111.23 M-1.2 1.06 C-26.35 10.81, -146.73 39.47, -151.28 57.52 C-155.84 75.56, -49.32 100.71, -28.53 109.34" stroke="#1e1e1e" stroke-width="1" fill="none"></path></g><g transform="translate(633.5577914951557 645.6455478774196) rotate(0 -75.62674011992544 55.1054164023335)"><path d="M-60.2 110.32 C-50.9 109.32, -40.29 110.08, -26.91 109.53 M-58.68 109.7 C-49.16 110.63, -40.11 108.84, -28.35 108.94" stroke="#1e1e1e" stroke-width="1" fill="none"></path></g><g transform="translate(633.5577914951557 645.6455478774196) rotate(0 -75.62674011992544 55.1054164023335)"><path d="M-54 90.76 C-46.57 95.25, -37.7 101.48, -26.91 109.53 M-52.48 90.14 C-45 97.04, -37.85 101.22, -28.35 108.94" stroke="#1e1e1e" stroke-width="1" fill="none"></path></g></g><mask id="mask-PDz157tTqh314uxFblmw3"><rect x="0" y="0" fill="#fff" width="883.6396737870232" height="856.0236866925115"></rect><rect x="375.01600167154993" y="677.35602210468" fill="#000" width="216.91981506347656" height="50" opacity="1"></rect></mask><g transform="translate(375.01600167154993 677.35602210468) rotate(0 182.9150497036801 23.394942175073083)"><text x="108.45990753173828" y="0" font-family="Virgil, Segoe UI Emoji" font-size="20px" fill="#1e1e1e" text-anchor="middle" style="white-space: pre;" direction="ltr" dominant-baseline="text-before-edge">CreateContainerReque</text><text x="108.45990753173828" y="25" font-family="Virgil, Segoe UI Emoji" font-size="20px" fill="#1e1e1e" text-anchor="middle" style="white-space: pre;" direction="ltr" dominant-baseline="text-before-edge">st</text></g><g stroke-linecap="round" transform="translate(432.55646260007256 764.4522030026228) rotate(0 165.5 29.5)"><path d="M3.93 3.41 C3.93 3.41, 3.93 3.41, 3.93 3.41 M3.93 3.41 C3.93 3.41, 3.93 3.41, 3.93 3.41 M3.01 10.57 C4.87 7.44, 7.67 6.29, 10.23 2.26 M3.01 10.57 C4.5 8.33, 6.69 6.55, 10.23 2.26 M2.75 16.96 C7.13 12.33, 8.02 10.43, 16.52 1.11 M2.75 16.96 C7.65 10.99, 12.35 5.52, 16.52 1.11 M2.49 23.36 C8.83 13.95, 18.59 5.31, 21.51 1.47 M2.49 23.36 C5.7 19.53, 10.62 14.33, 21.51 1.47 M2.88 29 C9.34 20.31, 16.94 12.23, 27.15 1.08 M2.88 29 C12.81 19.16, 21.21 8.73, 27.15 1.08 M3.27 34.65 C11.83 27.9, 16.46 19.33, 32.14 1.44 M3.27 34.65 C14.66 21.56, 25.48 10.44, 32.14 1.44 M3.01 41.04 C17.3 26.69, 30.04 12.19, 37.78 1.05 M3.01 41.04 C12.19 31.74, 18.96 23.19, 37.78 1.05 M3.41 46.69 C18.18 31.54, 30.85 13.16, 42.77 1.41 M3.41 46.69 C13.95 35.8, 23.38 24.81, 42.77 1.41 M3.15 53.09 C21.94 34.4, 38.44 13.93, 48.41 1.01 M3.15 53.09 C14.09 40.23, 26.35 26.23, 48.41 1.01 M6.17 55.71 C15.06 44.25, 27.43 31.38, 53.4 1.37 M6.17 55.71 C20.84 39.66, 34.89 21.29, 53.4 1.37 M8.53 59.09 C18.38 45.84, 28.49 34.51, 58.39 1.73 M8.53 59.09 C18.87 46.72, 29.48 35.39, 58.39 1.73 M12.86 60.2 C34.46 36.9, 54.41 13.1, 64.03 1.34 M12.86 60.2 C29.74 40.96, 47.49 19.58, 64.03 1.34 M18.5 59.81 C31.91 44.43, 49.28 26.85, 69.02 1.7 M18.5 59.81 C32.14 45.95, 43.11 30.76, 69.02 1.7 M23.49 60.17 C43.56 36.55, 60.38 16.41, 74.66 1.3 M23.49 60.17 C35.58 46.12, 48.61 32.16, 74.66 1.3 M28.48 60.53 C49.93 38.95, 65.57 16.54, 79.65 1.66 M28.48 60.53 C48.15 38.62, 65.77 16.32, 79.65 1.66 M34.12 60.13 C44.86 45.81, 54.45 33.02, 85.29 1.27 M34.12 60.13 C46.58 46.09, 60.39 29.89, 85.29 1.27 M39.11 60.49 C57.08 42.54, 69.69 22.58, 90.28 1.63 M39.11 60.49 C48.62 48.84, 59.76 36.4, 90.28 1.63 M44.75 60.1 C56.27 44.25, 69.99 33.19, 95.92 1.23 M44.75 60.1 C61.74 42.18, 77.28 22.74, 95.92 1.23 M49.74 60.46 C65.23 41.4, 80.46 23.15, 100.91 1.59 M49.74 60.46 C69.02 38.29, 86.77 17.26, 100.91 1.59 M55.38 60.07 C73.82 35.19, 97.44 14.77, 106.55 1.2 M55.38 60.07 C71.15 42.42, 85.84 22.99, 106.55 1.2 M60.37 60.43 C75.36 43.66, 89.71 24.55, 111.54 1.56 M60.37 60.43 C77.71 41.06, 93.93 22.15, 111.54 1.56 M66.01 60.03 C77.99 44.87, 90.65 30.46, 117.18 1.16 M66.01 60.03 C77.44 47.75, 88.42 33.67, 117.18 1.16 M71 60.39 C89.06 39.25, 106.46 17.4, 122.17 1.52 M71 60.39 C89.82 37.4, 108.21 15.06, 122.17 1.52 M76.64 60 C97.81 39.83, 114.68 18.71, 127.81 1.13 M76.64 60 C95.65 38.28, 113.21 17.05, 127.81 1.13 M81.63 60.36 C91.39 46.61, 103.25 34.78, 132.8 1.49 M81.63 60.36 C101.84 36.53, 121.59 14.23, 132.8 1.49 M87.27 59.96 C99.04 48.55, 109.28 34.92, 138.44 1.09 M87.27 59.96 C108.41 37.11, 128.33 13.29, 138.44 1.09 M92.26 60.32 C105.67 44.43, 115.95 32.95, 143.43 1.46 M92.26 60.32 C108.55 41.87, 124.43 23.82, 143.43 1.46 M97.9 59.93 C110.18 46.1, 119.48 34.68, 148.42 1.82 M97.9 59.93 C110.6 44.76, 123.43 30.19, 148.42 1.82 M102.89 60.29 C114.82 46.71, 125.82 33.25, 154.06 1.42 M102.89 60.29 C117.47 43.49, 132.24 26.56, 154.06 1.42 M108.53 59.89 C120.02 43.66, 131.7 32.95, 159.05 1.78 M108.53 59.89 C120.37 47.28, 131.41 32.61, 159.05 1.78 M113.52 60.25 C134.24 37.43, 153.47 13.7, 164.69 1.39 M113.52 60.25 C127.05 43.53, 141.29 28.74, 164.69 1.39 M118.5 60.61 C130.6 48.64, 140.85 33.44, 169.68 1.75 M118.5 60.61 C134.87 41.43, 152.58 21.86, 169.68 1.75 M124.15 60.22 C144.1 38.87, 162.06 16.4, 175.32 1.35 M124.15 60.22 C138.69 43.4, 150.95 27.65, 175.32 1.35 M129.13 60.58 C146.33 44.13, 161.49 24.61, 180.31 1.71 M129.13 60.58 C143.54 43.44, 158.03 28.43, 180.31 1.71 M134.78 60.18 C147.43 45.33, 164.46 30.14, 185.95 1.32 M134.78 60.18 C149.65 42.89, 164.57 26.64, 185.95 1.32 M139.76 60.54 C152.24 47.76, 164.28 32.76, 190.94 1.68 M139.76 60.54 C156.45 40.69, 173.61 21.71, 190.94 1.68 M145.41 60.15 C164.24 37.31, 185.26 16.58, 196.58 1.28 M145.41 60.15 C165 40.08, 181.41 19.09, 196.58 1.28 M150.39 60.51 C170.67 38.51, 191.16 14.74, 201.57 1.64 M150.39 60.51 C162.44 46.27, 172.4 32.13, 201.57 1.64 M156.04 60.12 C177.76 36.22, 195.93 11.88, 207.21 1.25 M156.04 60.12 C173.87 41.17, 190.68 22, 207.21 1.25 M161.02 60.48 C171.36 47.54, 183.74 34.8, 212.2 1.61 M161.02 60.48 C176.92 43.64, 191.67 26.78, 212.2 1.61 M166.67 60.08 C184.21 42.59, 199.7 21.98, 217.84 1.21 M166.67 60.08 C181.8 42.88, 196.37 26.76, 217.84 1.21 M171.65 60.44 C189.22 38.55, 205.63 19.44, 222.83 1.57 M171.65 60.44 C189.23 40.47, 205.19 22.05, 222.83 1.57 M177.3 60.05 C193.61 38.82, 210.15 21.15, 228.47 1.18 M177.3 60.05 C195.33 39.27, 211.59 19.9, 228.47 1.18 M182.28 60.41 C195.83 44.22, 207.18 31.12, 233.46 1.54 M182.28 60.41 C196.4 45.45, 209.66 29.24, 233.46 1.54 M187.93 60.01 C200.45 44.96, 213.29 31.49, 238.44 1.9 M187.93 60.01 C206.46 36.81, 226.51 14.06, 238.44 1.9 M192.91 60.37 C207.93 43.38, 220.25 27.7, 244.09 1.5 M192.91 60.37 C212.24 40.36, 230.02 18.78, 244.09 1.5 M198.56 59.98 C210.55 44.58, 225.66 28.8, 249.07 1.86 M198.56 59.98 C217.64 38.37, 236.65 15.17, 249.07 1.86 M203.54 60.34 C219.91 41.67, 233.31 25.73, 254.72 1.47 M203.54 60.34 C214.61 47.01, 225.58 36.01, 254.72 1.47 M209.19 59.94 C225.91 39.27, 243.63 21.42, 259.7 1.83 M209.19 59.94 C223.75 43.95, 239.39 26.8, 259.7 1.83 M214.17 60.3 C231.06 41.96, 247.21 23.36, 265.35 1.44 M214.17 60.3 C228.86 43.14, 243.27 26.97, 265.35 1.44 M219.16 60.66 C235.85 42.44, 249.7 27.22, 270.33 1.8 M219.16 60.66 C235.34 43.58, 250.39 24.16, 270.33 1.8 M224.8 60.27 C242.09 42.49, 255.61 26.44, 275.98 1.4 M224.8 60.27 C236.84 47.15, 248.64 33.06, 275.98 1.4 M229.79 60.63 C245.11 41.3, 263.74 25.46, 280.96 1.76 M229.79 60.63 C241.06 46.34, 252.66 35.24, 280.96 1.76 M235.44 60.23 C250.61 42.63, 264.55 26.28, 286.61 1.37 M235.44 60.23 C254.96 38.22, 273.68 14.92, 286.61 1.37 M240.42 60.59 C257.27 42.88, 273.32 24.38, 291.59 1.73 M240.42 60.59 C253.21 43.75, 267.97 28.04, 291.59 1.73 M246.07 60.2 C263.17 42.15, 276.43 26.95, 297.24 1.33 M246.07 60.2 C257.3 48.15, 268.18 34.54, 297.24 1.33 M251.05 60.56 C266.66 43.62, 281.04 24.38, 302.22 1.69 M251.05 60.56 C267.93 40.66, 283.38 23.39, 302.22 1.69 M256.7 60.17 C269.49 46.75, 278.02 34.57, 307.87 1.3 M256.7 60.17 C272.15 41.98, 286.5 24.1, 307.87 1.3 M261.68 60.53 C278 42.64, 290.23 26.73, 312.85 1.66 M261.68 60.53 C273.99 46.23, 284.71 32.1, 312.85 1.66 M267.33 60.13 C287 36.9, 303.73 18.85, 318.5 1.26 M267.33 60.13 C285.14 39.42, 304.41 17.14, 318.5 1.26 M272.31 60.49 C288.88 40.1, 305.45 24.5, 322.83 2.38 M272.31 60.49 C288.27 42.7, 304.26 24.47, 322.83 2.38 M277.96 60.1 C287.82 46.17, 300.48 34.7, 326.5 4.25 M277.96 60.1 C288.65 47.89, 299.1 35.43, 326.5 4.25 M282.94 60.46 C295.8 45.77, 306.18 34.41, 330.18 6.12 M282.94 60.46 C295.37 45.1, 307.27 30.92, 330.18 6.12 M288.59 60.06 C296.97 47.33, 309.32 36.64, 331.89 10.25 M288.59 60.06 C300.43 47.66, 311.2 35.38, 331.89 10.25 M293.57 60.42 C308.95 45.24, 324.36 26.49, 332.28 15.89 M293.57 60.42 C303.33 50.21, 311 39.74, 332.28 15.89 M299.22 60.03 C309.55 49.63, 318.22 37.92, 332.02 22.29 M299.22 60.03 C310.25 47.95, 320.54 37.15, 332.02 22.29 M304.2 60.39 C310.84 52.47, 314.67 46.09, 332.41 27.93 M304.2 60.39 C315.95 47.46, 325.98 34.56, 332.41 27.93 M309.19 60.75 C315.42 52.27, 321.38 46.7, 332.81 33.58 M309.19 60.75 C314.57 55.64, 318.41 49.08, 332.81 33.58 M314.83 60.35 C322.32 52.8, 329.07 44.85, 332.55 39.98 M314.83 60.35 C320.65 54.47, 325.59 48.7, 332.55 39.98 M319.16 61.47 C323.27 55.73, 327.99 50.67, 330.97 47.88 M319.16 61.47 C321.57 57.23, 325.19 53.95, 330.97 47.88" stroke="#ffc9c9" stroke-width="0.5" fill="none"></path><path d="M14.75 0 M14.75 0 C117.82 0.46, 217.51 2.11, 316.25 0 M14.75 0 C130.76 0.41, 246.62 0.76, 316.25 0 M316.25 0 C325.52 0.8, 330.06 3.99, 331 14.75 M316.25 0 C324.6 1.72, 331.33 4.59, 331 14.75 M331 14.75 C331.99 24.69, 330.17 33.06, 331 44.25 M331 14.75 C330.85 25.67, 330.48 37.52, 331 44.25 M331 44.25 C329.17 54.02, 325.72 58.8, 316.25 59 M331 44.25 C333.28 52.05, 326.05 60.93, 316.25 59 M316.25 59 C238.67 56.44, 160.85 58.65, 14.75 59 M316.25 59 C225.32 57.95, 134.66 56.59, 14.75 59 M14.75 59 C6.89 58.5, 1.42 55.57, 0 44.25 M14.75 59 C4.59 61.18, 0.43 54.2, 0 44.25 M0 44.25 C1.79 34.66, -0.19 24.57, 0 14.75 M0 44.25 C0.7 37.08, -0.96 28.76, 0 14.75 M0 14.75 C1.73 3.83, 5.74 0.21, 14.75 0 M0 14.75 C0.56 5.6, 5.93 -1.74, 14.75 0" stroke="#1e1e1e" stroke-width="1" fill="none"></path></g><g transform="translate(556.7865041039788 781.4522030026228) rotate(0 41.26995849609375 12.5)"><text x="41.26995849609375" y="0" font-family="Virgil, Segoe UI Emoji" font-size="20px" fill="#1e1e1e" text-anchor="middle" style="white-space: pre;" direction="ltr" dominant-baseline="text-before-edge">nri plugin</text></g><g mask="url(#mask-T8TvRDaxAzGXakclfcKun)" stroke-linecap="round"><g transform="translate(696.8092679679364 754.85602210468) rotate(0 33.78493068825151 -55.79026121423067)"><path d="M0.12 0.06 C11.19 -7.6, 65.03 -26.4, 66.58 -45.02 C68.14 -63.63, 18.9 -100.8, 9.45 -111.64 M-1.28 -0.95 C10.16 -8.49, 67.17 -25.16, 68.81 -43.49 C70.45 -61.81, 18.33 -99.41, 8.57 -110.89" stroke="#1e1e1e" stroke-width="1" fill="none"></path></g><g transform="translate(696.8092679679364 754.85602210468) rotate(0 33.78493068825151 -55.79026121423067)"><path d="M36.39 -100.94 C27.53 -103.31, 17.14 -106.18, 9.4 -110.74 M35.77 -99.28 C31.46 -102.55, 25.1 -104.08, 8.3 -111.53" stroke="#1e1e1e" stroke-width="1" fill="none"></path></g><g transform="translate(696.8092679679364 754.85602210468) rotate(0 33.78493068825151 -55.79026121423067)"><path d="M22.52 -85.81 C17.86 -92.91, 11.78 -100.49, 9.4 -110.74 M21.91 -84.15 C20.35 -90.41, 16.78 -94.97, 8.3 -111.53" stroke="#1e1e1e" stroke-width="1" fill="none"></path></g></g><mask id="mask-T8TvRDaxAzGXakclfcKun"><rect x="0" y="0" fill="#fff" width="864.3092679679369" height="965.4264824420889"></rect><rect x="656.559367150066" y="684.85602210468" fill="#000" width="215.4998016357422" height="50" opacity="1"></rect></mask><g transform="translate(656.559367150066 684.85602210468) rotate(0 74.03483150612215 14.209738785769332)"><text x="107.7499008178711" y="0" font-family="Virgil, Segoe UI Emoji" font-size="20px" fill="#1e1e1e" text-anchor="middle" style="white-space: pre;" direction="ltr" dominant-baseline="text-before-edge">CreateContainerRespo</text><text x="107.7499008178711" y="25" font-family="Virgil, Segoe UI Emoji" font-size="20px" fill="#1e1e1e" text-anchor="middle" style="white-space: pre;" direction="ltr" dominant-baseline="text-before-edge">nse</text></g><g stroke-linecap="round" transform="translate(430.79679440932546 371.4405519618804) rotate(0 190 33)"><path d="M16.5 0 M16.5 0 C107.26 -2.18, 198.74 -2.45, 363.5 0 M16.5 0 C133.06 0.04, 250.98 0.52, 363.5 0 M363.5 0 C374.9 -0.76, 380.65 5.81, 380 16.5 M363.5 0 C376.55 0.63, 381.91 5.15, 380 16.5 M380 16.5 C381.71 25.36, 377.93 29.38, 380 49.5 M380 16.5 C380.09 29.55, 380.12 42.56, 380 49.5 M380 49.5 C381.15 61.84, 373.99 65.79, 363.5 66 M380 49.5 C379.3 58.99, 375.88 67.1, 363.5 66 M363.5 66 C242.62 68.58, 121.81 66.89, 16.5 66 M363.5 66 C280.77 63.54, 197.75 63.24, 16.5 66 M16.5 66 C5.65 66.94, 0.16 61.93, 0 49.5 M16.5 66 C7.1 67.4, -1.63 61.09, 0 49.5 M0 49.5 C-1.7 36.66, -1.17 25.2, 0 16.5 M0 49.5 C-0.27 37.92, -0.19 26.9, 0 16.5 M0 16.5 C1.26 7.19, 6.17 -1.1, 16.5 0 M0 16.5 C-1.61 4.56, 5.57 -2.1, 16.5 0" stroke="#1e1e1e" stroke-width="1" fill="none"></path></g><g transform="translate(555.2268404908684 391.9405519618804) rotate(0 65.56995391845703 12.5)"><text x="65.56995391845703" y="0" font-family="Virgil, Segoe UI Emoji" font-size="20px" fill="#1e1e1e" text-anchor="middle" style="white-space: pre;" direction="ltr" dominant-baseline="text-before-edge">NRI Adaption</text></g><g mask="url(#mask-YXhXcLar9N4V9Y240KE-m)" stroke-linecap="round"><g transform="translate(643.9981699359926 376.67945901843814) rotate(0 2.2108034655113897 -71.38695292503371)"><path d="M1.08 -0.08 C1.35 -23.68, 1.67 -117.57, 1.91 -141.14 M0.19 -1.17 C0.82 -25.12, 3.97 -118.97, 4.23 -142.7" stroke="#1e1e1e" stroke-width="0.5" fill="none"></path></g><g transform="translate(643.9981699359926 376.67945901843814) rotate(0 2.2108034655113897 -71.38695292503371)"><path d="M13.69 -115.53 C12.38 -123.66, 8.62 -131.13, 3.63 -142.91 M14.08 -114.66 C10.65 -123.33, 8.69 -130.45, 4.25 -142.47" stroke="#1e1e1e" stroke-width="0.5" fill="none"></path></g><g transform="translate(643.9981699359926 376.67945901843814) rotate(0 2.2108034655113897 -71.38695292503371)"><path d="M-6.83 -116.01 C-1.45 -124.17, 1.47 -131.48, 3.63 -142.91 M-6.44 -115.14 C-3.68 -123.64, 0.54 -130.6, 4.25 -142.47" stroke="#1e1e1e" stroke-width="0.5" fill="none"></path></g></g><mask id="mask-YXhXcLar9N4V9Y240KE-m"><rect x="0" y="0" fill="#fff" width="746.6648366026595" height="618.9016676772917"></rect><rect x="601.1515411111232" y="280.56835468901136" fill="#000" width="88.35992431640625" height="50" opacity="1"></rect></mask><g transform="translate(601.1515411111227 280.56835468901136) rotate(0 45.05743229038103 24.72415140439307)"><text x="44.179962158203125" y="0" font-family="Virgil, Segoe UI Emoji" font-size="20px" fill="#1e1e1e" text-anchor="middle" style="white-space: pre;" direction="ltr" dominant-baseline="text-before-edge">update </text><text x="44.179962158203125" y="25" font-family="Virgil, Segoe UI Emoji" font-size="20px" fill="#1e1e1e" text-anchor="middle" style="white-space: pre;" direction="ltr" dominant-baseline="text-before-edge">container</text></g><g mask="url(#mask-HmCIsBeuFWHlVOsQt6qUi)" stroke-linecap="round"><g transform="translate(479.55375261828453 228.2350417007292) rotate(0 -0.03879652257978705 71.16499273528325)"><path d="M-0.75 -0.65 C-0.74 23.18, -0.56 119.18, -0.43 142.98 M1.06 1.63 C0.99 25.12, -0.91 117.62, -1.14 141.26" stroke="#1e1e1e" stroke-width="0.5" fill="none"></path></g><g transform="translate(479.55375261828453 228.2350417007292) rotate(0 -0.03879652257978705 71.16499273528325)"><path d="M-12.04 113.67 C-7.1 121.89, -5.9 126.16, -0.71 142.21 M-11.79 113.65 C-7.22 122.56, -5.56 130.57, -0.98 141.54" stroke="#1e1e1e" stroke-width="0.5" fill="none"></path></g><g transform="translate(479.55375261828453 228.2350417007292) rotate(0 -0.03879652257978705 71.16499273528325)"><path d="M8.48 113.99 C8.04 122, 3.87 126.18, -0.71 142.21 M8.73 113.97 C7.07 122.64, 2.49 130.56, -0.98 141.54" stroke="#1e1e1e" stroke-width="0.5" fill="none"></path></g></g><mask id="mask-HmCIsBeuFWHlVOsQt6qUi"><rect x="0" y="0" fill="#fff" width="580.4370435285393" height="470.4405519618804"></rect><rect x="389.7121590430397" y="274.33779683130433" fill="#000" width="178.79989624023438" height="50" opacity="1"></rect></mask><g transform="translate(389.7121590430402 274.33779683130433) rotate(0 89.8027970526648 25.062237604708116)"><text x="89.39994812011719" y="0" font-family="Virgil, Segoe UI Emoji" font-size="20px" fill="#1e1e1e" text-anchor="middle" style="white-space: pre;" direction="ltr" dominant-baseline="text-before-edge">CRI sandbox and </text><text x="89.39994812011719" y="25" font-family="Virgil, Segoe UI Emoji" font-size="20px" fill="#1e1e1e" text-anchor="middle" style="white-space: pre;" direction="ltr" dominant-baseline="text-before-edge">container info</text></g><g mask="url(#mask-5TzJvxa8XXpouNS8y8_c-)" stroke-linecap="round"><g transform="translate(768.44266863391 366.0127923517739) rotate(0 0.9788965578827629 -66.0210469606036)"><path d="M1.2 1.16 C1.28 -21.03, 1.74 -110.9, 1.69 -133.2 M0.36 0.72 C0.18 -21.24, 0.21 -109.03, 0.7 -131.6" stroke="#1e1e1e" stroke-width="0.5" fill="none"></path></g><g transform="translate(768.44266863391 366.0127923517739) rotate(0 0.9788965578827629 -66.0210469606036)"><path d="M12.63 -103.45 C6.95 -115.95, 3.89 -124.27, 0.26 -132.06 M10.3 -103.96 C9.69 -109.06, 6 -115.37, 0.92 -131.98" stroke="#1e1e1e" stroke-width="0.5" fill="none"></path></g><g transform="translate(768.44266863391 366.0127923517739) rotate(0 0.9788965578827629 -66.0210469606036)"><path d="M-7.89 -103.65 C-5.41 -116.27, -0.32 -124.51, 0.26 -132.06 M-10.22 -104.15 C-6.63 -109.01, -6.11 -115.29, 0.92 -131.98" stroke="#1e1e1e" stroke-width="0.5" fill="none"></path></g></g><mask id="mask-5TzJvxa8XXpouNS8y8_c-"><rect x="0" y="0" fill="#fff" width="870.220419284951" height="599.3461256851097"></rect><rect x="694.6616068256412" y="274.346125685106" fill="#000" width="149.33987426757812" height="50" opacity="1"></rect></mask><g transform="translate(694.6616068256412 274.346125685106) rotate(0 74.7599583661513 25.64561970606428)"><text x="74.66993713378906" y="0" font-family="Virgil, Segoe UI Emoji" font-size="20px" fill="#1e1e1e" text-anchor="middle" style="white-space: pre;" direction="ltr" dominant-baseline="text-before-edge">merged adjust </text><text x="74.66993713378906" y="25" font-family="Virgil, Segoe UI Emoji" font-size="20px" fill="#1e1e1e" text-anchor="middle" style="white-space: pre;" direction="ltr" dominant-baseline="text-before-edge">container info</text></g><g mask="url(#mask-jMAkxvunSk8Kf09Z2hkZx)" stroke-linecap="round"><g transform="translate(721.1107163682634 586.5516590009674) rotate(0 -0.4676759824310466 -73.98739256346926)"><path d="M0.88 0.49 C0.78 -23.92, -0.76 -122.09, -1.39 -146.74 M-0.12 -0.3 C-0.21 -25.02, -1.18 -124.17, -1.81 -148.47" stroke="#1e1e1e" stroke-width="0.5" fill="none"></path></g><g transform="translate(721.1107163682634 586.5516590009674) rotate(0 -0.4676759824310466 -73.98739256346926)"><path d="M9.73 -118.8 C7.76 -127.75, 4.1 -133.68, -0.12 -146.48 M8.59 -119.48 C7.06 -127.65, 4.32 -134.1, -1.88 -148.45" stroke="#1e1e1e" stroke-width="0.5" fill="none"></path></g><g transform="translate(721.1107163682634 586.5516590009674) rotate(0 -0.4676759824310466 -73.98739256346926)"><path d="M-10.79 -118.46 C-8 -127.64, -6.9 -133.65, -0.12 -146.48 M-11.93 -119.14 C-8.6 -127.32, -6.47 -133.85, -1.88 -148.45" stroke="#1e1e1e" stroke-width="0.5" fill="none"></path></g></g><mask id="mask-jMAkxvunSk8Kf09Z2hkZx"><rect x="0" y="0" fill="#fff" width="823.4897365127028" height="834.0531404997237"></rect><rect x="678.6812542086413" y="500.3009182515898" fill="#000" width="82.47990417480469" height="25" opacity="1"></rect></mask><g transform="translate(678.6812542086409 500.3009182515898) rotate(0 41.96178617719124 12.263348185908399)"><text x="41.239952087402344" y="0" font-family="Virgil, Segoe UI Emoji" font-size="20px" fill="#1e1e1e" text-anchor="middle" style="white-space: pre;" direction="ltr" dominant-baseline="text-before-edge">response</text></g><g stroke-linecap="round" transform="translate(10 367.86430358667076) rotate(0 85.5 31)"><path d="M15.5 0 M15.5 0 C57.83 0.85, 96.88 -2.13, 155.5 0 M15.5 0 C57.67 1.09, 100.8 1.67, 155.5 0 M155.5 0 C167.06 -0.85, 169.99 3.5, 171 15.5 M155.5 0 C164.13 2.19, 171.84 3.13, 171 15.5 M171 15.5 C169.13 22.04, 169.73 29.09, 171 46.5 M171 15.5 C170.15 25.35, 170.82 33.88, 171 46.5 M171 46.5 C172.7 55.05, 165.09 61.99, 155.5 62 M171 46.5 C170.91 58.17, 163.57 64.24, 155.5 62 M155.5 62 C128.2 62.6, 97.04 63.71, 15.5 62 M155.5 62 C121.46 60.43, 87.21 60.88, 15.5 62 M15.5 62 C5.72 62.14, -1.08 58.19, 0 46.5 M15.5 62 C5.22 60.96, 2.08 58.37, 0 46.5 M0 46.5 C-0.65 39.75, -0.43 33.15, 0 15.5 M0 46.5 C0.01 39.25, 0.5 30.59, 0 15.5 M0 15.5 C-1.46 3.88, 6.17 0.77, 15.5 0 M0 15.5 C-0.52 6.56, 7.18 -0.37, 15.5 0" stroke="#1e1e1e" stroke-width="0.5" fill="none"></path></g><g transform="translate(50.18004608154297 386.36430358667076) rotate(0 45.31995391845703 12.5)"><text x="45.31995391845703" y="0" font-family="Virgil, Segoe UI Emoji" font-size="20px" fill="#1e1e1e" text-anchor="middle" style="white-space: pre;" direction="ltr" dominant-baseline="text-before-edge">nri result</text></g><g mask="url(#mask-4RCmohsVVI9SO6fB5yUmi)" stroke-linecap="round"><g transform="translate(424.62461331906 391.1155846942793) rotate(0 -120.74312644979341 0.3665053932409137)"><path d="M0.09 -0.65 C-40.09 -0.84, -200.64 -0.98, -241.05 -0.83 M-1.33 1.63 C-41.59 1.61, -201.22 1.25, -241.57 0.72" stroke="#1e1e1e" stroke-width="0.5" fill="none"></path></g><g transform="translate(424.62461331906 391.1155846942793) rotate(0 -120.74312644979341 0.3665053932409137)"><path d="M-214.39 -7.99 C-221.69 -7.22, -228.38 -1.96, -242.95 0.22 M-213.56 -8.86 C-223.07 -6.99, -231.96 -3, -240.97 0.91" stroke="#1e1e1e" stroke-width="0.5" fill="none"></path></g><g transform="translate(424.62461331906 391.1155846942793) rotate(0 -120.74312644979341 0.3665053932409137)"><path d="M-214.53 12.53 C-221.85 7.16, -228.49 6.28, -242.95 0.22 M-213.7 11.66 C-223.08 6.81, -231.93 4.09, -240.97 0.91" stroke="#1e1e1e" stroke-width="0.5" fill="none"></path></g></g><mask id="mask-4RCmohsVVI9SO6fB5yUmi"><rect x="0" y="0" fill="#fff" width="766.492738359477" height="491.97315376004826"></rect><rect x="215.41063594289426" y="378.1868001613948" fill="#000" width="176.55982971191406" height="25" opacity="1"></rect></mask><g transform="translate(215.4106359428945 378.1868001613948) rotate(0 88.47085092637212 13.295289926125406)"><text x="88.27991485595703" y="0" font-family="Virgil, Segoe UI Emoji" font-size="20px" fill="#1e1e1e" text-anchor="middle" style="white-space: pre;" direction="ltr" dominant-baseline="text-before-edge">all plugin response</text></g><g mask="url(#mask-sEsNwMSpvJ2hI4B6_JuJm)" stroke-linecap="round"><g transform="translate(192.96021259129907 424.18105656420084) rotate(0 115.60485285280083 -0.1854056624488294)"><path d="M-0.48 0.13 C37.98 0.43, 192.9 0.79, 231.68 0.73 M1.48 -0.85 C39.72 -0.79, 192.5 -1.31, 230.91 -1.01" stroke="#1e1e1e" stroke-width="0.5" fill="none"></path></g><g transform="translate(192.96021259129907 424.18105656420084) rotate(0 115.60485285280083 -0.1854056624488294)"><path d="M202.91 9.74 C214.72 6.84, 223.77 -0.01, 232.79 -1.12 M203.07 9.88 C209.13 7.46, 215.04 4.68, 231.71 -1.16" stroke="#1e1e1e" stroke-width="0.5" fill="none"></path></g><g transform="translate(192.96021259129907 424.18105656420084) rotate(0 115.60485285280083 -0.1854056624488294)"><path d="M202.94 -10.78 C214.55 -5.88, 223.58 -4.94, 232.79 -1.12 M203.1 -10.64 C209.22 -8.66, 215.12 -7.05, 231.71 -1.16" stroke="#1e1e1e" stroke-width="0.5" fill="none"></path></g></g><mask id="mask-sEsNwMSpvJ2hI4B6_JuJm"><rect x="0" y="0" fill="#fff" width="524.3234338101422" height="524.1810565642008"></rect><rect x="233.9718860669318" y="399.18105656420084" fill="#000" width="149.33987426757812" height="50" opacity="1"></rect></mask><g transform="translate(233.97188606693135 399.18105656420084) rotate(0 74.59317937716833 24.81459433755117)"><text x="74.66993713378906" y="0" font-family="Virgil, Segoe UI Emoji" font-size="20px" fill="#1e1e1e" text-anchor="middle" style="white-space: pre;" direction="ltr" dominant-baseline="text-before-edge">merged adjust </text><text x="74.66993713378906" y="25" font-family="Virgil, Segoe UI Emoji" font-size="20px" fill="#1e1e1e" text-anchor="middle" style="white-space: pre;" direction="ltr" dominant-baseline="text-before-edge">container info</text></g><g stroke-linecap="round" transform="translate(982.57624395671 150.32484493454922) rotate(0 176 36)"><path d="M18 0 M18 0 C83.28 2.44, 145.92 0.68, 334 0 M18 0 C141.03 -1, 262.43 -1.98, 334 0 M334 0 C345.4 0.7, 352.55 6.51, 352 18 M334 0 C344.08 1.01, 350.83 6.08, 352 18 M352 18 C351.99 23.64, 350.23 33.77, 352 54 M352 18 C351.45 28.1, 351.62 38.81, 352 54 M352 54 C352.82 67.53, 347.83 71.88, 334 72 M352 54 C354.2 66.49, 347.43 72.94, 334 72 M334 72 C243.69 72.91, 156.94 71.37, 18 72 M334 72 C266.14 70.86, 197.87 70.81, 18 72 M18 72 C6.79 71.38, -1.63 64.67, 0 54 M18 72 C7.48 70.18, 2.01 65.47, 0 54 M0 54 C1.84 46.51, -1.95 39.49, 0 18 M0 54 C-0.89 45.11, -0.27 35.1, 0 18 M0 18 C-0.71 4.56, 6.93 1.23, 18 0 M0 18 C1.55 8.15, 4.77 0.62, 18 0" stroke="#1e1e1e" stroke-width="1" fill="none"></path></g><g transform="translate(1083.7163120109092 173.82484493454922) rotate(0 74.85993194580078 12.5)"><text x="74.85993194580078" y="0" font-family="Virgil, Segoe UI Emoji" font-size="20px" fill="#1e1e1e" text-anchor="middle" style="white-space: pre;" direction="ltr" dominant-baseline="text-before-edge">create excutor</text></g><g mask="url(#mask-vf0tIy_vFKkEe40SrHqli)" stroke-linecap="round"><g transform="translate(810.6143070708038 184.60105550989647) rotate(0 85.85473115192053 0.5034335892464696)"><path d="M0.81 -0.23 C29.11 0.09, 141.36 0.79, 169.82 0.96 M-0.23 -1.4 C28.43 -0.8, 143.38 1.85, 171.93 2.4" stroke="#1e1e1e" stroke-width="0.5" fill="none"></path></g><g transform="translate(810.6143070708038 184.60105550989647) rotate(0 85.85473115192053 0.5034335892464696)"><path d="M143.15 10.16 C151.79 9.96, 160 6.01, 171.38 1.26 M143.5 12.25 C150.41 9.15, 160.09 6.06, 172.12 2.16" stroke="#1e1e1e" stroke-width="0.5" fill="none"></path></g><g transform="translate(810.6143070708038 184.60105550989647) rotate(0 85.85473115192053 0.5034335892464696)"><path d="M143.59 -10.36 C151.94 -4.41, 160.02 -2.23, 171.38 1.26 M143.94 -8.27 C150.59 -5.73, 160.15 -3.17, 172.12 2.16" stroke="#1e1e1e" stroke-width="0.5" fill="none"></path></g></g><mask id="mask-vf0tIy_vFKkEe40SrHqli"><rect x="0" y="0" fill="#fff" width="1081.57624395671" height="285.74847354302347"></rect><rect x="839.5053249522339" y="172.6747645264595" fill="#000" width="113.17990112304688" height="25" opacity="1"></rect></mask><g transform="translate(839.5053249522334 172.6747645264595) rotate(0 56.96371327049064 12.429724572683426)"><text x="56.58995056152344" y="0" font-family="Virgil, Segoe UI Emoji" font-size="20px" fill="#1e1e1e" text-anchor="middle" style="white-space: pre;" direction="ltr" dominant-baseline="text-before-edge">req-&gt;adjust</text></g><g mask="url(#mask-9dl0saM1Gcj0ZLfACPrTs)" stroke-linecap="round"><g transform="translate(1307.8133771964197 228.85359375618555) rotate(0 2.1264746066437965 72.7339411229691)"><path d="M0.14 -0.02 C0.86 24.25, 4.76 122.28, 5.5 146.54 M-1.24 -1.07 C-0.71 22.74, 4.16 120.02, 5 144.63" stroke="#1e1e1e" stroke-width="0.5" fill="none"></path></g><g transform="translate(1307.8133771964197 228.85359375618555) rotate(0 2.1264746066437965 72.7339411229691)"><path d="M-6.49 118.33 C-1.04 127.8, 1.86 140.65, 5.73 144.45 M-6.2 117.69 C-3.11 126, 0.78 135.77, 4.3 144.93" stroke="#1e1e1e" stroke-width="0.5" fill="none"></path></g><g transform="translate(1307.8133771964197 228.85359375618555) rotate(0 2.1264746066437965 72.7339411229691)"><path d="M14.02 117.45 C11.34 127.3, 6.11 140.49, 5.73 144.45 M14.3 116.81 C10.58 125.59, 7.65 135.65, 4.3 144.93" stroke="#1e1e1e" stroke-width="0.5" fill="none"></path></g></g><mask id="mask-9dl0saM1Gcj0ZLfACPrTs"><rect x="0" y="0" fill="#fff" width="1412.4528706321387" height="474.99763698134757"></rect><rect x="1243.6931825080292" y="276.92561536876656" fill="#000" width="132.8798828125" height="50" opacity="1"></rect></mask><g transform="translate(1243.6931825080292 276.92561536876656) rotate(0 66.24666929503405 24.66191951038809)"><text x="66.43994140625" y="0" font-family="Virgil, Segoe UI Emoji" font-size="20px" fill="#1e1e1e" text-anchor="middle" style="white-space: pre;" direction="ltr" dominant-baseline="text-before-edge">adjust </text><text x="66.43994140625" y="25" font-family="Virgil, Segoe UI Emoji" font-size="20px" fill="#1e1e1e" text-anchor="middle" style="white-space: pre;" direction="ltr" dominant-baseline="text-before-edge">container info</text></g><g mask="url(#mask-zRXmjeqsDL6tlclFuSErW)" stroke-linecap="round"><g transform="translate(1190.279496296159 370.358143545629) rotate(0 -4.540293284720292 -71.94612488596567)"><path d="M-0.24 -1.13 C-1.45 -25.2, -6.99 -121.11, -8.37 -144.79 M-1.82 0.9 C-3.01 -23.03, -7.66 -119.41, -8.84 -143.76" stroke="#1e1e1e" stroke-width="0.5" fill="none"></path></g><g transform="translate(1190.279496296159 370.358143545629) rotate(0 -4.540293284720292 -71.94612488596567)"><path d="M0.89 -114.58 C-1.16 -120.62, -0.9 -127.57, -10.76 -141.89 M1.94 -116.27 C-0.19 -122.86, -3.91 -132.14, -8.4 -144.01" stroke="#1e1e1e" stroke-width="0.5" fill="none"></path></g><g transform="translate(1190.279496296159 370.358143545629) rotate(0 -4.540293284720292 -71.94612488596567)"><path d="M-19.61 -113.59 C-17.42 -119.79, -12.91 -126.95, -10.76 -141.89 M-18.56 -115.28 C-14.88 -122.3, -12.78 -131.86, -8.4 -144.01" stroke="#1e1e1e" stroke-width="0.5" fill="none"></path></g></g><mask id="mask-zRXmjeqsDL6tlclFuSErW"><rect x="0" y="0" fill="#fff" width="1299.558483167598" height="614.1824400529313"></rect><rect x="1147.040042533291" y="273.44599529197785" fill="#000" width="77.19992065429688" height="50" opacity="1"></rect></mask><g transform="translate(1147.0400425332914 273.44599529197785) rotate(0 38.69916047814763 24.966023367685466)"><text x="38.59996032714844" y="0" font-family="Virgil, Segoe UI Emoji" font-size="20px" fill="#1e1e1e" text-anchor="middle" style="white-space: pre;" direction="ltr" dominant-baseline="text-before-edge">adjust </text><text x="38.59996032714844" y="25" font-family="Virgil, Segoe UI Emoji" font-size="20px" fill="#1e1e1e" text-anchor="middle" style="white-space: pre;" direction="ltr" dominant-baseline="text-before-edge">oci spec</text></g></svg>