<svg version="1.1" xmlns="http://www.w3.org/2000/svg" viewBox="0 0 1856.451299601144 927.7272485224321" width="1856.451299601144" height="927.7272485224321">
  <!-- svg-source:excalidraw -->
  
  <defs>
    <style class="style-fonts">
      @font-face {
        font-family: "Virgil";
        src: url("https://excalidraw.com/Virgil.woff2");
      }
      @font-face {
        font-family: "Cascadia";
        src: url("https://excalidraw.com/Cascadia.woff2");
      }
    </style>
  </defs>
  <rect x="0" y="0" width="1856.451299601144" height="927.7272485224321" fill="#ffffff"></rect><g stroke-linecap="round" transform="translate(666.016561039748 10) rotate(0 540.5 24.5)"><path d="M12.25 0 M12.25 0 C313.44 -3.5, 615.92 -4.63, 1068.75 0 M12.25 0 C350.65 -2.48, 688.9 -2.36, 1068.75 0 M1068.75 0 C1075.76 -0.09, 1079.73 3.41, 1081 12.25 M1068.75 0 C1076.81 -0.09, 1080.53 4.89, 1081 12.25 M1081 12.25 C1080.52 18, 1082.35 25.6, 1081 36.75 M1081 12.25 C1080.54 20.68, 1082.07 29.46, 1081 36.75 M1081 36.75 C1079.69 43.72, 1078.19 50.96, 1068.75 49 M1081 36.75 C1080.93 43.01, 1075.36 51.16, 1068.75 49 M1068.75 49 C657.77 50.28, 248.48 51.02, 12.25 49 M1068.75 49 C707.33 48.28, 345.7 47.58, 12.25 49 M12.25 49 C5.22 48.67, -0.97 44.74, 0 36.75 M12.25 49 C5.86 49.04, -0.84 44.13, 0 36.75 M0 36.75 C-0.94 30.33, -0.64 24.82, 0 12.25 M0 36.75 C0.9 29.85, 0.02 20.25, 0 12.25 M0 12.25 C0.73 5.41, 3.05 -0.51, 12.25 0 M0 12.25 C-1.46 2.65, 5.39 1.48, 12.25 0" stroke="#1e1e1e" stroke-width="1" fill="none"></path></g><g transform="translate(1187.8465705001972 22) rotate(0 18.66999053955078 12.5)"><text x="18.66999053955078" y="0" font-family="Virgil, Segoe UI Emoji" font-size="20px" fill="#1e1e1e" text-anchor="middle" style="white-space: pre;" direction="ltr" dominant-baseline="text-before-edge">CRI</text></g><g stroke-linecap="round" transform="translate(1152.3727127527818 211.867619414028) rotate(0 121 25.5)"><path d="M12.75 0 M12.75 0 C99.37 -2.57, 185.29 -2.89, 229.25 0 M12.75 0 C89.99 0.69, 165.89 0.74, 229.25 0 M229.25 0 C236.48 -0.67, 241.91 4.17, 242 12.75 M229.25 0 C237.28 0.8, 241.73 5.35, 242 12.75 M242 12.75 C243.16 17.17, 243.26 24.68, 242 38.25 M242 12.75 C242.71 18.82, 241.18 25.85, 242 38.25 M242 38.25 C243.27 48.71, 237.69 49.34, 229.25 51 M242 38.25 C240.44 48.91, 239.78 52.33, 229.25 51 M229.25 51 C154.96 49.11, 79.05 50.3, 12.75 51 M229.25 51 C169.32 52.21, 111.27 52.72, 12.75 51 M12.75 51 C3.28 50.82, 1.54 46.79, 0 38.25 M12.75 51 C3.41 50.21, -1.33 48.67, 0 38.25 M0 38.25 C-0.34 28.22, 0.5 16.92, 0 12.75 M0 38.25 C-0.34 28.29, 0.18 20.63, 0 12.75 M0 12.75 C-1.03 3.74, 2.98 -1.25, 12.75 0 M0 12.75 C1.3 5.73, 3.04 0.75, 12.75 0" stroke="#1e1e1e" stroke-width="1" fill="none"></path></g><g transform="translate(1218.3627563929185 224.867619414028) rotate(0 55.00995635986328 12.5)"><text x="55.00995635986328" y="0" font-family="Virgil, Segoe UI Emoji" font-size="20px" fill="#1e1e1e" text-anchor="middle" style="white-space: pre;" direction="ltr" dominant-baseline="text-before-edge">CRI module</text></g><g stroke-linecap="round" transform="translate(805.7570895247284 622.5638004558205) rotate(0 330.5 34.5)"><path d="M4.59 3.99 C4.59 3.99, 4.59 3.99, 4.59 3.99 M4.59 3.99 C4.59 3.99, 4.59 3.99, 4.59 3.99 M3.02 11.9 C6 8.86, 8.69 4.86, 11.55 2.09 M3.02 11.9 C5.13 9.63, 8.19 6.35, 11.55 2.09 M2.1 19.05 C4.35 13.34, 8.41 11.66, 17.85 0.94 M2.1 19.05 C7.7 12.91, 15.53 5.34, 17.85 0.94 M2.5 24.69 C11.34 16.4, 18.15 9.34, 23.49 0.54 M2.5 24.69 C7.48 17.12, 14.59 11.1, 23.49 0.54 M2.23 31.09 C8.9 22.56, 14.78 14.55, 28.48 0.9 M2.23 31.09 C11.78 19.4, 22.05 8.24, 28.48 0.9 M2.63 36.74 C11.55 27.87, 15.28 20.56, 34.12 0.51 M2.63 36.74 C13.71 22.92, 26.45 10.92, 34.12 0.51 M3.02 42.38 C12.77 31.66, 20.68 21.8, 39.11 0.87 M3.02 42.38 C14.24 30.12, 24.14 16.23, 39.11 0.87 M2.76 48.78 C16.82 31.72, 33.28 14.11, 44.75 0.47 M2.76 48.78 C11.68 37.8, 22.3 27.24, 44.75 0.47 M3.16 54.42 C15.45 39.15, 27.11 26.66, 49.74 0.83 M3.16 54.42 C20.84 34.59, 38.02 14.85, 49.74 0.83 M2.89 60.82 C16.54 47.21, 29.29 32.52, 55.38 0.44 M2.89 60.82 C21.26 39.58, 40.35 18.48, 55.38 0.44 M4.6 64.95 C15.41 50.91, 27.49 37.54, 60.37 0.8 M4.6 64.95 C24.86 42.26, 42.85 21.07, 60.37 0.8 M8.28 66.82 C29.89 41.98, 53.28 14.09, 66.01 0.41 M8.28 66.82 C24.23 49.34, 37.68 31.63, 66.01 0.41 M11.95 68.69 C33.32 45.71, 53.49 24.36, 71 0.77 M11.95 68.69 C26.51 53.2, 40.39 35.25, 71 0.77 M15.63 70.56 C36.55 45.99, 60.82 20.49, 76.64 0.37 M15.63 70.56 C34.83 50.54, 52.83 28.79, 76.64 0.37 M20.61 70.92 C32.84 55.02, 48.58 39.16, 81.63 0.73 M20.61 70.92 C36.9 53.58, 53.19 33.96, 81.63 0.73 M26.26 70.52 C45.37 48.8, 60.88 32.83, 86.61 1.09 M26.26 70.52 C40.92 53.27, 54.07 37.49, 86.61 1.09 M31.24 70.88 C45.06 55.28, 56.46 43.11, 92.26 0.7 M31.24 70.88 C49.89 48.93, 67.41 27.07, 92.26 0.7 M36.89 70.49 C50.1 56.2, 64.46 39.43, 97.24 1.06 M36.89 70.49 C52.6 52.5, 67.53 36.55, 97.24 1.06 M41.87 70.85 C61.25 49.69, 77.93 30.38, 102.89 0.66 M41.87 70.85 C66.3 43.09, 90.7 15.04, 102.89 0.66 M47.52 70.46 C69.17 48.73, 87.05 22.69, 107.87 1.02 M47.52 70.46 C67.79 44.55, 89.93 21.19, 107.87 1.02 M52.5 70.82 C69.59 53.35, 85.54 33.86, 113.52 0.63 M52.5 70.82 C69.54 52.35, 84.88 31.86, 113.52 0.63 M58.15 70.42 C79.13 47.39, 99.99 20, 118.5 0.99 M58.15 70.42 C81.24 45, 103.25 17.02, 118.5 0.99 M63.13 70.78 C75.84 54.36, 89.36 41.44, 124.15 0.59 M63.13 70.78 C74.99 56.21, 88.54 41.12, 124.15 0.59 M68.78 70.39 C83.76 50.85, 103.67 29.57, 129.13 0.95 M68.78 70.39 C92.46 44.3, 114.68 18.14, 129.13 0.95 M73.76 70.75 C95.4 41.78, 121 15.96, 134.78 0.56 M73.76 70.75 C96.69 43.21, 121.22 15.89, 134.78 0.56 M78.75 71.11 C96.64 49.73, 114.24 26.51, 139.76 0.92 M78.75 71.11 C92.52 55.33, 105.28 40.26, 139.76 0.92 M84.39 70.71 C101.41 49.1, 120.73 32.84, 145.41 0.52 M84.39 70.71 C104.05 47.33, 125.39 25.31, 145.41 0.52 M89.38 71.07 C109.16 47.24, 126.58 28.02, 150.39 0.88 M89.38 71.07 C101.62 57.04, 113.33 43.38, 150.39 0.88 M95.02 70.68 C107.87 54.23, 126.2 35.82, 156.04 0.49 M95.02 70.68 C108.56 52.2, 124.7 36.51, 156.04 0.49 M100.01 71.04 C120.01 47.18, 137.27 24.35, 161.02 0.85 M100.01 71.04 C115.67 53.39, 129.47 35.2, 161.02 0.85 M105.65 70.64 C119.15 56.96, 132.74 38.63, 166.67 0.46 M105.65 70.64 C123.85 50.01, 143.15 27.62, 166.67 0.46 M110.64 71 C128.96 53.5, 141.38 33.14, 171.65 0.82 M110.64 71 C127.11 49.45, 144.93 30.29, 171.65 0.82 M116.28 70.61 C128.82 57.34, 140.59 43.25, 177.3 0.42 M116.28 70.61 C139.86 44.36, 163.08 16.74, 177.3 0.42 M121.27 70.97 C135.19 54.29, 151.18 37.19, 182.28 0.78 M121.27 70.97 C139.89 49.03, 158.83 29.41, 182.28 0.78 M126.91 70.57 C138.33 58.57, 149.47 43.04, 187.27 1.14 M126.91 70.57 C143.08 50.81, 159.43 32.59, 187.27 1.14 M131.9 70.93 C146.48 55.57, 157.18 40.25, 192.91 0.75 M131.9 70.93 C147.88 53.08, 162.49 35.93, 192.91 0.75 M137.54 70.54 C152.28 52.07, 170.3 35.15, 197.9 1.11 M137.54 70.54 C153.83 52, 172.35 30.79, 197.9 1.11 M142.53 70.9 C164.81 46.25, 189.91 18, 203.54 0.71 M142.53 70.9 C164.67 46.47, 185.54 20.58, 203.54 0.71 M148.17 70.51 C161.38 53.03, 179.38 34.88, 208.53 1.07 M148.17 70.51 C164.06 50.16, 182.95 31.62, 208.53 1.07 M153.16 70.87 C174.73 49.26, 191.67 23.22, 214.17 0.68 M153.16 70.87 C166.77 53.77, 182.22 37.34, 214.17 0.68 M158.8 70.47 C176.57 50.03, 193.1 32.96, 219.16 1.04 M158.8 70.47 C173 54.69, 186.22 40.8, 219.16 1.04 M163.79 70.83 C182.24 48.8, 196.42 30.95, 224.8 0.64 M163.79 70.83 C184.8 47.69, 206.07 23.66, 224.8 0.64 M169.43 70.44 C184.65 53.78, 199.39 36.16, 229.79 1 M169.43 70.44 C193.03 45.29, 214.73 19, 229.79 1 M174.42 70.8 C196.5 43.32, 218.93 21.45, 235.43 0.61 M174.42 70.8 C196.72 46.69, 217.43 22.35, 235.43 0.61 M179.41 71.16 C201.46 48.66, 219.18 22.82, 240.42 0.97 M179.41 71.16 C199.63 46.34, 222.44 21.38, 240.42 0.97 M185.05 70.76 C197.5 55.97, 209.97 42.87, 246.06 0.57 M185.05 70.76 C205.59 46.29, 226.52 22.7, 246.06 0.57 M190.04 71.12 C210.59 48.38, 228 29.24, 251.05 0.93 M190.04 71.12 C208.28 50.85, 227.13 29.37, 251.05 0.93 M195.68 70.73 C217.4 45.96, 243.14 20.23, 256.69 0.54 M195.68 70.73 C211.19 52.81, 226.41 36.25, 256.69 0.54 M200.67 71.09 C222.5 42.46, 248.92 14.89, 261.68 0.9 M200.67 71.09 C216.68 54.51, 231.79 36.56, 261.68 0.9 M206.31 70.69 C227.98 44.54, 252.24 19.85, 267.33 0.5 M206.31 70.69 C230.22 43.62, 253.84 15.01, 267.33 0.5 M211.3 71.05 C222.39 55.06, 238.62 40.23, 272.31 0.86 M211.3 71.05 C233.64 44.26, 256.75 18.55, 272.31 0.86 M216.94 70.66 C230.22 53.86, 246.5 35.87, 277.96 0.47 M216.94 70.66 C237.51 45.41, 257.17 21.93, 277.96 0.47 M221.93 71.02 C238.82 53.57, 253.71 32.84, 282.94 0.83 M221.93 71.02 C245.28 43.7, 269.48 16.15, 282.94 0.83 M227.57 70.62 C247.27 47.31, 267.14 24.87, 287.93 1.19 M227.57 70.62 C243.82 51.34, 259.48 33.98, 287.93 1.19 M232.56 70.98 C244.77 58.13, 258.12 41.2, 293.57 0.8 M232.56 70.98 C250.25 50.92, 266.62 31.06, 293.57 0.8 M238.2 70.59 C257.36 51.45, 276.09 29.04, 298.56 1.16 M238.2 70.59 C260.89 44.35, 283.62 16.82, 298.56 1.16 M243.19 70.95 C267.41 45.44, 290.28 20.27, 304.2 0.76 M243.19 70.95 C255.33 56.54, 269.35 39.98, 304.2 0.76 M248.83 70.55 C271.36 41.43, 297.41 16.94, 309.19 1.12 M248.83 70.55 C266.52 48.57, 283.97 29.21, 309.19 1.12 M253.82 70.91 C272.92 47.71, 294.55 24.71, 314.83 0.73 M253.82 70.91 C268.81 53.75, 282.62 36.64, 314.83 0.73 M259.46 70.52 C278 46.18, 302.74 21.44, 319.82 1.09 M259.46 70.52 C277.04 50.96, 292.19 32.3, 319.82 1.09 M264.45 70.88 C278.88 54.09, 294.99 36.02, 325.46 0.69 M264.45 70.88 C283.88 46.31, 304.51 23.82, 325.46 0.69 M270.09 70.49 C284.21 56.63, 299.67 40.68, 330.45 1.05 M270.09 70.49 C292.02 44.76, 315.44 18.87, 330.45 1.05 M275.08 70.85 C296.05 48.4, 316.6 26.4, 336.09 0.66 M275.08 70.85 C288.07 57.03, 299.46 41.88, 336.09 0.66 M280.72 70.45 C293.46 54.8, 310.09 40.99, 341.08 1.02 M280.72 70.45 C297.01 51.33, 315.02 31.09, 341.08 1.02 M285.71 70.81 C298.81 56.28, 311.07 40, 346.72 0.62 M285.71 70.81 C303.22 50.24, 321.28 31.06, 346.72 0.62 M290.7 71.17 C306.68 50.96, 323.13 33.59, 351.71 0.98 M290.7 71.17 C308.79 50.07, 328.21 26.77, 351.71 0.98 M296.34 70.78 C320.95 43.12, 342.03 16.62, 357.35 0.59 M296.34 70.78 C314.9 49.07, 333.11 26.95, 357.35 0.59 M301.33 71.14 C312.27 55.94, 324.44 41.91, 362.34 0.95 M301.33 71.14 C326.15 42.92, 349.94 16.09, 362.34 0.95 M306.97 70.74 C324.43 49.11, 344 29.03, 367.98 0.55 M306.97 70.74 C329.6 47.49, 349.67 22.41, 367.98 0.55 M311.96 71.1 C327.28 53.66, 338.84 40.98, 372.97 0.91 M311.96 71.1 C329.5 49.43, 347.35 29.85, 372.97 0.91 M317.6 70.71 C334.82 49.28, 351.63 28.78, 378.61 0.52 M317.6 70.71 C330.29 56.05, 342.19 43.4, 378.61 0.52 M322.59 71.07 C337.71 54.18, 353.3 37.16, 383.6 0.88 M322.59 71.07 C345.25 45.36, 368.36 16.58, 383.6 0.88 M328.23 70.67 C346.71 48.57, 367.89 25.37, 389.24 0.49 M328.23 70.67 C351.32 42.96, 374.3 15.88, 389.24 0.49 M333.22 71.03 C348.91 51.72, 368.03 34.01, 394.23 0.85 M333.22 71.03 C349.74 52.86, 366.33 34.84, 394.23 0.85 M338.86 70.64 C361.04 48.42, 381.6 21.12, 399.22 1.21 M338.86 70.64 C358.09 48.64, 377.73 24.92, 399.22 1.21 M343.85 71 C362.86 50.37, 381.44 28, 404.86 0.81 M343.85 71 C366.8 45.56, 387.28 21.97, 404.86 0.81 M349.49 70.6 C374.02 42.11, 397.21 17.45, 409.85 1.17 M349.49 70.6 C371.16 43.99, 395.19 17.68, 409.85 1.17 M354.48 70.96 C368.95 55.24, 380.95 39.66, 415.49 0.78 M354.48 70.96 C372.19 51.16, 390.66 29, 415.49 0.78 M360.12 70.57 C377.3 52.58, 393.62 32.12, 420.48 1.14 M360.12 70.57 C374.55 55.07, 388.03 39.59, 420.48 1.14 M365.11 70.93 C378.55 55.99, 394.02 37.04, 426.12 0.74 M365.11 70.93 C385.81 45.21, 407.01 20.15, 426.12 0.74 M370.75 70.54 C385.32 51.03, 404.56 31.17, 431.11 1.1 M370.75 70.54 C386.4 52.63, 402.58 33.33, 431.11 1.1 M375.74 70.9 C395.62 49, 414.09 24.01, 436.75 0.71 M375.74 70.9 C389.06 55.73, 402.09 39.72, 436.75 0.71 M381.38 70.5 C399.3 53.03, 414.06 32.84, 441.74 1.07 M381.38 70.5 C394.41 54.81, 408.77 39.07, 441.74 1.07 M386.37 70.86 C407.35 47.63, 427.44 20.42, 447.38 0.67 M386.37 70.86 C410.86 42.1, 434.34 14.64, 447.38 0.67 M391.35 71.22 C413.15 45.02, 434.9 20.12, 452.37 1.03 M391.35 71.22 C413.81 47.06, 434.81 22.78, 452.37 1.03 M397 70.83 C414.91 51.52, 436.16 29.47, 458.01 0.64 M397 70.83 C410.25 56.74, 423.42 40.6, 458.01 0.64 M401.98 71.19 C420.8 49.64, 442.65 24.89, 463 1 M401.98 71.19 C414.39 55.25, 426.74 41.84, 463 1 M407.63 70.79 C427.08 47.62, 451.77 22.62, 468.64 0.6 M407.63 70.79 C420.38 55.36, 434.68 37.81, 468.64 0.6 M412.61 71.15 C429.53 48.95, 450.9 29.79, 473.63 0.96 M412.61 71.15 C430.53 50.25, 446.86 30.46, 473.63 0.96 M418.26 70.76 C438.23 49.21, 456.77 22.78, 479.27 0.57 M418.26 70.76 C430.34 56.18, 442.91 40.61, 479.27 0.57 M423.24 71.12 C443.14 49.48, 465.05 24.22, 484.26 0.93 M423.24 71.12 C447.39 45.38, 469.74 18.05, 484.26 0.93 M428.89 70.72 C444.93 53.77, 457.72 38.05, 489.9 0.54 M428.89 70.72 C451.72 46.08, 474.14 19.38, 489.9 0.54 M433.87 71.08 C447.78 54.85, 460.43 40.72, 494.89 0.9 M433.87 71.08 C447.9 53.75, 463.91 38.31, 494.89 0.9 M439.52 70.69 C452.24 56.33, 463.29 43.23, 499.87 1.26 M439.52 70.69 C457.25 49.87, 475.08 30.24, 499.87 1.26 M444.5 71.05 C456.65 56.85, 467.47 39.94, 505.52 0.86 M444.5 71.05 C462.66 48.9, 482.69 27.66, 505.52 0.86 M450.15 70.65 C466.34 52.13, 481.31 35.99, 510.5 1.22 M450.15 70.65 C464.56 52.25, 480.9 35.84, 510.5 1.22 M455.13 71.01 C466.71 54.71, 479.72 42.08, 516.15 0.83 M455.13 71.01 C476.84 45.03, 499.51 17.82, 516.15 0.83 M460.78 70.62 C485.48 45.88, 508.88 18.92, 521.14 1.19 M460.78 70.62 C478.94 48.74, 495.84 27.97, 521.14 1.19 M465.76 70.98 C486.94 48.64, 506.66 22.32, 526.78 0.79 M465.76 70.98 C484.69 48.1, 505.38 24.72, 526.78 0.79 M471.41 70.59 C490.02 49.79, 506.99 30.79, 531.77 1.15 M471.41 70.59 C489.34 48.03, 508.33 26.66, 531.77 1.15 M476.39 70.95 C496.71 48.42, 515.46 25.49, 537.41 0.76 M476.39 70.95 C499.78 44.57, 521.25 19.16, 537.41 0.76 M482.04 70.55 C506.46 43.88, 528.69 17.68, 542.4 1.12 M482.04 70.55 C506.27 43.7, 530.7 16.44, 542.4 1.12 M487.02 70.91 C506.4 47.09, 528.41 23.65, 548.04 0.72 M487.02 70.91 C503.82 51.11, 522.02 32.72, 548.04 0.72 M492.01 71.27 C507.98 54.49, 523.29 34.25, 553.03 1.08 M492.01 71.27 C508.15 50.39, 525.61 31.93, 553.03 1.08 M497.65 70.88 C520.98 43.99, 545.95 17.2, 558.67 0.69 M497.65 70.88 C515.23 50.47, 534.17 31.48, 558.67 0.69 M502.64 71.24 C527.47 42.54, 553.36 15.86, 563.66 1.05 M502.64 71.24 C522.76 49.44, 541.02 26.91, 563.66 1.05 M508.28 70.84 C525.03 51.52, 543.58 29.7, 569.3 0.65 M508.28 70.84 C533.35 43.62, 557.09 14.17, 569.3 0.65 M513.27 71.2 C535.12 43.41, 560.43 14.54, 574.29 1.01 M513.27 71.2 C530.63 52.71, 546.26 32.25, 574.29 1.01 M518.92 70.81 C539.73 47.81, 557.56 26.36, 579.93 0.62 M518.92 70.81 C537.62 50.52, 556.35 27.13, 579.93 0.62 M523.9 71.17 C537.3 57.82, 547.97 42.93, 584.92 0.98 M523.9 71.17 C546.03 47.1, 566.85 21.6, 584.92 0.98 M529.55 70.77 C551.04 47.67, 568.26 25.17, 590.56 0.58 M529.55 70.77 C545.03 51.97, 559.88 35.84, 590.56 0.58 M534.53 71.13 C554.79 50.59, 572.1 30.68, 595.55 0.94 M534.53 71.13 C555.56 45.55, 578.56 22.14, 595.55 0.94 M540.18 70.74 C556.98 52.75, 571.61 35.2, 600.53 1.31 M540.18 70.74 C562.82 45.71, 585.85 19.49, 600.53 1.31 M545.16 71.1 C562.76 51.37, 580.1 35.48, 606.18 0.91 M545.16 71.1 C564.7 49.31, 584.62 26.84, 606.18 0.91 M550.81 70.7 C562.69 54.69, 575.12 40.88, 611.16 1.27 M550.81 70.7 C571.32 47.14, 594.11 20.68, 611.16 1.27 M555.79 71.06 C569.58 53.86, 586.7 36.02, 616.81 0.88 M555.79 71.06 C575.08 50.38, 594.69 26.84, 616.81 0.88 M561.44 70.67 C586.19 43.7, 606.24 18.03, 621.79 1.24 M561.44 70.67 C584.55 44.72, 608.24 18.29, 621.79 1.24 M566.42 71.03 C587.04 47.26, 603.65 25.49, 627.44 0.84 M566.42 71.03 C580.24 56.73, 592.51 40.76, 627.44 0.84 M572.07 70.63 C594.73 46.46, 617.32 20.4, 632.42 1.2 M572.07 70.63 C594.82 43.89, 618.49 18.35, 632.42 1.2 M577.05 70.99 C589.7 53.85, 606.9 39.3, 638.07 0.81 M577.05 70.99 C596.24 48.62, 617.07 24.92, 638.07 0.81 M582.7 70.6 C607.76 43.02, 628.8 17.49, 643.05 1.17 M582.7 70.6 C605.08 45.12, 628.09 18.45, 643.05 1.17 M587.68 70.96 C606.74 49.6, 625.23 27.44, 648.7 0.77 M587.68 70.96 C609.86 46.82, 631.79 21.71, 648.7 0.77 M592.67 71.32 C609.08 52.03, 624.92 33.42, 652.37 2.64 M592.67 71.32 C613.56 46.81, 633.64 22.77, 652.37 2.64 M598.31 70.93 C619.66 44.66, 643.68 18.64, 656.05 4.51 M598.31 70.93 C614.69 52.14, 630.59 34.02, 656.05 4.51 M603.3 71.29 C624.01 51.03, 642.62 28.17, 659.72 6.38 M603.3 71.29 C623.99 47.91, 643.05 25.15, 659.72 6.38 M608.94 70.89 C621.49 57.24, 635.41 41.38, 661.43 10.51 M608.94 70.89 C620.96 56.72, 632.13 43.65, 661.43 10.51 M613.93 71.25 C627.12 58.45, 640.33 43.47, 661.17 16.91 M613.93 71.25 C624.38 59.07, 634.21 47.83, 661.17 16.91 M619.57 70.86 C636.04 54.29, 652.45 35.02, 661.56 22.56 M619.57 70.86 C628.23 61.01, 638.76 50.25, 661.56 22.56 M624.56 71.22 C637.65 55.25, 654.28 37.15, 661.3 28.95 M624.56 71.22 C634.86 60.48, 643.46 49.8, 661.3 28.95 M630.2 70.82 C643.19 56.7, 656.81 41.57, 661.69 34.6 M630.2 70.82 C638.48 61.94, 646.64 52.23, 661.69 34.6 M635.19 71.18 C644.66 63.69, 649.59 54.59, 661.43 40.99 M635.19 71.18 C643.34 62.31, 650.6 52.44, 661.43 40.99 M640.83 70.79 C646.55 62.34, 652.91 58.27, 661.83 46.64 M640.83 70.79 C649.27 61.51, 657.03 51.76, 661.83 46.64 M645.82 71.15 C650.49 62.65, 657.76 55.89, 662.22 52.28 M645.82 71.15 C651.07 65.36, 657.91 57.42, 662.22 52.28" stroke="#a5d8ff" stroke-width="0.5" fill="none"></path><path d="M17.25 0 M17.25 0 C197.18 1.66, 376.91 1.87, 643.75 0 M17.25 0 C169.99 -2.43, 323 -2.67, 643.75 0 M643.75 0 C653.64 0.3, 660.75 4.09, 661 17.25 M643.75 0 C654.45 -1.68, 662.81 5.67, 661 17.25 M661 17.25 C662.29 22.82, 660.07 30.53, 661 51.75 M661 17.25 C661.53 28.03, 661.03 38.69, 661 51.75 M661 51.75 C661.59 63.97, 655.27 69.18, 643.75 69 M661 51.75 C660.27 64.8, 655.28 66.77, 643.75 69 M643.75 69 C513.36 68.02, 383.28 69.07, 17.25 69 M643.75 69 C513.03 70.26, 382.81 70.59, 17.25 69 M17.25 69 C4.19 70.68, 1.69 62.73, 0 51.75 M17.25 69 C5.42 68.96, -1.57 65.43, 0 51.75 M0 51.75 C-0.62 42.87, 0.31 33.59, 0 17.25 M0 51.75 C0.89 43.08, 0.02 32.28, 0 17.25 M0 17.25 C0.69 4.47, 4.81 0.42, 17.25 0 M0 17.25 C-1.38 4.14, 4.23 -1.08, 17.25 0" stroke="#1e1e1e" stroke-width="1" fill="none"></path></g><g transform="translate(1070.6871356062713 644.5638004558205) rotate(0 65.56995391845703 12.5)"><text x="65.56995391845703" y="0" font-family="Virgil, Segoe UI Emoji" font-size="20px" fill="#1e1e1e" text-anchor="middle" style="white-space: pre;" direction="ltr" dominant-baseline="text-before-edge">NRI Adaption</text></g><g stroke-linecap="round" transform="translate(779.1312811557848 438.2528256168371) rotate(0 183.5 35)"><path d="M4.66 4.05 C4.66 4.05, 4.66 4.05, 4.66 4.05 M4.66 4.05 C4.66 4.05, 4.66 4.05, 4.66 4.05 M3.08 11.96 C6.06 7.97, 7.43 5.63, 11.61 2.15 M3.08 11.96 C6.71 8.15, 8.87 4.44, 11.61 2.15 M2.17 19.11 C7.22 13.46, 16.48 5.1, 17.91 1 M2.17 19.11 C6.59 15.61, 9.61 10.38, 17.91 1 M1.91 25.51 C6.98 21.73, 10.02 15.09, 23.56 0.6 M1.91 25.51 C11.31 15.57, 18.89 5.71, 23.56 0.6 M2.3 31.15 C11.5 18.71, 23.75 10.3, 28.54 0.96 M2.3 31.15 C9.25 23.46, 15.5 15.89, 28.54 0.96 M2.69 36.79 C12.45 24.08, 27.14 8.82, 34.19 0.57 M2.69 36.79 C12.14 27.69, 19.69 17.43, 34.19 0.57 M2.43 43.19 C12.24 31.57, 22.52 20.99, 39.17 0.93 M2.43 43.19 C12.43 29.71, 24.62 18.75, 39.17 0.93 M2.83 48.83 C21 29.25, 34.5 9.21, 44.82 0.53 M2.83 48.83 C15.81 34.95, 27.52 20.17, 44.82 0.53 M3.22 54.48 C14.66 41.09, 30.75 25.04, 49.8 0.89 M3.22 54.48 C12.47 43.91, 22.08 32.36, 49.8 0.89 M2.31 61.63 C19.11 43.93, 35.44 23.01, 55.45 0.5 M2.31 61.63 C17.73 44.5, 31.03 28.31, 55.45 0.5 M5.32 64.25 C23.2 43.38, 40.16 23.98, 60.43 0.86 M5.32 64.25 C21.85 44.73, 39.57 25.88, 60.43 0.86 M7.69 67.63 C30.51 40.85, 50.08 17.41, 66.08 0.46 M7.69 67.63 C28.53 41.83, 51.85 17.2, 66.08 0.46 M11.36 69.5 C26.06 55.53, 36.35 39.38, 71.06 0.82 M11.36 69.5 C31.11 45.41, 51.07 22.8, 71.06 0.82 M15.04 71.37 C34.39 50.84, 49.72 29.96, 76.71 0.43 M15.04 71.37 C31.17 52.16, 46.88 32.55, 76.71 0.43 M20.68 70.98 C34.37 55.55, 45.47 41.15, 81.69 0.79 M20.68 70.98 C35.09 53.71, 49.03 37.59, 81.69 0.79 M25.67 71.34 C47.34 48.4, 67.24 20.56, 87.34 0.39 M25.67 71.34 C44.95 48.22, 65.2 25.66, 87.34 0.39 M31.31 70.94 C53.12 47.42, 74.63 22.49, 92.32 0.75 M31.31 70.94 C53.91 43.46, 77.61 16.29, 92.32 0.75 M36.3 71.3 C58.96 45.81, 77.44 22.91, 97.97 0.36 M36.3 71.3 C53.74 52.44, 70.21 31.65, 97.97 0.36 M41.94 70.91 C62.45 47.83, 82.71 25.16, 102.95 0.72 M41.94 70.91 C66.42 43.04, 91.11 15.18, 102.95 0.72 M46.93 71.27 C59.41 53.68, 74.44 40.43, 107.94 1.08 M46.93 71.27 C69.3 46.96, 90.94 20.98, 107.94 1.08 M51.91 71.63 C68.05 52.97, 84.2 35.46, 113.58 0.69 M51.91 71.63 C68.18 50.69, 87.05 30.06, 113.58 0.69 M57.56 71.23 C81.54 41.17, 107.76 14.32, 118.57 1.05 M57.56 71.23 C76.11 47.63, 95.34 25.97, 118.57 1.05 M62.54 71.59 C80.27 52.43, 95.37 32.81, 124.21 0.65 M62.54 71.59 C80.74 50.94, 98.9 31.1, 124.21 0.65 M68.19 71.2 C88.29 48.68, 107.02 28.02, 129.2 1.01 M68.19 71.2 C82.47 54.25, 97.34 37.85, 129.2 1.01 M73.17 71.56 C98.07 43.97, 123.26 19.09, 134.84 0.62 M73.17 71.56 C90.84 51.94, 107.82 33.01, 134.84 0.62 M78.82 71.16 C101.23 42.72, 125.47 16.65, 139.83 0.98 M78.82 71.16 C97.98 48.88, 116.76 26.36, 139.83 0.98 M83.8 71.52 C106.23 50.2, 125.79 22.64, 145.47 0.58 M83.8 71.52 C105.79 48.36, 125.95 24.58, 145.47 0.58 M89.45 71.13 C110.53 47.45, 131.85 21.16, 150.46 0.94 M89.45 71.13 C106.14 51.85, 123.16 32.06, 150.46 0.94 M94.43 71.49 C109.6 55.59, 119.15 44.34, 156.1 0.55 M94.43 71.49 C118.42 46.2, 140.96 19.57, 156.1 0.55 M100.08 71.1 C118.78 46.28, 139.41 25.7, 161.09 0.91 M100.08 71.1 C121.98 43.96, 144.48 18.35, 161.09 0.91 M105.06 71.46 C117.68 55.15, 130.09 40.54, 166.73 0.51 M105.06 71.46 C125.13 48.16, 144.46 25.86, 166.73 0.51 M110.71 71.06 C122.95 52.94, 139.33 38.81, 171.72 0.87 M110.71 71.06 C132.66 46.65, 154.61 19.85, 171.72 0.87 M115.69 71.42 C131.01 53.59, 149.65 34.57, 177.36 0.48 M115.69 71.42 C135.98 47.57, 154.36 25.27, 177.36 0.48 M121.34 71.03 C139.01 51.36, 153.7 33.2, 182.35 0.84 M121.34 71.03 C142.44 48.64, 161.16 24.85, 182.35 0.84 M126.32 71.39 C139.88 53.85, 156.15 35.09, 187.99 0.44 M126.32 71.39 C149.05 45.43, 170.65 20.88, 187.99 0.44 M131.97 70.99 C142.34 56.9, 155.32 41.13, 192.98 0.8 M131.97 70.99 C149.51 50.44, 167.94 29.89, 192.98 0.8 M136.95 71.35 C159.77 48.46, 179.39 23.06, 198.62 0.41 M136.95 71.35 C152.58 53.58, 167.47 36.27, 198.62 0.41 M141.94 71.71 C161.85 49.64, 178.84 31.31, 203.61 0.77 M141.94 71.71 C165.37 43.52, 188.73 16.69, 203.61 0.77 M147.58 71.32 C165.9 51.54, 181.58 32.74, 208.6 1.13 M147.58 71.32 C171.13 46.91, 192.4 21.22, 208.6 1.13 M152.57 71.68 C173.89 43.09, 197.15 18.55, 214.24 0.74 M152.57 71.68 C169.38 53.22, 184.17 36.31, 214.24 0.74 M158.21 71.28 C176.77 51.99, 191.33 29.07, 219.23 1.1 M158.21 71.28 C181.36 45.98, 202.84 20.57, 219.23 1.1 M163.2 71.64 C182.86 47.61, 207.28 22.13, 224.87 0.7 M163.2 71.64 C180.84 52.17, 196.9 32.28, 224.87 0.7 M168.84 71.25 C190.72 46.6, 213.78 18.82, 229.86 1.06 M168.84 71.25 C188.87 47.38, 209.48 25.03, 229.86 1.06 M173.83 71.61 C195.2 50.09, 216.25 23.81, 235.5 0.67 M173.83 71.61 C195.35 46.89, 217.2 21.13, 235.5 0.67 M179.47 71.21 C201.32 42.98, 227.12 18.37, 240.49 1.03 M179.47 71.21 C200.73 47.87, 218.97 24.76, 240.49 1.03 M184.46 71.57 C201.05 53.09, 218.16 35.21, 246.13 0.63 M184.46 71.57 C202.81 50.81, 221.81 28.88, 246.13 0.63 M190.1 71.18 C201.55 58.97, 214.55 41.37, 251.12 0.99 M190.1 71.18 C207.13 51.77, 223.22 32.99, 251.12 0.99 M195.09 71.54 C216.31 50.75, 232.93 25.35, 256.76 0.6 M195.09 71.54 C211.17 53.64, 228.39 35.97, 256.76 0.6 M200.73 71.15 C224.39 45.24, 245.74 17.18, 261.75 0.96 M200.73 71.15 C217.39 51.73, 233.78 32.69, 261.75 0.96 M205.72 71.51 C222.79 53.84, 241.5 32.27, 267.39 0.56 M205.72 71.51 C223.5 49.68, 241.9 29.97, 267.39 0.56 M211.37 71.11 C235.61 45.76, 259.71 17.72, 272.38 0.92 M211.37 71.11 C228.72 51.59, 246.27 31.54, 272.38 0.92 M216.35 71.47 C240.43 44.04, 263.31 20.55, 278.02 0.53 M216.35 71.47 C239.73 43.57, 264.33 15.36, 278.02 0.53 M222 71.08 C235.59 52.59, 252.31 35.91, 283.01 0.89 M222 71.08 C240.27 49.93, 258.54 29.42, 283.01 0.89 M226.98 71.44 C244.17 51.11, 259.54 33.4, 288.65 0.49 M226.98 71.44 C242.53 53.84, 258.26 35.22, 288.65 0.49 M231.97 71.8 C250.63 49.69, 267.57 31.33, 293.64 0.85 M231.97 71.8 C248.24 52.23, 266.03 32.36, 293.64 0.85 M237.61 71.4 C253.83 53.71, 268.82 36.58, 298.63 1.21 M237.61 71.4 C257.14 47.6, 278.14 25.24, 298.63 1.21 M242.6 71.76 C256.19 58.25, 267.02 42.66, 304.27 0.82 M242.6 71.76 C259.15 52.31, 276.28 34.84, 304.27 0.82 M248.24 71.37 C262.47 58.24, 274.58 43.36, 309.26 1.18 M248.24 71.37 C268.1 48.87, 289.57 24.41, 309.26 1.18 M253.23 71.73 C266.49 56.99, 277.9 42.23, 314.9 0.78 M253.23 71.73 C269.25 51.96, 287.46 34.09, 314.9 0.78 M258.87 71.33 C280.07 49.26, 296.67 27.73, 319.89 1.14 M258.87 71.33 C280.26 45.77, 302.61 18.71, 319.89 1.14 M263.86 71.69 C288.56 43.52, 313.68 16.52, 325.53 0.75 M263.86 71.69 C287.01 45.88, 310.15 17.93, 325.53 0.75 M269.5 71.3 C289.81 51.13, 307.59 27.34, 330.52 1.11 M269.5 71.3 C283.54 55.71, 296.66 41.74, 330.52 1.11 M274.49 71.66 C290.42 56.01, 301.38 38.24, 336.16 0.72 M274.49 71.66 C288.74 53.54, 304.42 34.76, 336.16 0.72 M280.13 71.26 C306.07 45.94, 327.17 17.54, 341.15 1.08 M280.13 71.26 C305.41 42.84, 327.64 16.2, 341.15 1.08 M285.12 71.62 C304.07 48.48, 323.57 25.92, 346.79 0.68 M285.12 71.62 C310.46 44.02, 333.76 15.31, 346.79 0.68 M290.76 71.23 C314.63 44.42, 337.94 18.42, 351.78 1.04 M290.76 71.23 C312.21 45.76, 333.63 21.85, 351.78 1.04 M295.75 71.59 C316.01 46.2, 337.1 25.71, 356.11 2.16 M295.75 71.59 C315.98 47.34, 335.67 24.11, 356.11 2.16 M301.39 71.19 C320.94 47.12, 345.36 22.67, 360.44 3.27 M301.39 71.19 C314.22 56.73, 327.21 40.99, 360.44 3.27 M306.38 71.56 C328.9 46.93, 349.36 22.82, 363.46 5.9 M306.38 71.56 C318.4 56.48, 331.05 40.73, 363.46 5.9 M312.02 71.16 C330.54 50.62, 350.79 26.89, 365.82 9.27 M312.02 71.16 C328.45 52.7, 345.65 33.64, 365.82 9.27 M317.01 71.52 C334.44 49.69, 350.92 30.14, 368.84 11.9 M317.01 71.52 C328.14 59.43, 339.72 43.98, 368.84 11.9 M322.65 71.13 C339.39 52.71, 354.92 37.37, 368.58 18.3 M322.65 71.13 C332.01 58.43, 343.01 48.64, 368.58 18.3 M327.64 71.49 C345.43 52.51, 360.94 35.26, 368.97 23.94 M327.64 71.49 C340.55 55.48, 354.26 40.17, 368.97 23.94 M332.63 71.85 C348.28 57.11, 360.45 39.45, 368.71 30.34 M332.63 71.85 C342.86 61.55, 352.07 50.06, 368.71 30.34 M338.27 71.45 C348.16 59.38, 356.99 48.19, 369.1 35.98 M338.27 71.45 C348.46 58.43, 359.21 48.32, 369.1 35.98 M343.26 71.81 C352.34 62.02, 359.72 51.88, 368.84 42.38 M343.26 71.81 C350.37 63.71, 359.41 55.22, 368.84 42.38 M349.56 70.66 C355.21 66.36, 360.86 59.28, 369.24 48.02 M349.56 70.66 C356.03 63.18, 360.45 56.86, 369.24 48.02 M355.86 69.51 C358.34 65.25, 361.62 61.81, 367.01 56.68 M355.86 69.51 C359.07 65.12, 362.41 61.41, 367.01 56.68" stroke="#a5d8ff" stroke-width="0.5" fill="none"></path><path d="M17.5 0 M17.5 0 C123.83 -1.35, 230.56 -2.4, 349.5 0 M17.5 0 C101.4 0.51, 183.74 0.45, 349.5 0 M349.5 0 C360.99 -1.6, 368.98 4.95, 367 17.5 M349.5 0 C361.17 1.24, 368.04 6.77, 367 17.5 M367 17.5 C365.12 25.55, 367.98 34.8, 367 52.5 M367 17.5 C366.66 24.52, 367.08 32.08, 367 52.5 M367 52.5 C366.19 65.32, 360.47 69.65, 349.5 70 M367 52.5 C367.58 63.53, 359.65 69.83, 349.5 70 M349.5 70 C240.18 68.83, 132.4 68.71, 17.5 70 M349.5 70 C257.28 67.19, 166.01 68.19, 17.5 70 M17.5 70 C7.33 69.89, -0.18 62.76, 0 52.5 M17.5 70 C7.65 70.08, -0.66 64.81, 0 52.5 M0 52.5 C-2.16 42.66, -0.94 31.45, 0 17.5 M0 52.5 C-0.39 45.58, 0.3 36.76, 0 17.5 M0 17.5 C-1.01 4.51, 7.17 0.63, 17.5 0 M0 17.5 C1.38 5.43, 5.71 -1.11, 17.5 0" stroke="#1e1e1e" stroke-width="1" fill="none"></path></g><g transform="translate(903.0813238803942 460.7528256168371) rotate(0 59.549957275390625 12.5)"><text x="59.549957275390625" y="0" font-family="Virgil, Segoe UI Emoji" font-size="20px" fill="#1e1e1e" text-anchor="middle" style="white-space: pre;" direction="ltr" dominant-baseline="text-before-edge">NRI convert</text></g><g stroke-linecap="round" transform="translate(776.38983126822 215.37868949510266) rotate(0 103.5 27)"><path d="M13.5 0 M13.5 0 C52.09 0.21, 92.12 -1.92, 193.5 0 M13.5 0 C66.65 0.56, 119.69 0.95, 193.5 0 M193.5 0 C202.26 0.96, 205.07 3.9, 207 13.5 M193.5 0 C201 1.42, 206.11 6.04, 207 13.5 M207 13.5 C205.79 25.45, 205.36 32.58, 207 40.5 M207 13.5 C207.14 19.15, 206.49 27.4, 207 40.5 M207 40.5 C208.77 50.66, 203.47 52.56, 193.5 54 M207 40.5 C204.78 51.06, 202.41 54.97, 193.5 54 M193.5 54 C129.94 52.15, 60.91 54.87, 13.5 54 M193.5 54 C143.28 53.86, 91.16 53.49, 13.5 54 M13.5 54 C3.34 55.67, 1.82 48.77, 0 40.5 M13.5 54 C3.95 53.5, -0.07 49.96, 0 40.5 M0 40.5 C1.73 33.98, -1.79 28.8, 0 13.5 M0 40.5 C-0.5 29.99, 0.71 21.36, 0 13.5 M0 13.5 C-1.05 5.15, 3.99 0.95, 13.5 0 M0 13.5 C-0.62 4.42, 4.36 0.14, 13.5 0" stroke="#1e1e1e" stroke-width="1" fill="none"></path></g><g transform="translate(803.7099072569895 229.87868949510266) rotate(0 76.17992401123047 12.5)"><text x="76.17992401123047" y="0" font-family="Virgil, Segoe UI Emoji" font-size="20px" fill="#1e1e1e" text-anchor="middle" style="white-space: pre;" direction="ltr" dominant-baseline="text-before-edge">excution module</text></g><g mask="url(#mask-gFVrjJq6eWhtjg8YcFqka)" stroke-linecap="round"><g transform="translate(1014.7149737796883 510.6391138805511) rotate(0 1.9869564054638431 51.26554403084492)"><path d="M0.58 -0.12 C0.86 17.01, 1.94 85.24, 2.19 102.24 M-0.57 -1.22 C0.06 16.14, 3.68 86.38, 4.54 103.75" stroke="#1e1e1e" stroke-width="1" fill="none"></path></g><g transform="translate(1014.7149737796883 510.6391138805511) rotate(0 1.9869564054638431 51.26554403084492)"><path d="M-7.32 74.96 C-3.33 84.25, 0.08 94.9, 4.46 103.35 M-8.09 75.82 C-3.9 85.93, 0.27 95.24, 5.32 103.44" stroke="#1e1e1e" stroke-width="1" fill="none"></path></g><g transform="translate(1014.7149737796883 510.6391138805511) rotate(0 1.9869564054638431 51.26554403084492)"><path d="M13.17 73.93 C10.14 83.67, 6.53 94.67, 4.46 103.35 M12.4 74.78 C9.73 85.34, 7.04 95, 5.32 103.44" stroke="#1e1e1e" stroke-width="1" fill="none"></path></g></g><mask id="mask-gFVrjJq6eWhtjg8YcFqka"><rect x="0" y="0" fill="#fff" width="1117.599775678401" height="712.9373584136829"></rect><rect x="960.757418979533" y="549.2882361471165" fill="#000" width="110.79991149902344" height="25" opacity="1"></rect></mask><g transform="translate(960.757418979533 549.2882361471165) rotate(0 55.944511205619165 12.616421764279494)"><text x="55.39995574951172" y="0" font-family="Virgil, Segoe UI Emoji" font-size="20px" fill="#1e1e1e" text-anchor="middle" style="white-space: pre;" direction="ltr" dominant-baseline="text-before-edge">NRI struct</text></g><g stroke-linecap="round" transform="translate(33.69590449094301 671.3215654615151) rotate(0 278.57139732724147 100.43218458733327)"><path d="M32 0 M32 0 C203.9 0.65, 375.6 1.13, 525.14 0 M525.14 0 C546.39 -0.41, 557.84 10.43, 557.14 32 M557.14 32 C554.52 80.86, 555.05 128.59, 557.14 168.86 M557.14 168.86 C558.7 189.57, 545.18 199.74, 525.14 200.86 M525.14 200.86 C333.47 200.05, 143.59 199.51, 32 200.86 M32 200.86 C9.01 199.51, 1.87 191.97, 0 168.86 M0 168.86 C-2.59 121.24, -0.75 71.75, 0 32 M0 32 C1.28 10.14, 10.38 1.98, 32 0" stroke="#1e1e1e" stroke-width="1.5" fill="none" stroke-dasharray="8 9"></path></g><g transform="translate(54.112824177100265 679.7948966336871) rotate(0 18.66999053955078 12.5)"><text x="0" y="0" font-family="Virgil, Segoe UI Emoji" font-size="20px" fill="#1e1e1e" text-anchor="start" style="white-space: pre;" direction="ltr" dominant-baseline="text-before-edge">NRI</text></g><g stroke-linecap="round" transform="translate(73.19156283841824 702.6022058658982) rotate(0 112 77)"><path d="M32 0 M32 0 C69.76 -0.34, 108.38 -0.17, 192 0 M32 0 C87.03 1.1, 142.97 1.15, 192 0 M192 0 C214.89 -0.63, 222.7 9.55, 224 32 M192 0 C215.35 -1.79, 222.49 9.29, 224 32 M224 32 C223.22 63.36, 226.76 99.21, 224 122 M224 32 C223.47 64.88, 224.4 96.83, 224 122 M224 122 C225.28 142.81, 213.04 155.98, 192 154 M224 122 C222.17 141.6, 214.64 153.62, 192 154 M192 154 C151.8 154.5, 110.84 154.08, 32 154 M192 154 C130.41 153.2, 69.28 153.62, 32 154 M32 154 C9.27 155.17, 1.45 145.22, 0 122 M32 154 C10.32 152.13, 0.84 144.86, 0 122 M0 122 C-1.02 100.79, 1.51 76.25, 0 32 M0 122 C-0.04 92.04, 0.17 62.22, 0 32 M0 32 C0.9 10.61, 11.39 0.87, 32 0 M0 32 C-1.77 8.93, 11.81 1.96, 32 0" stroke="#1e1e1e" stroke-width="1" fill="none"></path></g><g transform="translate(83.68165988431667 729.6022058658982) rotate(0 101.50990295410156 50)"><text x="101.50990295410156" y="0" font-family="Virgil, Segoe UI Emoji" font-size="20px" fill="#1e1e1e" text-anchor="middle" style="white-space: pre;" direction="ltr" dominant-baseline="text-before-edge">pre-installed plugin A</text><text x="101.50990295410156" y="25" font-family="Virgil, Segoe UI Emoji" font-size="20px" fill="#1e1e1e" text-anchor="middle" style="white-space: pre;" direction="ltr" dominant-baseline="text-before-edge">iSulad child </text><text x="101.50990295410156" y="50" font-family="Virgil, Segoe UI Emoji" font-size="20px" fill="#1e1e1e" text-anchor="middle" style="white-space: pre;" direction="ltr" dominant-baseline="text-before-edge">process，exec by </text><text x="101.50990295410156" y="75" font-family="Virgil, Segoe UI Emoji" font-size="20px" fill="#1e1e1e" text-anchor="middle" style="white-space: pre;" direction="ltr" dominant-baseline="text-before-edge">iSulad</text></g><g stroke-linecap="round" transform="translate(376.0943065508013 746.5292048024885) rotate(0 91 42.5)"><path d="M21.25 0 M21.25 0 C63.18 0.05, 104.67 -1.65, 160.75 0 M21.25 0 C58.51 -0.19, 97.32 -1.17, 160.75 0 M160.75 0 C173.62 -1.12, 183.75 5.53, 182 21.25 M160.75 0 C173.41 -1.38, 183.46 9.34, 182 21.25 M182 21.25 C183.52 35.63, 182.8 47.45, 182 63.75 M182 21.25 C181.55 31.36, 182.23 40.36, 182 63.75 M182 63.75 C181.71 79.89, 173.33 83.49, 160.75 85 M182 63.75 C183.3 77.53, 173.8 84.79, 160.75 85 M160.75 85 C107.47 83.33, 57.23 86.31, 21.25 85 M160.75 85 C123.98 84.9, 86.56 85.28, 21.25 85 M21.25 85 C8.53 86.89, -0.3 76.29, 0 63.75 M21.25 85 C7.92 86.52, -1.19 77.33, 0 63.75 M0 63.75 C1.55 52.65, 0.91 43.14, 0 21.25 M0 63.75 C0.05 49.04, 0.56 34.19, 0 21.25 M0 21.25 C0.72 7.95, 5.54 -1.51, 21.25 0 M0 21.25 C1.14 9.04, 9.25 -0.25, 21.25 0" stroke="#1e1e1e" stroke-width="1" fill="none"></path></g><g transform="translate(386.26438101369195 751.5292048024885) rotate(0 80.82992553710938 37.5)"><text x="80.82992553710938" y="0" font-family="Virgil, Segoe UI Emoji" font-size="20px" fill="#1e1e1e" text-anchor="middle" style="white-space: pre;" direction="ltr" dominant-baseline="text-before-edge">externel plugin N</text><text x="80.82992553710938" y="25" font-family="Virgil, Segoe UI Emoji" font-size="20px" fill="#1e1e1e" text-anchor="middle" style="white-space: pre;" direction="ltr" dominant-baseline="text-before-edge">independent </text><text x="80.82992553710938" y="50" font-family="Virgil, Segoe UI Emoji" font-size="20px" fill="#1e1e1e" text-anchor="middle" style="white-space: pre;" direction="ltr" dominant-baseline="text-before-edge">process</text></g><g transform="translate(321.02218874392844 775.6637918342876) rotate(0 16.43998718261716 12.5)"><text x="0" y="0" font-family="Virgil, Segoe UI Emoji" font-size="20px" fill="#1e1e1e" text-anchor="start" style="white-space: pre;" direction="ltr" dominant-baseline="text-before-edge">......</text></g><g mask="url(#mask-TzMhPrg1Y6BU8WpydeCbn)" stroke-linecap="round"><g transform="translate(377.5008818220156 318.4974021628568) rotate(0 6.69831740004139 171.20370933175946)"><path d="M-1.16 -0.36 C0.09 23.05, 4.72 83.68, 7.34 141.07 C9.96 198.46, 13.12 310.38, 14.55 344 M0.43 -1.6 C2.08 21.43, 7.45 82.06, 9.64 139.34 C11.82 196.62, 12.37 308.02, 13.55 342.08" stroke="#1e1e1e" stroke-width="1" fill="none"></path></g><g transform="translate(377.5008818220156 318.4974021628568) rotate(0 6.69831740004139 171.20370933175946)"><path d="M2.13 312.8 C7.21 321.5, 10.44 331.89, 12.92 340.79 M2.07 313.5 C6.25 321.99, 8.22 327.01, 12.87 343.02" stroke="#1e1e1e" stroke-width="1" fill="none"></path></g><g transform="translate(377.5008818220156 318.4974021628568) rotate(0 6.69831740004139 171.20370933175946)"><path d="M22.64 312.39 C21.82 321.01, 19.13 331.52, 12.92 340.79 M22.59 313.1 C21.77 321.53, 18.73 326.64, 12.87 343.02" stroke="#1e1e1e" stroke-width="1" fill="none"></path></g></g><mask id="mask-TzMhPrg1Y6BU8WpydeCbn"><rect x="0" y="0" fill="#fff" width="492.51785921797364" height="761.6976710017916"></rect><rect x="339.7624572945682" y="446.3281996378264" fill="#000" width="91.71992492675781" height="25" opacity="1"></rect></mask><g transform="translate(339.7624572945682 446.3281996378264) rotate(0 44.436741927488754 43.37291185678987)"><text x="45.859962463378906" y="0" font-family="Virgil, Segoe UI Emoji" font-size="20px" fill="#1e1e1e" text-anchor="middle" style="white-space: pre;" direction="ltr" dominant-baseline="text-before-edge">client req</text></g><g mask="url(#mask-07-pOcmh6vBYG2RZvt4j5)" stroke-linecap="round"><g transform="translate(1151.3727127527818 236.09966947245084) rotate(0 -83.72160061814031 0.983200256269356)"><path d="M-0.78 0.74 C-28.47 1.12, -139.75 1.91, -167.26 1.91 M1.01 0.08 C-26.77 0.16, -140.59 -0.09, -168.45 0.21" stroke="#1e1e1e" stroke-width="1" fill="none"></path></g><g transform="translate(1151.3727127527818 236.09966947245084) rotate(0 -83.72160061814031 0.983200256269356)"><path d="M-139.06 -10.92 C-144.71 -6.67, -152.41 -7.41, -169.57 1.96 M-139.66 -9.16 C-146.65 -8.84, -153.55 -4.77, -167.56 0.79" stroke="#1e1e1e" stroke-width="1" fill="none"></path></g><g transform="translate(1151.3727127527818 236.09966947245084) rotate(0 -83.72160061814031 0.983200256269356)"><path d="M-138.99 9.61 C-144.6 9.68, -152.31 4.76, -169.57 1.96 M-139.59 11.36 C-146.46 7.12, -153.38 6.62, -167.56 0.79" stroke="#1e1e1e" stroke-width="1" fill="none"></path></g></g><mask id="mask-07-pOcmh6vBYG2RZvt4j5"><rect x="0" y="0" fill="#fff" width="1418.1689844890898" height="337.2037947588742"></rect><rect x="1051.0245875657802" y="224.15173211566253" fill="#000" width="33.89997863769531" height="25" opacity="1"></rect></mask><g transform="translate(1051.0245875657802 224.15173211566253) rotate(0 16.626524568861328 12.931137613057672)"><text x="16.949989318847656" y="0" font-family="Virgil, Segoe UI Emoji" font-size="20px" fill="#1e1e1e" text-anchor="middle" style="white-space: pre;" direction="ltr" dominant-baseline="text-before-edge">call</text></g><g stroke-linecap="round" transform="translate(657.7323680295196 118.07174761311762) rotate(0 594.3594657858122 399.82775045465723)"><path d="M32 0 M32 0 C296.53 2.35, 559.73 1.21, 1156.72 0 M1156.72 0 C1176.93 1.75, 1187.16 9.35, 1188.72 32 M1188.72 32 C1190.56 208, 1190.05 386.08, 1188.72 767.66 M1188.72 767.66 C1190.49 790.15, 1179.02 798.21, 1156.72 799.66 M1156.72 799.66 C928.17 799.99, 698.75 799.36, 32 799.66 M32 799.66 C12.64 798.07, -1.51 790.12, 0 767.66 M0 767.66 C2.04 559.28, 1.13 350.61, 0 32 M0 32 C-1.16 12.33, 12.48 -0.73, 32 0" stroke="#1e1e1e" stroke-width="1.5" fill="none" stroke-dasharray="8 9"></path></g><g transform="translate(699.9331835266487 139.04242423466894) rotate(0 52.09197998046875 22.5)"><text x="0" y="0" font-family="Virgil, Segoe UI Emoji" font-size="36px" fill="#1e1e1e" text-anchor="start" style="white-space: pre;" direction="ltr" dominant-baseline="text-before-edge">iSulad</text></g><g stroke-linecap="round" transform="translate(824.2320604200497 784.7965642218423) rotate(0 318.5 30.5)"><path d="M4.06 3.53 C4.06 3.53, 4.06 3.53, 4.06 3.53 M4.06 3.53 C4.06 3.53, 4.06 3.53, 4.06 3.53 M3.14 10.68 C5.1 6.36, 9.45 4.15, 10.36 2.38 M3.14 10.68 C5.48 8.4, 7.59 4.61, 10.36 2.38 M2.22 17.83 C7.22 13.52, 12.59 5.33, 16.66 1.23 M2.22 17.83 C7.06 12.93, 9.75 8.67, 16.66 1.23 M2.62 23.48 C9.39 18.56, 15.76 10.31, 21.64 1.59 M2.62 23.48 C6.18 18.31, 10.22 13.16, 21.64 1.59 M3.01 29.12 C12.14 18.78, 21.1 8.79, 27.29 1.2 M3.01 29.12 C10.68 20.8, 17.79 12.98, 27.29 1.2 M2.75 35.52 C11.29 29.69, 15.95 20.46, 32.27 1.56 M2.75 35.52 C13.27 22.81, 24.28 9.92, 32.27 1.56 M3.15 41.16 C13.51 27.69, 25.24 14.23, 37.92 1.16 M3.15 41.16 C10.52 31.21, 18.16 23.43, 37.92 1.16 M3.54 46.8 C13.85 35.56, 24.32 25.09, 42.9 1.52 M3.54 46.8 C16.29 30.82, 30.05 15.22, 42.9 1.52 M2.62 53.96 C19.84 36.21, 34.68 16.55, 48.55 1.13 M2.62 53.96 C18.05 35.82, 35.4 16.71, 48.55 1.13 M4.99 57.34 C20.91 40.92, 35.31 22.98, 53.53 1.49 M4.99 57.34 C22.74 38.24, 41.2 17.62, 53.53 1.49 M7.35 60.71 C20.42 45.67, 32.41 33.49, 59.18 1.09 M7.35 60.71 C27.75 37.78, 48.56 14.86, 59.18 1.09 M12.34 61.07 C29.15 40.27, 46.78 20.61, 64.16 1.45 M12.34 61.07 C31.94 37.36, 53.41 15.17, 64.16 1.45 M17.32 61.43 C31.25 42.48, 45.93 25.94, 69.81 1.06 M17.32 61.43 C34.45 40.92, 52.35 22.23, 69.81 1.06 M22.97 61.04 C38.5 44, 56.92 22.78, 74.79 1.42 M22.97 61.04 C38.96 42.03, 56.72 21.31, 74.79 1.42 M27.95 61.4 C39.95 50.55, 51.51 36.02, 80.44 1.02 M27.95 61.4 C45.43 42.59, 62.15 22.23, 80.44 1.02 M33.6 61.01 C45.05 49.3, 56.49 36.38, 85.43 1.38 M33.6 61.01 C53.89 38.32, 74.25 14.99, 85.43 1.38 M38.58 61.37 C57.07 39.69, 78.89 15.75, 91.07 0.99 M38.58 61.37 C58.02 39.35, 77.82 16.64, 91.07 0.99 M44.23 60.97 C61.28 41.09, 77.37 25.59, 96.06 1.35 M44.23 60.97 C59.63 44.53, 72.99 26.23, 96.06 1.35 M49.21 61.33 C63.23 43.21, 79.95 27.49, 101.7 0.95 M49.21 61.33 C65.28 43.76, 80.36 27.26, 101.7 0.95 M54.86 60.94 C65.52 49.37, 77.72 35.78, 106.69 1.31 M54.86 60.94 C69.62 43.95, 84.53 27.98, 106.69 1.31 M59.84 61.3 C71.75 47.86, 83.51 33.02, 112.33 0.92 M59.84 61.3 C76.76 42.35, 92.37 23.43, 112.33 0.92 M65.49 60.9 C80.57 45.57, 90.67 30.32, 117.32 1.28 M65.49 60.9 C84.01 38.56, 103.74 17.41, 117.32 1.28 M70.47 61.26 C87.67 42.32, 104.12 18.69, 122.3 1.64 M70.47 61.26 C88.23 41.4, 103.67 22.27, 122.3 1.64 M75.46 61.62 C94.22 43.7, 109.32 23.04, 127.95 1.25 M75.46 61.62 C87.12 49.65, 98.4 36.47, 127.95 1.25 M81.1 61.23 C98.06 41.6, 116.22 18.89, 132.93 1.61 M81.1 61.23 C99.26 38.83, 119.03 15.49, 132.93 1.61 M86.09 61.59 C106.17 40.51, 125.5 15.57, 138.58 1.21 M86.09 61.59 C99.38 46.66, 112.41 31.61, 138.58 1.21 M91.73 61.19 C106.27 43.86, 117.19 30.05, 143.56 1.57 M91.73 61.19 C113.78 38.42, 132.8 13.01, 143.56 1.57 M96.72 61.55 C115.68 40.59, 134.62 17.06, 149.21 1.18 M96.72 61.55 C109.96 48.56, 122.58 33.94, 149.21 1.18 M102.36 61.16 C116.57 43.94, 130.07 31.47, 154.19 1.54 M102.36 61.16 C117.86 42.99, 133.74 25.26, 154.19 1.54 M107.35 61.52 C122.27 43.22, 139.65 27.86, 159.84 1.14 M107.35 61.52 C119.6 49.51, 128.97 35.55, 159.84 1.14 M112.99 61.12 C123.23 47.3, 135.86 35.29, 164.82 1.5 M112.99 61.12 C126.12 45.82, 139.7 30.89, 164.82 1.5 M117.98 61.48 C138.54 37.79, 158.61 14.64, 170.47 1.11 M117.98 61.48 C137.4 39.43, 157.38 15.95, 170.47 1.11 M123.62 61.09 C143.24 38.26, 161.24 18.93, 175.45 1.47 M123.62 61.09 C133.88 49.44, 144.97 35.4, 175.45 1.47 M128.61 61.45 C146.58 41.17, 163.01 24.08, 181.1 1.07 M128.61 61.45 C139.56 48.26, 152.09 34.62, 181.1 1.07 M134.25 61.05 C148.07 47.62, 158.58 32.36, 186.08 1.43 M134.25 61.05 C153.08 38.63, 170.99 18.37, 186.08 1.43 M139.24 61.41 C155.76 40.17, 174.58 20.89, 191.73 1.04 M139.24 61.41 C160.67 38.28, 181.71 14.63, 191.73 1.04 M144.88 61.02 C162.21 42.28, 175.34 24.33, 196.71 1.4 M144.88 61.02 C162.8 41.37, 179.34 19.99, 196.71 1.4 M149.87 61.38 C170.23 39.13, 192.34 15.75, 202.36 1 M149.87 61.38 C162.96 47.19, 174.37 32.64, 202.36 1 M155.51 60.99 C176.21 38.59, 196.26 15.07, 207.34 1.36 M155.51 60.99 C173.47 40.14, 194.22 16.89, 207.34 1.36 M160.5 61.35 C183.13 38.45, 203.77 11.7, 212.99 0.97 M160.5 61.35 C171.86 47.84, 183.28 35.75, 212.99 0.97 M166.14 60.95 C185.81 40.73, 203.88 18.99, 217.97 1.33 M166.14 60.95 C181.02 42.51, 198.7 24.36, 217.97 1.33 M171.13 61.31 C190.17 41.78, 206.39 19.34, 223.62 0.93 M171.13 61.31 C187.99 41.28, 206.76 21.1, 223.62 0.93 M176.77 60.92 C193.84 42.59, 212.48 22.62, 228.6 1.29 M176.77 60.92 C190.42 46.56, 201.4 31.93, 228.6 1.29 M181.76 61.28 C201.11 38.33, 221.49 15.35, 233.59 1.65 M181.76 61.28 C198.32 42.58, 213.68 23.88, 233.59 1.65 M186.75 61.64 C200.27 43.4, 215.93 27.87, 239.23 1.26 M186.75 61.64 C199.57 45.12, 214.19 29.41, 239.23 1.26 M192.39 61.24 C210.43 38.61, 230.32 17.26, 244.22 1.62 M192.39 61.24 C210.46 38.77, 230.5 16.1, 244.22 1.62 M197.38 61.6 C214.06 45.44, 225.21 26.68, 249.86 1.23 M197.38 61.6 C212.95 42.6, 230.79 24.35, 249.86 1.23 M203.02 61.21 C220.96 38.34, 239.7 16.96, 254.85 1.59 M203.02 61.21 C217.22 43.32, 232.35 26.52, 254.85 1.59 M208.01 61.57 C221.48 50.46, 228.97 36.13, 260.49 1.19 M208.01 61.57 C224.55 41.4, 240.98 21.51, 260.49 1.19 M213.65 61.17 C226.32 49.09, 236.56 34.15, 265.48 1.55 M213.65 61.17 C232.6 41.54, 249.83 19.43, 265.48 1.55 M218.64 61.53 C230.13 46.14, 244.22 33.69, 271.12 1.16 M218.64 61.53 C232.33 44.78, 246.54 28.33, 271.12 1.16 M224.28 61.14 C237.83 43.75, 253.69 26.33, 276.11 1.52 M224.28 61.14 C241.72 41.26, 258.89 21.12, 276.11 1.52 M229.27 61.5 C242.29 47.18, 254.35 34.23, 281.75 1.12 M229.27 61.5 C247.78 41.11, 265.39 21.02, 281.75 1.12 M234.91 61.1 C247.89 45.35, 261.35 33.25, 286.74 1.48 M234.91 61.1 C254.7 38.24, 274.16 15.6, 286.74 1.48 M239.9 61.46 C253.07 43.8, 268.3 30.45, 292.38 1.09 M239.9 61.46 C257.69 41.2, 273.93 21.99, 292.38 1.09 M245.54 61.07 C262.19 41.23, 275.25 23.41, 297.37 1.45 M245.54 61.07 C263.57 41, 280.72 19.26, 297.37 1.45 M250.53 61.43 C261.86 45.18, 273.56 32.32, 303.01 1.05 M250.53 61.43 C266.39 43.07, 282.73 24.53, 303.01 1.05 M256.17 61.04 C269.84 47.9, 277.29 34.7, 308 1.41 M256.17 61.04 C276.12 38.89, 297.16 15.11, 308 1.41 M261.16 61.4 C272.54 48.05, 286.81 31.62, 313.64 1.02 M261.16 61.4 C277.26 44.05, 291.58 24.87, 313.64 1.02 M266.8 61 C277.68 47.21, 291.24 34.79, 318.63 1.38 M266.8 61 C286.47 35.99, 306.96 12.46, 318.63 1.38 M271.79 61.36 C290.51 39.85, 308.44 21.2, 324.27 0.98 M271.79 61.36 C291.97 37.83, 312.67 15.3, 324.27 0.98 M277.43 60.97 C285.92 51.08, 297.01 37.6, 329.26 1.34 M277.43 60.97 C297.77 38.28, 317.9 14.28, 329.26 1.34 M282.42 61.33 C304.81 38.26, 324.53 14.78, 334.25 1.7 M282.42 61.33 C296.86 45.58, 311.84 27.65, 334.25 1.7 M287.41 61.69 C307.33 40.34, 327.46 14.16, 339.89 1.31 M287.41 61.69 C304.56 42.91, 320.38 24.1, 339.89 1.31 M293.05 61.29 C308.9 42.57, 328.55 21.06, 344.88 1.67 M293.05 61.29 C309.74 44.07, 324.63 26.13, 344.88 1.67 M298.04 61.65 C313.7 45.46, 327.69 26.07, 350.52 1.28 M298.04 61.65 C308.9 47.47, 320.91 34.45, 350.52 1.28 M303.68 61.26 C317.81 44.91, 333.91 24.85, 355.51 1.64 M303.68 61.26 C322.75 38.09, 343.44 17.51, 355.51 1.64 M308.67 61.62 C321.37 47.58, 337.2 29.2, 361.15 1.24 M308.67 61.62 C322.38 45.71, 335.71 28.75, 361.15 1.24 M314.31 61.22 C328.01 47.67, 339.58 31.14, 366.14 1.6 M314.31 61.22 C328.95 44.42, 343.59 27.86, 366.14 1.6 M319.3 61.58 C329.65 47.7, 344.74 31.87, 371.78 1.21 M319.3 61.58 C339.9 37.7, 358.45 16.81, 371.78 1.21 M324.94 61.19 C338.33 50.05, 347.48 36.14, 376.77 1.57 M324.94 61.19 C345.92 37.25, 366.24 12.58, 376.77 1.57 M329.93 61.55 C341.59 49, 354.35 32.89, 382.41 1.17 M329.93 61.55 C348.54 39.51, 367.9 18.18, 382.41 1.17 M335.57 61.15 C355.56 38.06, 376.18 17.19, 387.4 1.53 M335.57 61.15 C352.86 40.96, 370.74 20.65, 387.4 1.53 M340.56 61.51 C356.43 45.89, 369.69 30.6, 393.04 1.14 M340.56 61.51 C359.45 38.66, 380.75 15.45, 393.04 1.14 M346.2 61.12 C361.31 44.18, 374.26 28.17, 398.03 1.5 M346.2 61.12 C363.49 40.3, 380.27 19.34, 398.03 1.5 M351.19 61.48 C368.79 40.05, 389.31 18.89, 403.67 1.1 M351.19 61.48 C365.42 44.82, 379.78 29.08, 403.67 1.1 M356.83 61.09 C370.68 44.99, 385.82 29.75, 408.66 1.46 M356.83 61.09 C369.05 46.3, 382.88 31.76, 408.66 1.46 M361.82 61.45 C381.38 38.35, 400.8 17.27, 414.3 1.07 M361.82 61.45 C375.7 46.12, 388.1 29.64, 414.3 1.07 M367.46 61.05 C379.6 49.48, 387.05 37.03, 419.29 1.43 M367.46 61.05 C384.97 41.29, 401.69 22.18, 419.29 1.43 M372.45 61.41 C385.91 43.96, 400.23 29.79, 424.93 1.03 M372.45 61.41 C385.23 47.78, 396.92 34.53, 424.93 1.03 M378.09 61.02 C393.5 43.66, 412.96 24.66, 429.92 1.39 M378.09 61.02 C394.2 43.85, 408.4 26.53, 429.92 1.39 M383.08 61.38 C397.42 43.4, 415.28 24.29, 434.91 1.75 M383.08 61.38 C393.94 48.72, 405.68 34.65, 434.91 1.75 M388.06 61.74 C402.2 47.52, 414.32 31.14, 440.55 1.36 M388.06 61.74 C401.02 45.43, 415.02 31.33, 440.55 1.36 M393.71 61.34 C409.12 40.84, 424.4 26.03, 445.54 1.72 M393.71 61.34 C412.76 39.51, 432.55 17.86, 445.54 1.72 M398.69 61.7 C415.69 40.38, 433.35 21.38, 451.18 1.33 M398.69 61.7 C417.04 42.2, 434.66 19.98, 451.18 1.33 M404.34 61.31 C415.86 47.28, 425.08 36.02, 456.17 1.69 M404.34 61.31 C424.94 38.56, 443.82 15.84, 456.17 1.69 M409.32 61.67 C424.36 43.9, 436.13 28.39, 461.81 1.29 M409.32 61.67 C425.76 42.17, 443.96 20.94, 461.81 1.29 M414.97 61.27 C430.84 45.89, 443.13 31.62, 466.8 1.65 M414.97 61.27 C429.26 46.21, 441.12 31.84, 466.8 1.65 M419.95 61.63 C433.24 46.81, 444.9 34.6, 472.44 1.26 M419.95 61.63 C440.8 37.13, 462.66 14.15, 472.44 1.26 M425.6 61.24 C439.87 45.9, 455.74 28.45, 477.43 1.62 M425.6 61.24 C439.14 44.61, 454.41 28.72, 477.43 1.62 M430.58 61.6 C449.73 41.64, 470.45 16.58, 483.07 1.22 M430.58 61.6 C448.6 40.3, 466.49 18.89, 483.07 1.22 M436.23 61.2 C455.68 42.85, 472.81 20.81, 488.06 1.58 M436.23 61.2 C453.07 42.65, 468.95 23.6, 488.06 1.58 M441.21 61.56 C460.14 41.72, 475.78 22.2, 493.7 1.19 M441.21 61.56 C453.61 47.98, 463.8 35.04, 493.7 1.19 M446.86 61.17 C466.01 39.46, 484.35 18.44, 498.69 1.55 M446.86 61.17 C463.4 41.93, 479.17 22.04, 498.69 1.55 M451.84 61.53 C468.63 41.02, 483.4 22.07, 504.33 1.15 M451.84 61.53 C465.01 46.81, 476.34 32.47, 504.33 1.15 M457.49 61.13 C470.37 45.69, 483.59 34.67, 509.32 1.51 M457.49 61.13 C477.12 38.95, 497.44 14.23, 509.32 1.51 M462.47 61.49 C475.58 47.29, 487.81 34.99, 514.96 1.12 M462.47 61.49 C478.47 43.85, 493.49 25.31, 514.96 1.12 M468.12 61.1 C484.76 39.98, 504.45 19.73, 519.95 1.48 M468.12 61.1 C485.09 42.93, 500.62 22.65, 519.95 1.48 M473.1 61.46 C490.29 40.96, 507.64 22.65, 525.59 1.08 M473.1 61.46 C488.68 43.39, 503.8 26.55, 525.59 1.08 M478.75 61.07 C491.49 43.54, 505.14 30.68, 530.58 1.44 M478.75 61.07 C489.59 45.94, 502.65 32.48, 530.58 1.44 M483.74 61.43 C503.19 39.56, 519.63 18.59, 535.56 1.8 M483.74 61.43 C498.92 43.25, 514.88 24.61, 535.56 1.8 M488.72 61.79 C508.06 37.79, 528.27 17.11, 541.21 1.41 M488.72 61.79 C499.02 50.53, 508.66 36.83, 541.21 1.41 M494.37 61.39 C505.11 47.45, 518.45 32.55, 546.19 1.77 M494.37 61.39 C509.24 42.83, 525.32 24.49, 546.19 1.77 M499.35 61.75 C517.11 36.49, 538.79 13.87, 551.84 1.37 M499.35 61.75 C518.51 38, 539.59 15.66, 551.84 1.37 M505 61.36 C514.89 49.66, 525.09 38.16, 556.82 1.73 M505 61.36 C516.96 46.49, 530.6 32.52, 556.82 1.73 M509.98 61.72 C526.92 42.45, 540.2 24.47, 562.47 1.34 M509.98 61.72 C524.37 44.62, 539.33 29.34, 562.47 1.34 M515.63 61.32 C525.21 47.55, 538.49 35.35, 567.45 1.7 M515.63 61.32 C530.62 42.85, 546.1 26.81, 567.45 1.7 M520.61 61.68 C534.44 47.05, 547.97 33.5, 573.1 1.31 M520.61 61.68 C535.67 43.44, 551.8 26.55, 573.1 1.31 M526.26 61.29 C544.31 43.3, 561.78 23.25, 578.08 1.67 M526.26 61.29 C540.69 46.55, 554.51 29.06, 578.08 1.67 M531.24 61.65 C546.78 41.76, 567.26 21.96, 583.73 1.27 M531.24 61.65 C549.94 39.56, 569.27 15.9, 583.73 1.27 M536.89 61.25 C554.01 41.76, 575.64 17.84, 588.71 1.63 M536.89 61.25 C556.57 37.72, 576.34 16.31, 588.71 1.63 M541.87 61.61 C556.3 41.65, 574.88 22.87, 594.36 1.24 M541.87 61.61 C560.5 38.89, 580.71 16.47, 594.36 1.24 M547.52 61.22 C562.09 45.48, 575.27 27.18, 599.34 1.6 M547.52 61.22 C562.85 43.66, 576.34 28.22, 599.34 1.6 M552.5 61.58 C573.67 37.73, 590.5 17.37, 604.99 1.2 M552.5 61.58 C567.38 43.04, 583.17 26.77, 604.99 1.2 M558.15 61.18 C575.86 39.89, 594.46 20.64, 609.97 1.56 M558.15 61.18 C570.25 46.09, 582.57 32.8, 609.97 1.56 M563.13 61.54 C577.97 44.39, 596.63 22.41, 615.62 1.17 M563.13 61.54 C574.92 48.44, 587.45 35.71, 615.62 1.17 M568.78 61.15 C584.67 40.07, 602.55 23.38, 620.6 1.53 M568.78 61.15 C586.97 41.02, 604.39 19.98, 620.6 1.53 M573.76 61.51 C591.09 40.18, 611.08 15.26, 626.25 1.13 M573.76 61.51 C592.96 39.18, 613.22 15.5, 626.25 1.13 M579.41 61.12 C597.68 37.4, 619.24 15.86, 629.92 3 M579.41 61.12 C594.72 43.06, 609.64 26.29, 629.92 3 M584.39 61.48 C594.98 48.64, 607.11 35.39, 634.25 4.12 M584.39 61.48 C600.41 41.52, 617.74 23.5, 634.25 4.12 M590.04 61.08 C604.48 43.98, 620.51 25.49, 635.96 8.25 M590.04 61.08 C602.7 48.19, 614.61 33.36, 635.96 8.25 M595.02 61.44 C609.84 43.13, 625.08 24.81, 638.98 10.88 M595.02 61.44 C609.4 45.4, 625.05 27.4, 638.98 10.88 M600.01 61.8 C613.9 45.8, 632.41 28.25, 638.72 17.27 M600.01 61.8 C613.49 46.6, 628.09 29.91, 638.72 17.27 M605.65 61.41 C616.43 52.53, 624.12 42.01, 639.11 22.92 M605.65 61.41 C618.85 46.89, 631.32 32.04, 639.11 22.92 M610.64 61.77 C617.72 54.49, 626.14 46.54, 638.85 29.31 M610.64 61.77 C621.74 49.5, 632.59 36.67, 638.85 29.31 M616.28 61.37 C624.38 51.13, 632.81 44.49, 639.25 34.96 M616.28 61.37 C625.51 50.47, 633.36 41.86, 639.25 34.96 M621.93 60.98 C628.17 53.53, 633.45 46.52, 639.64 40.6 M621.93 60.98 C627.07 54.13, 634.41 47.43, 639.64 40.6 M627.57 60.58 C631.6 55.8, 634.5 53.18, 637.41 49.26 M627.57 60.58 C631.51 56.08, 635.11 52.46, 637.41 49.26" stroke="#a5d8ff" stroke-width="0.5" fill="none"></path><path d="M15.25 0 M15.25 0 C189.47 -0.25, 365.34 0.58, 621.75 0 M15.25 0 C147.92 0.13, 280.15 0.06, 621.75 0 M621.75 0 C630.79 0.19, 636.55 6.25, 637 15.25 M621.75 0 C631.79 0.03, 634.99 5.73, 637 15.25 M637 15.25 C638.01 26.61, 637.52 36.4, 637 45.75 M637 15.25 C637.96 22.88, 636.5 31.75, 637 45.75 M637 45.75 C635.8 57.12, 631.08 60.21, 621.75 61 M637 45.75 C635.31 58.1, 632.35 60.56, 621.75 61 M621.75 61 C447.81 57.84, 273.67 58.05, 15.25 61 M621.75 61 C473.43 63.12, 325.37 62.88, 15.25 61 M15.25 61 C3.47 61.3, -0.25 54.25, 0 45.75 M15.25 61 C4.29 59.32, 1.81 55.84, 0 45.75 M0 45.75 C0.82 37.62, -1.4 31.65, 0 15.25 M0 45.75 C0.1 36.48, -0.4 27.08, 0 15.25 M0 15.25 C0.59 5.81, 5.1 0.18, 15.25 0 M0 15.25 C-0.73 6.64, 5.11 -2.23, 15.25 0" stroke="#1e1e1e" stroke-width="1" fill="none"></path></g><g transform="translate(1112.6220903272763 802.7965642218423) rotate(0 30.109970092773438 12.5)"><text x="30.109970092773438" y="0" font-family="Virgil, Segoe UI Emoji" font-size="20px" fill="#1e1e1e" text-anchor="middle" style="white-space: pre;" direction="ltr" dominant-baseline="text-before-edge">plugin </text></g><g stroke-linecap="round" transform="translate(10 131.4823844339371) rotate(0 269.66662597656256 116.06928877397013)"><path d="M32 0 M32 0 C143.1 -2.42, 255.05 -1.28, 507.33 0 M32 0 C220.97 2.15, 410.94 1.99, 507.33 0 M507.33 0 C529.64 -1.44, 537.4 12.02, 539.33 32 M507.33 0 C528.57 0.97, 540.81 10.06, 539.33 32 M539.33 32 C539.48 81.14, 540.66 127.04, 539.33 200.14 M539.33 32 C540.26 80.58, 540.05 130.67, 539.33 200.14 M539.33 200.14 C541.15 220.74, 528.19 231.7, 507.33 232.14 M539.33 200.14 C539.26 221.94, 527.06 233.48, 507.33 232.14 M507.33 232.14 C329.58 232.14, 153.84 231.37, 32 232.14 M507.33 232.14 C377.12 231.11, 246.17 230.97, 32 232.14 M32 232.14 C10.16 233.09, -0.54 221.4, 0 200.14 M32 232.14 C10.53 232.28, 1.04 221.41, 0 200.14 M0 200.14 C-2.24 144.6, 0.97 88.97, 0 32 M0 200.14 C-0.44 150.74, -0.93 102.76, 0 32 M0 32 C-1.79 10.41, 11.22 0.36, 32 0 M0 32 C-0.65 9.56, 10.13 -0.72, 32 0" stroke="#1e1e1e" stroke-width="1" fill="none"></path></g><g transform="translate(20.242077341672996 141.64298369524386) rotate(0 102.01988220214844 12.5)"><text x="102.01988220214844" y="0" font-family="Virgil, Segoe UI Emoji" font-size="20px" fill="#1e1e1e" text-anchor="middle" style="white-space: pre;" direction="ltr" dominant-baseline="text-before-edge">isula-rust-extensions</text></g><g stroke-linecap="round" transform="translate(62.108766233767824 181.322216293971) rotate(0 90 62.5)"><path d="M7.66 7.99 C7.66 7.99, 7.66 7.99, 7.66 7.99 M7.66 7.99 C7.66 7.99, 7.66 7.99, 7.66 7.99 M3.46 18.91 C7.14 13.62, 13.91 7.4, 17.9 2.31 M3.46 18.91 C6.12 15.12, 10.62 11.5, 17.9 2.31 M2.55 26.06 C10 21.45, 13.3 12.59, 24.2 1.16 M2.55 26.06 C7.88 19.68, 15.32 13.11, 24.2 1.16 M2.94 31.71 C12.18 21.76, 18.01 12.71, 29.84 0.76 M2.94 31.71 C8.63 24.51, 15.29 17.3, 29.84 0.76 M2.68 38.1 C11.42 29.13, 19.85 19.05, 34.17 1.88 M2.68 38.1 C14.27 26.75, 25.53 13.36, 34.17 1.88 M2.42 44.5 C12.03 29.96, 24.81 16.49, 39.16 2.24 M2.42 44.5 C12.57 31.82, 23.16 19.86, 39.16 2.24 M2.81 50.15 C15.5 37.59, 22.8 25.3, 44.14 2.6 M2.81 50.15 C15.11 35.62, 28.35 21.3, 44.14 2.6 M2.55 56.54 C20.3 35.71, 35.87 16.6, 49.79 2.2 M2.55 56.54 C14.29 42.28, 28.36 26.77, 49.79 2.2 M2.95 62.19 C16.16 46.6, 28.28 35.32, 54.77 2.56 M2.95 62.19 C14.22 50.57, 24.64 38.08, 54.77 2.56 M2.68 68.58 C21.28 45.95, 43.45 25.19, 60.42 2.17 M2.68 68.58 C22.38 47.75, 40.02 26.34, 60.42 2.17 M2.42 74.98 C18.29 54.74, 37.91 34.94, 65.4 2.53 M2.42 74.98 C27.64 46.17, 51.87 17.52, 65.4 2.53 M2.82 80.63 C22.63 55.38, 42.46 34.09, 71.05 2.14 M2.82 80.63 C28.36 49.73, 54.46 19.28, 71.05 2.14 M2.56 87.02 C19.93 64.96, 37.73 44.77, 76.04 2.5 M2.56 87.02 C29.28 56.08, 56.97 26.36, 76.04 2.5 M2.95 92.67 C17.35 72.46, 35.2 55.47, 81.68 2.1 M2.95 92.67 C20.22 73.38, 39.13 53.73, 81.68 2.1 M0.72 101.33 C22.74 76.9, 46.48 50.71, 86.67 2.46 M0.72 101.33 C28.09 69.93, 56.76 38.48, 86.67 2.46 M1.77 106.22 C31.22 71.1, 63.16 36.24, 92.31 2.07 M1.77 106.22 C21.07 82.19, 41.68 60.21, 92.31 2.07 M4.13 109.6 C27.61 83.61, 49.94 58.46, 97.3 2.43 M4.13 109.6 C39.63 69.35, 73.68 29.03, 97.3 2.43 M6.5 112.97 C41.99 75.13, 76.28 33.38, 102.94 2.03 M6.5 112.97 C25.9 89.59, 45.49 67.73, 102.94 2.03 M8.2 117.11 C43.79 77.46, 79.88 35.77, 107.93 2.39 M8.2 117.11 C48.57 71.87, 88.08 27.32, 107.93 2.39 M11.22 119.73 C52.18 74.94, 90.12 30.58, 113.57 2 M11.22 119.73 C51.71 73.8, 92.88 27.25, 113.57 2 M14.9 121.6 C34.94 96.53, 58.52 68.86, 118.56 2.36 M14.9 121.6 C49.31 83.14, 83.56 42.28, 118.56 2.36 M18.57 123.47 C52.22 85.56, 82.32 50.16, 124.2 1.96 M18.57 123.47 C45.8 92.79, 72.74 61.28, 124.2 1.96 M22.9 124.59 C47.46 100.28, 68.18 71.38, 129.19 2.32 M22.9 124.59 C52.63 90.92, 83.43 55.43, 129.19 2.32 M27.89 124.95 C64.71 83.39, 104.07 41.09, 134.83 1.93 M27.89 124.95 C54.79 92.99, 82.92 61.44, 134.83 1.93 M32.22 126.06 C55.43 95.9, 79.34 68.87, 139.82 2.29 M32.22 126.06 C59.88 93.44, 88.75 60.77, 139.82 2.29 M37.86 125.67 C61.76 96.74, 88.64 67.17, 145.46 1.89 M37.86 125.67 C70.57 87.89, 103.02 48.75, 145.46 1.89 M42.85 126.03 C73.07 91.24, 108.18 50.48, 151.1 1.5 M42.85 126.03 C64.98 99.67, 87.78 73.73, 151.1 1.5 M48.5 125.63 C73.25 98.86, 100.79 70.99, 155.43 2.61 M48.5 125.63 C82.03 87.48, 115.7 48.46, 155.43 2.61 M53.48 125.99 C92.26 80.39, 131.34 35.68, 160.42 2.97 M53.48 125.99 C93.47 79.99, 133.4 34.95, 160.42 2.97 M59.13 125.6 C95.88 86.78, 133.12 42.28, 164.75 4.09 M59.13 125.6 C83.94 95.63, 109.42 67.42, 164.75 4.09 M64.11 125.96 C101.61 85.28, 135.9 45.44, 168.43 5.96 M64.11 125.96 C98.05 85.6, 134 44.5, 168.43 5.96 M69.76 125.56 C96.88 93.15, 125.56 61.96, 172.1 7.83 M69.76 125.56 C91.17 98.5, 114.83 71.1, 172.1 7.83 M74.74 125.92 C114.34 79.66, 155.54 35.03, 175.12 10.45 M74.74 125.92 C94.74 103.2, 115.43 79.24, 175.12 10.45 M79.73 126.28 C107.63 92.62, 136.58 62.12, 177.48 13.83 M79.73 126.28 C107.12 95.52, 135.03 63.28, 177.48 13.83 M85.37 125.89 C113.17 92.61, 140.98 57.29, 179.19 17.97 M85.37 125.89 C122.89 82.49, 159.38 40.02, 179.19 17.97 M90.36 126.25 C122.3 91.05, 154.8 55.28, 179.58 23.61 M90.36 126.25 C125.06 86.37, 160.53 44.33, 179.58 23.61 M96 125.85 C121 96.62, 148.34 64.7, 180.63 28.5 M96 125.85 C116.91 100.7, 138.94 76.71, 180.63 28.5 M100.99 126.21 C132.04 91.14, 164.19 52.95, 182.34 32.63 M100.99 126.21 C117.19 107.57, 134.49 88.17, 182.34 32.63 M106.63 125.82 C121.59 103.73, 142.03 87.09, 182.08 39.03 M106.63 125.82 C124.13 105.23, 143.31 83.82, 182.08 39.03 M111.62 126.18 C128.67 108.48, 142.92 90.74, 181.82 45.43 M111.62 126.18 C137.06 95.86, 164.59 65.07, 181.82 45.43 M117.26 125.79 C141.57 97.29, 163.88 74.16, 182.21 51.07 M117.26 125.79 C140.91 99.96, 163.9 72.66, 182.21 51.07 M122.25 126.15 C135.66 110.52, 148.46 98.15, 181.95 57.47 M122.25 126.15 C144.3 100.59, 166.71 76.07, 181.95 57.47 M127.89 125.75 C149.82 104.23, 169.89 77.58, 181.69 63.86 M127.89 125.75 C142.69 106.85, 159.63 88.4, 181.69 63.86 M132.88 126.11 C146.28 112.72, 157.93 96.89, 182.08 69.51 M132.88 126.11 C146.88 110, 159.44 95.05, 182.08 69.51 M138.52 125.72 C148.97 111.91, 158.82 101.02, 181.82 75.91 M138.52 125.72 C152.36 109.53, 165.26 94.17, 181.82 75.91 M143.51 126.08 C156.12 107.98, 170.33 93.13, 181.56 82.3 M143.51 126.08 C153.2 117.04, 161.57 105.26, 181.56 82.3 M149.15 125.68 C157.49 113.01, 167.44 104.78, 181.96 87.95 M149.15 125.68 C160.76 112.35, 170.85 99.42, 181.96 87.95 M155.45 124.53 C165.12 114.49, 170.95 105.61, 181.69 94.34 M155.45 124.53 C164.25 114.89, 175.07 102.27, 181.69 94.34 M161.1 124.14 C168.56 116.87, 172.72 108.73, 180.12 102.25 M161.1 124.14 C165.57 118.81, 171.85 112.22, 180.12 102.25" stroke="#a5d8ff" stroke-width="0.5" fill="none"></path><path d="M31.25 0 M31.25 0 C69.23 2.46, 107.5 1.51, 148.75 0 M31.25 0 C56.85 -0.14, 82.56 0.69, 148.75 0 M148.75 0 C170.15 -0.62, 178.24 12.13, 180 31.25 M148.75 0 C167.39 -0.16, 178.02 9.78, 180 31.25 M180 31.25 C178.14 48.11, 179.5 64.84, 180 93.75 M180 31.25 C179.34 51.46, 179.44 71.56, 180 93.75 M180 93.75 C178.84 115.33, 167.69 125.54, 148.75 125 M180 93.75 C179.78 114.44, 171.29 125.81, 148.75 125 M148.75 125 C119.21 126.91, 90.4 124.62, 31.25 125 M148.75 125 C110.16 125.77, 73.4 126.03, 31.25 125 M31.25 125 C10.42 126.6, 0.12 115.07, 0 93.75 M31.25 125 C9.92 125.7, -0.98 112.66, 0 93.75 M0 93.75 C1.16 70.61, 0.99 48.35, 0 31.25 M0 93.75 C-1.15 80.78, -0.48 65.91, 0 31.25 M0 31.25 C1.97 11.48, 8.67 -1.15, 31.25 0 M0 31.25 C-2.29 11.4, 11.78 0, 31.25 0" stroke="#1e1e1e" stroke-width="1" fill="none"></path></g><g transform="translate(76.57883611902173 231.322216293971) rotate(0 75.5299301147461 12.5)"><text x="75.5299301147461" y="0" font-family="Virgil, Segoe UI Emoji" font-size="20px" fill="#1e1e1e" text-anchor="middle" style="white-space: pre;" direction="ltr" dominant-baseline="text-before-edge">Runtime Service</text></g><g stroke-linecap="round" transform="translate(299.10147425003186 176.2622602621841) rotate(0 108.5 67)"><path d="M7.86 8.16 C7.86 8.16, 7.86 8.16, 7.86 8.16 M7.86 8.16 C7.86 8.16, 7.86 8.16, 7.86 8.16 M3.66 19.09 C10.94 11.47, 12.71 8.15, 18.1 2.48 M3.66 19.09 C8.6 14.41, 11.55 9.35, 18.1 2.48 M2.75 26.24 C7.05 19.53, 12.59 13.92, 24.4 1.33 M2.75 26.24 C10.58 19.08, 16.63 9.35, 24.4 1.33 M2.48 32.64 C11.25 20.59, 20.01 12.07, 30.7 0.18 M2.48 32.64 C12.67 21.2, 22.93 8.87, 30.7 0.18 M2.88 38.28 C12.06 28.21, 22.24 15.29, 34.37 2.05 M2.88 38.28 C10.71 29.77, 16.95 22.53, 34.37 2.05 M2.62 44.68 C12.91 31.51, 22.93 22.2, 39.36 2.41 M2.62 44.68 C14.19 31.09, 25.71 17.15, 39.36 2.41 M2.36 51.07 C15.62 33.34, 33.03 14.57, 45 2.02 M2.36 51.07 C18.19 33.61, 34.24 15.72, 45 2.02 M2.75 56.72 C19.25 36.62, 36.38 18.33, 49.99 2.38 M2.75 56.72 C16.33 41.54, 28.64 27.08, 49.99 2.38 M2.49 63.11 C14.16 51.93, 23.78 36.73, 55.63 1.98 M2.49 63.11 C16.1 47.45, 29.24 32.72, 55.63 1.98 M2.88 68.76 C17.04 56.34, 28.27 39.03, 60.62 2.34 M2.88 68.76 C18.2 50.46, 35.11 31.73, 60.62 2.34 M2.62 75.16 C27.09 49.33, 51.77 21.9, 66.26 1.95 M2.62 75.16 C16.49 58.39, 31.19 43.14, 66.26 1.95 M2.36 81.55 C19.7 61.9, 40.1 40.52, 71.25 2.31 M2.36 81.55 C23.87 56.01, 46.17 32.02, 71.25 2.31 M2.76 87.2 C18.89 67.54, 38.73 48.36, 76.89 1.91 M2.76 87.2 C21.79 67.33, 38.61 45.55, 76.89 1.91 M2.49 93.59 C33.59 59.81, 61.35 23.38, 81.88 2.27 M2.49 93.59 C25.45 69.29, 45.95 43.99, 81.88 2.27 M2.89 99.24 C35.81 63.52, 65.62 25.1, 87.52 1.88 M2.89 99.24 C28.88 70.85, 53.66 43.08, 87.52 1.88 M2.63 105.64 C25.64 80.75, 47.34 54.18, 92.51 2.24 M2.63 105.64 C35.5 69.53, 67.1 31.93, 92.51 2.24 M3.02 111.28 C29.06 82.52, 53.75 53.88, 98.15 1.85 M3.02 111.28 C36.59 71.53, 72.64 30.4, 98.15 1.85 M4.07 116.17 C26.17 89.33, 44.62 66.07, 103.14 2.21 M4.07 116.17 C36.33 79.78, 69.51 42.46, 103.14 2.21 M4.47 121.81 C38.86 82.82, 75.37 40.08, 108.78 1.81 M4.47 121.81 C35.08 87.42, 65.12 52.64, 108.78 1.81 M7.49 124.43 C30.03 98.21, 54.75 69.94, 113.77 2.17 M7.49 124.43 C32.23 97.02, 55.41 69.9, 113.77 2.17 M10.51 127.06 C44.8 86.47, 78.96 49.23, 119.41 1.78 M10.51 127.06 C44.66 86.28, 78.69 48.6, 119.41 1.78 M12.87 130.44 C36.88 102.3, 63.47 71.32, 124.4 2.14 M12.87 130.44 C39.44 99.12, 64.51 69.5, 124.4 2.14 M17.2 131.55 C45.28 95.67, 75.07 62.74, 130.04 1.74 M17.2 131.55 C51.81 91.53, 85.16 51.98, 130.04 1.74 M21.53 132.67 C54.45 97.63, 84.74 60.42, 135.03 2.1 M21.53 132.67 C53.42 96.93, 83.57 61.97, 135.03 2.1 M25.2 134.54 C71.41 81.26, 115.79 31.58, 140.67 1.71 M25.2 134.54 C65.26 88.88, 103.54 42.43, 140.67 1.71 M30.19 134.9 C75.07 84.3, 119.44 32.53, 145.66 2.07 M30.19 134.9 C71.31 85.91, 113.57 40.15, 145.66 2.07 M34.52 136.01 C63.68 102.49, 87.4 73.96, 150.65 2.43 M34.52 136.01 C75.66 88.87, 115.7 40.58, 150.65 2.43 M39.51 136.37 C66.07 109.64, 89.22 79.07, 156.29 2.03 M39.51 136.37 C66.84 104.95, 95.7 73.64, 156.29 2.03 M45.15 135.98 C71.31 105.4, 98.35 77.24, 161.28 2.39 M45.15 135.98 C75.76 101.82, 107.47 64.57, 161.28 2.39 M50.14 136.34 C81.12 99.76, 108.17 65.67, 166.92 2 M50.14 136.34 C94.51 86.86, 138.75 36.54, 166.92 2 M55.78 135.94 C95.79 90.35, 136.75 43.97, 171.91 2.36 M55.78 135.94 C83.26 104.85, 110.29 74.74, 171.91 2.36 M60.77 136.3 C89.06 105.19, 114.49 74.81, 177.55 1.96 M60.77 136.3 C104.2 86.48, 148.34 36.8, 177.55 1.96 M66.41 135.91 C105.56 93, 139.84 50.59, 182.54 2.32 M66.41 135.91 C93.5 104.77, 121.36 72.21, 182.54 2.32 M71.4 136.27 C107.43 96.66, 142.42 54.48, 187.52 2.68 M71.4 136.27 C110.25 91.48, 147.8 48.88, 187.52 2.68 M77.04 135.87 C120.11 83.13, 167.46 34.82, 193.82 1.54 M77.04 135.87 C107.09 100.69, 138.85 66.26, 193.82 1.54 M82.03 136.23 C110.51 105.85, 138.09 72.82, 198.15 2.65 M82.03 136.23 C116.14 95.84, 150.16 58.33, 198.15 2.65 M87.67 135.84 C121.4 96.54, 151.59 63.22, 201.83 4.52 M87.67 135.84 C128.4 90.24, 168.84 42.37, 201.83 4.52 M92.66 136.2 C119.31 104.21, 145.09 75.8, 206.16 5.63 M92.66 136.2 C117.22 108.48, 140.95 80.45, 206.16 5.63 M98.3 135.8 C137.25 96.26, 171.18 55.03, 208.52 9.01 M98.3 135.8 C136.13 92.88, 171.89 48.55, 208.52 9.01 M103.29 136.16 C138.49 94.87, 176.61 54.02, 211.54 11.64 M103.29 136.16 C145.3 88.79, 186.06 41.67, 211.54 11.64 M108.93 135.77 C144.99 96.62, 181.72 53.94, 214.56 14.26 M108.93 135.77 C138.27 100.96, 166.76 66.88, 214.56 14.26 M113.92 136.13 C154.77 91.72, 195.39 44.2, 216.27 18.4 M113.92 136.13 C153.14 92.19, 191.88 46.18, 216.27 18.4 M118.91 136.49 C145.48 103.86, 171.55 76.01, 217.32 23.28 M118.91 136.49 C146.69 105.71, 173.59 74.76, 217.32 23.28 M124.55 136.1 C153.06 101.91, 181.6 68.27, 219.68 26.66 M124.55 136.1 C156.06 99.32, 189.05 60.87, 219.68 26.66 M129.54 136.46 C163.97 96.42, 199.99 57.94, 219.42 33.06 M129.54 136.46 C149.03 113.39, 169.71 91.79, 219.42 33.06 M135.18 136.06 C167.05 99.31, 198.53 62.47, 219.16 39.46 M135.18 136.06 C161.29 104.06, 186.79 74.82, 219.16 39.46 M140.17 136.42 C164.6 109.81, 190.61 81.9, 219.55 45.1 M140.17 136.42 C159.86 112.37, 180.77 89.32, 219.55 45.1 M145.81 136.03 C172.43 103.89, 201.05 71.47, 219.29 51.5 M145.81 136.03 C166.11 112.62, 184.36 92.13, 219.29 51.5 M150.8 136.39 C174.9 106.2, 199.34 77.66, 219.68 57.14 M150.8 136.39 C175.15 109, 197.74 83.26, 219.68 57.14 M156.44 135.99 C173.88 118.12, 186.24 97.7, 219.42 63.54 M156.44 135.99 C172.55 117.64, 189.96 98.13, 219.42 63.54 M161.43 136.35 C173.08 120.96, 185.03 108.05, 219.82 69.18 M161.43 136.35 C174.14 121.62, 186.91 106.81, 219.82 69.18 M167.07 135.96 C177.87 122.85, 188.26 108.68, 219.56 75.58 M167.07 135.96 C185.26 115.38, 203.82 95.41, 219.56 75.58 M172.06 136.32 C183.59 123.58, 195.78 107.63, 219.95 81.22 M172.06 136.32 C187.01 118.93, 203.8 101.36, 219.95 81.22 M177.7 135.92 C190.41 120.97, 203.14 106.04, 219.69 87.62 M177.7 135.92 C185.56 126.09, 195.74 115.54, 219.69 87.62 M182.69 136.28 C196.83 117.82, 213.59 102.4, 220.08 93.26 M182.69 136.28 C190.73 124.76, 199.96 115.02, 220.08 93.26 M187.68 136.64 C199 124.28, 207 110.77, 217.2 102.68 M187.68 136.64 C197.04 124.1, 208.12 112.84, 217.2 102.68 M193.97 135.49 C199.94 128.45, 206.02 119.35, 216.28 109.83 M193.97 135.49 C199.35 128.08, 204.7 123.65, 216.28 109.83 M200.93 133.59 C205.75 131.4, 207.68 124.78, 213.39 119.25 M200.93 133.59 C205.92 128.52, 209.5 124.46, 213.39 119.25" stroke="#a5d8ff" stroke-width="0.5" fill="none"></path><path d="M32 0 M32 0 C80.38 -2.28, 124.72 -2.09, 185 0 M32 0 C87.89 0.9, 144.66 1.82, 185 0 M185 0 C207.85 1.39, 215.86 8.98, 217 32 M185 0 C204.54 -1.31, 217.75 8.85, 217 32 M217 32 C218.51 55.12, 219.06 79.07, 217 102 M217 32 C217.4 47.1, 216.08 61.18, 217 102 M217 102 C215.43 121.39, 208.04 132.7, 185 134 M217 102 C217.28 125.59, 208.4 133.47, 185 134 M185 134 C136.99 135.56, 85.61 131.87, 32 134 M185 134 C127.92 134.21, 69.91 134.22, 32 134 M32 134 C10 135.95, 0.07 123.05, 0 102 M32 134 C12.62 135.2, -0.85 123.37, 0 102 M0 102 C0.36 74.89, 0.18 48.96, 0 32 M0 102 C0.51 77.08, 0.99 53.23, 0 32 M0 32 C0.91 12.13, 9.34 -0.1, 32 0 M0 32 C-2.06 10.82, 12.64 0.95, 32 0" stroke="#1e1e1e" stroke-width="1" fill="none"></path></g><g transform="translate(350.18152948684826 230.7622602621841) rotate(0 57.419944763183594 12.5)"><text x="57.419944763183594" y="0" font-family="Virgil, Segoe UI Emoji" font-size="20px" fill="#1e1e1e" text-anchor="middle" style="white-space: pre;" direction="ltr" dominant-baseline="text-before-edge">Plugin clinet</text></g><g mask="url(#mask-oKA4s3pyjo4kyorp7tOI-)" stroke-linecap="round"><g transform="translate(820.2310312350744 814.3079863056755) rotate(0 -164.75580456834018 -251.39287292908057)"><path d="M-0.81 1.12 C-19.38 -22.6, -56.59 -59.2, -111.45 -143.37 C-166.32 -227.54, -293.29 -444.1, -330.01 -503.91 M0.96 0.67 C-17.67 -23.32, -56.6 -61.17, -111.84 -145.13 C-167.08 -229.08, -293.76 -443.17, -330.47 -503.05" stroke="#1e1e1e" stroke-width="1" fill="none"></path></g><g transform="translate(820.2310312350744 814.3079863056755) rotate(0 -164.75580456834018 -251.39287292908057)"><path d="M-305.25 -482.43 C-312.74 -488.98, -322.27 -497.48, -329.12 -503.13 M-307.27 -483.22 C-316.03 -491.47, -322.65 -497.32, -330.96 -503.14" stroke="#1e1e1e" stroke-width="1" fill="none"></path></g><g transform="translate(820.2310312350744 814.3079863056755) rotate(0 -164.75580456834018 -251.39287292908057)"><path d="M-322.83 -471.84 C-325.01 -481.41, -329.32 -493.05, -329.12 -503.13 M-324.85 -472.62 C-327.66 -484.45, -328.27 -493.93, -330.96 -503.14" stroke="#1e1e1e" stroke-width="1" fill="none"></path></g></g><mask id="mask-oKA4s3pyjo4kyorp7tOI-"><rect x="0" y="0" fill="#fff" width="1250.8256187304519" height="1417.353712349167"></rect><rect x="690.7678438893104" y="657.7462013274344" fill="#000" width="33.89997863769531" height="25" opacity="1"></rect></mask><g transform="translate(690.7678438893104 657.7462013274344) rotate(0 -35.292617222576155 -94.83108795083945)"><text x="16.949989318847656" y="0" font-family="Virgil, Segoe UI Emoji" font-size="20px" fill="#1e1e1e" text-anchor="middle" style="white-space: pre;" direction="ltr" dominant-baseline="text-before-edge">call</text></g><g mask="url(#mask-ne33bhbs-yLaUby1tf7TI)" stroke-linecap="round"><g transform="translate(79.45526923866078 669.935423773688) rotate(0 -1.5715833556676841 -180.1656832099752)"><path d="M1.06 0.69 C0.6 -59.66, -2.5 -301.02, -3.56 -361.03 M0.16 0.01 C-0.33 -59.71, -3.68 -299.73, -4.2 -359.94" stroke="#1e1e1e" stroke-width="1" fill="none"></path></g><g transform="translate(79.45526923866078 669.935423773688) rotate(0 -1.5715833556676841 -180.1656832099752)"><path d="M7.54 -330.9 C2.22 -340.23, 2.56 -344.89, -3.36 -358.66 M5.59 -332.63 C4.09 -339.61, 0.15 -347.22, -3.43 -359.92" stroke="#1e1e1e" stroke-width="1" fill="none"></path></g><g transform="translate(79.45526923866078 669.935423773688) rotate(0 -1.5715833556676841 -180.1656832099752)"><path d="M-12.98 -330.66 C-13.54 -340.22, -8.44 -344.95, -3.36 -358.66 M-14.93 -332.39 C-10.81 -339.64, -9.15 -347.31, -3.43 -359.92" stroke="#1e1e1e" stroke-width="1" fill="none"></path></g></g><mask id="mask-ne33bhbs-yLaUby1tf7TI"><rect x="0" y="0" fill="#fff" width="183.6009723226037" height="1130.09643998327"></rect><rect x="10.292490023349501" y="464.85491566889687" fill="#000" width="134.1798553466797" height="50" opacity="1"></rect></mask><g transform="translate(10.292490023349501 464.85491566889687) rotate(0 67.59119585964359 24.914824894815865)"><text x="67.08992767333984" y="0" font-family="Virgil, Segoe UI Emoji" font-size="20px" fill="#1e1e1e" text-anchor="middle" style="white-space: pre;" direction="ltr" dominant-baseline="text-before-edge">RegisterPlugin</text><text x="67.08992767333984" y="25" font-family="Virgil, Segoe UI Emoji" font-size="20px" fill="#1e1e1e" text-anchor="middle" style="white-space: pre;" direction="ltr" dominant-baseline="text-before-edge"></text></g><g mask="url(#mask-vAG_8_uMXXnHUl59qU-Gu)" stroke-linecap="round"><g transform="translate(291.85811222375855 645.7849646818368) rotate(0 -50.35444210175925 -166.92967031517765)"><path d="M0.58 -0.86 C-1.53 -22.31, 5.21 -72.6, -11.64 -127.97 C-28.49 -183.34, -85.83 -298.76, -100.5 -333.08 M-0.57 1.3 C-2.43 -20.54, 7.25 -73.59, -9.53 -129.66 C-26.32 -185.74, -86.38 -301.27, -101.29 -335.16" stroke="#1e1e1e" stroke-width="1" fill="none"></path></g><g transform="translate(291.85811222375855 645.7849646818368) rotate(0 -50.35444210175925 -166.92967031517765)"><path d="M-81.34 -316.05 C-86.98 -322.27, -95.8 -329.08, -101.82 -335.45 M-79.33 -314.29 C-88.75 -322.76, -96.03 -331.04, -101.66 -335.5" stroke="#1e1e1e" stroke-width="1" fill="none"></path></g><g transform="translate(291.85811222375855 645.7849646818368) rotate(0 -50.35444210175925 -166.92967031517765)"><path d="M-99.87 -307.22 C-98.36 -316.96, -99.98 -327.2, -101.82 -335.45 M-97.86 -305.46 C-99.82 -317.32, -99.7 -329.12, -101.66 -335.5" stroke="#1e1e1e" stroke-width="1" fill="none"></path></g></g><mask id="mask-vAG_8_uMXXnHUl59qU-Gu"><rect x="0" y="0" fill="#fff" width="492.3098474632352" height="1079.3672252023462"></rect><rect x="194.7972458348047" y="504.5054142402314" fill="#000" width="173.15985107421875" height="25" opacity="1"></rect></mask><g transform="translate(194.7972458348047 504.5054142402314) rotate(0 46.70642428719461 -25.650119873572294)"><text x="86.57992553710938" y="0" font-family="Virgil, Segoe UI Emoji" font-size="20px" fill="#1e1e1e" text-anchor="middle" style="white-space: pre;" direction="ltr" dominant-baseline="text-before-edge">UpdateContainers</text></g><g mask="url(#mask-t4Ve6UCb4s2ddFOJFMKmq)" stroke-linecap="round"><g transform="translate(174.84757981386832 316.06689886760614) rotate(0 18.06697964380507 186.46561865802823)"><path d="M-1.16 0.81 C-0.49 45.65, -1.83 206.39, 4.58 268.19 C10.99 329.99, 32 354.1, 37.29 371.59 M0.43 0.19 C0.89 44.75, -2.47 204.24, 3.61 266.33 C9.69 328.42, 31.45 355.27, 36.93 372.74" stroke="#1e1e1e" stroke-width="1" fill="none"></path></g><g transform="translate(174.84757981386832 316.06689886760614) rotate(0 18.06697964380507 186.46561865802823)"><path d="M17.42 351.1 C24.02 360.18, 29.93 366.12, 38.91 371.15 M15.58 351.09 C21.64 356.07, 25.19 360.55, 36.35 373.57" stroke="#1e1e1e" stroke-width="1" fill="none"></path></g><g transform="translate(174.84757981386832 316.06689886760614) rotate(0 18.06697964380507 186.46561865802823)"><path d="M36.16 342.73 C36.17 354.55, 35.54 363.41, 38.91 371.15 M34.32 342.72 C36.22 349.55, 35.56 355.91, 36.35 373.57" stroke="#1e1e1e" stroke-width="1" fill="none"></path></g></g><mask id="mask-t4Ve6UCb4s2ddFOJFMKmq"><rect x="0" y="0" fill="#fff" width="311.370283987698" height="787.9704674162213"></rect><rect x="91.97820374459491" y="571.2529728339814" fill="#000" width="174.9998321533203" height="25" opacity="1"></rect></mask><g transform="translate(91.97820374459491 571.2529728339814) rotate(0 100.93635571307848 -68.72045530834703)"><text x="87.49991607666016" y="0" font-family="Virgil, Segoe UI Emoji" font-size="20px" fill="#1e1e1e" text-anchor="middle" style="white-space: pre;" direction="ltr" dominant-baseline="text-before-edge">update failed list</text></g><g mask="url(#mask-9VLM9lSMU1NGhxSIiyzQb)" stroke-linecap="round"><g transform="translate(486.39206745127194 665.8644940354698) rotate(0 -5.3612081416674755 -176.06974041674312)"><path d="M-0.05 0.5 C-0.4 -16.38, -1.61 -41.92, -3.24 -100.49 C-4.86 -159.07, -8.59 -308.84, -9.82 -350.92 M-1.53 -0.28 C-1.87 -17.06, -2.26 -40.4, -3.78 -99.12 C-5.3 -157.85, -9.5 -310.43, -10.67 -352.64" stroke="#1e1e1e" stroke-width="1" fill="none"></path></g><g transform="translate(486.39206745127194 665.8644940354698) rotate(0 -5.3612081416674755 -176.06974041674312)"><path d="M1.2 -323.47 C-2.6 -330.72, -2.34 -337.69, -12.18 -351.51 M1.13 -324.73 C-3 -333, -6.33 -339.73, -9.76 -353.01" stroke="#1e1e1e" stroke-width="1" fill="none"></path></g><g transform="translate(486.39206745127194 665.8644940354698) rotate(0 -5.3612081416674755 -176.06974041674312)"><path d="M-19.31 -322.9 C-18.94 -330.26, -14.51 -337.35, -12.18 -351.51 M-19.38 -324.16 C-17.7 -332.58, -15.22 -339.46, -9.76 -353.01" stroke="#1e1e1e" stroke-width="1" fill="none"></path></g></g><mask id="mask-9VLM9lSMU1NGhxSIiyzQb"><rect x="0" y="0" fill="#fff" width="596.034632297163" height="1117.975238016037"></rect><rect x="441.14604286330905" y="553.1863734075687" fill="#000" width="82.47990417480469" height="25" opacity="1"></rect></mask><g transform="translate(441.14604286330905 553.1863734075687) rotate(0 39.88481644629542 -63.391619788842036)"><text x="41.239952087402344" y="0" font-family="Virgil, Segoe UI Emoji" font-size="20px" fill="#1e1e1e" text-anchor="middle" style="white-space: pre;" direction="ltr" dominant-baseline="text-before-edge">response</text></g><g mask="url(#mask-LZ9ev888BBSucr_xRdptu)" stroke-linecap="round"><g transform="translate(1194.168112626724 267.5152644533837) rotate(0 2.728295080510293 173.14359760798106)"><path d="M0.77 -0.32 C1.73 57.57, 5.04 290.14, 5.74 347.82 M-0.29 -1.53 C0.51 56.01, 3.43 288.3, 4.7 346.32" stroke="#1e1e1e" stroke-width="1" fill="none"></path></g><g transform="translate(1194.168112626724 267.5152644533837) rotate(0 2.728295080510293 173.14359760798106)"><path d="M-6.55 318.01 C-0.75 324.93, -1.07 335.95, 4.37 345.35 M-6.39 317.96 C-3.26 327.28, 1.34 334.23, 4.46 346.1" stroke="#1e1e1e" stroke-width="1" fill="none"></path></g><g transform="translate(1194.168112626724 267.5152644533837) rotate(0 2.728295080510293 173.14359760798106)"><path d="M13.97 317.67 C13.69 324.83, 7.31 335.94, 4.37 345.35 M14.13 317.62 C11.29 327.05, 9.92 334.1, 4.46 346.1" stroke="#1e1e1e" stroke-width="1" fill="none"></path></g></g><mask id="mask-LZ9ev888BBSucr_xRdptu"><rect x="0" y="0" fill="#fff" width="1300.0847276937782" height="714.1446988196667"></rect><rect x="1180.1764308414035" y="428.3299816365252" fill="#000" width="33.89997863769531" height="25" opacity="1"></rect></mask><g transform="translate(1180.1764308414035 428.3299816365252) rotate(0 16.719976865830745 12.328880424839554)"><text x="16.949989318847656" y="0" font-family="Virgil, Segoe UI Emoji" font-size="20px" fill="#1e1e1e" text-anchor="middle" style="white-space: pre;" direction="ltr" dominant-baseline="text-before-edge">call</text></g><g stroke-linecap="round"><g transform="translate(1276.550934970028 58.53551739195791) rotate(0 0.5093983992495623 76.59715198779622)"><path d="M-0.17 1.19 C-0.21 26.47, 0.14 126.22, 0.53 151.37 M-1.72 0.76 C-1.46 26.2, 2.16 127.01, 2.74 152.43" stroke="#1e1e1e" stroke-width="0.5" fill="none"></path></g><g transform="translate(1276.550934970028 58.53551739195791) rotate(0 0.5093983992495623 76.59715198779622)"><path d="M-6.38 122.97 C-5.9 135.86, -0.68 143.9, 2.56 153.97 M-8.93 125.39 C-4.2 132.65, -2 141.21, 2.71 152.63" stroke="#1e1e1e" stroke-width="0.5" fill="none"></path></g><g transform="translate(1276.550934970028 58.53551739195791) rotate(0 0.5093983992495623 76.59715198779622)"><path d="M14.13 122.36 C7.14 135.44, 4.89 143.7, 2.56 153.97 M11.58 124.78 C10.12 132.15, 6.13 140.9, 2.71 152.63" stroke="#1e1e1e" stroke-width="0.5" fill="none"></path></g></g><mask></mask><g mask="url(#mask-RR6eGbAn7Aj0xyVWgZKVy)" stroke-linecap="round"><g transform="translate(808.8133225597356 442.2790282891556) rotate(0 0.21868587230858338 -82.91315751214916)"><path d="M-0.95 -0.91 C-0.69 -28.95, 1.21 -139.38, 1.39 -167.06 M0.75 1.23 C0.93 -26.12, 1.08 -137.8, 0.8 -165.63" stroke="#1e1e1e" stroke-width="0.5" fill="none"></path></g><g transform="translate(808.8133225597356 442.2790282891556) rotate(0 0.21868587230858338 -82.91315751214916)"><path d="M9.64 -136.34 C7.59 -146.56, 4.78 -152.09, 0.84 -166.36 M12.06 -137.84 C8.33 -145.09, 5.78 -152.15, 0.1 -165.04" stroke="#1e1e1e" stroke-width="0.5" fill="none"></path></g><g transform="translate(808.8133225597356 442.2790282891556) rotate(0 0.21868587230858338 -82.91315751214916)"><path d="M-10.88 -136.27 C-7.08 -146.35, -4.02 -151.9, 0.84 -166.36 M-8.46 -137.77 C-6.74 -145.21, -3.83 -152.29, 0.1 -165.04" stroke="#1e1e1e" stroke-width="0.5" fill="none"></path></g></g><mask id="mask-RR6eGbAn7Aj0xyVWgZKVy"><rect x="0" y="0" fill="#fff" width="909.523029817289" height="709.1361420819394"></rect><rect x="733.1682448530629" y="346.3504713927632" fill="#000" width="151.99986267089844" height="25" opacity="1"></rect></mask><g transform="translate(733.1682448530629 346.3504713927632) rotate(0 75.8637635789812 13.01539938424321)"><text x="75.99993133544922" y="0" font-family="Virgil, Segoe UI Emoji" font-size="20px" fill="#1e1e1e" text-anchor="middle" style="white-space: pre;" direction="ltr" dominant-baseline="text-before-edge">adjust oci spec</text></g><g mask="url(#mask-1ulPStvL1fhx2LLr_N0fq)" stroke-linecap="round"><g transform="translate(1117.9225807913301 693.5564619959187) rotate(0 6.252196245743221 44.06817081043482)"><path d="M0.68 -0.2 C2.59 14.62, 8.63 73.28, 10.52 88.01 M-0.42 -1.35 C1.97 13.74, 10.9 74.35, 12.93 89.49" stroke="#1e1e1e" stroke-width="0.5" fill="none"></path></g><g transform="translate(1117.9225807913301 693.5564619959187) rotate(0 6.252196245743221 44.06817081043482)"><path d="M-1.53 62.05 C1.54 70.32, 4.88 73.88, 12.24 88.33 M-1.43 62.8 C4.43 73.42, 9.18 83.95, 13.65 90.43" stroke="#1e1e1e" stroke-width="0.5" fill="none"></path></g><g transform="translate(1117.9225807913301 693.5564619959187) rotate(0 6.252196245743221 44.06817081043482)"><path d="M18.79 59.17 C17.36 68.19, 16.21 72.39, 12.24 88.33 M18.89 59.92 C16.99 71.57, 13.94 83.21, 13.65 90.43" stroke="#1e1e1e" stroke-width="0.5" fill="none"></path></g></g><mask id="mask-1ulPStvL1fhx2LLr_N0fq"><rect x="0" y="0" fill="#fff" width="1229.0243431323681" height="881.6728113157524"></rect><rect x="1088.6534851552085" y="725.114636655835" fill="#000" width="69.63995361328125" height="25" opacity="1"></rect></mask><g transform="translate(1088.6534851552085 725.114636655835) rotate(0 35.52129188186484 12.509996150518418)"><text x="34.819976806640625" y="0" font-family="Virgil, Segoe UI Emoji" font-size="20px" fill="#1e1e1e" text-anchor="middle" style="white-space: pre;" direction="ltr" dominant-baseline="text-before-edge">manage</text></g><g stroke-linecap="round" transform="translate(1645.0211967892924 620.782216988212) rotate(0 92 37.5)"><path d="M4.99 4.34 C4.99 4.34, 4.99 4.34, 4.99 4.34 M4.99 4.34 C4.99 4.34, 4.99 4.34, 4.99 4.34 M0.79 15.26 C5.07 12.76, 9 7.47, 11.95 2.43 M0.79 15.26 C2.74 12.17, 5.08 9.05, 11.95 2.43 M1.19 20.91 C8.02 13.22, 14.64 5.93, 18.9 0.53 M1.19 20.91 C6.9 14.83, 12.07 9.25, 18.9 0.53 M0.93 27.31 C8.09 23.02, 11.44 15.31, 24.54 0.14 M0.93 27.31 C9.19 17.13, 17.97 6.8, 24.54 0.14 M1.32 32.95 C9.55 21.93, 19.13 10.94, 29.53 0.5 M1.32 32.95 C7.31 24.71, 13.51 18.57, 29.53 0.5 M1.06 39.35 C10.06 29.62, 19.2 20.69, 35.17 0.1 M1.06 39.35 C12.04 25.47, 23.99 11.94, 35.17 0.1 M0.8 45.74 C15.71 30.56, 28.27 13.53, 40.16 0.46 M0.8 45.74 C13.92 30.21, 29.03 13.68, 40.16 0.46 M1.19 51.39 C15.86 36.41, 29.04 19.89, 45.8 0.07 M1.19 51.39 C17.49 33.91, 34.53 14.91, 45.8 0.07 M0.93 57.78 C13.55 43.25, 25.11 31.58, 50.79 0.43 M0.93 57.78 C20.57 35.73, 40.6 13.71, 50.79 0.43 M1.98 62.67 C19.7 40.84, 38.21 20.16, 56.43 0.03 M1.98 62.67 C22.62 37.77, 45.13 14.41, 56.43 0.03 M4.34 66.05 C19.59 45.61, 35.6 27.53, 61.42 0.39 M4.34 66.05 C23.03 43.81, 42.45 23.36, 61.42 0.39 M5.4 70.94 C23.99 50.46, 45.42 25.79, 67.06 0 M5.4 70.94 C24.54 48.27, 45.55 23.82, 67.06 0 M9.07 72.81 C23.28 59.56, 37.02 42.52, 72.05 0.36 M9.07 72.81 C29.88 50.06, 50.01 25.77, 72.05 0.36 M12.09 75.43 C26.56 60.4, 41 44.02, 77.69 -0.04 M12.09 75.43 C37.71 46.77, 63.33 17.39, 77.69 -0.04 M17.08 75.79 C40.3 48.58, 66.96 19.08, 82.68 0.32 M17.08 75.79 C41.45 48.03, 66.14 19.7, 82.68 0.32 M21.41 76.91 C42.94 51.69, 63.63 30.9, 88.32 -0.07 M21.41 76.91 C41.19 55.51, 58.79 32.33, 88.32 -0.07 M26.39 77.27 C44.57 54.36, 65.5 33.79, 93.31 0.29 M26.39 77.27 C46.61 54.9, 65.88 33.58, 93.31 0.29 M32.04 76.87 C45.93 61.54, 61.34 44.26, 98.3 0.65 M32.04 76.87 C50.99 55.11, 69.96 34.47, 98.3 0.65 M37.02 77.23 C52.28 60.21, 67.27 41.66, 103.94 0.25 M37.02 77.23 C58.54 53.11, 78.78 28.87, 103.94 0.25 M42.67 76.84 C61.47 57.23, 75.31 37.68, 108.93 0.61 M42.67 76.84 C66.46 48.45, 91.35 21.37, 108.93 0.61 M47.65 77.2 C70.08 52.24, 91.65 22.72, 114.57 0.22 M47.65 77.2 C70.33 51.62, 90.61 26.91, 114.57 0.22 M53.3 76.81 C76.56 53.69, 96.17 27.84, 119.56 0.58 M53.3 76.81 C67.86 61.64, 82.01 45.16, 119.56 0.58 M58.28 77.17 C80.45 51.62, 103.78 22.97, 125.2 0.19 M58.28 77.17 C81.99 48.15, 107.49 18.22, 125.2 0.19 M63.93 76.77 C89.03 49.82, 113.46 19.02, 130.19 0.55 M63.93 76.77 C80.58 57.97, 97.09 38.91, 130.19 0.55 M68.91 77.13 C87.33 55.31, 102.23 36.92, 135.83 0.15 M68.91 77.13 C97.1 47.52, 122.14 15.18, 135.83 0.15 M73.9 77.49 C97.92 50.58, 122.01 21.13, 140.82 0.51 M73.9 77.49 C90.65 60.71, 106.62 42.24, 140.82 0.51 M79.54 77.1 C97.83 55.43, 115.3 38.4, 146.46 0.12 M79.54 77.1 C99.81 53.59, 120.33 30.53, 146.46 0.12 M84.53 77.46 C103.65 54.45, 125.17 34.33, 151.45 0.48 M84.53 77.46 C99.89 61.97, 112.3 44.52, 151.45 0.48 M90.17 77.06 C103.72 59.44, 119.78 43.48, 157.09 0.08 M90.17 77.06 C107.04 57.24, 124.45 37.9, 157.09 0.08 M95.16 77.42 C121.41 47.41, 147.06 17.84, 162.08 0.44 M95.16 77.42 C120.04 49.21, 145.37 19.56, 162.08 0.44 M100.8 77.03 C125.46 48.42, 148.6 23.18, 166.41 1.56 M100.8 77.03 C113.91 62.11, 127.88 44.76, 166.41 1.56 M105.79 77.39 C127.94 52.52, 148.44 30.74, 171.4 1.92 M105.79 77.39 C119.65 60.9, 135.1 43.9, 171.4 1.92 M111.43 76.99 C128.25 60.11, 141.79 41.37, 175.73 3.03 M111.43 76.99 C134.72 49.33, 157.2 23.81, 175.73 3.03 M116.42 77.35 C136.57 51.91, 158.98 28.5, 179.4 4.9 M116.42 77.35 C142.05 49.42, 167.22 21.02, 179.4 4.9 M122.06 76.96 C141.64 55.67, 157.01 35.15, 181.11 9.04 M122.06 76.96 C142.46 54.49, 161.46 30.28, 181.11 9.04 M127.05 77.32 C148.67 53.58, 172.07 28.72, 182.82 13.17 M127.05 77.32 C140.94 62.27, 153.11 46.84, 182.82 13.17 M132.69 76.92 C153.89 53.97, 174.44 29.88, 185.84 15.79 M132.69 76.92 C151.13 55.54, 172.36 31.73, 185.84 15.79 M137.68 77.28 C158.5 56.49, 177.31 31.84, 185.57 22.19 M137.68 77.28 C148.06 64.94, 158.49 54, 185.57 22.19 M143.32 76.89 C159.73 60.46, 174.47 42.56, 185.97 27.83 M143.32 76.89 C155.41 61.78, 170.25 46.88, 185.97 27.83 M148.31 77.25 C162.34 63.55, 173.57 46.84, 185.71 34.23 M148.31 77.25 C160.26 63.13, 173.95 48.79, 185.71 34.23 M153.95 76.86 C164.64 66.15, 176.72 53.72, 186.1 39.87 M153.95 76.86 C162.78 68.06, 169.02 58.88, 186.1 39.87 M158.94 77.22 C168.7 64.98, 179.55 52.94, 185.84 46.27 M158.94 77.22 C167.79 67.51, 175.43 57.7, 185.84 46.27 M165.9 75.31 C170.75 67.28, 177.58 61.91, 185.58 52.67 M165.9 75.31 C170.26 68.9, 176.09 63.3, 185.58 52.67 M172.2 74.16 C175.56 68.3, 181.1 63.46, 185.97 58.31 M172.2 74.16 C176.37 67.9, 182.15 61.62, 185.97 58.31" stroke="#a5d8ff" stroke-width="0.5" fill="none"></path><path d="M18.75 0 M18.75 0 C62.14 0.01, 99.91 -1.66, 165.25 0 M18.75 0 C63.92 0.49, 111.29 1.2, 165.25 0 M165.25 0 C179.09 -0.79, 185.48 4.92, 184 18.75 M165.25 0 C177.07 -1.85, 183.91 6.05, 184 18.75 M184 18.75 C184.29 31.91, 185.43 45.12, 184 56.25 M184 18.75 C184.5 27.39, 183.86 38.28, 184 56.25 M184 56.25 C185.25 70.29, 177.47 74.73, 165.25 75 M184 56.25 C182.22 67.83, 176.19 75.83, 165.25 75 M165.25 75 C129.47 76.38, 96.4 75.08, 18.75 75 M165.25 75 C115.87 75.6, 64.92 76, 18.75 75 M18.75 75 C5.49 73.83, -1.29 69.23, 0 56.25 M18.75 75 C6.9 74.28, -2.03 70.73, 0 56.25 M0 56.25 C-0.53 48.17, -1.47 41.28, 0 18.75 M0 56.25 C-0.57 47.91, -0.71 38.66, 0 18.75 M0 18.75 C-0.28 5.47, 6.16 -1.77, 18.75 0 M0 18.75 C-1.33 7.11, 4.07 0.62, 18.75 0" stroke="#1e1e1e" stroke-width="1" fill="none"></path></g><g transform="translate(1684.191240734605 645.782216988212) rotate(0 52.8299560546875 12.5)"><text x="52.8299560546875" y="0" font-family="Virgil, Segoe UI Emoji" font-size="20px" fill="#1e1e1e" text-anchor="middle" style="white-space: pre;" direction="ltr" dominant-baseline="text-before-edge">NRI result</text></g><g mask="url(#mask-a5xCWBkOEDg0mBhbi08Xu)" stroke-linecap="round"><g transform="translate(1329.038532780583 615.3599280412636) rotate(0 -7.292721704084215 -178.76528187787972)"><path d="M0.92 0.02 C-1.37 -59.55, -11.75 -298.19, -14.33 -357.55 M-0.05 -1.01 C-2.49 -60.41, -12.9 -296.74, -15.51 -356.23" stroke="#1e1e1e" stroke-width="0.5" fill="none"></path></g><g transform="translate(1329.038532780583 615.3599280412636) rotate(0 -7.292721704084215 -178.76528187787972)"><path d="M-3.98 -329.25 C-7.57 -336.56, -8.11 -340.55, -16.24 -356.71 M-4.72 -327.93 C-6.48 -335.26, -10.56 -344.73, -15.14 -355.57" stroke="#1e1e1e" stroke-width="0.5" fill="none"></path></g><g transform="translate(1329.038532780583 615.3599280412636) rotate(0 -7.292721704084215 -178.76528187787972)"><path d="M-24.48 -328.35 C-22.92 -336.04, -18.3 -340.26, -16.24 -356.71 M-25.22 -327.03 C-21.28 -334.65, -19.65 -344.37, -15.14 -355.57" stroke="#1e1e1e" stroke-width="0.5" fill="none"></path></g></g><mask id="mask-a5xCWBkOEDg0mBhbi08Xu"><rect x="0" y="0" fill="#fff" width="1442.9294766770977" height="1072.5028069823911"></rect><rect x="1238.82313285381" y="424.2884885706999" fill="#000" width="166.53985595703125" height="25" opacity="1"></rect></mask><g transform="translate(1238.82313285381 424.2884885706999) rotate(0 82.92267822268877 12.30615759268403)"><text x="83.26992797851562" y="0" font-family="Virgil, Segoe UI Emoji" font-size="20px" fill="#1e1e1e" text-anchor="middle" style="white-space: pre;" direction="ltr" dominant-baseline="text-before-edge">update container</text></g><g mask="url(#mask-nUHR_9L9jV7EuSFJ_2S9_)" stroke-linecap="round"><g transform="translate(1642.5089055206602 655.7657258493055) rotate(0 -85.27311736005413 0.9396532236555686)"><path d="M-0.44 -0.41 C-29.27 0.18, -143.77 3.13, -172.08 3.55 M1.53 -1.67 C-26.99 -1.4, -141.06 1.14, -169.73 1.95" stroke="#1e1e1e" stroke-width="0.5" fill="none"></path></g><g transform="translate(1642.5089055206602 655.7657258493055) rotate(0 -85.27311736005413 0.9396532236555686)"><path d="M-142.48 -10.15 C-150.66 -3.15, -163.59 -1.32, -170.17 1.89 M-141.07 -8.05 C-150.97 -6.14, -159.4 -1.16, -170.25 1.7" stroke="#1e1e1e" stroke-width="0.5" fill="none"></path></g><g transform="translate(1642.5089055206602 655.7657258493055) rotate(0 -85.27311736005413 0.9396532236555686)"><path d="M-141.98 10.36 C-150.35 9.62, -163.47 3.72, -170.17 1.89 M-140.57 12.46 C-150.48 7.81, -159.07 6.22, -170.25 1.7" stroke="#1e1e1e" stroke-width="0.5" fill="none"></path></g></g><mask id="mask-nUHR_9L9jV7EuSFJ_2S9_"><rect x="0" y="0" fill="#fff" width="1913.8913538846825" height="758.3162269196455"></rect><rect x="1497.5477457307386" y="632.0409763844755" fill="#000" width="118.53987121582031" height="50" opacity="1"></rect></mask><g transform="translate(1497.5477457307388 632.0409763844755) rotate(0 59.68804242986721 24.664402688485552)"><text x="59.269935607910156" y="0" font-family="Virgil, Segoe UI Emoji" font-size="20px" fill="#1e1e1e" text-anchor="middle" style="white-space: pre;" direction="ltr" dominant-baseline="text-before-edge">merge all </text><text x="59.269935607910156" y="25" font-family="Virgil, Segoe UI Emoji" font-size="20px" fill="#1e1e1e" text-anchor="middle" style="white-space: pre;" direction="ltr" dominant-baseline="text-before-edge">plugin result</text></g></svg>