<svg version="1.1" xmlns="http://www.w3.org/2000/svg" viewBox="0 0 890.3367625296412 937.7656935634695" width="890.3367625296412" height="937.7656935634695">
  <!-- svg-source:excalidraw -->
  
  <defs>
    <style class="style-fonts">
      @font-face {
        font-family: "Virgil";
        src: url("https://excalidraw.com/Virgil.woff2");
      }
      @font-face {
        font-family: "Cascadia";
        src: url("https://excalidraw.com/Cascadia.woff2");
      }
    </style>
  </defs>
  <rect x="0" y="0" width="890.3367625296412" height="937.7656935634695" fill="#ffffff"></rect><g stroke-linecap="round" transform="translate(35.35858416316478 10) rotate(0 148.5 35)"><path d="M4.66 4.05 C4.66 4.05, 4.66 4.05, 4.66 4.05 M4.66 4.05 C4.66 4.05, 4.66 4.05, 4.66 4.05 M3.08 11.96 C4.55 9.92, 6.55 8.05, 11.61 2.15 M3.08 11.96 C4.3 9.7, 7.04 7.4, 11.61 2.15 M2.17 19.11 C8.79 11.78, 15.84 3.23, 17.91 1 M2.17 19.11 C7.95 13.38, 13.65 6.39, 17.91 1 M1.91 25.51 C7.63 20.77, 10.83 14.18, 23.56 0.6 M1.91 25.51 C8.05 19.27, 14.35 11.03, 23.56 0.6 M2.3 31.15 C6.59 23.09, 14.92 18.63, 28.54 0.96 M2.3 31.15 C7.69 24.59, 14.01 16.89, 28.54 0.96 M2.69 36.79 C10.93 29.86, 14.11 19.97, 34.19 0.57 M2.69 36.79 C11.28 27.1, 21.66 15.89, 34.19 0.57 M2.43 43.19 C10.7 35.32, 17.75 23.66, 39.17 0.93 M2.43 43.19 C10.11 33.63, 17.94 24.89, 39.17 0.93 M2.83 48.83 C16.46 35.42, 28.67 21.57, 44.82 0.53 M2.83 48.83 C15.84 33.19, 29.02 19.76, 44.82 0.53 M3.22 54.48 C17.28 36.9, 32.66 22.97, 49.8 0.89 M3.22 54.48 C13.55 41.64, 25.13 29.67, 49.8 0.89 M2.31 61.63 C15.14 47.17, 24.5 35.53, 55.45 0.5 M2.31 61.63 C22.22 38.5, 41.54 16.22, 55.45 0.5 M5.32 64.25 C25.84 38.03, 49.9 12.94, 60.43 0.86 M5.32 64.25 C15.77 51.46, 28.24 37.56, 60.43 0.86 M7.69 67.63 C24.07 47.36, 41.8 27.62, 66.08 0.46 M7.69 67.63 C30.73 43.26, 52.02 17.99, 66.08 0.46 M11.36 69.5 C27.2 54.71, 38.79 38.13, 71.06 0.82 M11.36 69.5 C34.2 43.39, 56.41 19.16, 71.06 0.82 M15.04 71.37 C39.29 45.9, 61.78 20.17, 76.71 0.43 M15.04 71.37 C30.59 55.18, 43.54 39.51, 76.71 0.43 M20.68 70.98 C43.26 46.74, 63.84 19.28, 81.69 0.79 M20.68 70.98 C36.65 53.86, 51.48 36.65, 81.69 0.79 M25.67 71.34 C50.58 45.74, 73.18 18.26, 87.34 0.39 M25.67 71.34 C40.88 53.6, 57.34 34.77, 87.34 0.39 M31.31 70.94 C43.22 56.12, 58.53 39.88, 92.32 0.75 M31.31 70.94 C50.33 50.04, 68.67 26.74, 92.32 0.75 M36.3 71.3 C48.53 55.09, 61.14 40.88, 97.97 0.36 M36.3 71.3 C49.07 56.21, 62.1 42.12, 97.97 0.36 M41.94 70.91 C67.45 43.05, 91.29 14.77, 102.95 0.72 M41.94 70.91 C62.12 47.89, 83.23 22.64, 102.95 0.72 M46.93 71.27 C63.43 52.29, 83.93 31.11, 107.94 1.08 M46.93 71.27 C63.25 54.36, 76.79 36.2, 107.94 1.08 M51.91 71.63 C75.91 43.51, 96.6 18.9, 113.58 0.69 M51.91 71.63 C66.6 54.7, 82.21 37.77, 113.58 0.69 M57.56 71.23 C82.79 45.46, 102.13 18.79, 118.57 1.05 M57.56 71.23 C80.91 45.18, 102.21 18.66, 118.57 1.05 M62.54 71.59 C75.49 54.63, 87.34 39.25, 124.21 0.65 M62.54 71.59 C77.73 54.54, 94.21 35.27, 124.21 0.65 M68.19 71.2 C89.25 49.69, 104.96 26.16, 129.2 1.01 M68.19 71.2 C79.7 57.34, 92.84 42.61, 129.2 1.01 M73.17 71.56 C87.19 52.85, 103.48 38.83, 134.84 0.62 M73.17 71.56 C93.55 49.77, 112.41 26.5, 134.84 0.62 M78.82 71.16 C97.39 48.5, 115.74 26.64, 139.83 0.98 M78.82 71.16 C101.74 44.78, 123.13 19.57, 139.83 0.98 M83.8 71.52 C106.34 41.8, 134.14 16.57, 145.47 0.58 M83.8 71.52 C102.77 50.13, 120.68 27, 145.47 0.58 M89.45 71.13 C107.39 50.87, 124.8 28.26, 150.46 0.94 M89.45 71.13 C110.03 48.04, 129.54 25.36, 150.46 0.94 M94.43 71.49 C109.04 53.46, 124.24 36.13, 156.1 0.55 M94.43 71.49 C108.13 56.54, 121.39 39.85, 156.1 0.55 M100.08 71.1 C121.62 45.98, 142.46 20.17, 161.09 0.91 M100.08 71.1 C122.53 43.79, 144.6 17.22, 161.09 0.91 M105.06 71.46 C130.24 46.93, 150.99 21.34, 166.73 0.51 M105.06 71.46 C127.89 45.42, 149.29 19.78, 166.73 0.51 M110.71 71.06 C122.66 54.91, 136.69 40.58, 171.72 0.87 M110.71 71.06 C134.88 42.82, 158.49 16.07, 171.72 0.87 M115.69 71.42 C129.73 57.45, 142.16 41.3, 177.36 0.48 M115.69 71.42 C140.98 43.89, 165 15.36, 177.36 0.48 M121.34 71.03 C137.07 52.41, 149.66 38.25, 182.35 0.84 M121.34 71.03 C140.67 48.97, 159.66 27.34, 182.35 0.84 M126.32 71.39 C141.01 54.82, 152.62 40.74, 187.99 0.44 M126.32 71.39 C141.85 53.06, 157.47 35.28, 187.99 0.44 M131.97 70.99 C146.25 54.82, 159.56 38.7, 192.98 0.8 M131.97 70.99 C149.39 50.87, 166.99 30.68, 192.98 0.8 M136.95 71.35 C150.98 52.1, 165.23 38.42, 197.97 1.16 M136.95 71.35 C151.14 55.95, 164.59 38.51, 197.97 1.16 M141.94 71.71 C166.75 44.22, 190.04 15.82, 203.61 0.77 M141.94 71.71 C158.38 51.67, 175.53 33.54, 203.61 0.77 M147.58 71.32 C161.91 56.8, 174.45 38.97, 208.6 1.13 M147.58 71.32 C167.23 48.44, 188.19 25.15, 208.6 1.13 M152.57 71.68 C176.56 45.71, 198.61 18.53, 214.24 0.74 M152.57 71.68 C169.92 51.61, 185.06 32.56, 214.24 0.74 M158.21 71.28 C178.44 51.46, 196.6 28.5, 219.23 1.1 M158.21 71.28 C175.39 51.03, 192.6 32.88, 219.23 1.1 M163.2 71.64 C178.78 53.53, 198.62 35.09, 224.87 0.7 M163.2 71.64 C181.01 50.93, 198.96 31.2, 224.87 0.7 M168.84 71.25 C183.54 56.01, 197.79 38.47, 229.86 1.06 M168.84 71.25 C188.78 47.7, 209.11 25.09, 229.86 1.06 M173.83 71.61 C196.59 44.15, 221.54 18.89, 235.5 0.67 M173.83 71.61 C197.26 47.23, 217.4 21.96, 235.5 0.67 M179.47 71.21 C203.58 44.82, 227.86 16.69, 240.49 1.03 M179.47 71.21 C193.67 54.28, 205.88 37.55, 240.49 1.03 M184.46 71.57 C210.38 42.87, 232.66 13.81, 246.13 0.63 M184.46 71.57 C205.83 48.71, 226.11 25.54, 246.13 0.63 M190.1 71.18 C202.54 55.96, 216.95 40.89, 251.12 0.99 M190.1 71.18 C208.88 51.09, 226.51 30.9, 251.12 0.99 M195.09 71.54 C216.12 50.11, 235.04 25.55, 256.76 0.6 M195.09 71.54 C213.18 50.81, 230.8 31.19, 256.76 0.6 M200.73 71.15 C221.59 45.4, 241.32 22.47, 261.75 0.96 M200.73 71.15 C221.51 47.4, 240.69 25.27, 261.75 0.96 M205.72 71.51 C225.48 46.33, 245.37 24.8, 267.39 0.56 M205.72 71.51 C227.34 46.6, 247.11 23.18, 267.39 0.56 M211.37 71.11 C227.51 52, 241.37 36.02, 272.38 0.92 M211.37 71.11 C228.01 53.13, 243.88 33.92, 272.38 0.92 M216.35 71.47 C231.54 53.4, 246.98 36.92, 278.02 0.53 M216.35 71.47 C239.06 43.24, 263.39 15.56, 278.02 0.53 M221.34 71.83 C239.2 51.66, 254.27 32.81, 283.01 0.89 M221.34 71.83 C244.52 47.52, 266.13 21.53, 283.01 0.89 M226.98 71.44 C241.48 53.18, 259.02 34.59, 286.68 2.76 M226.98 71.44 C249.56 45.88, 272.07 18.66, 286.68 2.76 M231.97 71.8 C250.82 50.31, 266.73 31.49, 291.67 3.12 M231.97 71.8 C244.82 56.39, 257.53 43.38, 291.67 3.12 M237.61 71.4 C256.28 48.47, 275.98 28.35, 294.03 6.5 M237.61 71.4 C253.95 53.48, 271.31 34.35, 294.03 6.5 M242.6 71.76 C260.31 52.46, 277.27 32.92, 296.4 9.88 M242.6 71.76 C258.01 53.75, 273.17 36.73, 296.4 9.88 M248.24 71.37 C263.97 54.26, 276.86 40.15, 296.13 16.27 M248.24 71.37 C263.42 55.43, 277.48 37.15, 296.13 16.27 M253.23 71.73 C268.1 56.64, 279.26 43.3, 296.53 21.92 M253.23 71.73 C263.48 60.75, 273.47 48.74, 296.53 21.92 M258.87 71.33 C269.79 56.92, 284.08 46.07, 296.27 28.31 M258.87 71.33 C267.14 60.63, 275.72 53.01, 296.27 28.31 M263.86 71.69 C273.85 60.18, 282.63 49.77, 296.66 33.96 M263.86 71.69 C276.54 57.56, 288.25 42.33, 296.66 33.96 M269.5 71.3 C278.71 62.25, 287.18 52.46, 296.4 40.36 M269.5 71.3 C275.8 62.25, 283.85 54.26, 296.4 40.36 M274.49 71.66 C282.75 63.39, 287.39 58.11, 296.8 46 M274.49 71.66 C279.75 66.72, 284.6 60.05, 296.8 46 M280.79 70.51 C285.68 66.32, 289.08 59.69, 297.19 51.64 M280.79 70.51 C286.69 63.45, 290.88 59.13, 297.19 51.64 M287.09 69.36 C290.52 66.54, 290.47 64.71, 297.58 57.28 M287.09 69.36 C290.3 65.34, 292.69 61.48, 297.58 57.28" stroke="#ffc9c9" stroke-width="0.5" fill="none"></path><path d="M17.5 0 M17.5 0 C94.53 -0.02, 168.17 0.86, 279.5 0 M17.5 0 C79.8 -1.75, 140.57 -1.94, 279.5 0 M279.5 0 C292.46 -1.07, 296.41 6.53, 297 17.5 M279.5 0 C288.97 -1.43, 298.73 7.23, 297 17.5 M297 17.5 C299.13 27.13, 297.04 37.14, 297 52.5 M297 17.5 C296.43 27.84, 298 37.77, 297 52.5 M297 52.5 C297.22 62.26, 291.93 69.43, 279.5 70 M297 52.5 C298.69 62.98, 289.89 70.11, 279.5 70 M279.5 70 C214.48 70.76, 150.23 69.78, 17.5 70 M279.5 70 C219.04 70.72, 159.44 70.21, 17.5 70 M17.5 70 C5.93 71.65, -1.89 65.1, 0 52.5 M17.5 70 C5.28 69.13, 1.31 65.79, 0 52.5 M0 52.5 C-1.16 39.21, -1.26 27.52, 0 17.5 M0 52.5 C-0.4 44.47, 0.06 36.43, 0 17.5 M0 17.5 C1.44 5.47, 6.85 0.37, 17.5 0 M0 17.5 C1.7 5.01, 5.58 0.87, 17.5 0" stroke="#1e1e1e" stroke-width="1" fill="none"></path></g><g transform="translate(165.188593623614 32.5) rotate(0 18.66999053955078 12.5)"><text x="18.66999053955078" y="0" font-family="Virgil, Segoe UI Emoji" font-size="20px" fill="#1e1e1e" text-anchor="middle" style="white-space: pre;" direction="ltr" dominant-baseline="text-before-edge">CRI</text></g><g mask="url(#mask-x7bA0n7Ehc-konmG6XiGb)" stroke-linecap="round"><g transform="translate(184.27770148383206 79.78275368430513) rotate(0 1.1199047305378826 36.80769423820993)"><path d="M-0.19 0.21 C0.6 12.16, 3.5 60.74, 3.99 72.8 M-1.75 -0.73 C-1.01 11.94, 2.12 61.93, 3.27 74.35" stroke="#1e1e1e" stroke-width="1" fill="none"></path></g><g transform="translate(184.27770148383206 79.78275368430513) rotate(0 1.1199047305378826 36.80769423820993)"><path d="M-8.73 47.73 C-5.88 52.07, -3.33 61.12, 5.22 72.83 M-8.91 46.75 C-4.43 55.26, 0.04 65.69, 2.31 74.36" stroke="#1e1e1e" stroke-width="1" fill="none"></path></g><g transform="translate(184.27770148383206 79.78275368430513) rotate(0 1.1199047305378826 36.80769423820993)"><path d="M11.73 46.2 C9.77 50.86, 7.5 60.27, 5.22 72.83 M11.55 45.21 C9.33 54.16, 7.09 65.1, 2.31 74.36" stroke="#1e1e1e" stroke-width="1" fill="none"></path></g></g><mask id="mask-x7bA0n7Ehc-konmG6XiGb"><rect x="0" y="0" fill="#fff" width="287.82569123798544" height="252.56058571555513"></rect><rect x="111.73175770124078" y="103.67166969993013" fill="#000" width="148.63987731933594" height="25" opacity="1"></rect></mask><g transform="translate(111.73175770124078 103.67166969993013) rotate(0 73.66584851312916 12.918778222584933)"><text x="74.31993865966797" y="0" font-family="Virgil, Segoe UI Emoji" font-size="20px" fill="#1e1e1e" text-anchor="middle" style="white-space: pre;" direction="ltr" dominant-baseline="text-before-edge">RunPodSandbox</text></g><g stroke-linecap="round" transform="translate(14.94436815049994 153.56058571555513) rotate(0 176 36)"><path d="M18 0 M18 0 C124.09 2.41, 232.01 0.5, 334 0 M18 0 C121.75 0.53, 225.56 0.18, 334 0 M334 0 C347.67 1.43, 350.09 6.02, 352 18 M334 0 C346.71 -0.29, 354.24 4.88, 352 18 M352 18 C353.12 26.96, 353.32 40.75, 352 54 M352 18 C352.29 25.71, 351.1 32.77, 352 54 M352 54 C350.77 67.34, 346.15 72.17, 334 72 M352 54 C350.37 65.61, 346.32 70.12, 334 72 M334 72 C236.74 71.21, 139.9 72.01, 18 72 M334 72 C261.62 73.21, 189.26 73.51, 18 72 M18 72 C4.12 73.34, -1.88 66.49, 0 54 M18 72 C3.85 72.4, 2 68.05, 0 54 M0 54 C0.21 41.32, -0.96 27.79, 0 18 M0 54 C-0.92 40.3, 0.87 26.45, 0 18 M0 18 C1.61 5.52, 5.07 -1.93, 18 0 M0 18 C-2.17 7.52, 5.54 -1.63, 18 0" stroke="#1e1e1e" stroke-width="1" fill="none"></path></g><g transform="translate(135.93441179063666 177.06058571555513) rotate(0 55.00995635986328 12.5)"><text x="55.00995635986328" y="0" font-family="Virgil, Segoe UI Emoji" font-size="20px" fill="#1e1e1e" text-anchor="middle" style="white-space: pre;" direction="ltr" dominant-baseline="text-before-edge">CRI module</text></g><g mask="url(#mask-K8tCZIyk2EXyYdUuxqVUo)" stroke-linecap="round"><g transform="translate(192.27770148383206 224.67166969993013) rotate(0 -0.04788608622271795 64.55094473573308)"><path d="M-0.91 0.34 C-0.9 21.52, 0.6 106.96, 0.79 128.3 M0.81 -0.53 C0.67 21.33, 0.47 107.96, 0.25 129.64" stroke="#1e1e1e" stroke-width="1" fill="none"></path></g><g transform="translate(192.27770148383206 224.67166969993013) rotate(0 -0.04788608622271795 64.55094473573308)"><path d="M-9.29 102.7 C-6.58 111.96, -2.81 122.63, -1.25 131.31 M-9.54 101.26 C-5.39 111.4, -2.71 122.51, 0.18 130.17" stroke="#1e1e1e" stroke-width="1" fill="none"></path></g><g transform="translate(192.27770148383206 224.67166969993013) rotate(0 -0.04788608622271795 64.55094473573308)"><path d="M11.23 102.82 C6.56 111.88, 2.94 122.51, -1.25 131.31 M10.98 101.38 C7.5 111.47, 2.57 122.55, 0.18 130.17" stroke="#1e1e1e" stroke-width="1" fill="none"></path></g></g><mask id="mask-K8tCZIyk2EXyYdUuxqVUo"><rect x="0" y="0" fill="#fff" width="292.2792459937632" height="453.3541924282599"></rect><rect x="107.64699301060477" y="276.512931064095" fill="#000" width="169.25987243652344" height="25" opacity="1"></rect></mask><g transform="translate(107.64699301060477 276.512931064095) rotate(0 84.58282238700457 12.70968337156819)"><text x="84.62993621826172" y="0" font-family="Virgil, Segoe UI Emoji" font-size="20px" fill="#1e1e1e" text-anchor="middle" style="white-space: pre;" direction="ltr" dominant-baseline="text-before-edge">CRI sandbox info</text></g><g stroke-linecap="round" transform="translate(658.3367625296412 363.34724506793555) rotate(0 111 34.5)"><path d="M17.25 0 M17.25 0 C85.32 0.53, 152.89 1.36, 204.75 0 M17.25 0 C87.22 -0.14, 157.54 -0.5, 204.75 0 M204.75 0 C216.06 0.28, 221.85 6.82, 222 17.25 M204.75 0 C214.52 1.46, 224.1 3.59, 222 17.25 M222 17.25 C222.84 26.41, 222.11 38.29, 222 51.75 M222 17.25 C221.32 29.74, 222.17 41.76, 222 51.75 M222 51.75 C222.1 64.51, 216.71 67.87, 204.75 69 M222 51.75 C219.88 61.33, 215.43 67.37, 204.75 69 M204.75 69 C164.94 68.88, 127.18 67.06, 17.25 69 M204.75 69 C135 69.63, 68 70.35, 17.25 69 M17.25 69 C6.57 67.46, -1.58 63.18, 0 51.75 M17.25 69 C5.3 67.58, -1.88 65.21, 0 51.75 M0 51.75 C0.22 42.52, 0.27 31.08, 0 17.25 M0 51.75 C-0.78 42.89, -0.04 31.99, 0 17.25 M0 17.25 C0.29 4.05, 5.47 -0.8, 17.25 0 M0 17.25 C-1.01 7.38, 6.01 1.86, 17.25 0" stroke="#1e1e1e" stroke-width="1" fill="none"></path></g><g transform="translate(709.7868052542506 385.34724506793555) rotate(0 59.549957275390625 12.5)"><text x="59.549957275390625" y="0" font-family="Virgil, Segoe UI Emoji" font-size="20px" fill="#1e1e1e" text-anchor="middle" style="white-space: pre;" direction="ltr" dominant-baseline="text-before-edge">NRI convert</text></g><g mask="url(#mask--wrxjs_xJlI6TVvnP5COo)" stroke-linecap="round"><g transform="translate(654.3719981519619 410.5519856603887) rotate(0 -126.84245074879391 0.009490662336702371)"><path d="M1 0.86 C-41.53 0.87, -212.33 -0.53, -254.69 -0.84 M0.07 0.26 C-42.15 0.56, -210.28 0.71, -252.58 0.7" stroke="#1e1e1e" stroke-width="1" fill="none"></path></g><g transform="translate(654.3719981519619 410.5519856603887) rotate(0 -126.84245074879391 0.009490662336702371)"><path d="M-222.96 -11.49 C-234.09 -5.21, -244 -0.36, -253.55 0.52 M-225.15 -8.94 C-232.34 -7.14, -241.87 -2.26, -252.37 1" stroke="#1e1e1e" stroke-width="1" fill="none"></path></g><g transform="translate(654.3719981519619 410.5519856603887) rotate(0 -126.84245074879391 0.009490662336702371)"><path d="M-222.95 9.04 C-233.93 8.29, -243.84 6.12, -253.55 0.52 M-225.14 11.58 C-232.31 6.94, -241.85 5.38, -252.37 1" stroke="#1e1e1e" stroke-width="1" fill="none"></path></g></g><mask id="mask--wrxjs_xJlI6TVvnP5COo"><rect x="0" y="0" fill="#fff" width="1007.9142232648026" height="511.40129610153326"></rect><rect x="450.48095151351026" y="397.62733043981643" fill="#000" width="154.2398681640625" height="25" opacity="1"></rect></mask><g transform="translate(450.48095151351026 397.62733043981643) rotate(0 77.04859588965769 12.934145882908979)"><text x="77.11993408203125" y="0" font-family="Virgil, Segoe UI Emoji" font-size="20px" fill="#1e1e1e" text-anchor="middle" style="white-space: pre;" direction="ltr" dominant-baseline="text-before-edge">nri sandbox info</text></g><g stroke-linecap="round" transform="translate(10 366.1875410203811) rotate(0 190 33)"><path d="M16.5 0 M16.5 0 C87.26 0.58, 157.72 -0.82, 363.5 0 M16.5 0 C124.9 -0.8, 234.89 -1.83, 363.5 0 M363.5 0 C374.95 1.42, 380.42 6.09, 380 16.5 M363.5 0 C372.24 -0.16, 378.59 7.04, 380 16.5 M380 16.5 C379.69 26.93, 378.39 36.9, 380 49.5 M380 16.5 C379.15 27.65, 379.72 39.76, 380 49.5 M380 49.5 C378.12 61.96, 374.44 64.82, 363.5 66 M380 49.5 C379.93 60.13, 372.34 67.54, 363.5 66 M363.5 66 C292.17 65.02, 221.55 64.42, 16.5 66 M363.5 66 C285.96 65.52, 208.14 66.48, 16.5 66 M16.5 66 C5.96 66.77, -1.68 60.85, 0 49.5 M16.5 66 C7.7 66.47, 1.85 59.95, 0 49.5 M0 49.5 C1.64 40.73, -1.1 33.05, 0 16.5 M0 49.5 C-0.39 43.12, 0.16 36.12, 0 16.5 M0 16.5 C0.2 5.61, 3.97 -0.03, 16.5 0 M0 16.5 C-0.41 3.44, 5.91 0.96, 16.5 0" stroke="#1e1e1e" stroke-width="1" fill="none"></path></g><g transform="translate(134.43004608154297 386.6875410203811) rotate(0 65.56995391845703 12.5)"><text x="65.56995391845703" y="0" font-family="Virgil, Segoe UI Emoji" font-size="20px" fill="#1e1e1e" text-anchor="middle" style="white-space: pre;" direction="ltr" dominant-baseline="text-before-edge">NRI Adaption</text></g><g mask="url(#mask-IJbcakQRvHVBERb-IzN8V)" stroke-linecap="round"><g transform="translate(191.37748251763867 438.52083112047876) rotate(0 1.2565344676615382 101.85002309368747)"><path d="M0.27 0.85 C0.68 34.95, 3.25 169.76, 3.56 203.45 M-1.04 0.25 C-0.87 34.07, 1.83 167.51, 2.74 201.51" stroke="#1e1e1e" stroke-width="1" fill="none"></path></g><g transform="translate(191.37748251763867 438.52083112047876) rotate(0 1.2565344676615382 101.85002309368747)"><path d="M-6.74 173.98 C-3.56 182.5, -0.03 194.17, 4.08 201.66 M-8.02 172.74 C-4.94 182.84, -1.4 190.27, 1.82 200.68" stroke="#1e1e1e" stroke-width="1" fill="none"></path></g><g transform="translate(191.37748251763867 438.52083112047876) rotate(0 1.2565344676615382 101.85002309368747)"><path d="M13.78 173.51 C8.92 182.26, 4.43 194.12, 4.08 201.66 M12.5 172.28 C9.24 182.49, 6.45 190.06, 1.82 200.68" stroke="#1e1e1e" stroke-width="1" fill="none"></path></g></g><mask id="mask-IJbcakQRvHVBERb-IzN8V"><rect x="0" y="0" fill="#fff" width="294.6846566480016" height="741.6127470780584"></rect><rect x="87.09113580596465" y="490.06678909926904" fill="#000" width="211.87986755371094" height="100" opacity="1"></rect></mask><g transform="translate(87.09113580596465 490.06678909926904) rotate(0 105.54288117933555 50.304065114897185)"><text x="105.93993377685547" y="0" font-family="Virgil, Segoe UI Emoji" font-size="20px" fill="#1e1e1e" text-anchor="middle" style="white-space: pre;" direction="ltr" dominant-baseline="text-before-edge">call </text><text x="105.93993377685547" y="25" font-family="Virgil, Segoe UI Emoji" font-size="20px" fill="#1e1e1e" text-anchor="middle" style="white-space: pre;" direction="ltr" dominant-baseline="text-before-edge">RUN_POD_SANDBOX</text><text x="105.93993377685547" y="50" font-family="Virgil, Segoe UI Emoji" font-size="20px" fill="#1e1e1e" text-anchor="middle" style="white-space: pre;" direction="ltr" dominant-baseline="text-before-edge">StateChange for all </text><text x="105.93993377685547" y="75" font-family="Virgil, Segoe UI Emoji" font-size="20px" fill="#1e1e1e" text-anchor="middle" style="white-space: pre;" direction="ltr" dominant-baseline="text-before-edge">manager plugin</text></g><g stroke-linecap="round" transform="translate(19.767828191946137 643.4519123531309) rotate(0 173 28.5)"><path d="M14.25 0 M14.25 0 C116.04 1.34, 218.97 2.3, 331.75 0 M14.25 0 C112.38 -0.19, 210.34 0.83, 331.75 0 M331.75 0 C341.71 -1.13, 344.16 3.08, 346 14.25 M331.75 0 C340.43 -1.63, 343.84 6.42, 346 14.25 M346 14.25 C345.51 20.83, 347.17 29.29, 346 42.75 M346 14.25 C346.6 24.39, 346.15 31.97, 346 42.75 M346 42.75 C344.42 52.18, 340.86 55.77, 331.75 57 M346 42.75 C344.12 54.21, 341.77 57.88, 331.75 57 M331.75 57 C263.49 60.27, 194.32 58.48, 14.25 57 M331.75 57 C266.96 57.98, 202.56 57.88, 14.25 57 M14.25 57 C4.47 56.2, -0.88 53.67, 0 42.75 M14.25 57 C5.01 58.86, 0.23 52.37, 0 42.75 M0 42.75 C-1.79 36.74, 0.84 30.16, 0 14.25 M0 42.75 C-0.56 37.15, 0.71 30.57, 0 14.25 M0 14.25 C-0.06 4.85, 4.2 -1.27, 14.25 0 M0 14.25 C1.65 3.76, 2.8 0.09, 14.25 0" stroke="#1e1e1e" stroke-width="1" fill="none"></path></g><g transform="translate(167.6578580991727 659.4519123531309) rotate(0 25.109970092773438 12.5)"><text x="25.109970092773438" y="0" font-family="Virgil, Segoe UI Emoji" font-size="20px" fill="#1e1e1e" text-anchor="middle" style="white-space: pre;" direction="ltr" dominant-baseline="text-before-edge">plugin</text></g><g stroke-linecap="round"><g transform="translate(194.9509815388708 701.7008043063797) rotate(0 -1.8727292897347638 20.04266170563824)"><path d="M0.09 0.1 C-0.43 6.56, -3.35 33.1, -3.84 39.54 M-1.32 -0.89 C-1.4 5.69, -1.21 34.23, -1.57 40.97" stroke="#1e1e1e" stroke-width="1" fill="none"></path></g><g transform="translate(194.9509815388708 701.7008043063797) rotate(0 -1.8727292897347638 20.04266170563824)"><path d="M-7.86 20.71 C-6.71 26.89, -6.46 31.22, -0.31 41.43 M-8.39 21.41 C-7.57 27.49, -5.1 30.76, -1.6 40.81" stroke="#1e1e1e" stroke-width="1" fill="none"></path></g><g transform="translate(194.9509815388708 701.7008043063797) rotate(0 -1.8727292897347638 20.04266170563824)"><path d="M5.77 20.96 C3.67 27.1, 0.66 31.36, -0.31 41.43 M5.24 21.66 C2.74 27.56, 1.9 30.78, -1.6 40.81" stroke="#1e1e1e" stroke-width="1" fill="none"></path></g></g><mask></mask><g stroke-linecap="round" transform="translate(19.38669368170781 868.7656935634695) rotate(0 165.5 29.5)"><path d="M3.93 3.41 C3.93 3.41, 3.93 3.41, 3.93 3.41 M3.93 3.41 C3.93 3.41, 3.93 3.41, 3.93 3.41 M3.01 10.57 C3.78 8.82, 5.75 6.11, 10.23 2.26 M3.01 10.57 C5.22 7.6, 8.86 4.95, 10.23 2.26 M2.75 16.96 C7.5 11.27, 11.04 4.62, 16.52 1.11 M2.75 16.96 C7.18 10.98, 14.29 4.9, 16.52 1.11 M2.49 23.36 C7.85 13.24, 18.34 6.4, 21.51 1.47 M2.49 23.36 C6.68 18.11, 10.74 14.2, 21.51 1.47 M2.88 29 C10.32 18.75, 17.75 11.23, 27.15 1.08 M2.88 29 C8.01 22.03, 13.23 16.75, 27.15 1.08 M3.27 34.65 C8.96 26.11, 17.7 17.35, 32.14 1.44 M3.27 34.65 C9.01 26.96, 16.88 19.78, 32.14 1.44 M3.01 41.04 C12.92 29.62, 21.59 21.06, 37.78 1.05 M3.01 41.04 C14.83 29.11, 25.34 16.08, 37.78 1.05 M3.41 46.69 C12.07 36.04, 26.08 20.94, 42.77 1.41 M3.41 46.69 C18.55 29.47, 33.69 11.02, 42.77 1.41 M3.15 53.09 C17.31 37.56, 26.6 25.46, 48.41 1.01 M3.15 53.09 C18.33 33.66, 35.08 17.23, 48.41 1.01 M6.17 55.71 C23.65 37.07, 37.7 20.21, 53.4 1.37 M6.17 55.71 C16.29 43.46, 25.24 33.41, 53.4 1.37 M8.53 59.09 C21.72 40.63, 36.37 26.39, 58.39 1.73 M8.53 59.09 C22.3 44.39, 34.6 29.45, 58.39 1.73 M12.86 60.2 C31.04 38.36, 51.13 18.27, 64.03 1.34 M12.86 60.2 C31.04 39.43, 47.26 20.22, 64.03 1.34 M18.5 59.81 C33.24 40.72, 50.87 21.33, 69.02 1.7 M18.5 59.81 C36.05 38.18, 55.19 16.95, 69.02 1.7 M23.49 60.17 C39.02 41.95, 53.07 24.26, 74.66 1.3 M23.49 60.17 C41.42 40.49, 61.29 18.43, 74.66 1.3 M28.48 60.53 C40.18 44.7, 54.64 29.73, 79.65 1.66 M28.48 60.53 C39.94 48.29, 50.54 36.59, 79.65 1.66 M34.12 60.13 C51.01 42.4, 64.68 21.96, 85.29 1.27 M34.12 60.13 C51.41 41.06, 68.62 20.07, 85.29 1.27 M39.11 60.49 C58.09 34.99, 80.97 14.81, 90.28 1.63 M39.11 60.49 C59.62 37.84, 78.79 16.38, 90.28 1.63 M44.75 60.1 C55.11 47.13, 65.45 33.43, 95.92 1.23 M44.75 60.1 C60.73 41.75, 74.49 25.91, 95.92 1.23 M49.74 60.46 C67.68 42.05, 80.39 24.83, 100.91 1.59 M49.74 60.46 C62.92 45.77, 77.58 29.82, 100.91 1.59 M55.38 60.07 C66.45 46.26, 77.8 32.23, 106.55 1.2 M55.38 60.07 C74.15 39.13, 92.39 18.54, 106.55 1.2 M60.37 60.43 C75.59 41.3, 92.34 20.43, 111.54 1.56 M60.37 60.43 C74.27 44.94, 88.21 27.42, 111.54 1.56 M66.01 60.03 C76.64 46.67, 87.59 36.6, 117.18 1.16 M66.01 60.03 C86.46 37.17, 106.63 13.3, 117.18 1.16 M71 60.39 C87.52 43.4, 101.25 27.25, 122.17 1.52 M71 60.39 C86.38 44.88, 99.69 27.41, 122.17 1.52 M76.64 60 C88.44 45.84, 101.51 31.91, 127.81 1.13 M76.64 60 C95.82 39.89, 114.12 17.37, 127.81 1.13 M81.63 60.36 C101.72 39.14, 118.84 17.74, 132.8 1.49 M81.63 60.36 C96.5 41.69, 111.89 24.52, 132.8 1.49 M87.27 59.96 C98.11 46.24, 112.97 32.64, 138.44 1.09 M87.27 59.96 C106.58 38.13, 125.16 16.64, 138.44 1.09 M92.26 60.32 C107.99 45.49, 122.27 28.3, 143.43 1.46 M92.26 60.32 C105.81 45.55, 116.54 33.06, 143.43 1.46 M97.9 59.93 C117.32 39.04, 132.2 18.85, 148.42 1.82 M97.9 59.93 C109.31 46.45, 120.94 32.23, 148.42 1.82 M102.89 60.29 C117.23 44.71, 126.81 31.56, 154.06 1.42 M102.89 60.29 C113.22 47.13, 125.4 35.75, 154.06 1.42 M108.53 59.89 C128.08 38.51, 143.48 20.75, 159.05 1.78 M108.53 59.89 C122.18 43.31, 138.33 26.98, 159.05 1.78 M113.52 60.25 C125 48.56, 136.45 35.63, 164.69 1.39 M113.52 60.25 C129.44 39.5, 148.2 21.44, 164.69 1.39 M118.5 60.61 C129.24 46.66, 141.09 33.42, 169.68 1.75 M118.5 60.61 C128.77 48.12, 139.79 35.73, 169.68 1.75 M124.15 60.22 C139.46 42.64, 156.38 24.92, 175.32 1.35 M124.15 60.22 C141.71 39.58, 160.82 18.08, 175.32 1.35 M129.13 60.58 C139.15 48.25, 152.04 35.76, 180.31 1.71 M129.13 60.58 C149.5 38.26, 168.01 16.44, 180.31 1.71 M134.78 60.18 C149.4 42.98, 164.48 24.29, 185.95 1.32 M134.78 60.18 C147 45.82, 159.24 31.09, 185.95 1.32 M139.76 60.54 C159.22 38.6, 176.32 16.59, 190.94 1.68 M139.76 60.54 C155.94 43.46, 169.52 25.43, 190.94 1.68 M145.41 60.15 C163.67 39.69, 181.5 19.34, 196.58 1.28 M145.41 60.15 C156.3 48.24, 165.8 37.4, 196.58 1.28 M150.39 60.51 C167.74 39.29, 185.52 19.12, 201.57 1.64 M150.39 60.51 C160.2 47.55, 171.09 35.8, 201.57 1.64 M156.04 60.12 C173.38 40.37, 190.53 19.2, 207.21 1.25 M156.04 60.12 C167.06 45.9, 179.19 32.46, 207.21 1.25 M161.02 60.48 C176.39 41.66, 192.53 25.13, 212.2 1.61 M161.02 60.48 C173.5 47.07, 185.66 33.01, 212.2 1.61 M166.67 60.08 C181.83 41.45, 195.38 28.26, 217.84 1.21 M166.67 60.08 C188.03 36.25, 207.53 13.82, 217.84 1.21 M171.65 60.44 C187.43 42.29, 208.26 21.96, 222.83 1.57 M171.65 60.44 C187.1 44.01, 200.95 29.3, 222.83 1.57 M177.3 60.05 C192.21 43.27, 204.35 29.26, 228.47 1.18 M177.3 60.05 C192.3 40.59, 208.9 22.17, 228.47 1.18 M182.28 60.41 C194.4 46.6, 205.86 33.72, 233.46 1.54 M182.28 60.41 C198.11 41.31, 213.78 23.69, 233.46 1.54 M187.93 60.01 C207.51 39.05, 227.59 16.39, 238.44 1.9 M187.93 60.01 C203.15 42.43, 218.25 24.99, 238.44 1.9 M192.91 60.37 C204.22 48.69, 215.79 37.99, 244.09 1.5 M192.91 60.37 C206.63 43.65, 220.95 28.56, 244.09 1.5 M198.56 59.98 C209.54 47.29, 220.79 37.85, 249.07 1.86 M198.56 59.98 C210.31 45.44, 223.2 32.46, 249.07 1.86 M203.54 60.34 C216.16 46.74, 230.05 32.5, 254.72 1.47 M203.54 60.34 C221.64 37.84, 241.62 16.46, 254.72 1.47 M209.19 59.94 C222.17 48.53, 234.07 32.57, 259.7 1.83 M209.19 59.94 C221.7 44.65, 235.23 30.92, 259.7 1.83 M214.17 60.3 C227 46.99, 235.35 35.22, 265.35 1.44 M214.17 60.3 C234.31 35.93, 255.65 12.34, 265.35 1.44 M219.16 60.66 C237.12 42.08, 249.85 22.86, 270.33 1.8 M219.16 60.66 C235.01 43.36, 249.99 25.82, 270.33 1.8 M224.8 60.27 C233.85 47.07, 248.43 36.06, 275.98 1.4 M224.8 60.27 C235.61 47.95, 245.97 34.93, 275.98 1.4 M229.79 60.63 C241.17 45.42, 251.28 32.13, 280.96 1.76 M229.79 60.63 C247.63 39.56, 266.36 19.73, 280.96 1.76 M235.44 60.23 C251.23 43, 266.83 23.64, 286.61 1.37 M235.44 60.23 C247.05 46.29, 259.75 33.6, 286.61 1.37 M240.42 60.59 C253.85 44.03, 267.76 30.19, 291.59 1.73 M240.42 60.59 C259.67 38.32, 278.58 17.36, 291.59 1.73 M246.07 60.2 C259.27 43.52, 276.74 27.22, 297.24 1.33 M246.07 60.2 C265.27 37.58, 283.79 15.14, 297.24 1.33 M251.05 60.56 C261.6 46.04, 277.32 31.44, 302.22 1.69 M251.05 60.56 C260.97 48.11, 272.35 36.57, 302.22 1.69 M256.7 60.17 C271.97 46.16, 282.07 29.64, 307.87 1.3 M256.7 60.17 C272.13 42.98, 286.92 26.2, 307.87 1.3 M261.68 60.53 C277.73 42.68, 295.63 20.05, 312.85 1.66 M261.68 60.53 C275.08 44.54, 287.85 30.69, 312.85 1.66 M267.33 60.13 C279.22 44.41, 295.84 29.81, 318.5 1.26 M267.33 60.13 C285.2 40.2, 303.6 18.53, 318.5 1.26 M272.31 60.49 C293.1 38.88, 311.75 16.22, 322.83 2.38 M272.31 60.49 C281.92 48.69, 292.77 37.5, 322.83 2.38 M277.96 60.1 C292.66 43.03, 307.49 27.15, 326.5 4.25 M277.96 60.1 C290.49 46.78, 302.36 33.34, 326.5 4.25 M282.94 60.46 C293.48 48.19, 308.05 34.89, 330.18 6.12 M282.94 60.46 C298.44 43.45, 311.9 27.77, 330.18 6.12 M288.59 60.06 C298.97 49.02, 308.19 37.74, 331.89 10.25 M288.59 60.06 C305.81 40.42, 323.04 21.08, 331.89 10.25 M293.57 60.42 C302.48 50.16, 309.22 40.54, 332.28 15.89 M293.57 60.42 C303.21 48.58, 313.72 35.44, 332.28 15.89 M299.22 60.03 C306.96 49.87, 315.93 38.63, 332.02 22.29 M299.22 60.03 C309.31 47.69, 320.43 36.73, 332.02 22.29 M304.2 60.39 C309.09 54.93, 317.06 47.84, 332.41 27.93 M304.2 60.39 C309.73 52.62, 316.02 45.36, 332.41 27.93 M309.19 60.75 C312.96 54.82, 316.83 51.25, 332.81 33.58 M309.19 60.75 C316.45 52.68, 322.26 45.75, 332.81 33.58 M314.83 60.35 C319.89 53.48, 326.81 47.03, 332.55 39.98 M314.83 60.35 C320.09 54.76, 326.02 48.76, 332.55 39.98 M319.16 61.47 C323.31 55.33, 326.3 53.19, 330.97 47.88 M319.16 61.47 C321.46 57.99, 325.08 54.5, 330.97 47.88" stroke="#ffc9c9" stroke-width="0.5" fill="none"></path><path d="M14.75 0 M14.75 0 C90.24 -0.84, 163.71 1.42, 316.25 0 M14.75 0 C94.46 1.24, 174.76 1.71, 316.25 0 M316.25 0 C324.38 0.19, 330.55 3.04, 331 14.75 M316.25 0 C324.62 1.7, 331.78 6.45, 331 14.75 M331 14.75 C330.09 20.5, 331.98 28.07, 331 44.25 M331 14.75 C330.53 25.04, 331.28 36.93, 331 44.25 M331 44.25 C331.1 55.01, 327.19 59.09, 316.25 59 M331 44.25 C328.94 53.97, 324.79 59.56, 316.25 59 M316.25 59 C247.21 57.94, 175.83 59.03, 14.75 59 M316.25 59 C248.56 61.9, 181.29 60.91, 14.75 59 M14.75 59 C6.28 60.71, 1.04 53.33, 0 44.25 M14.75 59 C4.16 57.67, -2 53.85, 0 44.25 M0 44.25 C-1.04 34.94, 1.38 28.49, 0 14.75 M0 44.25 C-0.44 36.21, -0.17 26.86, 0 14.75 M0 14.75 C-1.76 6.75, 5.69 -0.23, 14.75 0 M0 14.75 C-0.6 3.48, 3.45 -0.75, 14.75 0" stroke="#1e1e1e" stroke-width="1" fill="none"></path></g><g transform="translate(143.61673518561406 885.7656935634695) rotate(0 41.26995849609375 12.5)"><text x="41.26995849609375" y="0" font-family="Virgil, Segoe UI Emoji" font-size="20px" fill="#1e1e1e" text-anchor="middle" style="white-space: pre;" direction="ltr" dominant-baseline="text-before-edge">nri plugin</text></g><g stroke-linecap="round" transform="translate(15.611948117769998 745.2189051470195) rotate(0 173 28.5)"><path d="M14.25 0 M14.25 0 C119.07 -2.65, 225.34 -3.03, 331.75 0 M14.25 0 C134.69 0.55, 254.74 0.46, 331.75 0 M331.75 0 C342.82 1.43, 347.58 4.51, 346 14.25 M331.75 0 C342.01 0.4, 344.41 4.75, 346 14.25 M346 14.25 C347.77 23.93, 347.33 33.4, 346 42.75 M346 14.25 C346.58 23.32, 345.22 32.98, 346 42.75 M346 42.75 C345.82 50.99, 339.82 57.89, 331.75 57 M346 42.75 C346.44 52.57, 343.02 55.71, 331.75 57 M331.75 57 C236.08 53.9, 141.82 55.23, 14.25 57 M331.75 57 C241.6 54.98, 152.72 55, 14.25 57 M14.25 57 C4.37 56.28, -0.87 50.74, 0 42.75 M14.25 57 C3.21 58.67, -1.24 53.93, 0 42.75 M0 42.75 C-0.21 30.94, 0 18.56, 0 14.25 M0 42.75 C-0.61 35.53, 0.76 27.03, 0 14.25 M0 14.25 C1.65 3.64, 4.83 0.38, 14.25 0 M0 14.25 C-0.98 3.72, 4.54 2.02, 14.25 0" stroke="#1e1e1e" stroke-width="1" fill="none"></path></g><g transform="translate(26.742136106051248 761.2189051470195) rotate(0 161.86981201171875 12.5)"><text x="161.86981201171875" y="0" font-family="Virgil, Segoe UI Emoji" font-size="20px" fill="#1e1e1e" text-anchor="middle" style="white-space: pre;" direction="ltr" dominant-baseline="text-before-edge">isula-rust-extensions-plugin client</text></g><g stroke-linecap="round"><g transform="translate(193.48920462632282 806.1360531347664) rotate(0 0.5828912998827604 32.13722384666016)"><path d="M-0.41 -0.14 C-0.23 10.57, 0.43 53.41, 0.36 64.09 M1.58 -1.26 C1.7 9.65, -0.42 54.47, -0.42 65.53" stroke="#1e1e1e" stroke-width="1" fill="none"></path></g><g transform="translate(193.48920462632282 806.1360531347664) rotate(0 0.5828912998827604 32.13722384666016)"><path d="M-10.16 37.63 C-8 42.42, -5.96 49.26, -1.67 63.77 M-9.73 37.48 C-6.99 45.75, -3.62 54.01, -0.12 66.51" stroke="#1e1e1e" stroke-width="1" fill="none"></path></g><g transform="translate(193.48920462632282 806.1360531347664) rotate(0 0.5828912998827604 32.13722384666016)"><path d="M10.35 38.17 C7.63 42.76, 4.78 49.47, -1.67 63.77 M10.78 38.03 C7.23 46.15, 4.32 54.24, -0.12 66.51" stroke="#1e1e1e" stroke-width="1" fill="none"></path></g></g><mask></mask><g mask="url(#mask-MnhzEbIaIqh74s_zosROW)" stroke-linecap="round"><g transform="translate(402.05735358504376 377.54606753379994) rotate(0 121.57534873310851 -2.01877893778601)"><path d="M-0.66 -0.01 C39.99 -0.54, 202.98 -1.73, 243.81 -2.09 M1.19 -1.06 C41.67 -1.46, 202.34 -4.08, 242.77 -4.03" stroke="#1e1e1e" stroke-width="0.5" fill="none"></path></g><g transform="translate(402.05735358504376 377.54606753379994) rotate(0 121.57534873310851 -2.01877893778601)"><path d="M214.65 6.17 C223.4 4.15, 231.51 2.45, 241.01 -2.68 M214.97 6.2 C225.88 1.81, 235.85 -2.01, 242.46 -4.71" stroke="#1e1e1e" stroke-width="0.5" fill="none"></path></g><g transform="translate(402.05735358504376 377.54606753379994) rotate(0 121.57534873310851 -2.01877893778601)"><path d="M214.47 -14.35 C223.47 -10.34, 231.62 -6.03, 241.01 -2.68 M214.79 -14.32 C225.82 -11.02, 235.86 -7.15, 242.46 -4.71" stroke="#1e1e1e" stroke-width="0.5" fill="none"></path></g></g><mask id="mask-MnhzEbIaIqh74s_zosROW"><rect x="0" y="0" fill="#fff" width="746.0551613629477" height="479.98187432259056"></rect><rect x="439.42632125573414" y="363.8281641394051" fill="#000" width="169.25987243652344" height="25" opacity="1"></rect></mask><g transform="translate(439.42632125573414 363.8281641394051) rotate(0 84.20638106241813 11.699124456608843)"><text x="84.62993621826172" y="0" font-family="Virgil, Segoe UI Emoji" font-size="20px" fill="#1e1e1e" text-anchor="middle" style="white-space: pre;" direction="ltr" dominant-baseline="text-before-edge">CRI sandbox info</text></g></svg>