<?xml version="1.0" encoding="UTF-8" standalone="no"?><svg xmlns="http://www.w3.org/2000/svg" xmlns:xlink="http://www.w3.org/1999/xlink" contentStyleType="text/css" height="570px" preserveAspectRatio="none" style="width:353px;height:570px;background:#FFFFFF;" version="1.1" viewBox="0 0 353 570" width="353px" zoomAndPan="magnify"><defs/><g><!--MD5=[1f28f3b5edd837eaa4cb6bee95f4022e]
class ControllerManager--><g id="elem_ControllerManager"><rect fill="#F1F1F1" height="48" id="ControllerManager" rx="2.5" ry="2.5" style="stroke:#181818;stroke-width:0.5;" width="160" x="68.5" y="7"/><ellipse cx="83.5" cy="23" fill="#ADD1B2" rx="11" ry="11" style="stroke:#181818;stroke-width:1.0;"/><path d="M82.9688,29.9219 Q81.2188,29.9219 80.0781,29.1875 Q78.9531,28.4375 78.3906,27.0938 Q77.8438,25.7344 77.8438,23.9375 Q77.8438,21.9063 78.5,20.4531 Q79.1563,19 80.4375,18.2188 Q81.7188,17.4375 83.5938,17.4375 Q84.4844,17.4375 85.1563,17.625 Q85.8281,17.7969 86.5156,18.1406 L85.7031,20.1563 Q85.0781,19.8438 84.5313,19.7188 Q84,19.5938 83.5156,19.5938 Q82.3438,19.5938 81.6406,20.125 Q80.9375,20.6563 80.6406,21.6094 Q80.3438,22.5625 80.3438,23.8281 Q80.3438,25.8438 81.0625,26.8125 Q81.7813,27.7656 83.375,27.7656 Q83.9688,27.7656 84.5938,27.6094 Q85.2188,27.4531 86.0469,27.0781 L86.0469,29.2969 Q85.3125,29.6094 84.5156,29.7656 Q83.7344,29.9219 82.9688,29.9219 Z " fill="#000000"/><text fill="#000000" font-family="sans-serif" font-size="14" lengthAdjust="spacing" textLength="128" x="97.5" y="28.432">ControllerManager</text><line style="stroke:#181818;stroke-width:0.5;" x1="69.5" x2="227.5" y1="39" y2="39"/><line style="stroke:#181818;stroke-width:0.5;" x1="69.5" x2="227.5" y1="47" y2="47"/></g><!--MD5=[1d7ba1c7002d54515419844fbd155368]
class Controller--><g id="elem_Controller"><rect fill="#F1F1F1" height="48" id="Controller" rx="2.5" ry="2.5" style="stroke:#181818;stroke-width:0.5;" width="99" x="99" y="134"/><ellipse cx="114" cy="150" fill="#ADD1B2" rx="11" ry="11" style="stroke:#181818;stroke-width:1.0;"/><path d="M113.4688,156.9219 Q111.7188,156.9219 110.5781,156.1875 Q109.4531,155.4375 108.8906,154.0938 Q108.3438,152.7344 108.3438,150.9375 Q108.3438,148.9063 109,147.4531 Q109.6563,146 110.9375,145.2188 Q112.2188,144.4375 114.0938,144.4375 Q114.9844,144.4375 115.6563,144.625 Q116.3281,144.7969 117.0156,145.1406 L116.2031,147.1563 Q115.5781,146.8438 115.0313,146.7188 Q114.5,146.5938 114.0156,146.5938 Q112.8438,146.5938 112.1406,147.125 Q111.4375,147.6563 111.1406,148.6094 Q110.8438,149.5625 110.8438,150.8281 Q110.8438,152.8438 111.5625,153.8125 Q112.2813,154.7656 113.875,154.7656 Q114.4688,154.7656 115.0938,154.6094 Q115.7188,154.4531 116.5469,154.0781 L116.5469,156.2969 Q115.8125,156.6094 115.0156,156.7656 Q114.2344,156.9219 113.4688,156.9219 Z " fill="#000000"/><text fill="#000000" font-family="sans-serif" font-size="14" lengthAdjust="spacing" textLength="67" x="128" y="155.432">Controller</text><line style="stroke:#181818;stroke-width:0.5;" x1="100" x2="197" y1="166" y2="166"/><line style="stroke:#181818;stroke-width:0.5;" x1="100" x2="197" y1="174" y2="174"/></g><!--MD5=[9eaf3f536650dfb6cbbc5688754d6a40]
class ShimController--><g id="elem_ShimController"><rect fill="#F1F1F1" height="48" id="ShimController" rx="2.5" ry="2.5" style="stroke:#181818;stroke-width:0.5;" width="133" x="7" y="261"/><ellipse cx="22" cy="277" fill="#ADD1B2" rx="11" ry="11" style="stroke:#181818;stroke-width:1.0;"/><path d="M21.4688,283.9219 Q19.7188,283.9219 18.5781,283.1875 Q17.4531,282.4375 16.8906,281.0938 Q16.3438,279.7344 16.3438,277.9375 Q16.3438,275.9063 17,274.4531 Q17.6563,273 18.9375,272.2188 Q20.2188,271.4375 22.0938,271.4375 Q22.9844,271.4375 23.6563,271.625 Q24.3281,271.7969 25.0156,272.1406 L24.2031,274.1563 Q23.5781,273.8438 23.0313,273.7188 Q22.5,273.5938 22.0156,273.5938 Q20.8438,273.5938 20.1406,274.125 Q19.4375,274.6563 19.1406,275.6094 Q18.8438,276.5625 18.8438,277.8281 Q18.8438,279.8438 19.5625,280.8125 Q20.2813,281.7656 21.875,281.7656 Q22.4688,281.7656 23.0938,281.6094 Q23.7188,281.4531 24.5469,281.0781 L24.5469,283.2969 Q23.8125,283.6094 23.0156,283.7656 Q22.2344,283.9219 21.4688,283.9219 Z " fill="#000000"/><text fill="#000000" font-family="sans-serif" font-size="14" lengthAdjust="spacing" textLength="101" x="36" y="282.432">ShimController</text><line style="stroke:#181818;stroke-width:0.5;" x1="8" x2="139" y1="293" y2="293"/><line style="stroke:#181818;stroke-width:0.5;" x1="8" x2="139" y1="301" y2="301"/></g><!--MD5=[4a54e95f1db7ccef835ed85200bae959]
class SandboxerController--><g id="elem_SandboxerController"><rect fill="#F1F1F1" height="48" id="SandboxerController" rx="2.5" ry="2.5" style="stroke:#181818;stroke-width:0.5;" width="171" x="175" y="261"/><ellipse cx="190" cy="277" fill="#ADD1B2" rx="11" ry="11" style="stroke:#181818;stroke-width:1.0;"/><path d="M189.4688,283.9219 Q187.7188,283.9219 186.5781,283.1875 Q185.4531,282.4375 184.8906,281.0938 Q184.3438,279.7344 184.3438,277.9375 Q184.3438,275.9063 185,274.4531 Q185.6563,273 186.9375,272.2188 Q188.2188,271.4375 190.0938,271.4375 Q190.9844,271.4375 191.6563,271.625 Q192.3281,271.7969 193.0156,272.1406 L192.2031,274.1563 Q191.5781,273.8438 191.0313,273.7188 Q190.5,273.5938 190.0156,273.5938 Q188.8438,273.5938 188.1406,274.125 Q187.4375,274.6563 187.1406,275.6094 Q186.8438,276.5625 186.8438,277.8281 Q186.8438,279.8438 187.5625,280.8125 Q188.2813,281.7656 189.875,281.7656 Q190.4688,281.7656 191.0938,281.6094 Q191.7188,281.4531 192.5469,281.0781 L192.5469,283.2969 Q191.8125,283.6094 191.0156,283.7656 Q190.2344,283.9219 189.4688,283.9219 Z " fill="#000000"/><text fill="#000000" font-family="sans-serif" font-size="14" lengthAdjust="spacing" textLength="139" x="204" y="282.432">SandboxerController</text><line style="stroke:#181818;stroke-width:0.5;" x1="176" x2="345" y1="293" y2="293"/><line style="stroke:#181818;stroke-width:0.5;" x1="176" x2="345" y1="301" y2="301"/></g><!--MD5=[4a95a40defb657e52a94ad10606e0539]
class SandboxerClient--><g id="elem_SandboxerClient"><rect fill="#F1F1F1" height="48" id="SandboxerClient" rx="2.5" ry="2.5" style="stroke:#181818;stroke-width:0.5;" width="143" x="189" y="388"/><ellipse cx="204" cy="404" fill="#ADD1B2" rx="11" ry="11" style="stroke:#181818;stroke-width:1.0;"/><path d="M203.4688,410.9219 Q201.7188,410.9219 200.5781,410.1875 Q199.4531,409.4375 198.8906,408.0938 Q198.3438,406.7344 198.3438,404.9375 Q198.3438,402.9063 199,401.4531 Q199.6563,400 200.9375,399.2188 Q202.2188,398.4375 204.0938,398.4375 Q204.9844,398.4375 205.6563,398.625 Q206.3281,398.7969 207.0156,399.1406 L206.2031,401.1563 Q205.5781,400.8438 205.0313,400.7188 Q204.5,400.5938 204.0156,400.5938 Q202.8438,400.5938 202.1406,401.125 Q201.4375,401.6563 201.1406,402.6094 Q200.8438,403.5625 200.8438,404.8281 Q200.8438,406.8438 201.5625,407.8125 Q202.2813,408.7656 203.875,408.7656 Q204.4688,408.7656 205.0938,408.6094 Q205.7188,408.4531 206.5469,408.0781 L206.5469,410.2969 Q205.8125,410.6094 205.0156,410.7656 Q204.2344,410.9219 203.4688,410.9219 Z " fill="#000000"/><text fill="#000000" font-family="sans-serif" font-size="14" lengthAdjust="spacing" textLength="111" x="218" y="409.432">SandboxerClient</text><line style="stroke:#181818;stroke-width:0.5;" x1="190" x2="331" y1="420" y2="420"/><line style="stroke:#181818;stroke-width:0.5;" x1="190" x2="331" y1="428" y2="428"/></g><!--MD5=[f3558ae9c980f11c173732c88dfd1fa8]
class SandboxerMonitor--><g id="elem_SandboxerMonitor"><rect fill="#F1F1F1" height="48" id="SandboxerMonitor" rx="2.5" ry="2.5" style="stroke:#181818;stroke-width:0.5;" width="157" x="182" y="515"/><ellipse cx="197" cy="531" fill="#ADD1B2" rx="11" ry="11" style="stroke:#181818;stroke-width:1.0;"/><path d="M196.4688,537.9219 Q194.7188,537.9219 193.5781,537.1875 Q192.4531,536.4375 191.8906,535.0938 Q191.3438,533.7344 191.3438,531.9375 Q191.3438,529.9063 192,528.4531 Q192.6563,527 193.9375,526.2188 Q195.2188,525.4375 197.0938,525.4375 Q197.9844,525.4375 198.6563,525.625 Q199.3281,525.7969 200.0156,526.1406 L199.2031,528.1563 Q198.5781,527.8438 198.0313,527.7188 Q197.5,527.5938 197.0156,527.5938 Q195.8438,527.5938 195.1406,528.125 Q194.4375,528.6563 194.1406,529.6094 Q193.8438,530.5625 193.8438,531.8281 Q193.8438,533.8438 194.5625,534.8125 Q195.2813,535.7656 196.875,535.7656 Q197.4688,535.7656 198.0938,535.6094 Q198.7188,535.4531 199.5469,535.0781 L199.5469,537.2969 Q198.8125,537.6094 198.0156,537.7656 Q197.2344,537.9219 196.4688,537.9219 Z " fill="#000000"/><text fill="#000000" font-family="sans-serif" font-size="14" lengthAdjust="spacing" textLength="125" x="211" y="536.432">SandboxerMonitor</text><line style="stroke:#181818;stroke-width:0.5;" x1="183" x2="338" y1="547" y2="547"/><line style="stroke:#181818;stroke-width:0.5;" x1="183" x2="338" y1="555" y2="555"/></g><!--MD5=[406a80c8218b9fd0b6dd11e5c360a108]
reverse link ControllerManager to Controller--><g id="link_ControllerManager_Controller"><path codeLine="1" d="M148.5,68.29 C148.5,89.46 148.5,115.52 148.5,133.91 " fill="none" id="ControllerManager-backto-Controller" style="stroke:#181818;stroke-width:1.0;"/><polygon fill="#181818" points="148.5,55.22,144.5,61.22,148.5,67.22,152.5,61.22,148.5,55.22" style="stroke:#181818;stroke-width:1.0;"/><polygon fill="#000000" points="153.5,99.853,156.4389,90.8079,150.5611,90.8079,153.5,99.853" style="stroke:#000000;stroke-width:1.0;"/><text fill="#000000" font-family="sans-serif" font-size="13" lengthAdjust="spacing" textLength="49" x="162.5" y="99.897">manage</text><text fill="#000000" font-family="sans-serif" font-size="13" lengthAdjust="spacing" textLength="7" x="140.6906" y="76.7651">1</text><text fill="#000000" font-family="sans-serif" font-size="13" lengthAdjust="spacing" textLength="34" x="109.9313" y="122.1433">many</text></g><!--MD5=[bd426d5ec828eba105a21480c352404d]
reverse link Controller to ShimController--><g id="link_Controller_ShimController"><path codeLine="2" d="M116.44,198.55 C113.28,202.99 110.24,207.53 107.5,212 C97.89,227.68 89.09,246.5 82.85,260.96 " fill="none" id="Controller-backto-ShimController" style="stroke:#181818;stroke-width:1.0;"/><polygon fill="none" points="111.14,193.96,128.78,182.22,122.31,202.39,111.14,193.96" style="stroke:#181818;stroke-width:1.0;"/><text fill="#000000" font-family="sans-serif" font-size="13" lengthAdjust="spacing" textLength="71" x="108.5" y="226.897">implements</text></g><!--MD5=[9ef4f0e4573d32954f7a01d44d08cee7]
reverse link Controller to SandboxerController--><g id="link_Controller_SandboxerController"><path codeLine="3" d="M182.65,197.12 C201.31,217.94 223.81,243.05 239.81,260.91 " fill="none" id="Controller-backto-SandboxerController" style="stroke:#181818;stroke-width:1.0;"/><polygon fill="none" points="177.44,201.79,169.3,182.22,187.86,192.44,177.44,201.79" style="stroke:#181818;stroke-width:1.0;"/><text fill="#000000" font-family="sans-serif" font-size="13" lengthAdjust="spacing" textLength="71" x="211.5" y="226.897">implements</text></g><!--MD5=[7878efebe0f6ca407339b7fbb1489c65]
reverse link SandboxerController to SandboxerClient--><g id="link_SandboxerController_SandboxerClient"><path codeLine="5" d="M260.5,322.29 C260.5,343.46 260.5,369.52 260.5,387.91 " fill="none" id="SandboxerController-backto-SandboxerClient" style="stroke:#181818;stroke-width:1.0;"/><polygon fill="#181818" points="260.5,309.22,256.5,315.22,260.5,321.22,264.5,315.22,260.5,309.22" style="stroke:#181818;stroke-width:1.0;"/><polygon fill="#000000" points="265.5,353.853,268.4389,344.8079,262.5611,344.8079,265.5,353.853" style="stroke:#000000;stroke-width:1.0;"/><text fill="#000000" font-family="sans-serif" font-size="13" lengthAdjust="spacing" textLength="32" x="274.5" y="353.897">owns</text></g><!--MD5=[85548fc387c2299386c2d7f6f51e700d]
reverse link SandboxerClient to SandboxerMonitor--><g id="link_SandboxerClient_SandboxerMonitor"><path codeLine="6" d="M260.5,449.29 C260.5,470.46 260.5,496.52 260.5,514.91 " fill="none" id="SandboxerClient-backto-SandboxerMonitor" style="stroke:#181818;stroke-width:1.0;"/><polygon fill="#181818" points="260.5,436.22,256.5,442.22,260.5,448.22,264.5,442.22,260.5,436.22" style="stroke:#181818;stroke-width:1.0;"/><polygon fill="#000000" points="265.5,480.853,268.4389,471.8079,262.5611,471.8079,265.5,480.853" style="stroke:#000000;stroke-width:1.0;"/><text fill="#000000" font-family="sans-serif" font-size="13" lengthAdjust="spacing" textLength="32" x="274.5" y="480.897">owns</text></g><!--MD5=[3724d9dac474c501b6b8d60ae354a748]
@startuml
ControllerManager "1" *- - "many" Controller : manage >
Controller <|- - ShimController : implements
Controller <|- - SandboxerController : implements

SandboxerController *- - SandboxerClient : owns >
SandboxerClient *- - SandboxerMonitor : owns >

@enduml

PlantUML version 1.2022.7(Tue Aug 23 01:01:30 CST 2022)
(GPL source distribution)
Java Runtime: OpenJDK Runtime Environment
JVM: OpenJDK 64-Bit Server VM
Default Encoding: UTF-8
Language: en
Country: US
--></g></svg>