<svg version="1.1" xmlns="http://www.w3.org/2000/svg" viewBox="0 0 1418.9181199214825 861.1522534794924" width="1418.9181199214825" height="861.1522534794924">
  <!-- svg-source:excalidraw -->
  
  <defs>
    <style class="style-fonts">
      @font-face {
        font-family: "Virgil";
        src: url("https://excalidraw.com/Virgil.woff2");
      }
      @font-face {
        font-family: "Cascadia";
        src: url("https://excalidraw.com/Cascadia.woff2");
      }
    </style>
    
  </defs>
  <rect x="0" y="0" width="1418.9181199214825" height="861.1522534794924" fill="#ffffff"></rect><g stroke-linecap="round" transform="translate(10 10.000000000000028) rotate(0 213.14473953169352 419.50272575271606)"><path d="M-0.81 0.67 C137.99 -1, 275.62 -1.23, 425.34 -0.68 M427.01 -0.52 C422.69 196.78, 422.22 392.29, 427.05 839.42 M426.82 839.25 C288.3 838.17, 150.86 839.35, 0.35 838.01 M0.66 838.43 C1.39 661.95, 0.97 485.24, 0.1 0.4" stroke="#1e1e1e" stroke-width="1.5" fill="none" stroke-dasharray="8 9"></path></g><g transform="translate(51.33083965438402 49.24262047946192) rotate(0 146.13131713867188 15.139720332123105)"><text x="0" y="0" font-family="Virgil, Segoe UI Emoji" font-size="24.22355253139697px" fill="#1e1e1e" text-anchor="start" style="white-space: pre;" direction="ltr" dominant-baseline="text-before-edge">AsyncCompleteRpcThread</text></g><g stroke-linecap="round" transform="translate(559.9229538640553 159.66517591933183) rotate(0 149.53826117297558 29.51766099758268)"><path d="M14.76 0 M14.76 0 C79.76 2.42, 146.44 2.85, 284.32 0 M14.76 0 C116.58 0.02, 218.69 0.97, 284.32 0 M284.32 0 C292.18 1.85, 298.5 5.03, 299.08 14.76 M284.32 0 C293.44 -2.02, 299.43 7.21, 299.08 14.76 M299.08 14.76 C298.61 20.05, 299.64 30.14, 299.08 44.28 M299.08 14.76 C298.56 27.02, 298.39 38.5, 299.08 44.28 M299.08 44.28 C299.97 54.89, 295.21 57.66, 284.32 59.04 M299.08 44.28 C300.02 51.84, 294.96 58.58, 284.32 59.04 M284.32 59.04 C185.11 61.4, 84.48 60.61, 14.76 59.04 M284.32 59.04 C181.82 59.21, 78.03 59.12, 14.76 59.04 M14.76 59.04 C5.69 58.14, -1.21 52.47, 0 44.28 M14.76 59.04 C2.81 58.02, -0.61 52.94, 0 44.28 M0 44.28 C0.44 34.57, 1.35 23.89, 0 14.76 M0 44.28 C-0.73 35.19, 0.3 25.74, 0 14.76 M0 14.76 C-0.41 6.79, 5.06 -0.25, 14.76 0 M0 14.76 C-1.74 4.26, 6.35 1.65, 14.76 0" stroke="#2f9e44" stroke-width="1" fill="none"></path></g><g transform="translate(593.0934619385598 182.1082683599383) rotate(0 113.21990203857422 12.499999999999986)"><text x="0" y="0" font-family="Virgil, Segoe UI Emoji" font-size="20px" fill="#2f9e44" text-anchor="start" style="white-space: pre;" direction="ltr" dominant-baseline="text-before-edge">m_cq: completion queue</text></g><g stroke-linecap="round" transform="translate(215.33971084276618 99.08901661171953) rotate(0 13.989740150595878 13.346839065057623)"><path d="M13.78 0.52 C16.64 0.45, 20.49 2.3, 22.88 4.04 C25.28 5.77, 27.47 8.1, 28.15 10.95 C28.84 13.79, 28.65 18.6, 27 21.1 C25.34 23.59, 21.28 25.2, 18.24 25.94 C15.21 26.67, 11.66 26.38, 8.77 25.5 C5.88 24.61, 2.14 23.21, 0.88 20.64 C-0.37 18.07, 0.68 12.85, 1.23 10.08 C1.78 7.32, 1.56 5.8, 4.2 4.06 C6.84 2.31, 14.52 0.17, 17.06 -0.4 C19.6 -0.97, 19.52 0.35, 19.41 0.62 M19 1.9 C21.96 2.48, 25.65 4.41, 26.97 6.54 C28.28 8.66, 27.25 11.98, 26.88 14.64 C26.52 17.31, 26.54 20.41, 24.79 22.54 C23.05 24.67, 19.59 27.07, 16.43 27.43 C13.27 27.79, 8.25 26.56, 5.82 24.7 C3.39 22.85, 2.36 18.97, 1.86 16.28 C1.36 13.6, 1.69 11.24, 2.83 8.58 C3.96 5.92, 6.35 1.74, 8.66 0.34 C10.96 -1.07, 15.33 0.12, 16.67 0.16 C18.01 0.19, 16.57 0.47, 16.69 0.55" stroke="#1e1e1e" stroke-width="1" fill="none"></path></g><g stroke-linecap="round"><g transform="translate(229.0852389951839 126.78079059323477) rotate(0 -0.151749602962866 25.13141274893316)"><path d="M-1.5 0.38 C0.24 17.85, -1.09 33.95, 1.19 49.88 M-0.03 0.76 C-0.78 11.62, -0.08 21.28, 1.09 49.12" stroke="#1e1e1e" stroke-width="1" fill="none"></path></g><g transform="translate(229.0852389951839 126.78079059323477) rotate(0 -0.151749602962866 25.13141274893316)"><path d="M-9.87 26.64 C-5.07 35.21, -3.47 42.39, 1.54 49.52 M-8.4 27.02 C-7.01 31.89, -4.37 35.64, 1.44 48.76" stroke="#1e1e1e" stroke-width="1" fill="none"></path></g><g transform="translate(229.0852389951839 126.78079059323477) rotate(0 -0.151749602962866 25.13141274893316)"><path d="M7.04 25.91 C6.17 34.67, 2.09 42.1, 1.54 49.52 M8.51 26.28 C6.14 31.46, 5.02 35.37, 1.44 48.76" stroke="#1e1e1e" stroke-width="1" fill="none"></path></g></g><mask></mask><g stroke-linecap="round" transform="translate(178.6730960386409 176.2318336441924) rotate(0 55.810190103250534 23.710298299291267)"><path d="M0.15 -1.36 C32.03 -0.63, 60.86 1.88, 112.14 -0.85 M0.52 0.97 C27.55 -0.03, 55.3 0.06, 111.34 0.35 M112.95 -1.59 C110.18 11.08, 112.17 21.6, 113.21 46.72 M111.05 0.79 C112.01 9.29, 111.39 19.99, 111.21 46.86 M109.77 46.66 C76.27 48.46, 45.11 49.7, -1.49 45.49 M110.85 46.47 C75.11 46.78, 36 46.38, 0.28 48.32 M-1.51 47.18 C0.32 39, -1.39 29.21, -0.5 -1.22 M0.14 46.44 C0.94 33.76, -0.34 18.91, -0.64 0.14" stroke="#1e1e1e" stroke-width="1" fill="none"></path></g><g transform="translate(213.07330536796565 187.44213194348367) rotate(0 21.40998077392578 12.5)"><text x="21.40998077392578" y="0" font-family="Virgil, Segoe UI Emoji" font-size="20px" fill="#1e1e1e" text-anchor="middle" style="white-space: pre;" direction="ltr" dominant-baseline="text-before-edge">next</text></g><g stroke-linecap="round"><g transform="translate(550.9382783628563 191.69865232189255) rotate(0 -123.87668480098088 5.008581367520762)"><path d="M1.29 0.27 C-98.9 6.22, -197.92 7.84, -249.04 9.75" stroke="#2f9e44" stroke-width="4.5" fill="none" stroke-dasharray="8 12"></path></g><g transform="translate(550.9382783628563 191.69865232189255) rotate(0 -123.87668480098088 5.008581367520762)"><path d="M-219.6 -1.04 C-231.63 4.34, -242.24 6.64, -248.49 11.35" stroke="#2f9e44" stroke-width="4.5" fill="none"></path></g><g transform="translate(550.9382783628563 191.69865232189255) rotate(0 -123.87668480098088 5.008581367520762)"><path d="M-218.97 19.47 C-231.32 16.69, -242.18 10.81, -248.49 11.35" stroke="#2f9e44" stroke-width="4.5" fill="none"></path></g></g><mask></mask><g transform="translate(442.0063936049695 157.56644923513696) rotate(0 40.419952392578125 12.5)"><text x="0" y="0" font-family="Virgil, Segoe UI Emoji" font-size="20px" fill="#2f9e44" text-anchor="start" style="white-space: pre;" direction="ltr" dominant-baseline="text-before-edge">popfront</text></g><g stroke-linecap="round"><g transform="translate(234.34277105093855 227.56287533926707) rotate(0 -0.32007932426375874 36.16617262672199)"><path d="M0.64 -0.81 C-0.35 24.63, -1.38 47.66, -1.28 73.08 M-0.01 0.23 C0.82 27.16, -0.31 52.27, 0.17 73.14" stroke="#1e1e1e" stroke-width="1" fill="none"></path></g><g transform="translate(234.34277105093855 227.56287533926707) rotate(0 -0.32007932426375874 36.16617262672199)"><path d="M-9.58 44.19 C-7.28 55.21, -4.71 63.76, -0.42 73.53 M-10.23 45.22 C-5.53 55.97, -2.64 64.89, 1.02 73.58" stroke="#1e1e1e" stroke-width="1" fill="none"></path></g><g transform="translate(234.34277105093855 227.56287533926707) rotate(0 -0.32007932426375874 36.16617262672199)"><path d="M10.94 44.09 C6.57 55.03, 2.48 63.61, -0.42 73.53 M10.29 45.13 C7.53 55.88, 2.96 64.83, 1.02 73.58" stroke="#1e1e1e" stroke-width="1" fill="none"></path></g></g><mask></mask><g stroke-linecap="round" transform="translate(144.78340596240093 303.97787331026746) rotate(0 90 30)"><path d="M1.06 -0.28 C50.73 -0.15, 101.25 0.28, 178.88 1.67 M0.99 0.08 C66.57 -0.34, 132.01 -0.72, 179.43 0.73 M180.63 -1.52 C178.79 20.32, 179.26 42.41, 178.59 60.22 M179.03 -0.56 C180.15 17.66, 179.94 37.27, 179.24 60.86 M178.4 58.42 C138.97 57.81, 98.6 59.02, 0.56 58.6 M180.32 60.05 C126.8 61.39, 74.95 60.9, 0.96 59.47 M-0.49 60.37 C-1.41 44.18, 1.4 27.13, -1.37 -0.03 M0.87 60.18 C-0.39 42.96, 1.32 24.28, 0.78 -0.85" stroke="#1e1e1e" stroke-width="1" fill="none"></path></g><g transform="translate(160.42347401660015 321.47787331026746) rotate(0 74.35993194580078 12.5)"><text x="74.35993194580078" y="0" font-family="Virgil, Segoe UI Emoji" font-size="20px" fill="#1e1e1e" text-anchor="middle" style="white-space: pre;" direction="ltr" dominant-baseline="text-before-edge">HandleResponse</text></g><g stroke-linecap="round"><g transform="translate(234.24971731925143 365.0713144073284) rotate(0 -3.4458860236929354 36.20077177835259)"><path d="M-0.46 -0.54 C-0.7 22.99, -2.33 44.72, -6.44 72.94 M-0.86 -0.49 C-1.13 19.32, -2.55 38.97, -5.08 72.53" stroke="#1e1e1e" stroke-width="1" fill="none"></path></g><g transform="translate(234.24971731925143 365.0713144073284) rotate(0 -3.4458860236929354 36.20077177835259)"><path d="M-13.7 43.12 C-10.57 53.27, -8.4 61.7, -7.01 72.28 M-14.1 43.17 C-10.82 51.33, -8.88 59.22, -5.65 71.86" stroke="#1e1e1e" stroke-width="1" fill="none"></path></g><g transform="translate(234.24971731925143 365.0713144073284) rotate(0 -3.4458860236929354 36.20077177835259)"><path d="M6.77 44.62 C3.74 54.46, -0.23 62.44, -7.01 72.28 M6.37 44.68 C4.22 52.26, 0.73 59.76, -5.65 71.86" stroke="#1e1e1e" stroke-width="1" fill="none"></path></g></g><mask></mask><g stroke-linecap="round" transform="translate(211.1156913138169 438.275128170298) rotate(0 17.30254037235676 19.21264731657982)"><path d="M16.45 1.53 C20.55 5.43, 26.93 12, 35.51 20.46 M17.18 -0.87 C22.3 5.31, 26.25 9.3, 34.79 19.63 M32.83 20.89 C27.89 25.48, 25.02 31.45, 19.28 39.17 M35.03 19.2 C32.1 23.26, 27.65 26.94, 18.92 38.25 M16.22 38.41 C9.89 29.9, 4.11 24.15, -1.41 21.83 M18.15 38.93 C13.09 32.06, 6.61 27.71, -0.2 19.43 M-1.17 20.95 C5.44 12.09, 11.1 8.08, 19.54 -1.47 M0.31 20.55 C6.71 13.39, 12.56 4.07, 18.17 0.1" stroke="#1e1e1e" stroke-width="1" fill="none"></path></g><g stroke-linecap="round"><g transform="translate(240.45928510519292 465.94685392478857) rotate(0 54.06012381578455 23.50807416305537)"><path d="M-0.86 0.39 C35.19 13.4, 65.95 30.35, 108.98 45.09 M-0.84 0.68 C23.39 9.31, 46.69 21.14, 107.79 46.62" stroke="#1e1e1e" stroke-width="1" fill="none"></path></g><g transform="translate(240.45928510519292 465.94685392478857) rotate(0 54.06012381578455 23.50807416305537)"><path d="M76.97 45.4 C88.87 44.7, 95.53 47.66, 108.92 44.89 M76.99 45.69 C84.29 44.56, 90.53 46.49, 107.73 46.42" stroke="#1e1e1e" stroke-width="1" fill="none"></path></g><g transform="translate(240.45928510519292 465.94685392478857) rotate(0 54.06012381578455 23.50807416305537)"><path d="M85.02 26.52 C94.45 31.69, 98.61 40.49, 108.92 44.89 M85.04 26.82 C90.52 29.83, 95.01 35.9, 107.73 46.42" stroke="#1e1e1e" stroke-width="1" fill="none"></path></g></g><mask></mask><g transform="translate(279.1477506838369 444.3576795990559) rotate(0 29.560501098632812 15.13972033212309)"><text x="0" y="0" font-family="Virgil, Segoe UI Emoji" font-size="24.22355253139697px" fill="#1e1e1e" text-anchor="start" style="white-space: pre;" direction="ltr" dominant-baseline="text-before-edge">retry</text></g><g stroke-linecap="round"><g transform="translate(216.1722641036493 468.0265308947428) rotate(0 -35.54066639546116 26.082843736078644)"><path d="M-1.53 0.58 C-19.23 12.36, -34.13 25.72, -69.79 50.4 M0.32 -0.28 C-18.98 13.05, -37.18 28.14, -71.41 52.44" stroke="#1e1e1e" stroke-width="1" fill="none"></path></g><g transform="translate(216.1722641036493 468.0265308947428) rotate(0 -35.54066639546116 26.082843736078644)"><path d="M-56.17 28.15 C-60.59 33.46, -62.01 40.13, -69.92 50.89 M-54.31 27.29 C-59.26 33.54, -62.94 41.42, -71.53 52.94" stroke="#1e1e1e" stroke-width="1" fill="none"></path></g><g transform="translate(216.1722641036493 468.0265308947428) rotate(0 -35.54066639546116 26.082843736078644)"><path d="M-44.11 44.75 C-51.62 45.9, -56.03 48.48, -69.92 50.89 M-42.25 43.89 C-50.52 45.68, -57.41 49.15, -71.53 52.94" stroke="#1e1e1e" stroke-width="1" fill="none"></path></g></g><mask></mask><g transform="translate(139.32883854383095 453.68537758989703) rotate(0 23.008995056152344 15.13972033212309)"><text x="0" y="0" font-family="Virgil, Segoe UI Emoji" font-size="24.22355253139697px" fill="#1e1e1e" text-anchor="start" style="white-space: pre;" direction="ltr" dominant-baseline="text-before-edge">else</text></g><g stroke-linecap="round" transform="translate(237.4955096160046 522.2454484665443) rotate(0 86.5 30)"><path d="M-1.43 1.17 C47.57 -1.99, 94.53 -2.3, 174.93 0.86 M-0.11 -0.14 C52.29 -0.1, 103.45 -0.97, 173.75 -0.42 M172.28 -0.85 C174.22 17.19, 172.98 38.93, 172.2 58.44 M174 -0.21 C173.99 18.04, 174.18 35.24, 173.37 60.68 M174.93 58.04 C106.55 61.51, 39.69 62.98, -1.86 58.9 M173.32 59.53 C132.46 60.01, 94.49 60.58, -0.46 60.64 M-0.17 61.49 C-1.98 46.92, 1.09 35.56, -1.22 -1.79 M0.26 59.43 C-0.16 41.97, -0.55 25.31, -0.19 -0.83" stroke="#1e1e1e" stroke-width="1" fill="none"></path></g><g transform="translate(244.32558011161007 539.7454484665443) rotate(0 79.66992950439453 12.5)"><text x="79.66992950439453" y="0" font-family="Virgil, Segoe UI Emoji" font-size="20px" fill="#1e1e1e" text-anchor="middle" style="white-space: pre;" direction="ltr" dominant-baseline="text-before-edge">AddDeferredCall</text></g><g stroke-linecap="round" transform="translate(75.60059393719888 524.5354515067675) rotate(0 67 27.5)"><path d="M-1.96 0.7 C45.91 2.66, 89.25 -0.46, 133.4 -1.44 M0.97 0.81 C27.79 0.95, 54.59 -0.15, 133.67 -0.48 M135.45 1.7 C132.89 20.99, 134.67 42.14, 135.76 56.58 M134.46 -0.45 C134.19 18.48, 133.82 37.82, 133.45 55.74 M132.41 55.32 C85.69 57.19, 36.25 56.4, -1.46 56.06 M134.57 54.03 C96.65 54.18, 59.71 54.92, -0.39 55.33 M-1.63 53.06 C-0.65 42.2, 1.48 26.46, 1.88 -1.18 M0.65 54.66 C-0.8 32.07, 0.52 10.86, 0.68 0.04" stroke="#1e1e1e" stroke-width="1" fill="none"></path></g><g transform="translate(88.31063879803872 539.5354515067675) rotate(0 54.289955139160156 12.5)"><text x="54.289955139160156" y="0" font-family="Virgil, Segoe UI Emoji" font-size="20px" fill="#1e1e1e" text-anchor="middle" style="white-space: pre;" direction="ltr" dominant-baseline="text-before-edge">remove call</text></g><g stroke-linecap="round" transform="translate(155.26188299070566 685.866431352074) rotate(0 76.19174848444521 7.111761181759391)"><path d="M-1.74 -0.86 L153.15 1.73 L151.38 10.93 L-2.36 10.27" stroke="none" stroke-width="0" fill="#1e1e1e"></path><path d="M-1.05 -3.06 C47.05 -1.73, 94.78 -3.86, 151.44 3.01 M1.78 1.53 C45.14 2.56, 88.62 1.3, 153.08 -1.18 M152.19 -0.03 C155.04 5.27, 151.41 10.61, 152.67 15.91 M152.28 1.18 C153.53 5.87, 153.39 9.24, 151.32 13.71 M155.17 16.23 C99.72 15.14, 51.52 10.56, 3.79 14.69 M152.46 15.1 C98.02 13.99, 47.68 12.99, -1 15.27 M0.73 14.32 C-2.58 7.86, -2.06 6.06, -0.37 2.1 M-1.3 13.5 C0.96 11.33, 0.7 4.95, 0.14 -0.95" stroke="#1e1e1e" stroke-width="4" fill="none"></path></g><g stroke-linecap="round"><g transform="translate(140.99832625180932 582.3168507235275) rotate(0 38.22859977367449 45.966783766112826)"><path d="M-3.55 -2.79 C17.1 23.48, 35.52 49.96, 80.01 94.72 M0.77 1.77 C13.67 19.4, 32.59 38.9, 74.63 92.73" stroke="#1e1e1e" stroke-width="1" fill="none"></path></g><g transform="translate(140.99832625180932 582.3168507235275) rotate(0 38.22859977367449 45.966783766112826)"><path d="M45.45 74.34 C54.39 81.32, 60.23 89.03, 78.54 96.62 M49.77 78.91 C53.07 80.08, 61.23 83.55, 73.16 94.63" stroke="#1e1e1e" stroke-width="1" fill="none"></path></g><g transform="translate(140.99832625180932 582.3168507235275) rotate(0 38.22859977367449 45.966783766112826)"><path d="M61.47 61.52 C66.27 71.52, 68.11 82.43, 78.54 96.62 M65.8 66.09 C65.48 69.85, 70.23 76.06, 73.16 94.63" stroke="#1e1e1e" stroke-width="1" fill="none"></path></g></g><mask></mask><g stroke-linecap="round"><g transform="translate(328.97239907522567 585.1328637428271) rotate(0 -52.951385518459404 46.39978205836769)"><path d="M0.02 3.96 C-29.91 29.02, -68.52 61.4, -106.68 90.15 M0.77 0.21 C-41.62 35.85, -78.67 71.91, -104.07 92.59" stroke="#1e1e1e" stroke-width="1" fill="none"></path></g><g transform="translate(328.97239907522567 585.1328637428271) rotate(0 -52.951385518459404 46.39978205836769)"><path d="M-89.43 70.35 C-90.46 75.41, -101.19 86.45, -107.81 88.95 M-88.68 66.6 C-97.03 75.98, -100.26 86.15, -105.2 91.4" stroke="#1e1e1e" stroke-width="1" fill="none"></path></g><g transform="translate(328.97239907522567 585.1328637428271) rotate(0 -52.951385518459404 46.39978205836769)"><path d="M-76.01 85.88 C-81.05 85.83, -96.01 91.96, -107.81 88.95 M-75.26 82.12 C-88.7 85.61, -97.07 89.85, -105.2 91.4" stroke="#1e1e1e" stroke-width="1" fill="none"></path></g></g><mask></mask><g stroke-linecap="round"><g transform="translate(220.13644707683375 700.8125532828092) rotate(0 -1.2459529302372516 29.448588980128193)"><path d="M0 0 C-0.51 12.09, -1.02 24.19, -2.49 58.9 M0 0 C-0.57 13.56, -1.15 27.11, -2.49 58.9" stroke="#1e1e1e" stroke-width="1" fill="none"></path></g></g><mask></mask><g stroke-linecap="round"><g transform="translate(218.51059805059663 757.3347164890524) rotate(0 -89.96098950239781 -1.6364754904608958)"><path d="M0 0 C-65.82 -1.2, -131.65 -2.39, -179.92 -3.27 M0 0 C-54.22 -0.99, -108.43 -1.97, -179.92 -3.27" stroke="#1e1e1e" stroke-width="1" fill="none"></path></g></g><mask></mask><g stroke-linecap="round"><g transform="translate(41.34618651186986 753.1744557454457) rotate(0 1.514271151887499 -278.62057871519)"><path d="M0 0 C1.19 -218.42, 2.37 -436.84, 3.03 -557.24 M0 0 C0.92 -169.61, 1.84 -339.22, 3.03 -557.24" stroke="#1e1e1e" stroke-width="1" fill="none"></path></g></g><mask></mask><g stroke-linecap="round"><g transform="translate(47.2757535487346 196.62401848961088) rotate(0 67.5258669099592 0.7146297190486735)"><path d="M0 0 C31.89 0.34, 63.79 0.68, 135.05 1.43 M0 0 C27.37 0.29, 54.73 0.58, 135.05 1.43" stroke="#1e1e1e" stroke-width="1" fill="none"></path></g><g transform="translate(47.2757535487346 196.62401848961088) rotate(0 67.5258669099592 0.7146297190486735)"><path d="M106.75 11.39 C113.44 9.04, 120.12 6.69, 135.05 1.43 M106.75 11.39 C112.49 9.37, 118.22 7.35, 135.05 1.43" stroke="#1e1e1e" stroke-width="1" fill="none"></path></g><g transform="translate(47.2757535487346 196.62401848961088) rotate(0 67.5258669099592 0.7146297190486735)"><path d="M106.97 -9.13 C113.6 -6.64, 120.23 -4.14, 135.05 1.43 M106.97 -9.13 C112.66 -6.99, 118.35 -4.85, 135.05 1.43" stroke="#1e1e1e" stroke-width="1" fill="none"></path></g></g><mask></mask><g stroke-linecap="round" transform="translate(571.1657530128058 523.2655890320266) rotate(0 146.6425496719977 28.21591913017062)"><path d="M14.11 0 M14.11 0 C117.38 1.74, 220.33 1.73, 279.18 0 M14.11 0 C109.99 -0.17, 204.94 0.16, 279.18 0 M279.18 0 C289.9 0.39, 292.16 2.88, 293.29 14.11 M279.18 0 C288.25 -1.18, 294.68 3.21, 293.29 14.11 M293.29 14.11 C292.86 20.13, 292.87 28.64, 293.29 42.32 M293.29 14.11 C294.4 22.16, 293.42 31.98, 293.29 42.32 M293.29 42.32 C292.47 51.72, 286.97 56.46, 279.18 56.43 M293.29 42.32 C294.52 52.45, 290.42 56.18, 279.18 56.43 M279.18 56.43 C211.91 57.49, 143.05 55.59, 14.11 56.43 M279.18 56.43 C220.3 57.32, 160.7 57.59, 14.11 56.43 M14.11 56.43 C6.61 54.86, -1.27 53.04, 0 42.32 M14.11 56.43 C4.22 55.28, 1.99 53.53, 0 42.32 M0 42.32 C-1.7 31.12, -0.3 23.33, 0 14.11 M0 42.32 C0.54 32.55, 0.33 24.74, 0 14.11 M0 14.11 C0.54 2.84, 5.12 -1.97, 14.11 0 M0 14.11 C-0.95 6.63, 3.56 1.37, 14.11 0" stroke="#1971c2" stroke-width="1" fill="none"></path></g><g transform="translate(638.1683795891004 538.9815081621972) rotate(0 79.63992309570312 12.5)"><text x="79.63992309570312" y="0" font-family="Virgil, Segoe UI Emoji" font-size="20px" fill="#1971c2" text-anchor="middle" style="white-space: pre;" direction="ltr" dominant-baseline="text-before-edge">m_deferredCalls</text></g><g stroke-linecap="round"><g transform="translate(414.31382783781964 554.4436350645736) rotate(0 77.97921597134041 -3.8090862634118707)"><path d="M-1.08 -0.62 C24.96 -1.8, 130.41 -5.78, 157.04 -7" stroke="#1971c2" stroke-width="4.5" fill="none" stroke-dasharray="8 12"></path></g><g transform="translate(414.31382783781964 554.4436350645736) rotate(0 77.97921597134041 -3.8090862634118707)"><path d="M128.26 3.19 C139.66 2.03, 148.21 -2.52, 156.79 -8.54" stroke="#1971c2" stroke-width="4.5" fill="none"></path></g><g transform="translate(414.31382783781964 554.4436350645736) rotate(0 77.97921597134041 -3.8090862634118707)"><path d="M127.41 -17.31 C139.14 -10.99, 148 -8.07, 156.79 -8.54" stroke="#1971c2" stroke-width="4.5" fill="none"></path></g></g><mask></mask><g transform="translate(447.2718066278485 510.1259660193325) rotate(0 42.619956970214844 12.5)"><text x="0" y="0" font-family="Virgil, Segoe UI Emoji" font-size="20px" fill="#1971c2" text-anchor="start" style="white-space: pre;" direction="ltr" dominant-baseline="text-before-edge">pushback</text></g><g stroke-linecap="round" transform="translate(982.6286408580954 12.146801974060281) rotate(0 213.14473953169352 419.50272575271606)"><path d="M0.04 -0.57 C168.94 -1.24, 337.41 -1.63, 425.85 -0.16 M426.86 -0.74 C423.88 283.98, 424.54 568.34, 426.43 839.26 M425.66 838.91 C325.27 841.11, 222.28 841.1, -0.7 839.46 M0.12 838.98 C-1.08 613.42, -0.68 385.69, 0.52 0.6" stroke="#1e1e1e" stroke-width="1.5" fill="none" stroke-dasharray="8 9"></path></g><g transform="translate(1101.6548736845887 51.37348275718651) rotate(0 85.56922149658203 15.139720332123105)"><text x="0" y="0" font-family="Virgil, Segoe UI Emoji" font-size="24.22355253139697px" fill="#1e1e1e" text-anchor="start" style="white-space: pre;" direction="ltr" dominant-baseline="text-before-edge">MonitorThread</text></g><g stroke-linecap="round" transform="translate(1181.3054493491236 155.18612124901188) rotate(0 16.027364665504138 15.00191086791014)"><path d="M23.84 1.37 C26.98 2.53, 29.3 5.63, 30.67 8.72 C32.04 11.81, 33.05 16.67, 32.05 19.93 C31.05 23.18, 27.51 26.59, 24.68 28.26 C21.85 29.94, 18.32 30.5, 15.05 29.97 C11.78 29.44, 7.46 27.25, 5.06 25.09 C2.66 22.93, 1.05 20.11, 0.66 17.02 C0.28 13.93, 1.01 9.25, 2.74 6.56 C4.47 3.87, 7.57 1.43, 11.06 0.87 C14.55 0.31, 21.08 2.83, 23.69 3.19 C26.3 3.55, 26.64 2.82, 26.71 3.01 M22.57 2.37 C25.58 3.08, 27.65 4.15, 28.94 6.63 C30.24 9.1, 31.02 13.97, 30.33 17.21 C29.64 20.46, 27.27 24.05, 24.8 26.09 C22.33 28.13, 18.8 29.61, 15.5 29.43 C12.2 29.26, 7.5 27.02, 4.97 25.05 C2.45 23.09, 0.57 20.56, 0.36 17.65 C0.14 14.73, 1.71 10.11, 3.67 7.53 C5.62 4.95, 8.88 3.35, 12.1 2.18 C15.31 1.01, 21.21 0.6, 22.95 0.5 C24.69 0.4, 22.75 1.38, 22.54 1.55" stroke="#1e1e1e" stroke-width="1" fill="none"></path></g><g stroke-linecap="round" transform="translate(511.9337940382477 338.6366237798228) rotate(0 201 30.5)"><path d="M15.25 0 M15.25 0 C121.86 -1.67, 231.08 -1.26, 386.75 0 M15.25 0 C94.5 2.23, 173.18 2.18, 386.75 0 M386.75 0 C395.41 -0.83, 401.54 4.53, 402 15.25 M386.75 0 C395.61 0.96, 403.86 4.55, 402 15.25 M402 15.25 C400.8 24.36, 400.37 31.54, 402 45.75 M402 15.25 C402.93 27.25, 402.72 39.12, 402 45.75 M402 45.75 C400.87 55.68, 397.81 60.31, 386.75 61 M402 45.75 C400.46 56.26, 394.92 62.11, 386.75 61 M386.75 61 C301.56 63.49, 213.79 62.4, 15.25 61 M386.75 61 C240.58 59.84, 94.71 60.15, 15.25 61 M15.25 61 C6.62 62.86, -1.73 55.46, 0 45.75 M15.25 61 C5.7 60.62, 1.56 56.52, 0 45.75 M0 45.75 C-1.16 35.46, -0.37 25.1, 0 15.25 M0 45.75 C0.13 37.53, 0.16 27.49, 0 15.25 M0 15.25 C0.82 5.74, 4.53 0.9, 15.25 0 M0 15.25 C-0.35 4.24, 4.55 0.13, 15.25 0" stroke="#f08c00" stroke-width="1" fill="none"></path></g><g transform="translate(529.7310623104931 356.8398347889562) rotate(0 59.07994079589844 12.5)"><text x="0" y="0" font-family="Virgil, Segoe UI Emoji" font-size="20px" fill="#f08c00" text-anchor="start" style="white-space: pre;" direction="ltr" dominant-baseline="text-before-edge">m_futures: </text></g><g stroke-linecap="round" transform="translate(649.2203392746974 352.44579183242655) rotate(0 42 17.5)"><path d="M8.75 0 M8.75 0 C26.33 0.13, 42.19 0.9, 75.25 0 M8.75 0 C28.96 -0.02, 47.66 -0.65, 75.25 0 M75.25 0 C82.71 1.17, 82.13 4.05, 84 8.75 M75.25 0 C82.41 1.62, 83.97 2.97, 84 8.75 M84 8.75 C85.53 11.42, 83.76 16.56, 84 26.25 M84 8.75 C83.79 12.51, 84.56 16.29, 84 26.25 M84 26.25 C82.16 31.33, 82.3 35.72, 75.25 35 M84 26.25 C85.88 31.44, 82.97 34.46, 75.25 35 M75.25 35 C53.61 36.44, 33.51 35.3, 8.75 35 M75.25 35 C53.52 35.18, 31.61 35.56, 8.75 35 M8.75 35 C4.91 36.74, 0.47 30.53, 0 26.25 M8.75 35 C2.31 32.75, 0.18 32.87, 0 26.25 M0 26.25 C0.63 20.67, 1.31 17.87, 0 8.75 M0 26.25 C-0.26 20.34, 0.3 15.47, 0 8.75 M0 8.75 C1.85 2.39, 0.97 -1.28, 8.75 0 M0 8.75 C0.28 4.24, 1.23 1.16, 8.75 0" stroke="#f08c00" stroke-width="1" fill="none"></path></g><g transform="translate(659.5803780320216 357.44579183242655) rotate(0 31.63996124267578 12.5)"><text x="31.63996124267578" y="0" font-family="Virgil, Segoe UI Emoji" font-size="20px" fill="#f08c00" text-anchor="middle" style="white-space: pre;" direction="ltr" dominant-baseline="text-before-edge">future</text></g><g stroke-linecap="round" transform="translate(805.3841758541813 351.60277450318887) rotate(0 43 17.5)"><path d="M8.75 0 M8.75 0 C28.26 -0.23, 50.71 0.68, 77.25 0 M8.75 0 C33.42 -0.5, 55.59 -0.18, 77.25 0 M77.25 0 C81.78 1.08, 85.92 2.46, 86 8.75 M77.25 0 C83.57 0.47, 87.49 1.67, 86 8.75 M86 8.75 C86.56 15.56, 85.5 20.87, 86 26.25 M86 8.75 C85.15 13.82, 86.25 16.59, 86 26.25 M86 26.25 C87.81 33.52, 84.67 34.69, 77.25 35 M86 26.25 C85.34 32.48, 82.35 33.52, 77.25 35 M77.25 35 C54.6 33.88, 36.44 36.81, 8.75 35 M77.25 35 C49.83 36.1, 22.64 35.42, 8.75 35 M8.75 35 C1.73 36.73, -0.67 33.27, 0 26.25 M8.75 35 C1.76 37, -1.39 32.93, 0 26.25 M0 26.25 C-1.27 21.33, 0.88 15.91, 0 8.75 M0 26.25 C0.65 19.3, 0.75 13.95, 0 8.75 M0 8.75 C-1.15 2.25, 4.64 0.98, 8.75 0 M0 8.75 C1.32 1.87, 4.13 -1.05, 8.75 0" stroke="#f08c00" stroke-width="1" fill="none"></path></g><g transform="translate(816.7442146115055 356.60277450318887) rotate(0 31.63996124267578 12.5)"><text x="31.63996124267578" y="0" font-family="Virgil, Segoe UI Emoji" font-size="20px" fill="#f08c00" text-anchor="middle" style="white-space: pre;" direction="ltr" dominant-baseline="text-before-edge">future</text></g><g stroke-linecap="round"><g transform="translate(743.5195827964502 369.3578096445596) rotate(0 24.857297482075523 -0.8425721894255673)"><path d="M0.18 -0.85 C8.42 -1.03, 41.13 -0.79, 49.53 -0.77" stroke="#f08c00" stroke-width="4.5" fill="none" stroke-dasharray="1.5 10"></path></g></g><mask></mask><g stroke-linecap="round"><g transform="translate(691.9872717364078 350.5696056993959) rotate(0 2.7307481094828177 -60.3447261450481)"><path d="M0.24 0.88 C1.26 -19.38, 4.27 -100.9, 5.22 -121.57" stroke="#2f9e44" stroke-width="4.5" fill="none" stroke-dasharray="8 12"></path></g><g transform="translate(691.9872717364078 350.5696056993959) rotate(0 2.7307481094828177 -60.3447261450481)"><path d="M15.79 -94.36 C14.01 -99.46, 9.38 -106.61, 4.11 -120.14" stroke="#2f9e44" stroke-width="4.5" fill="none"></path></g><g transform="translate(691.9872717364078 350.5696056993959) rotate(0 2.7307481094828177 -60.3447261450481)"><path d="M-4.72 -95.2 C-1.91 -100.16, -1.97 -107.12, 4.11 -120.14" stroke="#2f9e44" stroke-width="4.5" fill="none"></path></g></g><mask></mask><g stroke-linecap="round"><g transform="translate(851.9707281358899 350.60277450318887) rotate(0 -25.300508671991906 -63.5085461205841)"><path d="M-1.14 0.36 C-9.54 -20.9, -41.59 -105.86, -49.47 -127.37" stroke="#2f9e44" stroke-width="4.5" fill="none" stroke-dasharray="8 12"></path></g><g transform="translate(851.9707281358899 350.60277450318887) rotate(0 -25.300508671991906 -63.5085461205841)"><path d="M-29.41 -106.04 C-36.72 -113.09, -46.36 -122.18, -47.62 -128.95" stroke="#2f9e44" stroke-width="4.5" fill="none"></path></g><g transform="translate(851.9707281358899 350.60277450318887) rotate(0 -25.300508671991906 -63.5085461205841)"><path d="M-48.64 -98.88 C-48.65 -108.47, -50.98 -120.28, -47.62 -128.95" stroke="#2f9e44" stroke-width="4.5" fill="none"></path></g></g><mask></mask><g stroke-linecap="round"><g transform="translate(1196.7775812589357 184.75425795165756) rotate(0 -0.030830383241323034 77.26150670747674)"><path d="M0.9 -0.56 C0.75 25.19, 0.25 129.24, -0.18 155.08 M-0.08 1.76 C-0.43 27.09, -1.07 127.57, -0.95 153.24" stroke="#1e1e1e" stroke-width="1" fill="none"></path></g><g transform="translate(1196.7775812589357 184.75425795165756) rotate(0 -0.030830383241323034 77.26150670747674)"><path d="M-12.09 125.59 C-6.46 133.24, -3.78 143.41, -0.69 151.91 M-10.73 125.17 C-8.99 131.58, -5.53 139.36, -0.4 152.73" stroke="#1e1e1e" stroke-width="1" fill="none"></path></g><g transform="translate(1196.7775812589357 184.75425795165756) rotate(0 -0.030830383241323034 77.26150670747674)"><path d="M8.43 125.62 C6.67 133.42, 1.94 143.58, -0.69 151.91 M9.79 125.2 C6.31 131.63, 4.55 139.4, -0.4 152.73" stroke="#1e1e1e" stroke-width="1" fill="none"></path></g></g><mask></mask><g stroke-linecap="round" transform="translate(1079.0000967730869 340.63917488228094) rotate(0 132 30)"><path d="M-0.37 1.12 C80.69 -0.56, 161.42 0.48, 265.09 -0.15 M0.76 -0.6 C76.28 0.35, 152.88 0.11, 263.98 0.57 M264.8 -1.59 C261.56 17.2, 263.19 32.13, 265.43 61.6 M263.46 -0.13 C264.48 16.37, 263.51 31.69, 264.28 60.02 M263.52 59.09 C179.56 58.49, 90.74 59.61, -0.04 61.14 M264.5 59.52 C164.75 60.84, 63.5 61.66, 0.71 59.96 M-0.97 58.02 C0.42 37.29, -0.1 17.46, -0.69 -1.11 M0.7 59.34 C0.42 38.99, 0.03 18.7, -0.8 -0.6" stroke="#1e1e1e" stroke-width="1" fill="none"></path></g><g transform="translate(1098.1602148761142 358.13917488228094) rotate(0 112.83988189697266 12.5)"><text x="112.83988189697266" y="0" font-family="Virgil, Segoe UI Emoji" font-size="20px" fill="#1e1e1e" text-anchor="middle" style="white-space: pre;" direction="ltr" dominant-baseline="text-before-edge">CheckCompletedFutures</text></g><g stroke-linecap="round"><g transform="translate(915.3930280348839 369.388218210938) rotate(0 80.42011742745603 -0.5769590363355519)"><path d="M-0.03 0.28 C51.23 -0.86, 102.84 -2.34, 160.87 -0.71" stroke="#f08c00" stroke-width="4.5" fill="none" stroke-dasharray="8 12"></path></g><g transform="translate(915.3930280348839 369.388218210938) rotate(0 80.42011742745603 -0.5769590363355519)"><path d="M132.51 9.43 C142.12 5.73, 152.06 1.98, 159.03 1.12" stroke="#f08c00" stroke-width="4.5" fill="none"></path></g><g transform="translate(915.3930280348839 369.388218210938) rotate(0 80.42011742745603 -0.5769590363355519)"><path d="M132.8 -11.09 C142.28 -8.43, 152.13 -5.82, 159.03 1.12" stroke="#f08c00" stroke-width="4.5" fill="none"></path></g></g><mask></mask><g transform="translate(921.4193270604449 326.64412149957315) rotate(0 76.80995178222656 12.5)"><text x="0" y="0" font-family="Virgil, Segoe UI Emoji" font-size="20px" fill="#f08c00" text-anchor="start" style="white-space: pre;" direction="ltr" dominant-baseline="text-before-edge">check and clean</text></g><g stroke-linecap="round"><g transform="translate(1197.372931319035 402.49133941379364) rotate(0 2.8978532065855234 57.43548031419118)"><path d="M0.06 -1.94 C-0.15 25.11, 2.93 51.61, 6.42 115.23 M-0.62 -0.22 C2.81 35.64, 5.19 70.19, 6.18 116.81" stroke="#1e1e1e" stroke-width="1" fill="none"></path></g><g transform="translate(1197.372931319035 402.49133941379364) rotate(0 2.8978532065855234 57.43548031419118)"><path d="M-4.93 87.02 C-4.43 94.97, -0.17 102.37, 6.93 115.17 M-5.6 88.75 C-1.23 98.07, 2.79 106.06, 6.69 116.76" stroke="#1e1e1e" stroke-width="1" fill="none"></path></g><g transform="translate(1197.372931319035 402.49133941379364) rotate(0 2.8978532065855234 57.43548031419118)"><path d="M15.59 86.37 C11.69 94.48, 11.54 102.02, 6.93 115.17 M14.91 88.09 C13.17 97.51, 11.07 105.7, 6.69 116.76" stroke="#1e1e1e" stroke-width="1" fill="none"></path></g></g><mask></mask><g stroke-linecap="round" transform="translate(1087.649106912909 520.8693213495656) rotate(0 126.5 30)"><path d="M-0.45 0.25 C68.69 -0.71, 135.85 -1.79, 251.58 -0.83 M0.55 -0.52 C73 -0.79, 147.1 -0.38, 252.85 -0.24 M252.59 -0.53 C255.02 18.24, 254.71 37.59, 254.23 58.24 M252.5 0.7 C252.18 21.99, 253.59 44, 252.56 59.15 M253.91 59.69 C162.16 60.13, 73.45 60.4, -0.28 59.3 M253.39 60.72 C188.03 59.34, 122.53 58.5, -0.69 59.73 M-0.82 59.58 C-0.88 44.64, -1.72 29.15, 1.36 -1.17 M0.63 59.17 C-0.34 46.47, -0.56 33.65, -0.28 0.86" stroke="#1e1e1e" stroke-width="1" fill="none"></path></g><g transform="translate(1104.359212808905 538.3693213495656) rotate(0 109.7898941040039 12.5)"><text x="109.7898941040039" y="0" font-family="Virgil, Segoe UI Emoji" font-size="20px" fill="#1e1e1e" text-anchor="middle" style="white-space: pre;" direction="ltr" dominant-baseline="text-before-edge">DispatchDeferredCalls</text></g><g stroke-linecap="round"><g transform="translate(862.649666670873 554.27131883992) rotate(0 110.4219718466739 -2.4531700721038305)"><path d="M0.33 -1.03 C52.26 1.09, 107.23 -1.1, 220.51 -4.71" stroke="#1971c2" stroke-width="4.5" fill="none" stroke-dasharray="8 12"></path></g><g transform="translate(862.649666670873 554.27131883992) rotate(0 110.4219718466739 -2.4531700721038305)"><path d="M193.04 5.25 C197.57 5.26, 205.6 1.7, 219.57 -3.19" stroke="#1971c2" stroke-width="4.5" fill="none"></path></g><g transform="translate(862.649666670873 554.27131883992) rotate(0 110.4219718466739 -2.4531700721038305)"><path d="M192.39 -15.26 C197.02 -10.26, 205.21 -8.81, 219.57 -3.19" stroke="#1971c2" stroke-width="4.5" fill="none"></path></g></g><mask></mask><g transform="translate(910.6972246586581 518.3189699358609) rotate(0 84.52992248535156 12.5)"><text x="0" y="0" font-family="Virgil, Segoe UI Emoji" font-size="20px" fill="#1971c2" text-anchor="start" style="white-space: pre;" direction="ltr" dominant-baseline="text-before-edge">pop all timed out</text></g><g stroke-linecap="round"><g transform="translate(1114.330348561279 517.4475998695114) rotate(0 -204.60698003150412 -57.28195539824293)"><path d="M0 0 C-161 -45.07, -321.99 -90.15, -409.21 -114.56" stroke="#f08c00" stroke-width="4.5" fill="none" stroke-dasharray="8 12"></path></g><g transform="translate(1114.330348561279 517.4475998695114) rotate(0 -204.60698003150412 -57.28195539824293)"><path d="M-379.3 -116.84 C-391.07 -115.95, -402.84 -115.05, -409.21 -114.56" stroke="#f08c00" stroke-width="4.5" fill="none"></path></g><g transform="translate(1114.330348561279 517.4475998695114) rotate(0 -204.60698003150412 -57.28195539824293)"><path d="M-384.83 -97.08 C-394.43 -103.96, -404.02 -110.84, -409.21 -114.56" stroke="#f08c00" stroke-width="4.5" fill="none"></path></g></g><mask></mask><g transform="translate(813.2525477266687 433.1956782713352) rotate(15.175286191350576 130.5098724365235 12.500000000000028)"><text x="0" y="0" font-family="Virgil, Segoe UI Emoji" font-size="20px" fill="#f08c00" text-anchor="start" style="white-space: pre;" direction="ltr" dominant-baseline="text-before-edge">push back deferred future</text></g><g stroke-linecap="round"><g transform="translate(1345.1920938402475 553.9920103350632) rotate(0 26.462149557833754 -91.91140143327868)"><path d="M1.59 -1.25 C18.42 -36.92, 36.39 -73.85, 53.61 -101.12 M-0.57 -0.15 C16.5 -34.15, 34.73 -67.9, 52.91 -101.33 M52.63 -101.6 C36.23 -124.82, 22.15 -148.77, -0.06 -183.01 M53.46 -102.3 C32.34 -133.87, 10.96 -163.34, -0.68 -183.67" stroke="#1e1e1e" stroke-width="1" fill="none"></path></g><g transform="translate(1345.1920938402475 553.9920103350632) rotate(0 26.462149557833754 -91.91140143327868)"><path d="M24.53 -166.44 C14.07 -171.41, 4.58 -178.21, 0.15 -182.49 M22.37 -165.34 C14.65 -172.08, 7.57 -178.06, -0.54 -182.7" stroke="#1e1e1e" stroke-width="1" fill="none"></path></g><g transform="translate(1345.1920938402475 553.9920103350632) rotate(0 26.462149557833754 -91.91140143327868)"><path d="M7.12 -155.58 C2.9 -164.58, -0.34 -175.29, 0.15 -182.49 M4.96 -154.47 C2.94 -164.7, 1.63 -174.28, -0.54 -182.7" stroke="#1e1e1e" stroke-width="1" fill="none"></path></g></g><mask></mask><g transform="translate(455.9801940592297 254.02286499431534) rotate(0 114.99990844726562 25)"><text x="0" y="0" font-family="Virgil, Segoe UI Emoji" font-size="20px" fill="#2f9e44" text-anchor="start" style="white-space: pre;" direction="ltr" dominant-baseline="text-before-edge">pushback call when grpc</text><text x="0" y="25" font-family="Virgil, Segoe UI Emoji" font-size="20px" fill="#2f9e44" text-anchor="start" style="white-space: pre;" direction="ltr" dominant-baseline="text-before-edge">async wait called</text></g><g transform="translate(831.5563197345109 243.99555308561014) rotate(0 114.99990844726562 25)"><text x="0" y="0" font-family="Virgil, Segoe UI Emoji" font-size="20px" fill="#2f9e44" text-anchor="start" style="white-space: pre;" direction="ltr" dominant-baseline="text-before-edge">pushback call when grpc</text><text x="0" y="25" font-family="Virgil, Segoe UI Emoji" font-size="20px" fill="#2f9e44" text-anchor="start" style="white-space: pre;" direction="ltr" dominant-baseline="text-before-edge">async wait called</text></g></svg>