<svg version="1.1" xmlns="http://www.w3.org/2000/svg" viewBox="0 0 1716.7187754377894 755.7398799633647" width="1716.7187754377894" height="755.7398799633647">
  <!-- svg-source:excalidraw -->
  
  <defs>
    <style class="style-fonts">
      @font-face {
        font-family: "Virgil";
        src: url("https://excalidraw.com/Virgil.woff2");
      }
      @font-face {
        font-family: "Cascadia";
        src: url("https://excalidraw.com/Cascadia.woff2");
      }
    </style>
  </defs>
  <rect x="0" y="0" width="1716.7187754377894" height="755.7398799633647" fill="#ffffff"></rect><g stroke-linecap="round" transform="translate(10 10) rotate(0 139 39)"><path d="M19.5 0 M19.5 0 C90.12 -1.19, 159.19 -0.76, 258.5 0 M19.5 0 C78.71 1.62, 137.37 1.57, 258.5 0 M258.5 0 C271.63 1.86, 276.21 6.76, 278 19.5 M258.5 0 C270.28 2, 277.52 6.23, 278 19.5 M278 19.5 C276.6 31.61, 278.78 39.7, 278 58.5 M278 19.5 C278.13 28.06, 278.48 36.44, 278 58.5 M278 58.5 C277.52 69.6, 270.66 77.17, 258.5 78 M278 58.5 C279.02 69.79, 272.97 78.42, 258.5 78 M258.5 78 C180.83 77.89, 102.41 79.07, 19.5 78 M258.5 78 C184.87 77.34, 113.29 77.44, 19.5 78 M19.5 78 C6.17 77.83, -1.54 70.48, 0 58.5 M19.5 78 C8.36 76.58, 1.74 72.37, 0 58.5 M0 58.5 C-0.3 42.14, 1.03 30.84, 0 19.5 M0 58.5 C-0.04 44.58, 0.51 28.51, 0 19.5 M0 19.5 C-0.43 8.25, 7.15 0.19, 19.5 0 M0 19.5 C-2.25 5.35, 4.59 1.87, 19.5 0" stroke="#000000" stroke-width="1" fill="none"></path></g><g transform="translate(87.5 36.5) rotate(0 61.5 12.5)"><text x="61.5" y="18" font-family="Virgil, Segoe UI Emoji" font-size="20px" fill="#000000" text-anchor="middle" style="white-space: pre;" direction="ltr">registry_pull</text></g><g stroke-linecap="round" transform="translate(18.147989908854015 193.70363023545997) rotate(0 139 39)"><path d="M19.5 0 M19.5 0 C95.75 -0.5, 171.25 -1.08, 258.5 0 M19.5 0 C102.73 1.09, 186.41 2.49, 258.5 0 M258.5 0 C271.61 -0.33, 277.83 4.96, 278 19.5 M258.5 0 C270.32 1.86, 276.58 8.24, 278 19.5 M278 19.5 C277.55 32.36, 276.3 46.87, 278 58.5 M278 19.5 C278.41 33.1, 278.92 47.53, 278 58.5 M278 58.5 C276.26 71.07, 273.25 78.65, 258.5 78 M278 58.5 C278.22 69.25, 270.35 76.09, 258.5 78 M258.5 78 C168.06 77.46, 75.29 78.28, 19.5 78 M258.5 78 C170.87 77.75, 83.6 76.4, 19.5 78 M19.5 78 C7.87 77.85, 0.73 72.3, 0 58.5 M19.5 78 C5.99 78.59, 0.03 71.76, 0 58.5 M0 58.5 C1.82 49.81, 1.54 41.04, 0 19.5 M0 58.5 C0.91 49.46, 0.41 40.44, 0 19.5 M0 19.5 C1.45 5.51, 7.04 -1.15, 19.5 0 M0 19.5 C0.88 7.87, 6.09 0.41, 19.5 0" stroke="#000000" stroke-width="1" fill="none"></path></g><g transform="translate(85.64798990885402 220.20363023545997) rotate(0 71.5 12.5)"><text x="71.5" y="18" font-family="Virgil, Segoe UI Emoji" font-size="20px" fill="#000000" text-anchor="middle" style="white-space: pre;" direction="ltr">registry_fetch</text></g><g stroke-linecap="round" transform="translate(14.722222222222399 358.2037319607207) rotate(0 136.5 34.5)"><path d="M17.25 0 M17.25 0 C70.45 1.67, 123.66 0.01, 255.75 0 M17.25 0 C88.98 1.15, 160.94 1.24, 255.75 0 M255.75 0 C268.22 -0.39, 274.76 6.3, 273 17.25 M255.75 0 C265.77 -2.3, 275.14 5.87, 273 17.25 M273 17.25 C273.23 25.54, 270.75 34.42, 273 51.75 M273 17.25 C273.47 25.6, 272.53 34.19, 273 51.75 M273 51.75 C272.61 64.21, 268.07 69.57, 255.75 69 M273 51.75 C271.61 64.63, 268.9 69.19, 255.75 69 M255.75 69 C159.96 68.52, 66.6 69.07, 17.25 69 M255.75 69 C181.53 69.33, 106.28 69.64, 17.25 69 M17.25 69 C7.27 70.53, 0.54 64.83, 0 51.75 M17.25 69 C8 67.99, -2.26 64.69, 0 51.75 M0 51.75 C0.26 42.93, 1.11 30.86, 0 17.25 M0 51.75 C-0.03 43.3, 0.6 36.63, 0 17.25 M0 17.25 C1.89 6.31, 5.46 -0.45, 17.25 0 M0 17.25 C-0.65 6.54, 3.56 -0.72, 17.25 0" stroke="#000000" stroke-width="1" fill="none"></path></g><g transform="translate(79.2222222222224 380.2037319607207) rotate(0 72 12.5)"><text x="72" y="18" font-family="Virgil, Segoe UI Emoji" font-size="20px" fill="#000000" text-anchor="middle" style="white-space: pre;" direction="ltr">register_image</text></g><g stroke-linecap="round"><g transform="translate(152.70368109809033 89.00001695420997) rotate(0 0.5532208919897812 50.27837848758941)"><path d="M-0.43 0.93 C-0.37 17.55, 0.78 83.63, 0.91 100.18 M1.54 0.38 C1.48 16.63, 0.74 82.21, 0.44 98.54" stroke="#000000" stroke-width="1" fill="none"></path></g><g transform="translate(152.70368109809033 89.00001695420997) rotate(0 0.5532208919897812 50.27837848758941)"><path d="M-7.86 71.72 C-4.38 80.53, -0.94 91.7, -0.44 96.58 M-8.45 70.32 C-5.5 81.02, -3.14 90.07, -0.01 97.63" stroke="#000000" stroke-width="1" fill="none"></path></g><g transform="translate(152.70368109809033 89.00001695420997) rotate(0 0.5532208919897812 50.27837848758941)"><path d="M12.66 72.01 C9.08 80.64, 5.46 91.71, -0.44 96.58 M12.06 70.61 C7.59 81.18, 2.51 90.12, -0.01 97.63" stroke="#000000" stroke-width="1" fill="none"></path></g></g><mask></mask><g stroke-linecap="round" transform="translate(527.2188054865057 118.7878957420885) rotate(0 144 38.5)"><path d="M19.25 0 M19.25 0 C116.54 2.16, 213.81 2.04, 268.75 0 M19.25 0 C87.92 0.18, 155.03 0.59, 268.75 0 M268.75 0 C280.01 -1.43, 286.26 6.55, 288 19.25 M268.75 0 C282.03 -0.63, 288.07 7.01, 288 19.25 M288 19.25 C286.86 29.05, 287.73 43.56, 288 57.75 M288 19.25 C287.79 28.07, 287.64 39.3, 288 57.75 M288 57.75 C286.12 68.83, 280.29 75.06, 268.75 77 M288 57.75 C288.83 69.67, 282.34 76.8, 268.75 77 M268.75 77 C214.21 79.91, 162.62 77.43, 19.25 77 M268.75 77 C209.63 76.22, 150.28 75.11, 19.25 77 M19.25 77 C4.97 76.11, -0.04 71.82, 0 57.75 M19.25 77 C7.08 77.08, 0.84 68.68, 0 57.75 M0 57.75 C-0.97 42.66, 0.85 29.54, 0 19.25 M0 57.75 C-1.09 47.23, -1.12 37.91, 0 19.25 M0 19.25 C1.98 7.35, 6.98 -0.74, 19.25 0 M0 19.25 C1.15 4.46, 6.43 2.08, 19.25 0" stroke="#000000" stroke-width="1" fill="none"></path></g><g transform="translate(534.7188054865057 144.7878957420885) rotate(0 136.5 12.5)"><text x="136.5" y="18" font-family="Virgil, Segoe UI Emoji" font-size="20px" fill="#000000" text-anchor="middle" style="white-space: pre;" direction="ltr">fetch_and_parse_manifest</text></g><g stroke-linecap="round" transform="translate(528.8113076566447 267.04720021257526) rotate(0 140 42.5)"><path d="M21.25 0 M21.25 0 C73.8 -0.38, 127.84 0.44, 258.75 0 M21.25 0 C77.9 0.33, 134.43 0.11, 258.75 0 M258.75 0 C271.09 1.52, 281.11 6.13, 280 21.25 M258.75 0 C274.44 0, 279.62 8.79, 280 21.25 M280 21.25 C279.46 33.98, 280.13 46.12, 280 63.75 M280 21.25 C280.34 38.63, 280.18 55.1, 280 63.75 M280 63.75 C278.34 78.85, 273.43 83.08, 258.75 85 M280 63.75 C279.22 78.27, 273.67 85.9, 258.75 85 M258.75 85 C175.94 84.09, 92.81 85.57, 21.25 85 M258.75 85 C175.64 86.32, 91.93 87.2, 21.25 85 M21.25 85 C8.17 85.09, -1.7 79.42, 0 63.75 M21.25 85 C5.88 86.45, 0.44 79.26, 0 63.75 M0 63.75 C0.4 50.67, 0.39 39.93, 0 21.25 M0 63.75 C0.61 47.12, 0.23 29.48, 0 21.25 M0 21.25 C-1.1 8.45, 7.79 0.31, 21.25 0 M0 21.25 C1.13 5.54, 8.19 1.63, 21.25 0" stroke="#000000" stroke-width="1" fill="none"></path></g><g transform="translate(622.3113076566447 297.04720021257526) rotate(0 46.5 12.5)"><text x="46.5" y="18" font-family="Virgil, Segoe UI Emoji" font-size="20px" fill="#000000" text-anchor="middle" style="white-space: pre;" direction="ltr">fetch_all</text></g><g stroke-linecap="round"><g transform="translate(302.33326551649327 225.11116530105255) rotate(0 110.47407757283065 -32.68499217101839)"><path d="M0.38 0.69 C36.84 -10.18, 182.91 -53.56, 219.61 -64.5 M-0.88 0 C35.87 -11.23, 185.04 -54.89, 221.83 -66.06" stroke="#000000" stroke-width="1" fill="none"></path></g><g transform="translate(302.33326551649327 225.11116530105255) rotate(0 110.47407757283065 -32.68499217101839)"><path d="M198.88 -49.75 C208.38 -54.78, 216.51 -60.37, 221.4 -65.7 M198.3 -47.21 C205.79 -55.33, 215.83 -61.31, 222.59 -65.57" stroke="#000000" stroke-width="1" fill="none"></path></g><g transform="translate(302.33326551649327 225.11116530105255) rotate(0 110.47407757283065 -32.68499217101839)"><path d="M193.03 -69.42 C204.81 -67.18, 215.11 -65.47, 221.4 -65.7 M192.45 -66.88 C201.97 -67.76, 214.16 -66.52, 222.59 -65.57" stroke="#000000" stroke-width="1" fill="none"></path></g></g><mask></mask><g transform="translate(108.25910101996578 125.92592027452247) rotate(0 10.5 14.5)"><text x="0" y="21" font-family="Virgil, Segoe UI Emoji" font-size="20px" fill="#000000" text-anchor="start" style="white-space: pre;" direction="ltr">①</text></g><g transform="translate(377.552030312895 165.7239185680046) rotate(0 10.5 14.5)"><text x="0" y="21" font-family="Virgil, Segoe UI Emoji" font-size="20px" fill="#000000" text-anchor="start" style="white-space: pre;" direction="ltr">②</text></g><g stroke-linecap="round"><g transform="translate(660.6631142972701 197.41754797733165) rotate(0 0.08163946676995693 38.83720767005889)"><path d="M0.42 0.89 C0.68 13.94, 0.92 64.76, 0.99 77.36 M-0.82 0.32 C-0.58 13.06, 0.34 62.54, 0.56 75.4" stroke="#000000" stroke-width="1" fill="none"></path></g><g transform="translate(660.6631142972701 197.41754797733165) rotate(0 0.08163946676995693 38.83720767005889)"><path d="M-8.71 49.04 C-7.17 55.76, -5.95 60.72, -0.73 74.15 M-9.45 46.44 C-8.24 52.83, -5.52 59.72, 0.17 74.71" stroke="#000000" stroke-width="1" fill="none"></path></g><g transform="translate(660.6631142972701 197.41754797733165) rotate(0 0.08163946676995693 38.83720767005889)"><path d="M11.8 48.68 C8.17 55.55, 4.23 60.61, -0.73 74.15 M11.07 46.07 C7.58 52.56, 5.61 59.53, 0.17 74.71" stroke="#000000" stroke-width="1" fill="none"></path></g></g><mask></mask><g transform="translate(685.1075587417147 220.26935461795665) rotate(0 10.5 14.5)"><text x="0" y="21" font-family="Virgil, Segoe UI Emoji" font-size="20px" fill="#000000" text-anchor="start" style="white-space: pre;" direction="ltr">③</text></g><g stroke-linecap="round" transform="translate(535.7743339153258 415.3249779903531) rotate(0 140 37.5)"><path d="M18.75 0 M18.75 0 C96.92 -1.23, 176 1.18, 261.25 0 M18.75 0 C78.27 2.45, 137.41 1.23, 261.25 0 M261.25 0 C274.58 -0.85, 280.13 7.02, 280 18.75 M261.25 0 C273.22 -0.03, 279.29 7.09, 280 18.75 M280 18.75 C278.51 30.46, 278.66 40.33, 280 56.25 M280 18.75 C281.29 28.35, 280.7 35.88, 280 56.25 M280 56.25 C281.89 70.56, 274.41 74.59, 261.25 75 M280 56.25 C279.8 69.31, 273.34 75.7, 261.25 75 M261.25 75 C165.28 75.57, 70.1 74.91, 18.75 75 M261.25 75 C208.15 77.36, 156.48 76.68, 18.75 75 M18.75 75 C5.06 76.57, -1.57 68.95, 0 56.25 M18.75 75 C6.76 77.04, 1.77 70.01, 0 56.25 M0 56.25 C-0.8 45.63, 1.22 38.33, 0 18.75 M0 56.25 C1.27 46.05, -0.2 33.34, 0 18.75 M0 18.75 C-1.64 5.29, 7.61 -0.6, 18.75 0 M0 18.75 C1.51 5.11, 8.26 -0.09, 18.75 0" stroke="#364fc7" stroke-width="1" fill="none"></path></g><g transform="translate(605.2743339153258 440.3249779903531) rotate(0 70.5 12.5)"><text x="70.5" y="18" font-family="Virgil, Segoe UI Emoji" font-size="20px" fill="#364fc7" text-anchor="middle" style="white-space: pre;" direction="ltr">register_layer</text></g><g stroke-linecap="round"><g transform="translate(666.5890854344229 355.9360212846236) rotate(0 -1.0966409883523625 28.326842080847427)"><path d="M0.4 -0.24 C-0.05 9.25, -1.24 48.34, -1.59 58.07 M-0.85 -1.42 C-1.57 8.21, -2.31 46.53, -2.59 56.1" stroke="#000000" stroke-width="1" fill="none"></path></g><g transform="translate(666.5890854344229 355.9360212846236) rotate(0 -1.0966409883523625 28.326842080847427)"><path d="M-12.21 28.53 C-7.43 39.13, -3.68 52.14, -2.69 55.68 M-11.6 27.87 C-9.19 36.84, -7.74 43.66, -2.74 55.87" stroke="#000000" stroke-width="1" fill="none"></path></g><g transform="translate(666.5890854344229 355.9360212846236) rotate(0 -1.0966409883523625 28.326842080847427)"><path d="M7.55 29.02 C4.53 39.49, 0.49 52.31, -2.69 55.68 M8.17 28.36 C5.39 37.14, 1.67 43.83, -2.74 55.87" stroke="#000000" stroke-width="1" fill="none"></path></g></g><mask></mask><g transform="translate(691.7742254083812 366.9360212846236) rotate(0 10.5 14.5)"><text x="0" y="21" font-family="Virgil, Segoe UI Emoji" font-size="20px" fill="#000000" text-anchor="start" style="white-space: pre;" direction="ltr">④</text></g><g stroke-linecap="round" transform="translate(1088.4760014697767 287.511886750809) rotate(0 103.5 42)"><path d="M21 0 M21 0 C70.65 -0.49, 116.05 -1.09, 186 0 M21 0 C67.72 -0.18, 115.74 0.29, 186 0 M186 0 C198.64 -0.29, 206.53 7.64, 207 21 M186 0 C198.48 2, 207.15 6.87, 207 21 M207 21 C205.72 36.95, 207.58 51.08, 207 63 M207 21 C206.82 36.48, 207.27 53.67, 207 63 M207 63 C208.76 78.58, 198.48 84.74, 186 84 M207 63 C206.96 74.96, 198.27 82.61, 186 84 M186 84 C133.12 85.85, 80.09 83.99, 21 84 M186 84 C138.35 83.22, 92.24 81.73, 21 84 M21 84 C8.18 84.75, 1.51 77.03, 0 63 M21 84 C8.86 83.24, -1.83 79.18, 0 63 M0 63 C0.6 52.14, 1.23 44.85, 0 21 M0 63 C1.35 54.5, 0.04 44.71, 0 21 M0 21 C1.48 6.9, 7.62 -0.87, 21 0 M0 21 C2.11 9.12, 8.3 -2.02, 21 0" stroke="#364fc7" stroke-width="1" fill="none"></path></g><g stroke-linecap="round" transform="translate(1073.3246897687827 300.23915947808155) rotate(0 103.5 42)"><path d="M21 0 M21 0 C62.94 -0.92, 100.38 -0.04, 186 0 M21 0 C84.93 0.06, 150.37 1.56, 186 0 M186 0 C199.4 1.31, 206 8.74, 207 21 M186 0 C199.91 0.27, 208.66 5.12, 207 21 M207 21 C208.86 36.99, 206.5 52.25, 207 63 M207 21 C207.09 33.02, 206.6 44.15, 207 63 M207 63 C207.37 76.69, 201.79 83.25, 186 84 M207 63 C206.23 75.45, 199.74 83.27, 186 84 M186 84 C136.24 83.97, 87.36 83.27, 21 84 M186 84 C141.21 82.98, 94.62 83.32, 21 84 M21 84 C6.34 82.48, -1.14 78.63, 0 63 M21 84 C7.82 85.66, 2.04 79.01, 0 63 M0 63 C0.03 53.45, 1.99 45.44, 0 21 M0 63 C-1.04 52.84, -0.76 44.44, 0 21 M0 21 C-1.69 7.58, 7.76 1.37, 21 0 M0 21 C1.58 6.44, 6.61 1.85, 21 0" stroke="#364fc7" stroke-width="1" fill="none"></path></g><g transform="translate(1118.3246897687827 329.73915947808155) rotate(0 58.5 12.5)"><text x="58.5" y="18" font-family="Virgil, Segoe UI Emoji" font-size="20px" fill="#364fc7" text-anchor="middle" style="white-space: pre;" direction="ltr">fetch_layer</text></g><g stroke-linecap="round" transform="translate(1106.0519070095497 279.027001274957) rotate(0 103.5 42)"><path d="M21 0 M21 0 C72.42 1.75, 124.2 -0.14, 186 0 M21 0 C69.66 1.11, 116.87 1.64, 186 0 M186 0 C200.59 0.81, 207.21 6.4, 207 21 M186 0 C202.29 0.49, 208.74 8.93, 207 21 M207 21 C205.11 37.24, 207.59 54.06, 207 63 M207 21 C206.38 37.75, 207.18 53.02, 207 63 M207 63 C205.82 75.6, 198.96 85.4, 186 84 M207 63 C208.96 75.87, 201.21 86.25, 186 84 M186 84 C120.65 84.89, 59.28 84.69, 21 84 M186 84 C147.66 83.45, 108.51 81.64, 21 84 M21 84 C7.16 83.98, 0.16 77.04, 0 63 M21 84 C9.04 86.07, -0.21 78.17, 0 63 M0 63 C-0.18 47.35, 1.39 34.69, 0 21 M0 63 C-0.17 49.74, 0.76 35.67, 0 21 M0 21 C-0.21 8.94, 6.1 0.57, 21 0 M0 21 C-1.86 5.21, 8.99 -1, 21 0" stroke="#364fc7" stroke-width="1" fill="none"></path></g><g mask="url(#mask-jN6AkCabO1AkTi3mCkjgH)" stroke-linecap="round"><g transform="translate(813.6225268517932 303.1216240429617) rotate(0 133.56510213254643 19.96642294312528)"><path d="M1.09 -0.47 C45.5 6.45, 222.8 33.74, 266.93 40.58 M0.2 -1.76 C44.47 5.37, 222.23 34.48, 266.35 41.69" stroke="#000000" stroke-width="1" fill="none"></path></g><g transform="translate(813.6225268517932 303.1216240429617) rotate(0 133.56510213254643 19.96642294312528)"><path d="M236.09 48.43 C245.58 44.51, 255.66 41.79, 267.41 40.94 M237 47.49 C244.53 45.92, 252.16 43.88, 265.94 42.61" stroke="#000000" stroke-width="1" fill="none"></path></g><g transform="translate(813.6225268517932 303.1216240429617) rotate(0 133.56510213254643 19.96642294312528)"><path d="M239.4 28.17 C247.61 31.18, 256.56 35.36, 267.41 40.94 M240.32 27.24 C246.93 30.94, 253.71 34.17, 265.94 42.61" stroke="#000000" stroke-width="1" fill="none"></path></g></g><mask id="mask-jN6AkCabO1AkTi3mCkjgH"><rect x="0" y="0" fill="#fff" width="1179.8550852765952" height="444.52551574072413"></rect><rect x="895.7388060641941" y="311.3235698918429" fill="#000" width="102" height="25" opacity="1"></rect></mask><g transform="translate(895.7388060641941 311.3235698918429) rotate(0 51.44882292014546 11.764477094244057)"><text x="51" y="18" font-family="Virgil, Segoe UI Emoji" font-size="20px" fill="#000000" text-anchor="middle" style="white-space: pre;" direction="ltr">concurrent</text></g><g stroke-linecap="round"><g transform="translate(466.05039777659306 615.30377791617) rotate(0 -88.37331562049872 -110.3714977202194)"><path d="M-0.99 1.14 C-30.41 -35.89, -147.32 -184.99, -176.68 -221.88 M0.69 0.69 C-28.84 -36.21, -147.66 -183.51, -177.44 -220.61" stroke="#000000" stroke-width="1" fill="none"></path></g><g transform="translate(466.05039777659306 615.30377791617) rotate(0 -88.37331562049872 -110.3714977202194)"><path d="M-149.87 -204.47 C-160.01 -209.91, -164.57 -212.35, -176.72 -218.65 M-150.81 -204.45 C-156.87 -208.9, -163.92 -211.9, -177.42 -220.41" stroke="#000000" stroke-width="1" fill="none"></path></g><g transform="translate(466.05039777659306 615.30377791617) rotate(0 -88.37331562049872 -110.3714977202194)"><path d="M-165.86 -191.61 C-171.45 -200.59, -171.43 -206.72, -176.72 -218.65 M-166.79 -191.58 C-169.18 -199.11, -172.55 -205.07, -177.42 -220.41" stroke="#000000" stroke-width="1" fill="none"></path></g></g><mask></mask><g transform="translate(691.7120406090329 535.7397831702388) rotate(0 10.5 14.5)"><text x="0" y="21" font-family="Virgil, Segoe UI Emoji" font-size="20px" fill="#000000" text-anchor="start" style="white-space: pre;" direction="ltr">⑤</text></g><g stroke-linecap="round" transform="translate(1059.3669416704286 155.55469251761815) rotate(0 104.5 30)"><path d="M15 0 M15 0 C56.7 -2.19, 96.56 -0.14, 194 0 M15 0 C58.41 0.79, 102.6 2.08, 194 0 M194 0 C202.93 0.59, 209.44 3.05, 209 15 M194 0 C205.25 -0.69, 208.67 6.09, 209 15 M209 15 C210.74 23.15, 207.51 29.51, 209 45 M209 15 C209.39 21.59, 208.81 29.84, 209 45 M209 45 C208.12 54.94, 204.45 61.45, 194 60 M209 45 C209.52 54.31, 206.14 61.52, 194 60 M194 60 C153.57 60.24, 110.33 58.67, 15 60 M194 60 C147.31 60.73, 101.82 60.87, 15 60 M15 60 C4.61 59.05, 0.48 56.06, 0 45 M15 60 C3.38 57.76, -1.12 56.51, 0 45 M0 45 C-1.78 35.86, -1.63 28.44, 0 15 M0 45 C0.4 33.19, -0.6 21.89, 0 15 M0 15 C-0.94 5.72, 5.76 -1.58, 15 0 M0 15 C-2.12 4.79, 3.95 -1.71, 15 0" stroke="#364fc7" stroke-width="1" fill="none"></path></g><g transform="translate(1101.8669416704286 173.05469251761815) rotate(0 62 12.5)"><text x="62" y="18" font-family="Virgil, Segoe UI Emoji" font-size="20px" fill="#364fc7" text-anchor="middle" style="white-space: pre;" direction="ltr">fetch_config</text></g><g mask="url(#mask-mDMVIXFpqvrn6ccF16Kk7)" stroke-linecap="round"><g transform="translate(814.2373979421299 296.96202080537887) rotate(0 121.47907200964778 -55.18683551512231)"><path d="M-0.51 0.35 C40.08 -17.96, 202.62 -90.53, 243.46 -109.11 M1.43 -0.51 C41.87 -19.21, 202.04 -92.41, 242.55 -110.72" stroke="#000000" stroke-width="1" fill="none"></path></g><g transform="translate(814.2373979421299 296.96202080537887) rotate(0 121.47907200964778 -55.18683551512231)"><path d="M221.72 -89.61 C228.96 -93.89, 231.92 -102.59, 241.67 -111.91 M220.34 -90.63 C226.15 -94.8, 230.71 -99.86, 242.22 -109.84" stroke="#000000" stroke-width="1" fill="none"></path></g><g transform="translate(814.2373979421299 296.96202080537887) rotate(0 121.47907200964778 -55.18683551512231)"><path d="M213.22 -108.29 C223.09 -106.99, 228.58 -110.17, 241.67 -111.91 M211.84 -109.31 C219.64 -108.94, 226.25 -109.51, 242.22 -109.84" stroke="#000000" stroke-width="1" fill="none"></path></g></g><mask id="mask-mDMVIXFpqvrn6ccF16Kk7"><rect x="0" y="0" fill="#fff" width="1157.6448279551505" height="507.03602254148973"></rect><rect x="909.9411129486402" y="229.4250199373232" fill="#000" width="52" height="25" opacity="1"></rect></mask><g transform="translate(909.9411129486401 229.4250199373232) rotate(0 25.775357003137458 12.350165352933345)"><text x="26" y="18" font-family="Virgil, Segoe UI Emoji" font-size="20px" fill="#000000" text-anchor="middle" style="white-space: pre;" direction="ltr">single</text></g><g transform="translate(556.7290219458388 463.07314547985834) rotate(0 26 12.5)"><text x="0" y="18" font-family="Virgil, Segoe UI Emoji" font-size="20px" fill="#000000" text-anchor="start" style="white-space: pre;" direction="ltr">single</text></g><g stroke-linecap="round"><g transform="translate(1196.756061136574 217.99902167343362) rotate(0 194.07942687517067 146.87343723595995)"><path d="M0.29 -1.15 C64.67 17.91, 359.61 64.4, 385.7 113.74 C411.79 163.08, 195.02 264.76, 156.81 294.89" stroke="#2b8a3e" stroke-width="1.5" fill="none" stroke-dasharray="1.5 7"></path></g></g><mask></mask><g transform="translate(1553.7187754377894 319.5175763609341) rotate(0 76.5 14.5)"><text x="0" y="21" font-family="Virgil, Segoe UI Emoji" font-size="20px" fill="#2b8a3e" text-anchor="start" style="white-space: pre;" direction="ltr">desc-&gt;cond；15s</text></g><g transform="translate(1166.8298594221646 247.2953541387119) rotate(0 40.5 14.5)"><text x="0" y="21" font-family="Virgil, Segoe UI Emoji" font-size="20px" fill="#2b8a3e" text-anchor="start" style="white-space: pre;" direction="ltr">max：5 </text></g><g stroke-linecap="round"><g transform="translate(1295.7187483110533 368.5175763609341) rotate(0 42.74559004776803 -37.8835918722466)"><path d="M0.96 0.9 C14.84 -4.49, 82.43 -18.3, 84.48 -31.23 C86.54 -44.15, 25.33 -69.35, 13.28 -76.67" stroke="#2b8a3e" stroke-width="1.5" fill="none" stroke-dasharray="1.5 7"></path></g></g><mask></mask><g transform="translate(1376.8298594221644 326.1842430276006) rotate(0 76 12.5)"><text x="0" y="18" font-family="Virgil, Segoe UI Emoji" font-size="20px" fill="#2b8a3e" text-anchor="start" style="white-space: pre;" direction="ltr">g_shared-&gt;cond</text></g><g transform="translate(1028.459552347512 446.62874172551756) rotate(0 108.5 12.5)"><text x="0" y="18" font-family="Virgil, Segoe UI Emoji" font-size="20px" fill="#000000" text-anchor="start" style="white-space: pre;" direction="ltr">desc-&gt;cancel  --&gt;false</text></g><g transform="translate(1028.089204582755 473.2954083921845) rotate(0 141.5 12.5)"><text x="0" y="18" font-family="Virgil, Segoe UI Emoji" font-size="20px" fill="#000000" text-anchor="start" style="white-space: pre;" direction="ltr">desc-&gt;config.complete --&gt;true</text></g><g transform="translate(1024.0151079030675 502.55464504583006) rotate(0 170 12.5)"><text x="0" y="18" font-family="Virgil, Segoe UI Emoji" font-size="20px" fill="#000000" text-anchor="start" style="white-space: pre;" direction="ltr">!info-&gt;use || info-&gt;notified  --&gt;false</text></g><g stroke-linecap="round" transform="translate(1012.1633012624426 440.81394951631637) rotate(0 182.59256998697907 50.37038167317701)"><path d="M25.19 0 M25.19 0 C90.01 -0.85, 154.36 -3.44, 340 0 M25.19 0 C108.16 -1.25, 190.27 -1.69, 340 0 M340 0 C357.36 -0.98, 366.06 10.24, 365.19 25.19 M340 0 C354.71 0.66, 363.36 6.17, 365.19 25.19 M365.19 25.19 C365.45 43.21, 365.96 65.29, 365.19 75.56 M365.19 25.19 C364.03 39.72, 365.34 55.57, 365.19 75.56 M365.19 75.56 C366.37 92.86, 356.13 99.52, 340 100.74 M365.19 75.56 C366.11 91.51, 355.42 100.3, 340 100.74 M340 100.74 C276.52 101.4, 210.28 101.88, 25.19 100.74 M340 100.74 C274.93 99.48, 209.81 100.38, 25.19 100.74 M25.19 100.74 C8.2 100.67, 1.02 91.76, 0 75.56 M25.19 100.74 C6.92 99.17, 2.15 92.94, 0 75.56 M0 75.56 C-2.26 63.39, 0.58 51.95, 0 25.19 M0 75.56 C0.8 57.78, 0.28 41.82, 0 25.19 M0 25.19 C-0.67 6.46, 6.76 -1.62, 25.19 0 M0 25.19 C0.8 9.86, 10.17 -0.5, 25.19 0" stroke="#000000" stroke-width="1" fill="none"></path></g><g transform="translate(1067.718856817998 405.2953405753442) rotate(0 104.5 12.5)"><text x="0" y="18" font-family="Virgil, Segoe UI Emoji" font-size="20px" fill="#000000" text-anchor="start" style="white-space: pre;" direction="ltr">wait_fetch_complete</text></g><g transform="translate(571.4966481591447 568.9620479321147) rotate(0 96 12.5)"><text x="0" y="18" font-family="Virgil, Segoe UI Emoji" font-size="20px" fill="#000000" text-anchor="start" style="white-space: pre;" direction="ltr">all_fetch_complete</text></g><g stroke-linecap="round" transform="translate(477.87548412623755 610.7398799633647) rotate(0 227 67.5)"><path d="M32 0 M32 0 C169.96 -2.27, 306.54 -2.02, 422 0 M32 0 C144.22 1.96, 256.3 2.32, 422 0 M422 0 C441.87 -0.57, 454.74 11.79, 454 32 M422 0 C441.8 -0.92, 455.92 9.38, 454 32 M454 32 C451.5 47.25, 455.09 64.27, 454 103 M454 32 C452.56 49.03, 453.01 67.55, 454 103 M454 103 C455.39 126.19, 443.63 135.96, 422 135 M454 103 C452.71 123.25, 444.41 133.84, 422 135 M422 135 C319.45 137.52, 218.49 136.27, 32 135 M422 135 C337.58 136.98, 252.61 136.71, 32 135 M32 135 C10.75 136.9, -1.05 125.79, 0 103 M32 135 C9.15 136.63, 2.27 125.28, 0 103 M0 103 C-0.92 84.11, 0.67 60.23, 0 32 M0 103 C-0.4 85.78, 0.15 66.33, 0 32 M0 32 C-1.32 12.29, 11.1 -1.62, 32 0 M0 32 C0.33 12.87, 8.67 0.05, 32 0" stroke="#000000" stroke-width="1" fill="none"></path></g><g transform="translate(503.37548412623755 628.2398799633647) rotate(0 201.5 50.5)"><text x="201.5" y="18.25" font-family="Virgil, Segoe UI Emoji" font-size="20px" fill="#000000" text-anchor="middle" style="white-space: pre;" direction="ltr">!desc-&gt;config.complete --&gt;flase</text><text x="201.5" y="43.5" font-family="Virgil, Segoe UI Emoji" font-size="20px" fill="#000000" text-anchor="middle" style="white-space: pre;" direction="ltr">!desc-&gt;register_layers_complete --&gt;false</text><text x="201.5" y="68.75" font-family="Virgil, Segoe UI Emoji" font-size="20px" fill="#000000" text-anchor="middle" style="white-space: pre;" direction="ltr">infos[i].use &amp;&amp; !infos[i].notified --&gt;false</text><text x="201.5" y="94" font-family="Virgil, Segoe UI Emoji" font-size="20px" fill="#000000" text-anchor="middle" style="white-space: pre;" direction="ltr">else true</text></g><g stroke-linecap="round"><g transform="translate(665.211861498176 491.6287145987817) rotate(0 0.7219837168451022 56.34321362182504)"><path d="M-0.31 -0.08 C0.02 18.89, 1.05 93.85, 1.34 112.82 M1.73 -1.17 C1.96 18.01, 0.62 94.48, 0.46 113.86" stroke="#000000" stroke-width="1" fill="none"></path></g><g transform="translate(665.211861498176 491.6287145987817) rotate(0 0.7219837168451022 56.34321362182504)"><path d="M-9.57 85.76 C-8.81 92.99, -4.79 99.6, 1.48 115.53 M-8.44 85.29 C-5.18 96.33, -1.06 106.48, 0.29 113.52" stroke="#000000" stroke-width="1" fill="none"></path></g><g transform="translate(665.211861498176 491.6287145987817) rotate(0 0.7219837168451022 56.34321362182504)"><path d="M10.95 86.02 C6.61 93.13, 5.52 99.68, 1.48 115.53 M12.08 85.56 C7.54 96.53, 3.84 106.58, 0.29 113.52" stroke="#000000" stroke-width="1" fill="none"></path></g></g><mask></mask><g stroke-linecap="round"><g transform="translate(823.0523122216447 445.3845391429513) rotate(0 96.55545522021134 20.79955033131023)"><path d="M0.77 1.15 C32.59 7.72, 159.19 32.88, 191.14 39.41 M-0.29 0.71 C31.89 7.48, 161.36 34.62, 193.4 40.89" stroke="#000000" stroke-width="1" fill="none"></path></g><g transform="translate(823.0523122216447 445.3845391429513) rotate(0 96.55545522021134 20.79955033131023)"><path d="M165.65 43.89 C172.98 44.54, 183.83 43.16, 192.23 41.62 M163.35 45.89 C174.53 43.9, 187.83 42.6, 192.84 40.46" stroke="#000000" stroke-width="1" fill="none"></path></g><g transform="translate(823.0523122216447 445.3845391429513) rotate(0 96.55545522021134 20.79955033131023)"><path d="M169.74 23.78 C175.77 30.84, 185.33 35.83, 192.23 41.62 M167.45 25.78 C176.89 31.74, 188.57 38.42, 192.84 40.46" stroke="#000000" stroke-width="1" fill="none"></path></g></g><mask></mask><g stroke-linecap="round" transform="translate(1028.7745615706028 559.3359474497524) rotate(0 176.5 35)"><path d="M17.5 0 M17.5 0 C101.71 2.79, 187.38 3.08, 335.5 0 M17.5 0 C94.57 -1, 171.26 -0.35, 335.5 0 M335.5 0 C349.05 1.01, 354.76 6.45, 353 17.5 M335.5 0 C344.93 2.02, 351.83 4, 353 17.5 M353 17.5 C354.88 32.3, 353.21 41.84, 353 52.5 M353 17.5 C354.23 25.91, 354.26 34.5, 353 52.5 M353 52.5 C354.08 65.92, 346.88 68.16, 335.5 70 M353 52.5 C351.13 65.91, 345.91 71.8, 335.5 70 M335.5 70 C248.79 69.5, 160.68 70.38, 17.5 70 M335.5 70 C227.06 69.04, 117.99 68.84, 17.5 70 M17.5 70 C5.5 70.31, -0.9 63.19, 0 52.5 M17.5 70 C6.95 69.73, -0.79 62.43, 0 52.5 M0 52.5 C0.69 45.57, -1.35 37.4, 0 17.5 M0 52.5 C-0.22 40.14, -0.63 26.56, 0 17.5 M0 17.5 C0.74 5.24, 6.54 0.4, 17.5 0 M0 17.5 C-1.73 6.97, 6.87 -0.25, 17.5 0" stroke="#000000" stroke-width="1" fill="none"></path></g><g transform="translate(1054.7745615706028 569.3359474497524) rotate(0 150.5 25.5)"><text x="150.5" y="17.5" font-family="Virgil, Segoe UI Emoji" font-size="20px" fill="#000000" text-anchor="middle" style="white-space: pre;" direction="ltr">apply_diff to archive_unpack </text><text x="150.5" y="43" font-family="Virgil, Segoe UI Emoji" font-size="20px" fill="#000000" text-anchor="middle" style="white-space: pre;" direction="ltr">image layer</text></g><g stroke-linecap="round"><g transform="translate(811.5855155722463 464.34086362692733) rotate(0 106.95316778426485 60.555551640269414)"><path d="M-1.06 -0.2 C34.36 20.15, 176.98 101.12, 212.63 121.44 M0.58 -1.36 C36.38 19.18, 179.77 101.79, 214.97 122.47" stroke="#000000" stroke-width="1" fill="none"></path></g><g transform="translate(811.5855155722463 464.34086362692733) rotate(0 106.95316778426485 60.555551640269414)"><path d="M185.1 116.01 C192.85 118.23, 202.42 120.66, 214.78 123.87 M186.26 117.25 C197.58 118.43, 209.09 121.96, 215.29 121.84" stroke="#000000" stroke-width="1" fill="none"></path></g><g transform="translate(811.5855155722463 464.34086362692733) rotate(0 106.95316778426485 60.555551640269414)"><path d="M195.41 98.26 C199.89 105.85, 206.29 113.73, 214.78 123.87 M196.56 99.5 C203.99 107.54, 211.52 117.94, 215.29 121.84" stroke="#000000" stroke-width="1" fill="none"></path></g></g><mask></mask><g transform="translate(381.2823927917059 474.12870542380233) rotate(0 10.5 14.5)"><text x="0" y="21" font-family="Virgil, Segoe UI Emoji" font-size="20px" fill="#000000" text-anchor="start" style="white-space: pre;" direction="ltr">⑥</text></g><g stroke-linecap="round"><g transform="translate(795.3445984490046 490.642460792782) rotate(0 1.1227395565559277 60.09279141314323)"><path d="M0.49 0.41 C0.6 20.55, 1.59 99.82, 1.75 119.78" stroke="#5c940d" stroke-width="1.5" fill="none" stroke-dasharray="1.5 7"></path></g></g><mask></mask><g transform="translate(740.2334330844211 539.864669451636) rotate(0 92.5 12.5)"><text x="0" y="18" font-family="Virgil, Segoe UI Emoji" font-size="20px" fill="#5c940d" text-anchor="start" style="white-space: pre;" direction="ltr">g_shared-&gt;cond; 15</text></g></svg>