<svg version="1.1" xmlns="http://www.w3.org/2000/svg" viewBox="0 0 1905.7421882767298 889.3374234844265" width="1905.7421882767298" height="889.3374234844265">
  <!-- svg-source:excalidraw -->
  
  <defs>
    <style class="style-fonts">
      @font-face {
        font-family: "Virgil";
        src: url("https://excalidraw.com/Virgil.woff2");
      }
      @font-face {
        font-family: "Cascadia";
        src: url("https://excalidraw.com/Cascadia.woff2");
      }
    </style>
  </defs>
  <rect x="0" y="0" width="1905.7421882767298" height="889.3374234844265" fill="#ffffff"></rect><g stroke-linecap="round" transform="translate(611.1952624140996 512.2786083257271) rotate(0 84.5 47.5)"><path d="M7.71 26.58 C7.71 26.58, 7.71 26.58, 7.71 26.58 M7.71 26.58 C7.71 26.58, 7.71 26.58, 7.71 26.58 M2.69 35.18 C6.6 33.15, 10.13 28.62, 18.26 17.54 M3.89 36.48 C9.44 29.41, 16.18 22.83, 20.83 18.36 M1.87 47.47 C14.12 33.4, 24.78 19.48, 32.64 11.12 M0.48 46.37 C10.09 35.47, 20.04 25.38, 31.55 11.47 M3.97 50.54 C15.08 35.2, 28.93 22.26, 36.81 11.27 M3.78 49.05 C11.32 40.52, 18.36 32.44, 35.71 12.41 M5.22 55.76 C17.91 42.41, 29.76 25.78, 40.84 9.85 M5.15 54.62 C16.22 42.61, 25.76 28.92, 42.48 10.66 M6.94 58.89 C18 43.51, 32.29 28.54, 50.35 7.72 M7.35 59.18 C19.34 44.84, 31.21 30.3, 49.71 9.52 M7.85 61.41 C25.16 45.14, 41.42 26.51, 57.15 5.94 M7.61 63.32 C18.37 50.68, 28.69 40.07, 57.18 6.57 M10.23 68.02 C28.46 46.85, 48.37 21.4, 67.38 1.5 M8.52 66.96 C23.64 50.4, 38.24 32.94, 67.6 0.64 M10.68 71.34 C29.89 46.23, 47.98 26.86, 69.92 1.18 M11.55 69.23 C31.5 49.28, 49.07 26.4, 71.67 0.92 M15.77 73.47 C33.92 50.35, 54.08 27.96, 77.45 0.6 M15.42 73.33 C32.62 51.98, 51.03 32.44, 76.02 1.26 M20.06 74.95 C38.41 53.96, 59.16 29.65, 82.98 2.65 M18.92 74.72 C36.66 54.89, 54.4 33.77, 82.34 1.83 M20.34 76.77 C45.1 52.24, 64.78 27, 89.21 3.13 M21.86 76.38 C47.77 47.3, 74.03 18.01, 87.62 2.06 M24.45 79.9 C46.85 54.58, 70.2 27.41, 93.4 2.34 M24.68 79.57 C40.77 60.87, 56.6 42.41, 91.68 1.45 M26.78 81.23 C50.39 54.79, 76.16 27.46, 98.86 1 M28.62 83.07 C55.95 50.8, 82.66 20.16, 97.47 2.71 M29.72 84.36 C47.84 68.27, 61.79 52.54, 104.42 3.04 M32.05 85.17 C53.62 58.69, 75.44 33.25, 103.24 1.87 M33.3 86.37 C56.99 60.49, 79.61 34.04, 108.68 3.87 M34.71 87.72 C58.82 56.88, 85.49 28.87, 107.59 3.72 M39.81 88.24 C57.19 69.19, 72.07 51.39, 110.06 5.06 M39.22 87.78 C60.48 62.97, 82.19 38.18, 110.22 5.81 M42.87 90.96 C70.59 55.07, 100.65 25.4, 113.71 4.66 M42.78 89.01 C71.5 56.35, 100.36 24.13, 115.63 5.97 M47.4 90.69 C71.23 65.31, 95.06 37.03, 119.01 9.16 M47.99 90.04 C65.22 70.71, 82.57 51.05, 119.36 7.57 M51.92 92.81 C71.17 70.65, 88.8 49.31, 122.38 6.77 M51.81 91.8 C70.13 70.88, 87.46 51.16, 123.51 7.98 M55.96 92.39 C80.31 61.21, 107.01 31.54, 128.77 7.88 M55.81 93.22 C83.23 61.56, 110.61 28.94, 129.07 10.35 M59.6 94.7 C88.19 64.25, 113.49 31.91, 131.86 8.85 M60.38 93.02 C84.58 67.42, 105.93 42.48, 132.78 10.62 M63.66 94.98 C93.03 61.45, 118.29 31.34, 139.55 10.74 M65.72 94.69 C83.69 74.17, 99.11 55.26, 139.39 9.48 M71.14 93.16 C94.54 66.12, 117.98 39.39, 142.14 11.08 M70.02 94.5 C99.98 62, 126.47 29.62, 142.63 11.42 M77.44 95.37 C101.54 64.54, 125.91 36.37, 146.42 13.32 M76.4 94.23 C97.93 69.6, 120.23 43.64, 146.04 15.44 M82.52 94.22 C103.54 71.39, 123.16 47.44, 149.25 17.63 M81.88 94.7 C105.53 67.8, 128.97 39.67, 147.26 17.04 M86.36 96.74 C103.65 72.94, 122.04 52.87, 152.38 18.12 M85.54 94.98 C101.91 77.16, 116.67 59.95, 151.61 20.77 M89.83 95.93 C109.92 74.29, 124.03 56.46, 154.61 22.63 M92.13 95.19 C109.66 72.73, 128.09 52.04, 155.04 23.21 M94.86 94.49 C110.97 77.67, 125.6 61.34, 155.27 25.18 M97.04 95.45 C120.38 67.81, 143.96 39.28, 156.33 24.7 M100.55 96.57 C122.4 74.25, 138.36 53.93, 161.75 26.51 M101.14 94.92 C121.47 71.8, 142 50.48, 159.38 27.09 M107.46 96.04 C125.63 72.18, 145.95 49.33, 164.97 30.54 M105.8 95.29 C120.54 81.24, 132.63 64.11, 163.41 31.52 M113.57 95.17 C129.1 74.89, 144.93 60.09, 166.27 33.67 M113.63 94.72 C126.79 78.24, 142 61.85, 164.63 34.92 M121.37 91.5 C131.94 79.85, 144.69 64.27, 166.18 39.74 M120.28 91.97 C131.15 77.8, 143.01 63.96, 167.71 38.22 M127.16 91 C136.85 76.76, 147.24 68.58, 167.91 40.54 M128.54 90.77 C139.58 76.94, 150.25 64.23, 168.12 42.13 M137.97 83.56 C148.99 71.93, 158 58.98, 171.6 45.81 M137.96 84.64 C150.53 70.02, 163.7 55.2, 170.99 46.36 M151.65 74.8 C156.9 67.05, 165.34 58.93, 174.4 51.01 M151.75 73.85 C155.29 69.75, 159.93 63.93, 172.09 50.69" stroke="#ffec99" stroke-width="0.5" fill="none"></path><path d="M103.55 1.72 C115.38 2.43, 128.74 5.2, 138.31 9.59 C147.87 13.98, 155.72 21.67, 160.94 28.05 C166.15 34.42, 169.83 41.15, 169.61 47.83 C169.39 54.51, 165.06 62.09, 159.63 68.14 C154.21 74.18, 146.4 79.73, 137.04 84.12 C127.68 88.51, 115.57 93.03, 103.49 94.49 C91.41 95.95, 76.53 94.47, 64.58 92.89 C52.64 91.31, 41.19 89.27, 31.81 85.01 C22.43 80.75, 13.47 73.59, 8.29 67.34 C3.12 61.09, 0.83 54.33, 0.74 47.53 C0.65 40.73, 2.42 32.7, 7.76 26.52 C13.1 20.35, 23.13 14.78, 32.78 10.48 C42.44 6.17, 53.52 2.09, 65.68 0.71 C77.84 -0.67, 98.46 1.9, 105.75 2.2 C113.04 2.5, 109.68 1.69, 109.42 2.5 M74.86 -0.82 C86.08 -2.62, 99.35 -0.81, 110.85 1.44 C122.36 3.69, 135.22 7.47, 143.91 12.68 C152.6 17.9, 158.73 26.36, 162.99 32.75 C167.25 39.14, 170.79 44.32, 169.47 51.01 C168.14 57.71, 161.61 66.97, 155.04 72.92 C148.47 78.88, 140.2 82.86, 130.04 86.73 C119.89 90.6, 106.24 95.14, 94.11 96.14 C81.98 97.14, 68.83 95.06, 57.24 92.75 C45.65 90.43, 33.28 87.34, 24.57 82.25 C15.86 77.15, 9.24 68.99, 4.99 62.18 C0.74 55.37, -2 47.89, -0.95 41.4 C0.09 34.9, 4.59 29.04, 11.26 23.22 C17.93 17.41, 28.53 10.1, 39.05 6.52 C49.58 2.95, 68.45 2.68, 74.39 1.78 C80.32 0.88, 74.75 0.67, 74.67 1.15" stroke="#1e1e1e" stroke-width="1" fill="none"></path></g><g transform="translate(648.6347647334262 547.1910362193661) rotate(0 47.309974670410156 12.5)"><text x="47.309974670410156" y="0" font-family="Virgil, Segoe UI Emoji" font-size="20px" fill="#1e1e1e" text-anchor="middle" style="white-space: pre;" direction="ltr" dominant-baseline="text-before-edge">UNKNOWN</text></g><g stroke-linecap="round" transform="translate(1138.7743746845217 523.5710497105612) rotate(0 75 41.5)"><path d="M6.7 24.38 C6.7 24.38, 6.7 24.38, 6.7 24.38 M6.7 24.38 C6.7 24.38, 6.7 24.38, 6.7 24.38 M5.66 33.28 C9.81 29.4, 16 21.84, 22 14.56 M4.52 33.05 C9.35 28.71, 13.7 23.01, 21.36 13.74 M-0.62 42.65 C12.29 31.63, 20.28 19.84, 32.16 10.52 M0.9 42.26 C12.48 29.65, 24.65 16.57, 30.57 9.45 M2.83 46.53 C13.62 34.41, 25.34 20.61, 38.32 7.46 M3.06 46.2 C11.06 36.84, 19 27.45, 36.61 6.57 M3.85 49.37 C17.11 34.82, 32.71 19.19, 45.09 4.61 M5.69 51.21 C20.94 32.7, 35.71 15.79, 43.7 6.33 M5.48 54.02 C17.83 44.73, 25.93 35.73, 51.31 5.9 M7.81 54.82 C20.64 38.82, 33.48 23.71, 50.13 4.73 M7.74 57.53 C23.51 40.48, 38.45 22.87, 58.2 3.71 M9.16 58.88 C24.62 38.14, 42.53 20.2, 57.11 3.56 M11.64 62.42 C24.61 48.3, 35.25 35.39, 62.86 1.13 M11.05 61.96 C26.72 43.92, 42.68 25.76, 63.02 1.87 M12.72 67.41 C34.1 38.94, 57.83 16.56, 67.17 -0.03 M12.63 65.46 C34.89 40.09, 57.35 15.21, 69.09 1.28 M16.6 67.89 C35.59 47.98, 54.62 25.22, 73.12 3.72 M17.19 67.24 C30.74 51.93, 44.52 36.38, 73.46 2.12 M20.46 70.77 C36.15 52.57, 50.3 35.24, 77.14 0.57 M20.35 69.75 C35.38 52.7, 49.3 36.9, 78.28 1.78 M23.84 71.1 C43.82 45.13, 66.07 20.59, 84.19 0.93 M23.69 71.92 C46.4 45.76, 69.07 18.54, 84.49 3.4 M26.83 74.17 C51.37 48.39, 72.66 20.66, 87.94 1.14 M27.61 72.48 C48.26 50.76, 66.16 29.78, 88.85 2.91 M29.57 75.95 C55.34 46.6, 76.92 20.71, 95.63 3.04 M31.64 75.67 C47.29 57.79, 60.49 41.44, 95.47 1.77 M35.74 75.64 C56.53 51.57, 77.44 27.75, 98.87 2.62 M34.62 76.98 C61.44 48.08, 84.84 19.24, 99.37 2.96 M40.08 80.12 C62.49 51.24, 85.2 24.99, 104.46 3.35 M39.04 78.98 C59.09 56.01, 79.91 31.75, 104.09 5.46 M44.5 79.72 C64.71 57.83, 83.51 34.83, 108.61 6.15 M43.87 80.2 C66.57 54.36, 89.09 27.31, 106.62 5.56 M48.34 82.24 C65.25 58.87, 83.27 39.23, 113.05 5.13 M47.52 80.48 C63.58 63.01, 78.02 46.17, 112.28 7.79 M51.16 82.19 C71.43 60.33, 85.72 42.3, 116.59 8.13 M53.45 81.45 C71.17 58.76, 89.8 37.84, 117.02 8.71 M56.18 80.75 C72.62 63.54, 87.58 46.82, 117.91 9.93 M58.36 81.71 C82.23 53.47, 106.33 24.35, 118.97 9.44 M60.56 84.34 C83.67 60.57, 100.87 38.82, 125.69 9.75 M61.15 82.69 C82.85 58.06, 104.73 35.19, 123.33 10.32 M68.12 83.05 C87.95 57.25, 109.93 32.5, 130.23 12.27 M66.47 82.3 C82.29 66.98, 95.47 48.59, 128.67 13.25 M72.27 84.45 C89.97 61.71, 107.88 44.51, 132.19 14.64 M72.33 84 C87.46 65.31, 104.58 46.73, 130.54 15.9 M78.76 82.29 C91.72 67.83, 106.88 49.48, 133.41 19.2 M77.67 82.75 C90.99 65.65, 105.38 48.9, 134.94 17.69 M82.59 84.05 C95.38 66.29, 108.74 54.69, 136.45 18.49 M83.96 83.82 C98.7 65.73, 112.98 48.87, 136.66 20.08 M89.45 81.14 C105.93 63.06, 120.58 43.62, 140.8 23.01 M89.45 82.22 C108.79 59.73, 128.72 37.14, 140.19 23.56 M94.6 82.18 C108.41 64.4, 125.57 46.26, 144.91 26.7 M94.7 81.24 C104.17 70.41, 114.76 57.74, 142.6 26.38 M98.99 80.76 C116.46 61.71, 130.81 43.81, 145.87 27.96 M101.57 81.45 C117.2 62.05, 134.2 41.75, 145.82 28.82 M105.47 79.64 C118.19 65.99, 133.72 50.87, 149.41 31.16 M106.12 82.21 C121.65 62.89, 138.8 44.68, 149.56 31.93 M116.2 76.04 C122.75 66.68, 132.96 55.44, 150.24 38.87 M114.75 76.09 C122.76 68.37, 131.16 58.49, 150.25 37.05 M123 73.67 C132.78 64.45, 138.49 54.38, 151.33 43.33 M123.34 74.26 C129.92 64.93, 136.67 57.4, 149.17 42.53 M132.65 66.88 C140.5 61.11, 146.9 54.13, 151.57 48.01 M133.27 67.87 C139.3 59.86, 146.24 52.73, 150.82 48.47" stroke="#a5d8ff" stroke-width="0.5" fill="none"></path><path d="M62.88 0.96 C73.44 -0.63, 87.09 0.58, 98 2.38 C108.91 4.18, 120.15 7.14, 128.36 11.76 C136.56 16.39, 143.77 23.77, 147.23 30.14 C150.68 36.51, 151.32 43.87, 149.1 50 C146.88 56.13, 141.36 62.02, 133.88 66.92 C126.41 71.81, 114.88 76.79, 104.25 79.37 C93.61 81.95, 81.41 82.79, 70.08 82.4 C58.75 82.01, 46.27 80.24, 36.27 77.04 C26.27 73.85, 16.02 68.69, 10.07 63.22 C4.11 57.74, 1.14 50.62, 0.56 44.17 C-0.02 37.72, 1.77 30.55, 6.59 24.51 C11.42 18.46, 17.83 11.94, 29.49 7.89 C41.16 3.85, 66.55 1.16, 76.57 0.22 C86.6 -0.72, 89.72 1.74, 89.65 2.23 M83.14 -0.13 C94.03 -0.04, 107.19 2.8, 116.73 6.43 C126.27 10.07, 135.07 16.03, 140.4 21.66 C145.73 27.29, 148.4 33.8, 148.74 40.2 C149.07 46.6, 147.58 54.01, 142.41 60.04 C137.25 66.07, 127.25 72.8, 117.75 76.39 C108.24 79.98, 96.81 81.03, 85.38 81.58 C73.95 82.13, 60.47 81.99, 49.15 79.7 C37.84 77.41, 25.24 72.82, 17.47 67.86 C9.69 62.89, 5.11 55.92, 2.53 49.9 C-0.06 43.89, -0.97 37.85, 1.94 31.75 C4.84 25.64, 12.34 18.36, 19.94 13.27 C27.55 8.18, 36.62 3.24, 47.56 1.2 C58.49 -0.84, 79.58 1.21, 85.56 1.02 C91.55 0.82, 83.91 -0.38, 83.47 0.03" stroke="#1e1e1e" stroke-width="1" fill="none"></path></g><g transform="translate(1167.1613871526595 552.7261182913194) rotate(0 46.579978942871094 12.5)"><text x="46.579978942871094" y="0" font-family="Virgil, Segoe UI Emoji" font-size="20px" fill="#1e1e1e" text-anchor="middle" style="white-space: pre;" direction="ltr" dominant-baseline="text-before-edge">RUNNING</text></g><g stroke-linecap="round" transform="translate(1723.7421882767298 403.92764600476346) rotate(0 86 43.5)"><path d="M4.83 29.38 C4.83 29.38, 4.83 29.38, 4.83 29.38 M4.83 29.38 C4.83 29.38, 4.83 29.38, 4.83 29.38 M2.28 38.84 C6.24 31.5, 14.91 25.33, 23.44 16.36 M2.77 36.44 C8.17 30, 14.94 23.72, 23.29 14.01 M1.77 45.88 C13.11 31.97, 21.89 21.16, 26.52 13.65 M2.36 45.06 C8.84 35.58, 17.4 28.27, 28.76 15.66 M1.5 50.86 C13.97 39.33, 20.27 29.04, 35.75 12.4 M2.31 49.28 C9.11 43.22, 15.37 33.78, 35.6 13.33 M5.96 54.53 C18.5 38.78, 29.87 23, 42.58 11.49 M5.79 52.95 C17.03 39.92, 30.08 24.67, 42.7 11.09 M9.06 55.4 C16.87 46.08, 27.76 33.56, 50 8.98 M6.48 56.44 C18.82 44.97, 28.29 31.74, 50.28 8.28 M9.58 61.65 C25.76 39.59, 43.87 19.88, 59.33 6.87 M8.73 61.89 C27.51 38.31, 47.95 17.06, 57.49 5.48 M11.32 62.91 C24.18 49.97, 37.09 36.16, 64.54 6.15 M12.42 64.21 C25.95 47.75, 40.24 31.67, 63.38 4.84 M14.65 67.28 C33.14 48.75, 46.4 28.91, 68.2 4.98 M13.35 67.35 C26.09 53.85, 39.04 39.63, 69.69 3.49 M15.29 70.05 C33.8 50.21, 52.25 31.54, 75.82 5.73 M16.72 70.24 C37.57 46.24, 58.36 22.84, 73.87 3.84 M21.87 72.45 C34.42 56.89, 48.49 41.15, 81.92 4.46 M21.43 72.88 C45.01 45.27, 67.78 17.01, 80 4.35 M23.39 74.2 C40.99 58.15, 54.04 36.91, 85.6 3.47 M24.32 74.02 C37.72 59.51, 49.44 45.07, 84.98 3.22 M26.08 76.46 C47.98 54.66, 64.45 31.38, 89.34 4.47 M27.73 75.44 C50 50.34, 74.05 24.49, 90.16 2.96 M32.85 78.31 C51.67 55.52, 70.39 36.37, 97.14 2.16 M31.78 77.7 C56.94 50.18, 78.94 24, 96.23 3.06 M36.19 80.33 C58.14 54.62, 75.77 31.11, 100.76 2.68 M35.96 78.87 C59.62 49.82, 85.45 22.47, 100.19 3.83 M41.62 80.52 C62.92 55.41, 86.65 29.17, 106.43 3.85 M39.32 81.81 C55.23 64.49, 70.24 45.24, 106.81 3.82 M45.19 81.1 C70.77 50.91, 95.57 24.02, 111.19 3.98 M44.79 82.12 C68.5 52.75, 92.5 25.94, 109.72 5.86 M47.7 82.5 C70.11 56.05, 90.91 31.79, 116.19 7.56 M48.05 83.47 C64.06 64.63, 79.41 47.28, 115.49 6.05 M52.8 84.81 C68.11 68.16, 80.35 53.59, 121.06 7.8 M52.49 84.26 C70.79 62.98, 86.8 42.87, 118.69 7.54 M59.21 84.14 C79.71 58.62, 101.54 34.77, 124.57 9.08 M58.08 85.2 C73.34 65.78, 89.19 48.78, 125.35 8.22 M60.85 83.75 C77.46 67.99, 90.89 49.4, 126.92 9.53 M62.32 85.74 C80.42 65.8, 96.35 45.61, 127.98 8.52 M65.03 84.63 C89.22 57.19, 113.61 32.26, 134.47 7.44 M67.15 85.89 C90.01 60.04, 110.89 35.4, 133.08 9.15 M73.25 87.96 C86.61 67.31, 105.64 45.58, 137.37 12.59 M72.5 85.9 C96.04 58.33, 118.31 31.58, 137.46 11.57 M75.43 85.62 C91.76 68.94, 105.23 52.59, 139.58 11.19 M75.27 88.06 C93.04 67.57, 110.94 47.58, 141.06 12.3 M82 87.46 C96.5 67.98, 115.07 48.71, 145.79 15.65 M80.19 89.18 C95.04 70.28, 111.09 53.88, 144.61 13.83 M86.1 87.26 C103.11 67.32, 123.31 48.44, 150.26 15.6 M86.74 87.84 C100.43 73.55, 113.12 57.82, 149.2 16.98 M91.78 87.03 C107.28 71.4, 122.19 55.94, 152.27 18.36 M92.13 87.89 C114.87 61.22, 136.83 35.64, 152.51 18.56 M96.81 89.72 C113.56 71.58, 127.31 54.6, 156.32 20.7 M96.83 88.49 C119.87 60.86, 143.48 33.75, 155.74 20.4 M101.46 86.22 C114.01 72.43, 128.73 56.36, 160.99 20.37 M102.12 88.27 C120.81 67.98, 138.12 47.66, 159.22 22.13 M108.08 88.4 C120.47 75.37, 130.61 61.97, 161.05 25.55 M108.43 87.65 C122.28 72.37, 136.59 56.62, 163.27 23.9 M117.22 84.3 C129.99 68.98, 144.23 49.46, 164.29 29.87 M116.15 85.34 C126.85 72.51, 137.72 60.68, 165.81 28.6 M123.83 82.95 C131.09 73.53, 141.7 61.82, 167.75 32.67 M122.69 82.33 C135.91 68.03, 146.59 55.24, 167.27 31.42 M129.4 81.06 C142.65 64.54, 154.73 51.4, 170.48 34 M131.23 79.84 C141.22 66.73, 154.38 53.46, 170.2 34.07 M139.46 78.29 C146.35 69.43, 156.57 56.48, 172.47 39.85 M137.12 77.92 C151.43 63.3, 163.36 47.79, 170.84 39.28 M145.75 74.78 C152.75 67.13, 157.32 63.68, 169.41 47.45 M144.67 74.09 C150.21 69.42, 155.59 63, 170.73 45.33 M149.8 76.12 C154.93 68.11, 164.25 61.08, 170.13 54.91 M149.55 75.71 C156.48 66.93, 164.93 59, 168.83 52.98" stroke="#ffc9c9" stroke-width="0.5" fill="none"></path><path d="M55.68 3.27 C66.28 0.66, 81.48 0.48, 94.09 1.1 C106.7 1.72, 120.67 3.89, 131.35 6.99 C142.04 10.1, 151.59 14.55, 158.2 19.76 C164.82 24.96, 169.36 32.1, 171.03 38.23 C172.7 44.36, 172.07 50.64, 168.21 56.54 C164.34 62.43, 156.73 68.92, 147.85 73.59 C138.97 78.25, 126.61 82.43, 114.91 84.53 C103.22 86.64, 89.88 86.92, 77.69 86.21 C65.5 85.5, 52.41 83.31, 41.76 80.28 C31.1 77.26, 20.51 73.27, 13.77 68.08 C7.02 62.88, 2.75 55.58, 1.27 49.12 C-0.21 42.66, 0.93 35.33, 4.88 29.32 C8.84 23.31, 14.42 17.69, 25.01 13.05 C35.6 8.41, 59.38 3.38, 68.43 1.47 C77.49 -0.43, 79.07 0.99, 79.34 1.63 M110.31 2 C122.19 3.18, 134.33 7.56, 143.51 11.57 C152.69 15.59, 160.88 20.51, 165.4 26.08 C169.91 31.66, 171.27 38.76, 170.58 45.03 C169.89 51.31, 166.93 58.08, 161.26 63.74 C155.59 69.39, 146.39 75.33, 136.58 78.94 C126.76 82.56, 114.75 84.52, 102.37 85.44 C89.98 86.37, 74.41 85.9, 62.26 84.5 C50.1 83.1, 38.94 81.21, 29.44 77.03 C19.94 72.86, 10.16 65.61, 5.27 59.47 C0.38 53.33, -0.61 46.3, 0.09 40.21 C0.79 34.13, 3.48 28.36, 9.48 22.95 C15.49 17.53, 25.98 11.36, 36.11 7.73 C46.24 4.09, 57.95 2, 70.27 1.15 C82.58 0.31, 103.62 2.24, 110 2.65 C116.38 3.07, 109.03 3.29, 108.53 3.65" stroke="#1e1e1e" stroke-width="1" fill="none"></path></g><g transform="translate(1756.5410285932219 435.1685010231486) rotate(0 53.389976501464844 12.5)"><text x="53.389976501464844" y="0" font-family="Virgil, Segoe UI Emoji" font-size="20px" fill="#1e1e1e" text-anchor="middle" style="white-space: pre;" direction="ltr" dominant-baseline="text-before-edge">REMOVING</text></g><g mask="url(#mask-2YvF0w538djH4sdZU4R3-)" stroke-linecap="round"><g transform="translate(398.6559023236424 560.5407857260557) rotate(0 105.20069851453297 0.14834157189237374)"><path d="M0.31 -0.93 C35.54 -0.93, 176.27 -0.22, 211.39 0.1 M-0.99 1.2 C34.07 1.31, 175.22 0.96, 210.39 1.14" stroke="#1e1e1e" stroke-width="1" fill="none"></path></g><g transform="translate(398.6559023236424 560.5407857260557) rotate(0 105.20069851453297 0.14834157189237374)"><path d="M180.64 11.18 C189.03 7.43, 198.97 6.44, 210.62 1.59 M183 11.83 C191.13 8.3, 198.66 6.5, 211.04 1.74" stroke="#1e1e1e" stroke-width="1" fill="none"></path></g><g transform="translate(398.6559023236424 560.5407857260557) rotate(0 105.20069851453297 0.14834157189237374)"><path d="M180.66 -9.34 C189.06 -6.94, 199 -1.77, 210.62 1.59 M183.02 -8.69 C191.29 -6.36, 198.81 -2.29, 211.04 1.74" stroke="#1e1e1e" stroke-width="1" fill="none"></path></g></g><mask id="mask-2YvF0w538djH4sdZU4R3-"><rect x="0" y="0" fill="#fff" width="710.1643777714307" height="661.6104230070107"></rect><rect x="470.41017056511464" y="548.5756043665332" fill="#000" width="67.99993896484375" height="25" opacity="1"></rect></mask><g transform="translate(470.41017056511464 548.5756043665331) rotate(0 33.44643027306074 12.113522931414863)"><text x="33.999969482421875" y="0" font-family="Virgil, Segoe UI Emoji" font-size="20px" fill="#1e1e1e" text-anchor="middle" style="white-space: pre;" direction="ltr" dominant-baseline="text-before-edge">Create</text></g><g mask="url(#mask-1S7iIqXfDDczkbKm9LH8n)" stroke-linecap="round"><g transform="translate(786.296377457143 567.1323034363783) rotate(0 171.040927850928 -0.05342114733234382)"><path d="M0.2 1.17 C57.46 0.76, 285.83 -0.82, 343.24 -1.27 M-1.16 0.73 C55.95 0.98, 284.54 0.16, 342.14 -0.08" stroke="#1e1e1e" stroke-width="1" fill="none"></path></g><g transform="translate(786.296377457143 567.1323034363783) rotate(0 171.040927850928 -0.05342114733234382)"><path d="M315.94 9.81 C320.41 9.3, 327.58 6.29, 340.15 0.12 M313.13 10.3 C324.53 6.93, 333.56 3.36, 343.05 0.83" stroke="#1e1e1e" stroke-width="1" fill="none"></path></g><g transform="translate(786.296377457143 567.1323034363783) rotate(0 171.040927850928 -0.05342114733234382)"><path d="M315.86 -10.72 C320.56 -5.67, 327.75 -3.12, 340.15 0.12 M313.05 -10.22 C324.4 -6.17, 333.45 -2.31, 343.05 0.83" stroke="#1e1e1e" stroke-width="1" fill="none"></path></g></g><mask id="mask-1S7iIqXfDDczkbKm9LH8n"><rect x="0" y="0" fill="#fff" width="1229.8253539001485" height="667.746697550129"></rect><rect x="930.3608916185871" y="554.3251063795029" fill="#000" width="55.39994812011719" height="25" opacity="1"></rect></mask><g transform="translate(930.3608916185871 554.3251063795029) rotate(0 26.976413689483906 12.753775909543023)"><text x="27.699974060058594" y="0" font-family="Virgil, Segoe UI Emoji" font-size="20px" fill="#1e1e1e" text-anchor="middle" style="white-space: pre;" direction="ltr" dominant-baseline="text-before-edge">start</text></g><g mask="url(#mask-1IQRLonu9oqnv-5kiHua7)" stroke-linecap="round"><g transform="translate(1287.2020770254971 547.6349621827203) rotate(0 219.9360290261696 -39.310765394037205)"><path d="M1.14 -0.89 C74.08 -14.33, 364.69 -66.73, 437.47 -79.88 M0.29 1.26 C73.59 -12.11, 366.25 -65.41, 439.59 -78.78" stroke="#1e1e1e" stroke-width="1" fill="none"></path></g><g transform="translate(1287.2020770254971 547.6349621827203) rotate(0 219.9360290261696 -39.310765394037205)"><path d="M412.21 -65.51 C419.66 -69.54, 427.17 -73.85, 441.4 -78.14 M413.32 -63.4 C419.26 -66.15, 424.51 -70.87, 439.96 -79.53" stroke="#1e1e1e" stroke-width="1" fill="none"></path></g><g transform="translate(1287.2020770254971 547.6349621827203) rotate(0 219.9360290261696 -39.310765394037205)"><path d="M408.54 -85.7 C417.17 -83.97, 425.73 -82.49, 441.4 -78.14 M409.65 -83.58 C416.47 -81.87, 422.52 -82.13, 439.96 -79.53" stroke="#1e1e1e" stroke-width="1" fill="none"></path></g></g><mask id="mask-1IQRLonu9oqnv-5kiHua7"><rect x="0" y="0" fill="#fff" width="1825.7996880101396" height="726.702556135407"></rect><rect x="1441.6809133405723" y="495.60116520637695" fill="#000" width="129.6399383544922" height="25" opacity="1"></rect></mask><g transform="translate(1441.6809133405723 495.601165206377) rotate(0 65.4571927110944 12.723031582306149)"><text x="64.8199691772461" y="0" font-family="Virgil, Segoe UI Emoji" font-size="20px" fill="#1e1e1e" text-anchor="middle" style="white-space: pre;" direction="ltr" dominant-baseline="text-before-edge">Remove开始时</text></g><g mask="url(#mask-o1EGrf6UgruBy66Wgl19s)" stroke-linecap="round"><g transform="translate(704.0748575036632 506.871092169769) rotate(0 522.7739170584458 -46.46734970108341)"><path d="M1.1 -1.08 C79.22 -13.1, 294.43 -57.77, 468.47 -73.24 C642.51 -88.71, 949.34 -90.46, 1045.33 -93.9 M0.22 0.96 C78.21 -10.77, 293.55 -56.18, 467.6 -71.84 C641.66 -87.5, 948.47 -89.43, 1044.56 -92.98" stroke="#1e1e1e" stroke-width="1" fill="none"></path></g><g transform="translate(704.0748575036632 506.871092169769) rotate(0 522.7739170584458 -46.46734970108341)"><path d="M1014.82 -81.8 C1024.17 -85.4, 1031.23 -90.05, 1043.3 -93.23 M1016.97 -82.83 C1023.53 -83.51, 1028.95 -87.72, 1043.81 -92.26" stroke="#1e1e1e" stroke-width="1" fill="none"></path></g><g transform="translate(704.0748575036632 506.871092169769) rotate(0 522.7739170584458 -46.46734970108341)"><path d="M1014.33 -102.31 C1023.62 -100.13, 1030.82 -98.98, 1043.3 -93.23 M1016.49 -103.35 C1023.3 -99.33, 1028.83 -98.84, 1043.81 -92.26" stroke="#1e1e1e" stroke-width="1" fill="none"></path></g></g><mask id="mask-o1EGrf6UgruBy66Wgl19s"><rect x="0" y="0" fill="#fff" width="1849.4014528309872" height="700.0034027955347"></rect><rect x="1107.567484272567" y="421.4008616912063" fill="#000" width="129.6399383544922" height="25" opacity="1"></rect></mask><g transform="translate(1107.567484272567 421.40086169120633) rotate(0 119.28129028954186 39.00288077747928)"><text x="64.8199691772461" y="0" font-family="Virgil, Segoe UI Emoji" font-size="20px" fill="#1e1e1e" text-anchor="middle" style="white-space: pre;" direction="ltr" dominant-baseline="text-before-edge">Remove开始时</text></g><g stroke-linecap="round" transform="translate(403.76169129286166 123.71787829276843) rotate(0 39.794856144831726 32.69230769230768)"><path d="M17.31 5.77 C17.31 5.77, 17.31 5.77, 17.31 5.77 M17.31 5.77 C17.31 5.77, 17.31 5.77, 17.31 5.77 M4.14 25.44 C11.63 18.45, 20.19 9.62, 23.49 4.99 M4.39 25.4 C9.8 18.87, 15.2 14.69, 23.61 4.64 M5.48 33.77 C11.5 25.87, 18.08 17.48, 28.59 2.08 M4.21 31.92 C15.12 20.75, 24.86 10.53, 30.22 3.02 M5.09 37.35 C12.03 30.16, 21.01 18.97, 38.72 -0.19 M4.46 36.8 C18.22 24.15, 29.34 9.9, 37.63 1.77 M4.75 46.57 C13.67 32.01, 26.61 17.78, 40.93 0.16 M3.51 45.86 C16.75 30.27, 29.96 14.06, 42.73 1.92 M6.51 49.21 C22.25 32.79, 31.87 20.94, 48.04 1.26 M7.54 46.63 C21.11 33.19, 34.53 17.64, 46.47 2.22 M11.1 50.59 C26.86 34.35, 39.27 16.63, 50.33 2.96 M9.74 51.72 C21.51 37.14, 31.29 24.8, 50.32 3.99 M12.57 52.67 C25.37 39.5, 40.24 23.31, 52.95 5.08 M11.66 55.25 C28.25 34.73, 45.57 15.53, 54.43 6.55 M16.51 56.65 C23.65 46.7, 33.7 34.3, 58.06 8.87 M16.2 56.61 C25.07 45.21, 35.55 33.44, 58.5 7.99 M16.93 62.42 C31.54 42.83, 48.28 23.86, 65.06 9.3 M17.22 61.21 C35.05 40.29, 52.52 20.13, 62.8 6.69 M20.95 62.53 C34.87 45.34, 47.45 31.38, 64.12 9.81 M21.03 61.72 C30.54 50.73, 41.54 39.82, 66.39 11.31 M25.21 64.06 C36.63 49.29, 45.49 38.93, 69.52 15.5 M25.47 63.12 C41.87 44.59, 56.57 28.4, 69.28 13.25 M32.48 62.01 C40.01 55.5, 47.58 41.93, 72.65 17.69 M31.35 63.38 C46.96 45.75, 61.71 26.33, 72.12 16.46 M34.59 65.06 C45.9 52.51, 56.95 42.38, 73.44 17.92 M36.07 64.51 C45.54 53.26, 54.06 41.5, 74.41 18.66 M37.95 66.39 C49.17 55.15, 56.57 48.1, 77.83 22.16 M39.92 64.54 C53.65 48.44, 69.29 30.6, 76.73 22.83 M42.3 68.34 C56.87 54.13, 66.22 40.01, 81.36 25.84 M43.6 67.54 C50.45 58.6, 59.49 49.58, 81.03 25.49 M50.9 63.94 C58.67 58.18, 67.2 49.73, 79.97 31.14 M51.11 64.28 C59.5 54.55, 67.97 44.09, 80.26 31.19 M58.82 62.23 C63.37 56.63, 69.39 51.96, 78.72 36.87 M56.81 62.91 C61.74 58.29, 67.32 52.64, 79.76 37.74" stroke="#ffc9c9" stroke-width="0.5" fill="none"></path><path d="M40.19 0.08 C47.54 -0.28, 56.26 3.32, 62.55 7.18 C68.84 11.05, 75.41 17.48, 77.93 23.28 C80.45 29.08, 80.16 36.13, 77.67 41.98 C75.19 47.84, 69.23 54.6, 63.02 58.42 C56.8 62.24, 48.13 64.63, 40.38 64.91 C32.63 65.19, 22.85 63.82, 16.49 60.11 C10.13 56.4, 4.56 48.84, 2.22 42.66 C-0.12 36.49, -0.05 29.18, 2.43 23.07 C4.92 16.96, 10.37 9.81, 17.11 6 C23.86 2.19, 38.4 1.01, 42.91 0.21 C47.41 -0.58, 44.44 0.7, 44.14 1.21 M42.22 0.53 C49.64 0.26, 60.18 2.71, 66.24 6.64 C72.31 10.57, 76.8 17.48, 78.61 24.13 C80.41 30.78, 79.96 40.23, 77.07 46.54 C74.18 52.85, 68.02 59.08, 61.25 62 C54.49 64.93, 44.59 64.6, 36.48 64.08 C28.37 63.56, 18.4 62.79, 12.58 58.87 C6.75 54.95, 3.07 47.18, 1.51 40.57 C-0.06 33.96, 0.15 25.14, 3.18 19.23 C6.22 13.33, 13.27 8.55, 19.71 5.13 C26.14 1.7, 38.17 -0.64, 41.78 -1.34 C45.4 -2.03, 41.28 -0.04, 41.38 0.97" stroke="#1e1e1e" stroke-width="1" fill="none"></path></g><g transform="translate(505.095055926275 140.51278138772034) rotate(0 168.889892578125 12.5)"><text x="0" y="0" font-family="Virgil, Segoe UI Emoji" font-size="20px" fill="#1e1e1e" text-anchor="start" style="white-space: pre;" direction="ltr" dominant-baseline="text-before-edge">SANDBOX_STATUS_NOT_READY</text></g><g stroke-linecap="round" transform="translate(402.9744410675005 217.31371743046338) rotate(0 39.794856144831726 32.69230769230768)"><path d="M2.63 20.84 C2.63 20.84, 2.63 20.84, 2.63 20.84 M2.63 20.84 C2.63 20.84, 2.63 20.84, 2.63 20.84 M2.68 29 C6.51 24.5, 10.1 18.12, 17.98 8.64 M0.94 27.02 C6.17 24.5, 8.62 20.03, 19.2 8.64 M1.99 34.44 C7.45 24.05, 17.04 17.06, 25.68 4.58 M1.79 33.75 C11.23 24.36, 20.4 12.35, 26.94 6.23 M-0.65 40.86 C13.96 26.08, 23.95 16.14, 32.09 5.25 M1.29 40.97 C12.77 27.42, 26.13 14.21, 34.13 3.77 M3.4 45.33 C13.22 30.62, 26.15 16.15, 41.61 0.82 M3.63 44.83 C14.87 30.89, 26.74 17.9, 42.22 -0.14 M5.09 46.2 C16.15 34.5, 28.12 24.12, 45.81 2.22 M5.11 46.81 C18.35 32.5, 31.74 19.65, 44.41 3.22 M9.01 50.47 C16.05 38.73, 24.74 31.69, 49.97 3.75 M8.27 50.37 C16.62 39.2, 27.72 29.95, 48.88 2.49 M10.32 53.36 C25.94 35.84, 42.13 17.13, 55.51 3.21 M11.49 53.76 C21.04 40.84, 32.95 28.18, 54.03 3.63 M14.87 58.03 C25.53 42.47, 36.85 31.67, 57.4 7.61 M13.9 57 C25.56 42.96, 36.79 31.42, 58.59 6.89 M16.1 59.11 C27.98 43.88, 41.54 30.48, 61.61 7.37 M15.03 60.65 C26.61 47.01, 37.95 34.53, 61.88 8.26 M20.42 60.41 C31.5 48.72, 37.65 37.07, 64.04 10.18 M20.93 60.75 C37.34 42.43, 53.99 23.39, 65.43 8.53 M26.2 61.22 C39.71 47.62, 52.92 27.95, 69.3 13.62 M23.94 62.41 C38.58 45.15, 54.64 28.98, 68.53 13.25 M29.82 65.27 C46.82 44.93, 60.74 26.54, 72.17 15.51 M29.43 63.99 C43.16 45.59, 57.65 29.22, 70.47 16.24 M35.24 63.5 C42.23 54.06, 53.55 39.99, 75.19 17.11 M34.14 65.13 C44.27 52.28, 56.59 39, 72.83 18.1 M38.06 65.79 C48.29 54.19, 61.09 38.2, 77.41 21.64 M39.08 65.75 C47.9 53.76, 57.63 43.74, 75.03 21.96 M44.5 62.22 C56.01 52.98, 65.97 38.67, 79.95 25 M45.1 64.51 C52.75 55.22, 61.19 45.06, 78.57 25.45 M53.44 61.09 C60.49 51.34, 71.15 38.46, 76.85 29.59 M51.82 62.14 C61.98 51.16, 70.36 38.85, 78.73 31.78 M56.72 60.66 C66.18 54.17, 69.75 46.64, 78.45 39.22 M58.6 60.37 C64.99 51.58, 74.29 44.36, 78.61 37.86" stroke="#a5d8ff" stroke-width="0.5" fill="none"></path><path d="M40.47 -0.21 C48.01 -0.14, 58.12 3.86, 64.31 7.94 C70.49 12.03, 75.39 18.44, 77.59 24.3 C79.8 30.16, 80.04 37.32, 77.53 43.11 C75.02 48.89, 69.23 55.4, 62.55 59.02 C55.86 62.64, 45.46 64.91, 37.43 64.82 C29.4 64.74, 20.48 62.51, 14.34 58.49 C8.21 54.48, 2.57 47.03, 0.63 40.74 C-1.31 34.45, -0.07 26.46, 2.7 20.75 C5.48 15.05, 10.58 9.85, 17.28 6.5 C23.99 3.15, 38.15 1.67, 42.91 0.66 C47.67 -0.35, 45.7 -0.16, 45.84 0.46 M29.05 -0.03 C36.01 -1.96, 47.32 0.04, 54.93 2.68 C62.54 5.31, 70.58 10.39, 74.71 15.78 C78.85 21.17, 80.59 28.63, 79.72 35.02 C78.85 41.42, 74.31 49.38, 69.5 54.16 C64.68 58.93, 58.14 61.96, 50.83 63.67 C43.52 65.38, 32.93 66.68, 25.62 64.41 C18.31 62.14, 11.45 55.81, 6.96 50.04 C2.47 44.28, -1.61 35.9, -1.31 29.81 C-1.01 23.72, 3.8 18.21, 8.74 13.48 C13.69 8.76, 24.62 3.47, 28.34 1.44 C32.06 -0.59, 30.93 0.72, 31.06 1.28" stroke="#1e1e1e" stroke-width="1" fill="none"></path></g><g transform="translate(504.30780570091383 234.10862052541552) rotate(0 138.88992309570312 12.5)"><text x="0" y="0" font-family="Virgil, Segoe UI Emoji" font-size="20px" fill="#1e1e1e" text-anchor="start" style="white-space: pre;" direction="ltr" dominant-baseline="text-before-edge">SANDBOX_STATUS_READY</text></g><g stroke-linecap="round" transform="translate(366.1207282519953 10) rotate(0 265.64105694110594 153.7179526304588)"><path d="M32 0 M32 0 C152.71 1.58, 273.98 1.56, 499.28 0 M32 0 C191.11 1.38, 350.19 0.91, 499.28 0 M499.28 0 C522.49 -1.55, 529.33 11.9, 531.28 32 M499.28 0 C522.66 -1.38, 532.74 11.64, 531.28 32 M531.28 32 C532.46 112.08, 531.35 190.26, 531.28 275.44 M531.28 32 C531.86 85.94, 532.72 141.08, 531.28 275.44 M531.28 275.44 C531.02 297.45, 519.35 308.75, 499.28 307.44 M531.28 275.44 C532.52 298.18, 518.6 308.71, 499.28 307.44 M499.28 307.44 C333.74 304.54, 169.84 305.84, 32 307.44 M499.28 307.44 C403.12 309.11, 307.86 308.55, 32 307.44 M32 307.44 C10.28 307.63, 0.38 295.59, 0 275.44 M32 307.44 C11.49 309.23, 2.16 298.58, 0 275.44 M0 275.44 C-0.53 203.23, 0.98 129.88, 0 32 M0 275.44 C0.14 209.48, 0.17 142.71, 0 32 M0 32 C1.71 10.81, 12.01 -0.98, 32 0 M0 32 C0.8 10.28, 12.14 1.42, 32 0" stroke="#1e1e1e" stroke-width="1" fill="none"></path></g><g stroke-linecap="round" transform="translate(1719.5092780885816 612.0083837527072) rotate(0 83.5 40)"><path d="M10.94 20.11 C10.94 20.11, 10.94 20.11, 10.94 20.11 M10.94 20.11 C10.94 20.11, 10.94 20.11, 10.94 20.11 M3.7 36.98 C9.93 27.12, 17.53 20.43, 18.54 15.75 M2.9 35.8 C7.4 29.97, 10.82 26.66, 20.73 15.33 M0.85 43.29 C9.69 32.32, 18.34 20.18, 30 12.39 M3.33 42.33 C11.03 30.71, 20.91 21.66, 29.11 11.8 M5.77 47.32 C15.86 32.6, 30.82 17.79, 39.23 6.09 M3.52 45.37 C12.07 38.89, 18.7 30.1, 37.55 8.58 M6.95 49.63 C16.27 37.57, 23.36 28.07, 42.06 11.52 M6.97 49.01 C13.8 41.53, 22.47 32.55, 41.08 10.5 M7.94 54.5 C21.51 39.3, 35.34 24.2, 48.61 9.47 M8.76 54.35 C23.23 36.68, 36.98 20.42, 48.38 9.04 M8.14 56.89 C26.42 38.08, 45.93 19.49, 52.6 6 M9.15 57.76 C24.75 41.27, 37.91 25.37, 53.78 6.83 M12.27 60.7 C28.53 42.9, 44.69 24.06, 58.58 6.35 M13.77 60.37 C27.25 42.09, 42.98 23.98, 61.19 6.72 M16.7 61.82 C36.7 39.1, 55.76 18.64, 68.1 5.48 M16.73 62.38 C26.62 50.54, 38.03 36.61, 67.15 3.58 M20.84 63.56 C33.5 46.45, 48.23 30.6, 75.29 0.52 M20.65 65.71 C39.83 42.87, 59.64 18.82, 75.04 0.06 M22.56 65.22 C39.24 48.07, 58.21 25.4, 81.07 1.38 M23.03 65.84 C38.89 48.2, 54.68 30.89, 80.1 0.37 M25.87 67.01 C48.81 44.26, 68.26 20.58, 85.77 0.07 M26.47 68.01 C49.01 43.73, 71.53 19.15, 84.78 0.95 M30.93 71.63 C52.76 45.56, 73.63 23.13, 89.51 0.12 M31.59 69.97 C51.25 48.01, 71.35 26.62, 89.87 1 M32.32 74.21 C45.42 57.99, 61.61 43.02, 94.93 1.25 M33.94 73.28 C50.59 52.94, 70.09 32.87, 95.98 2.54 M36.48 76.6 C55.6 51.06, 76.62 26.73, 98.74 3.86 M36.25 74.74 C50.82 60.06, 64.77 42.45, 99.86 2.09 M41.2 75.81 C66.09 48.79, 91.32 19.75, 107.17 1.58 M42.67 76.17 C60.81 54.37, 78.94 31.98, 104.6 2.43 M45.22 75.38 C69.89 53.07, 91.29 23.65, 111.52 1.74 M47.07 76.94 C63.36 57.35, 79.06 39.49, 109.86 2.38 M52.28 75.98 C74.68 49.13, 99.04 19.92, 116.29 1.11 M51.92 77.92 C65.2 61.34, 77.73 46.41, 116.86 3.79 M56.02 79.52 C76.42 52.84, 100.44 27.92, 119.39 2.18 M55.85 78.78 C77.92 50.61, 103.67 23.52, 121.26 3.03 M60.77 79.62 C78.68 57.82, 99.57 36.36, 124.91 7.64 M61.27 79.69 C77.46 59.16, 95.34 38.87, 124.71 6.74 M63.77 80.08 C87.51 56.49, 106.77 32.79, 127.99 7.86 M65.29 81.1 C84.88 55.58, 104.64 34.01, 128.44 8.57 M67.95 81.4 C94.33 52.05, 116.89 26.04, 130.32 9.44 M69.25 81.49 C93.48 52.15, 116.33 25.06, 131.58 8.95 M72.14 83.31 C96.42 53.05, 121.32 27.07, 137.65 9.92 M73.72 81.1 C94.35 57.86, 113.99 35.45, 135.34 11.1 M80.5 82.48 C94.98 66.06, 106.61 46.68, 139.26 13.79 M80.66 80.95 C95.17 62.77, 110.86 46.76, 139.28 12.26 M83.48 80.51 C102.48 62.08, 116.91 40.95, 145.47 15.26 M85.07 80.1 C97.14 64.85, 111.75 50.57, 143.56 13.66 M89.87 79.25 C102.5 63.76, 116.9 50.4, 149.19 16.98 M91.91 80.09 C106.18 62.87, 120.8 45.19, 147.21 14.6 M96.99 78.72 C117.8 56.53, 133.91 33.89, 148.67 18.8 M96.95 80.29 C113.75 61.9, 130.65 42.94, 149.68 18.38 M101.6 78.41 C117.56 61.23, 134.41 42.06, 154.39 19.05 M102.42 80.31 C112.29 68.17, 123.46 55.32, 154.44 20.83 M105.92 78.73 C124.51 59.32, 141.46 42.25, 155.19 24.47 M107.9 80.78 C121.85 64.36, 136.02 47.65, 155.88 23.53 M113.94 77.33 C128.37 60.82, 144.14 42.2, 157.83 26.78 M113.2 78.85 C127.83 62.9, 142.5 45.27, 159.61 27.63 M120.19 76.05 C133.99 62.44, 145.79 48.58, 161.06 28.15 M120.03 76.48 C133.87 61.78, 147.06 45.37, 161.3 28.5 M128.58 74.18 C137.84 66.05, 143.33 54.71, 163.22 30.2 M127.53 74.86 C137.93 62.8, 148.69 50.51, 165 32.07 M133.23 71.48 C143.7 61.01, 153.75 52.3, 165.73 38.53 M133.84 72.73 C140.5 65.9, 148.19 58.28, 165.39 38.55 M141.98 68.63 C150.55 61.92, 158.45 50.5, 163.8 42.89 M142.37 70.09 C147.68 65.11, 152.43 59.09, 165.27 43.89 M147.9 68.31 C151.18 64.91, 157.54 58.69, 165.42 51.52 M148.09 70.5 C154.57 62.75, 160.87 54.78, 165.24 49.34" stroke="#ffc9c9" stroke-width="0.5" fill="none"></path><path d="M74.5 -0.42 C86.87 -1.77, 103.54 -0.32, 115.64 2.28 C127.74 4.87, 139.04 10.36, 147.1 15.16 C155.16 19.95, 161.07 25.09, 164.01 31.05 C166.95 37.01, 167.9 44.84, 164.75 50.91 C161.61 56.98, 153.99 63.12, 145.13 67.47 C136.27 71.81, 123.88 75.08, 111.59 76.97 C99.3 78.86, 84.3 79.5, 71.41 78.82 C58.52 78.14, 44.61 76.3, 34.26 72.88 C23.91 69.47, 14.92 63.81, 9.3 58.32 C3.69 52.84, 0.31 46.31, 0.55 39.98 C0.79 33.65, 4.47 25.79, 10.72 20.36 C16.97 14.92, 25.51 10.77, 38.06 7.38 C50.6 3.99, 76.6 1.01, 85.99 0.01 C95.38 -0.99, 94.45 0.71, 94.39 1.39 M107.44 2.1 C119.29 2.91, 131.7 5.92, 140.67 10.18 C149.64 14.44, 157.2 21.39, 161.27 27.66 C165.34 33.93, 167.06 41.78, 165.11 47.8 C163.16 53.82, 157.45 58.81, 149.56 63.77 C141.68 68.73, 129.55 75.07, 117.81 77.58 C106.06 80.08, 91.68 79.37, 79.09 78.81 C66.5 78.25, 53.48 76.9, 42.27 74.22 C31.05 71.53, 19.03 67.91, 11.83 62.7 C4.63 57.5, -0.08 49.48, -0.95 42.99 C-1.82 36.49, 1.11 29.32, 6.6 23.74 C12.08 18.17, 22.07 13.21, 31.96 9.54 C41.86 5.87, 53.44 2.9, 65.96 1.72 C78.48 0.54, 100.5 2.51, 107.1 2.46 C113.7 2.41, 106 0.87, 105.56 1.43" stroke="#1e1e1e" stroke-width="1" fill="none"></path></g><g transform="translate(1753.825900616829 639.7241125052453) rotate(0 49.13996124267578 12.5)"><text x="49.13996124267578" y="0" font-family="Virgil, Segoe UI Emoji" font-size="20px" fill="#1e1e1e" text-anchor="middle" style="white-space: pre;" direction="ltr" dominant-baseline="text-before-edge">STOPPED</text></g><g mask="url(#mask-fVHFd4aVzgV4So3RQImrr)" stroke-linecap="round"><g transform="translate(1287.4172077928629 589.9943838311143) rotate(0 215.75959801195395 27.948763093250257)"><path d="M-0.11 0.75 C72.11 9.92, 360.73 45.47, 433.15 54.84 M-1.63 0.1 C70.44 9.38, 359.47 46.61, 432.11 55.79" stroke="#1e1e1e" stroke-width="1" fill="none"></path></g><g transform="translate(1287.4172077928629 589.9943838311143) rotate(0 215.75959801195395 27.948763093250257)"><path d="M404.1 62.12 C409.3 62.38, 421.18 58.22, 433.65 54.49 M402.83 62.99 C412.4 60.19, 419.62 58.23, 432.81 56.35" stroke="#1e1e1e" stroke-width="1" fill="none"></path></g><g transform="translate(1287.4172077928629 589.9943838311143) rotate(0 215.75959801195395 27.948763093250257)"><path d="M406.7 41.76 C411.14 47.8, 422.28 49.41, 433.65 54.49 M405.43 42.63 C414.13 45.9, 420.58 50.03, 432.81 56.35" stroke="#1e1e1e" stroke-width="1" fill="none"></path></g></g><mask id="mask-fVHFd4aVzgV4So3RQImrr"><rect x="0" y="0" fill="#fff" width="1820.7315274375399" height="745.952801070416"></rect><rect x="1329.0844384159827" y="592.9735924507651" fill="#000" width="349.9798583984375" height="50" opacity="1"></rect></mask><g transform="translate(1329.0844384159827 592.9735924507651) rotate(0 174.09236738883425 24.969554473599423)"><text x="174.98992919921875" y="0" font-family="Virgil, Segoe UI Emoji" font-size="20px" fill="#1e1e1e" text-anchor="middle" style="white-space: pre;" direction="ltr" dominant-baseline="text-before-edge">stop后，或者异常退出时DoUpdateExi</text><text x="174.98992919921875" y="25" font-family="Virgil, Segoe UI Emoji" font-size="20px" fill="#1e1e1e" text-anchor="middle" style="white-space: pre;" direction="ltr" dominant-baseline="text-before-edge">tedStatus()</text></g><g mask="url(#mask-UYNbfwGO5pqArRr2HvyoH)" stroke-linecap="round"><g transform="translate(1808.731416075072 607.7379828027917) rotate(0 1.454131877645466 -58.208667826085666)"><path d="M0.84 -0.63 C0.95 -20.17, 0.82 -98.62, 0.86 -118.08 M-0.18 1.66 C0.29 -17.67, 2.46 -97.31, 3.09 -116.93" stroke="#1e1e1e" stroke-width="1" fill="none"></path></g><g transform="translate(1808.731416075072 607.7379828027917) rotate(0 1.454131877645466 -58.208667826085666)"><path d="M11.48 -89.98 C8.52 -98.53, 6.73 -107.26, 4.9 -117.36 M13.01 -87.5 C10.57 -94.38, 8.9 -101.55, 3.55 -115.99" stroke="#1e1e1e" stroke-width="1" fill="none"></path></g><g transform="translate(1808.731416075072 607.7379828027917) rotate(0 1.454131877645466 -58.208667826085666)"><path d="M-9.03 -90.58 C-5.54 -99.08, -0.87 -107.63, 4.9 -117.36 M-7.5 -88.1 C-5.22 -94.96, -2.15 -101.98, 3.55 -115.99" stroke="#1e1e1e" stroke-width="1" fill="none"></path></g></g><mask id="mask-UYNbfwGO5pqArRr2HvyoH"><rect x="0" y="0" fill="#fff" width="1910.5093594687896" height="825.078706527355"></rect><rect x="1734.8004185946847" y="536.5676209405101" fill="#000" width="149.6399383544922" height="25" opacity="1"></rect></mask><g transform="translate(1734.8004185946847 536.5676209405101) rotate(0 75.38512935803271 12.961694036195986)"><text x="74.8199691772461" y="0" font-family="Virgil, Segoe UI Emoji" font-size="20px" fill="#1e1e1e" text-anchor="middle" style="white-space: pre;" direction="ltr" dominant-baseline="text-before-edge">Remove时开始时</text></g><g stroke-linecap="round" transform="translate(405.3365431188797 32.171504120295594) rotate(0 39.794856144831726 32.69230769230768)"><path d="M13.49 9.08 C13.49 9.08, 13.49 9.08, 13.49 9.08 M13.49 9.08 C13.49 9.08, 13.49 9.08, 13.49 9.08 M2.91 28 C7.37 22.66, 14.32 17.18, 20.36 4.82 M3.61 28.36 C5.9 23.91, 9.27 19.08, 21.37 6.12 M3.76 34.77 C11.04 26.33, 16.11 19.22, 30.32 1.27 M3.27 34.12 C11.23 25.62, 16.6 17.84, 28.69 2.8 M2.76 39.38 C10.89 28.86, 19.65 17.84, 35.22 0.88 M3.95 38.21 C10.72 31.47, 18.23 22.99, 36.26 2.65 M5.16 43.58 C10.94 35.8, 23.26 24.26, 39.81 1.07 M3.63 44.31 C15.28 32.34, 24.92 18.68, 41.16 2.53 M7.22 47.18 C17.49 37.35, 25.1 24.14, 43.66 1.55 M5.62 47.97 C19.11 34.47, 31.09 17.86, 44.93 2.15 M10.09 50.53 C21.07 37.36, 33.64 23.23, 51.11 2.87 M7.71 51.85 C22.05 36.5, 36.31 19.55, 50.66 3.32 M12.31 54.03 C20.1 43.05, 29.96 34.69, 55.65 5.34 M11.89 53.97 C26.35 35.95, 42.89 16.8, 54.66 3.71 M12.95 54.65 C30.33 40.84, 44.5 24.03, 60.51 5.08 M14.73 56.92 C32.05 36.17, 47.31 17.15, 60.31 3.6 M18.77 58.86 C32.87 42.67, 49.45 25.63, 63.81 8.78 M17.83 59.67 C33.65 41.87, 48.72 22.88, 62.47 7.38 M20.72 62.23 C29.6 48.82, 40.88 37.72, 64.31 11.12 M21.56 61.79 C30.46 50.7, 39.84 38.73, 66.43 9.75 M24.45 62.57 C36.79 48.08, 50.87 31, 68.02 13.14 M24.8 61.41 C35.82 50.89, 46.69 38.74, 69.8 12.79 M28.21 63.03 C38.24 52.56, 48.84 41.76, 70.63 15.37 M30.07 63.07 C38.74 52.76, 47.41 41.38, 72.21 13.93 M35.88 61.8 C50.12 44, 64.36 27.67, 74.04 17.44 M35.9 64.13 C49.62 47.56, 64.39 28.85, 75.06 18.2 M39.59 62.35 C50.71 52.22, 62.14 38.9, 79.51 20.73 M40.59 63.81 C51.41 50.74, 62.45 37.16, 77.94 19.72 M46.81 65.97 C52.99 52.87, 65.25 42.67, 78.93 25.97 M44.62 64.43 C53.76 54.88, 60.96 45.94, 79.11 26.01 M46.26 66.23 C54.38 57.17, 63.9 49.84, 79.73 30.39 M47.8 66.67 C58.71 55.67, 68.65 43.58, 79.74 29.87 M55.54 63.71 C64 51.76, 75.4 41.91, 80.32 34.27 M56.13 63 C64.22 54.83, 70.88 45.97, 80.5 34.75" stroke="#ffec99" stroke-width="0.5" fill="none"></path><path d="M34.45 0.96 C41.53 -0.29, 51.37 0.31, 58.38 3.18 C65.4 6.05, 73.03 12.14, 76.56 18.17 C80.09 24.21, 81.29 33.1, 79.58 39.37 C77.86 45.65, 72.05 51.66, 66.28 55.83 C60.5 59.99, 52.6 63.43, 44.93 64.37 C37.26 65.31, 27.26 64.58, 20.26 61.47 C13.26 58.36, 6.18 51.54, 2.94 45.72 C-0.29 39.89, -0.88 32.6, 0.86 26.53 C2.59 20.45, 6.05 13.77, 13.34 9.25 C20.62 4.74, 38.08 0.6, 44.56 -0.58 C51.04 -1.76, 52.26 1.37, 52.2 2.19 M47.31 1.17 C54.52 1.81, 62.65 4.87, 68.18 9.28 C73.72 13.68, 79.54 21.34, 80.53 27.6 C81.52 33.86, 77.84 40.87, 74.1 46.84 C70.37 52.81, 65.05 60.32, 58.12 63.43 C51.19 66.54, 40.33 67.05, 32.52 65.49 C24.7 63.93, 16.73 58.54, 11.23 54.05 C5.72 49.56, 0.6 44.46, -0.51 38.54 C-1.62 32.62, 0.98 24.42, 4.58 18.53 C8.19 12.64, 14.29 6.2, 21.13 3.2 C27.96 0.21, 41.29 0.82, 45.6 0.56 C49.91 0.29, 47.05 1.01, 46.99 1.61" stroke="#1e1e1e" stroke-width="1" fill="none"></path></g><g transform="translate(519.1551928021228 51.97561870392076) rotate(0 153.159912109375 12.5)"><text x="0" y="0" font-family="Virgil, Segoe UI Emoji" font-size="20px" fill="#1e1e1e" text-anchor="start" style="white-space: pre;" direction="ltr" dominant-baseline="text-before-edge">SANDBOX_STATUS_UNKNOWN</text></g><g stroke-linecap="round" transform="translate(1112.737285087279 789.3374234844265) rotate(0 85 45)"><path d="M2.38 33.87 C2.38 33.87, 2.38 33.87, 2.38 33.87 M2.38 33.87 C2.38 33.87, 2.38 33.87, 2.38 33.87 M1.34 40.39 C9.33 30.9, 15.22 23.74, 23.37 15.81 M2.65 41.22 C7.06 35.42, 12.15 29.41, 22.03 17.33 M3.95 45.91 C7.26 38.91, 16.69 29.6, 30.15 14.6 M1.59 45.51 C8.26 39.03, 13.73 32.23, 30.8 15.12 M2.74 52.68 C15.3 37.06, 28.2 24.69, 40.25 9.06 M2.34 52.81 C13.53 39.02, 26.17 24, 37.72 10.94 M4.5 54.11 C16.8 41.5, 27.43 29.62, 46.22 6.41 M4.47 54.12 C18.66 37.73, 32.81 23.01, 45.57 7.44 M7.41 59.72 C23.14 41.55, 38.59 22.27, 54.96 3.56 M7.29 58.2 C16.69 47.5, 26.58 37.11, 53.16 6.33 M9.56 62.7 C29.17 39.35, 48.59 18.09, 59.25 6.26 M9.22 61.38 C24.29 43.53, 40.64 26.45, 59.61 5.69 M11.92 63.81 C32.72 42.81, 55.06 20.74, 65.04 2.69 M11.54 65.59 C28.15 47.34, 44.73 26.77, 64.6 3.75 M15.05 68.54 C32.84 50.54, 46.67 28.43, 71.11 3.11 M13.89 67.68 C32.32 46.7, 52.29 25.73, 70.67 2.78 M15.25 72.91 C34.97 52.14, 49.39 31.93, 75.06 2.99 M17.31 71.52 C36.06 50.48, 56.71 27.38, 76.15 2.33 M22 71.93 C39.06 49.65, 60.71 28.54, 83.48 3.1 M20.4 74.51 C40.59 49.56, 61.57 25.93, 84.07 1.56 M26.14 73.9 C35.4 59.36, 49.25 45.35, 90.77 0.94 M24.38 76.2 C42.68 53.25, 61.54 32.62, 89.85 0.83 M27.93 77.86 C49.89 51.56, 71.96 26.69, 95.24 0.57 M27.95 77.79 C52.41 50.43, 74.56 22.74, 94.14 1.76 M31.89 80.89 C49.24 58.6, 68.81 38.85, 97.17 3.75 M30.88 79.76 C47.4 60.77, 62.94 43.28, 97.77 2.5 M34.87 80.02 C61.53 51.91, 87.12 23.17, 102.38 1.55 M35.01 81.86 C54.16 57.54, 75.19 35.92, 102.08 3.56 M38.24 82.13 C63.96 51.35, 91.92 21.44, 108.93 4.76 M39.13 83.23 C54.05 66.98, 67.52 50.3, 108.46 4.41 M44.62 85.03 C57.48 63.91, 73.71 48.81, 114 3.73 M42.62 83.69 C66.83 55.29, 92.34 28.19, 112.02 5.49 M46.76 87.11 C71.82 56.91, 97.87 27.02, 119.27 4.27 M47.08 87.55 C62.74 68.45, 79.69 49.95, 117.78 4.32 M51.49 88.18 C67.19 68.28, 85.58 47.79, 122.4 6.76 M51.12 86.67 C69.04 69.21, 84.98 50.1, 123.01 4.78 M57.43 87.43 C71.63 70.73, 86.99 48.7, 126.55 6.54 M56.87 86.54 C77.62 64.82, 97.38 40.3, 125.51 7.67 M61.57 89.72 C81.14 61.32, 104.45 37.72, 128.37 7.25 M61.39 88.84 C81.9 65.18, 103.94 42.19, 130.43 8.3 M64.15 90.72 C86.98 64.01, 111.14 37.44, 135.61 10.24 M66.34 88.71 C80.71 71.16, 98.27 52.98, 134.69 10.03 M68.13 92.07 C92.58 66.67, 115.06 39.56, 136.47 10.44 M70.28 90.15 C85.87 70.95, 100.76 52.73, 137.17 12.33 M76.58 89.24 C90.65 74.15, 104.7 56.97, 141.1 13.23 M74.87 89.98 C89.24 73.46, 102.59 57.21, 140.97 13.86 M80.22 90.61 C101.81 68.49, 122.07 44.29, 146.4 15.56 M79.21 91.22 C93.96 74.69, 108.11 58.72, 145.08 15.79 M83.51 93.19 C105.74 68.4, 129.17 39.27, 148.14 19.82 M84.76 92.89 C98.57 75.39, 113.21 57.58, 149.23 17.82 M91.4 93.39 C103.82 73.53, 120.36 54.33, 153.05 19.75 M90.88 91.04 C105.83 72.06, 122.13 53.11, 152.92 20.28 M96.2 90.97 C118.91 64.84, 140.87 39.5, 155 22.25 M96.54 90.89 C111.39 71.45, 127.97 54.06, 156.3 22.19 M103.67 88.64 C117.16 69.64, 135.07 53.16, 158.43 26.09 M101.21 90.54 C122.89 67.14, 143.46 43.73, 158.43 24.05 M107.78 90.92 C123.22 72.61, 140.71 54.65, 159.81 26.21 M108.42 90.12 C121.86 73.22, 135.82 55.97, 161.61 28.44 M112.89 88.29 C127.99 69.28, 146.34 51.72, 163.73 31.62 M114.76 88.05 C131.11 70.22, 146.11 52.44, 164.25 32.02 M120.49 88.56 C131.6 74.54, 145.14 57.68, 165.76 32.8 M119.47 86.61 C130.36 77.57, 139.01 64.82, 166.5 35.15 M129.33 82.2 C139.28 74.85, 145.4 64.53, 169.21 38.78 M129.31 83.53 C139.36 70.82, 149.18 59.57, 167.9 37.21 M136.32 80.57 C142.42 71.34, 150.38 64.06, 166.62 46.09 M136.33 80.27 C143.61 73.3, 149.28 65.69, 167.61 43.62 M144.5 76.69 C150.72 73.1, 154.02 66.29, 167.1 52.28 M144.61 79.12 C149.19 71.41, 155.51 66.53, 166.63 51.65" stroke="#ffc9c9" stroke-width="0.5" fill="none"></path><path d="M124.16 5.37 C135.01 7.78, 146.65 14.02, 153.94 19.27 C161.24 24.52, 165.88 30.64, 167.93 36.87 C169.98 43.1, 169.32 50.26, 166.22 56.65 C163.12 63.05, 157.14 70.35, 149.33 75.25 C141.52 80.16, 130.5 83.66, 119.35 86.1 C108.19 88.54, 94.85 90.1, 82.41 89.9 C69.97 89.7, 55.74 88.08, 44.7 84.92 C33.66 81.76, 23.23 76.28, 16.17 70.94 C9.1 65.6, 4.63 59.02, 2.3 52.88 C-0.03 46.74, -0.95 40.33, 2.18 34.09 C5.31 27.85, 12.83 20.39, 21.08 15.43 C29.33 10.47, 40.52 6.92, 51.67 4.32 C62.83 1.72, 73.6 -1.16, 87.98 -0.17 C102.37 0.82, 128.32 7.77, 137.99 10.26 C147.65 12.75, 147.01 14.35, 145.97 14.77 M70.41 0.59 C81.55 -0.88, 95.62 1.11, 107.34 2.74 C119.06 4.36, 131.15 6.21, 140.71 10.34 C150.28 14.46, 160.1 21.29, 164.75 27.5 C169.39 33.7, 169.23 40.89, 168.57 47.58 C167.91 54.26, 166.64 61.9, 160.8 67.61 C154.96 73.32, 143.56 78.06, 133.53 81.85 C123.5 85.63, 112.8 89.09, 100.61 90.31 C88.43 91.53, 72.66 91.08, 60.42 89.15 C48.18 87.22, 36.38 83.2, 27.18 78.74 C17.97 74.27, 9.84 68.54, 5.2 62.38 C0.56 56.22, -1.6 48.16, -0.67 41.77 C0.26 35.39, 4.56 29.71, 10.76 24.08 C16.96 18.45, 26.72 12.05, 36.53 7.99 C46.34 3.93, 63.85 0.71, 69.64 -0.28 C75.42 -1.28, 70.9 1.25, 71.26 2.02" stroke="#1e1e1e" stroke-width="1" fill="none"></path></g><g transform="translate(1150.2632364574185 822.0176183310318) rotate(0 47.369972229003906 12.5)"><text x="47.369972229003906" y="0" font-family="Virgil, Segoe UI Emoji" font-size="20px" fill="#1e1e1e" text-anchor="middle" style="white-space: pre;" direction="ltr" dominant-baseline="text-before-edge">PENDING</text></g><g stroke-linecap="round" transform="translate(220.4592699505613 509.61533689588464) rotate(0 84.5 47.5)"><path d="M12.13 22.47 C12.13 22.47, 12.13 22.47, 12.13 22.47 M12.13 22.47 C12.13 22.47, 12.13 22.47, 12.13 22.47 M3.82 37.79 C6.76 30.98, 13.48 27.57, 22.98 15.09 M3.58 38.52 C7.85 34.96, 11.63 28.8, 22.03 15.18 M3.02 46.29 C10.94 33.92, 22.6 26.22, 33.75 8.33 M2.42 46.45 C8.32 37.07, 15.62 29.95, 34.47 9.81 M4.63 50.01 C18.01 34.42, 30.06 19.47, 41.77 10.44 M4.39 51.57 C12.43 38.61, 22.66 27.94, 41.01 9.15 M6.59 54.76 C19.12 39.17, 28.95 25.69, 46 8.24 M5.41 54.77 C17.53 40.4, 29.63 26.09, 46.92 8.07 M8.17 59.42 C17.39 48.7, 28.31 34.03, 51.94 7.02 M6.99 59.8 C20.24 44.45, 32.74 30.24, 53.52 5.39 M7.44 64.33 C27.01 42.82, 45.86 19.82, 60.29 3.15 M6.44 65.85 C21.77 46.86, 39.47 27.45, 59.74 4.68 M9.92 67.86 C22 53.77, 31.41 42.67, 67.15 1.96 M8.41 68.32 C25.59 47.59, 42.94 27.98, 65.04 4.32 M11.64 71.39 C34.5 48.08, 56.27 21.59, 74.06 1.34 M12.74 71.97 C35.21 44.79, 56.2 19.44, 74.35 1.27 M15.04 71.58 C29.52 53.97, 43.81 38.54, 78.97 0.15 M15.17 73.4 C37.99 47.42, 59.85 21.82, 77.77 1.77 M19.23 77.08 C37.04 57.28, 52.31 40.44, 84.07 2.05 M18.37 75.9 C33.01 60.08, 45.98 45.51, 83.27 1.2 M20 77.82 C45.18 52.84, 70.33 24.74, 88.17 2.9 M20.85 78.99 C36.53 61.23, 51.69 44.18, 87.85 1.8 M23.37 81.96 C40.18 62.17, 61.03 40.09, 94.03 0.9 M25.25 81.52 C47 55.17, 67.5 30.68, 93.72 0.91 M26.33 84.96 C44.61 64.86, 60.6 48.44, 100.56 2.44 M27.91 82.94 C47.34 60.98, 66.23 39.73, 99.27 3.05 M29.65 86.76 C52.25 60.1, 72.93 39.83, 102.87 3.99 M30.51 84.64 C50.47 64.53, 68.75 43.41, 103.97 2 M36.67 87.09 C51.29 69.81, 65.38 50.3, 108.47 1.95 M35.66 87.48 C57.39 61.87, 80.21 36.38, 109.32 2.84 M41.46 87.41 C57.93 67.46, 76.54 44.97, 112.02 4.08 M39.87 87.92 C58.91 66.7, 78.63 44.66, 112.52 5.52 M45.56 87.99 C65.24 67.26, 84.52 45.5, 116.08 6.05 M43.12 89.27 C63.63 66.55, 83.61 44.42, 115.93 5.67 M48.08 91.54 C79.19 56.89, 107.36 23.2, 121.34 8.13 M47.74 91.51 C70.26 65.64, 90 42.17, 120.14 7.4 M53.94 93.61 C73.26 66.1, 96.08 40.63, 125.99 9.28 M51.48 91.88 C77.12 62.52, 102.23 33, 126.19 7.66 M55.88 94.2 C81.26 65.12, 102.29 39.39, 128.55 10.54 M56.37 94.66 C80.97 64.14, 106.25 35.79, 129.19 9.73 M60.63 93.36 C89.33 63.02, 117.78 30.88, 134.64 9.88 M59.61 95.01 C81 71.6, 100.63 49.53, 133.87 10.35 M65.69 96.87 C82.98 76.18, 98.88 56.46, 137.14 12.63 M65.26 94.77 C92.1 63.25, 118.68 33.45, 137.6 12.25 M72.83 96.56 C93.52 70.63, 118.19 42.4, 143.61 13.54 M70.5 95.03 C99.94 61.68, 128.39 29.62, 142.6 12.44 M74.86 93.73 C90.5 78.99, 108.78 59.95, 143.8 15.95 M75.22 95.68 C101.45 66.7, 128.53 35.67, 146.28 15.61 M83.02 97.24 C104.05 69.23, 127.35 40.64, 149.69 16.64 M80.24 95.73 C97.34 77.28, 112.67 59.31, 148.05 17.07 M84.55 96.41 C110.47 67.12, 138.26 34.51, 153.01 19.2 M85.66 96.37 C101.23 78.86, 118.13 59.83, 151.72 20.39 M92.06 97.36 C114.99 70.93, 133.67 47.9, 155.38 21.71 M91.06 95.54 C112.52 71.22, 132.41 48.54, 154.36 23.22 M98.37 94.44 C110 79.03, 122.44 67.52, 156.37 26.53 M97.18 93.47 C119.34 68.1, 141.95 44.17, 157.29 25.29 M104.62 92.06 C117.86 75.82, 133.24 59.62, 161.69 30.25 M104.81 92.78 C125.01 69.47, 146.11 45.64, 160.97 28.55 M109.76 93.08 C123.78 75.25, 137.72 59.36, 163.3 29.51 M111.05 93.02 C125.47 77.22, 137.85 60.38, 163.99 31.18 M118.59 88.68 C132.65 70.22, 151.73 50.06, 167.48 34.93 M118.28 90.72 C132.08 74.56, 143.96 59.05, 165.94 33.66 M123.32 87.26 C138.7 73.21, 151.06 57.32, 169.07 39.19 M124.43 88.49 C136.24 75.38, 147.42 63.61, 168.43 39.1 M132.28 87 C137.89 78.86, 149.48 68.24, 170.11 43.4 M130.54 87.77 C142.67 71.58, 157.01 57.83, 168.6 41.78 M142.04 81.8 C151.12 70.19, 160.65 61.01, 171.41 48.76 M141.68 80.93 C148.89 72.48, 155.4 63.8, 171.47 46.99 M153.71 72.66 C159.17 66.63, 162.64 62.02, 170.65 51.68 M154.09 72.9 C157.84 67.79, 162.11 63.89, 170.82 52.3" stroke="#ffec99" stroke-width="0.5" fill="none"></path><path d="M72.79 0.29 C84.13 -1.19, 98.21 0.74, 109.85 2.71 C121.49 4.68, 133.64 7.34, 142.65 12.1 C151.66 16.85, 159.49 24.81, 163.89 31.24 C168.3 37.66, 170.31 44, 169.07 50.67 C167.84 57.33, 162.89 65.23, 156.49 71.22 C150.09 77.22, 140.57 82.81, 130.67 86.63 C120.76 90.46, 109.12 93.1, 97.04 94.16 C84.96 95.22, 70.09 94.96, 58.19 92.98 C46.29 91.01, 34.4 86.95, 25.62 82.32 C16.83 77.68, 9.66 71.6, 5.46 65.17 C1.26 58.74, -0.68 50.84, 0.43 43.72 C1.55 36.59, 5.87 28.54, 12.17 22.43 C18.47 16.32, 26.7 10.92, 38.22 7.06 C49.74 3.19, 72.48 0.28, 81.28 -0.77 C90.07 -1.82, 90.8 -0.03, 90.98 0.78 M64.74 2.51 C75.99 0.39, 92.11 0.02, 104.21 1.26 C116.31 2.49, 127.83 5.63, 137.34 9.91 C146.84 14.18, 156 20.58, 161.23 26.91 C166.45 33.23, 168.75 41.01, 168.7 47.85 C168.64 54.7, 165.95 61.83, 160.9 67.96 C155.84 74.08, 147.94 80.27, 138.36 84.6 C128.77 88.94, 115.63 92.49, 103.39 93.96 C91.15 95.43, 77.01 95.12, 64.9 93.4 C52.8 91.68, 40.08 87.95, 30.78 83.65 C21.48 79.35, 14.14 73.42, 9.11 67.58 C4.09 61.74, 0.57 55.56, 0.63 48.61 C0.68 41.66, 4.47 32.29, 9.44 25.88 C14.41 19.47, 21.29 14.33, 30.45 10.17 C39.61 6.01, 58.43 2.06, 64.39 0.93 C70.36 -0.21, 65.52 2.62, 66.25 3.38" stroke="#1e1e1e" stroke-width="1" fill="none"></path></g><g transform="translate(257.8987722698878 544.5277647895236) rotate(0 47.309974670410156 12.5)"><text x="47.309974670410156" y="0" font-family="Virgil, Segoe UI Emoji" font-size="20px" fill="#1e1e1e" text-anchor="middle" style="white-space: pre;" direction="ltr" dominant-baseline="text-before-edge">UNKNOWN</text></g><g mask="url(#mask-DDl-1fkMZ_Fxw8wzw4xci)" stroke-linecap="round"><g transform="translate(9.762598691145058 559.9138719553107) rotate(0 105.81997941986072 0.7898662910119469)"><path d="M1.11 0.78 C36.41 0.99, 176.5 0.21, 211.4 0.31 M0.24 0.14 C35.4 0.57, 174.96 1, 210.4 1.44" stroke="#1e1e1e" stroke-width="1" fill="none"></path></g><g transform="translate(9.762598691145058 559.9138719553107) rotate(0 105.81997941986072 0.7898662910119469)"><path d="M183.43 11.33 C188.56 6.88, 197.91 7.81, 210.39 2.69 M182.36 12.05 C188.38 10.05, 194.52 8.25, 210.98 1.09" stroke="#1e1e1e" stroke-width="1" fill="none"></path></g><g transform="translate(9.762598691145058 559.9138719553107) rotate(0 105.81997941986072 0.7898662910119469)"><path d="M183.58 -9.19 C188.51 -8.1, 197.81 -1.65, 210.39 2.69 M182.51 -8.47 C188.38 -6.13, 194.49 -3.58, 210.98 1.09" stroke="#1e1e1e" stroke-width="1" fill="none"></path></g></g><mask id="mask-DDl-1fkMZ_Fxw8wzw4xci"><rect x="0" y="0" fill="#fff" width="321.26301962869945" height="660.9834685031253"></rect><rect x="68.63285005347689" y="547.948670229218" fill="#000" width="93.75991821289062" height="25" opacity="1"></rect></mask><g transform="translate(68.63285005347689 547.948670229218) rotate(0 46.94972805752889 12.755068017104634)"><text x="46.87995910644531" y="0" font-family="Virgil, Segoe UI Emoji" font-size="20px" fill="#1e1e1e" text-anchor="middle" style="white-space: pre;" direction="ltr" dominant-baseline="text-before-edge">Sandbox()</text></g><g mask="url(#mask-qS8P_aLtzUubzPc_GNQPe)" stroke-linecap="round"><g transform="translate(1238.2614052831445 608.1966347039121) rotate(0 52.06087206780401 89.42987213975924)"><path d="M0.56 -0.52 C18.12 16.7, 106.75 73.07, 106.3 102.9 C105.84 132.73, 15.94 165.92, -2.18 178.46 M-0.6 1.82 C16.68 18.73, 104.98 71.52, 105.14 101.11 C105.29 130.71, 18.29 166.46, 0.32 179.38" stroke="#1e1e1e" stroke-width="1" fill="none"></path></g><g transform="translate(1238.2614052831445 608.1966347039121) rotate(0 52.06087206780401 89.42987213975924)"><path d="M19.1 156.04 C13.48 164.19, 3.66 172.48, -1.51 177.78 M18.98 156.6 C13.24 162.82, 8.63 169.9, 1.25 178.64" stroke="#1e1e1e" stroke-width="1" fill="none"></path></g><g transform="translate(1238.2614052831445 608.1966347039121) rotate(0 52.06087206780401 89.42987213975924)"><path d="M29.08 173.98 C19.72 175.34, 6.1 176.8, -1.51 177.78 M28.95 174.53 C20.17 175.13, 12.46 176.65, 1.25 178.64" stroke="#1e1e1e" stroke-width="1" fill="none"></path></g></g><mask id="mask-qS8P_aLtzUubzPc_GNQPe"><rect x="0" y="0" fill="#fff" width="1446.384354189713" height="887.4165143599118"></rect><rect x="1251.8393511273187" y="697.9487210918484" fill="#000" width="186.23983764648438" height="25" opacity="1"></rect></mask><g transform="translate(1251.8393511273187 697.9487210918484) rotate(0 38.48292622362996 -0.32221424817701916)"><text x="93.11991882324219" y="0" font-family="Virgil, Segoe UI Emoji" font-size="20px" fill="#1e1e1e" text-anchor="middle" style="white-space: pre;" direction="ltr" dominant-baseline="text-before-edge">OnSandboxPending()</text></g><g mask="url(#mask-vrTkf7VKMstFO6tWuX4YN)" stroke-linecap="round"><g transform="translate(1117.1814582643628 795.5251777874879) rotate(0 -10.16857883427545 -98.69752078458626)"><path d="M-0.77 -0.08 C-11.42 -15.09, -70.83 -56.47, -63.37 -89.03 C-55.91 -121.6, 26.1 -177.78, 43.98 -195.49 M1.03 -1.16 C-9.74 -15.98, -70.76 -57.96, -63.75 -90.65 C-56.75 -123.34, 25.12 -179.55, 43.08 -197.32" stroke="#1e1e1e" stroke-width="1" fill="none"></path></g><g transform="translate(1117.1814582643628 795.5251777874879) rotate(0 -10.16857883427545 -98.69752078458626)"><path d="M27.85 -169.61 C34.57 -180.67, 39.79 -189.75, 45 -196.25 M28 -171.51 C32.15 -178.42, 35.62 -185.42, 43.32 -197.57" stroke="#1e1e1e" stroke-width="1" fill="none"></path></g><g transform="translate(1117.1814582643628 795.5251777874879) rotate(0 -10.16857883427545 -98.69752078458626)"><path d="M14.72 -185.38 C26.11 -190.92, 35.87 -194.55, 45 -196.25 M14.87 -187.28 C22.58 -189.68, 29.71 -192.3, 43.32 -197.57" stroke="#1e1e1e" stroke-width="1" fill="none"></path></g></g><mask id="mask-vrTkf7VKMstFO6tWuX4YN"><rect x="0" y="0" fill="#fff" width="1325.8571326891115" height="1091.9847241942125"></rect><rect x="964.6271496909578" y="693.0251777874876" fill="#000" width="176.21986389160156" height="25" opacity="1"></rect></mask><g transform="translate(964.6271496909579 693.0251777874876) rotate(0 142.38572973912957 3.802479215414081)"><text x="88.10993194580078" y="0" font-family="Virgil, Segoe UI Emoji" font-size="20px" fill="#1e1e1e" text-anchor="middle" style="white-space: pre;" direction="ltr" dominant-baseline="text-before-edge">OnSandboxReady()</text></g></svg>